<svg width="24" height="24" viewBox="0 0 24 24" fill="none" xmlns="http://www.w3.org/2000/svg">
<g id="mingcute:alert-line">
<g id="Group">
<path id="Vector" d="M13.2992 3.14795L21.9332 18.1019C22.0648 18.33 22.1341 18.5886 22.1341 18.8519C22.1341 19.1152 22.0648 19.3739 21.9332 19.6019C21.8015 19.83 21.6122 20.0193 21.3842 20.151C21.1561 20.2826 20.8975 20.3519 20.6342 20.3519H3.36617C3.10287 20.3519 2.84421 20.2826 2.61619 20.151C2.38816 20.0193 2.19881 19.83 2.06716 19.6019C1.93552 19.3739 1.86621 19.1152 1.86621 18.8519C1.86621 18.5886 1.93552 18.33 2.06717 18.1019L10.7012 3.14795C11.2782 2.14795 12.7212 2.14795 13.2992 3.14795Z" fill="#FFAA01"/>
<g id="Vector_2">
<path d="M12.6288 14.7603C12.4621 14.5937 12.236 14.5 12.0002 14.5C11.7645 14.5 11.5384 14.5937 11.3717 14.7603C11.205 14.927 11.1113 15.1531 11.1113 15.3889C11.1113 15.6246 11.205 15.8507 11.3717 16.0174C11.5384 16.1841 11.7645 16.2778 12.0002 16.2778C12.236 16.2778 12.4621 16.1841 12.6288 16.0174C12.7955 15.8507 12.8891 15.6246 12.8891 15.3889C12.8891 15.1531 12.7955 14.927 12.6288 14.7603Z" fill="#464646"/>
<path d="M12.6288 8.26035C12.4621 8.09365 12.236 8 12.0002 8C11.7645 8 11.5384 8.09365 11.3717 8.26035C11.205 8.42705 11.1113 8.65314 11.1113 8.88889V13.1111C11.1113 13.3469 11.205 13.5729 11.3717 13.7396C11.5384 13.9063 11.7645 14 12.0002 14C12.236 14 12.4621 13.9063 12.6288 13.7396C12.7955 13.5729 12.8891 13.3469 12.8891 13.1111V8.88889C12.8891 8.65314 12.7955 8.42705 12.6288 8.26035Z" fill="#464646"/>
</g>
</g>
</g>
</svg>
