<svg width="12" height="14" viewBox="0 0 12 14" fill="none" xmlns="http://www.w3.org/2000/svg">
<g id="Calendar">
<path id="Calendar_2" fill-rule="evenodd" clip-rule="evenodd" d="M8.94059 0.845419L8.94125 1.34517C10.7777 1.4891 11.9908 2.74047 11.9927 4.65951L12 10.2767C12.0026 12.369 10.6882 13.6563 8.5812 13.6597L3.43459 13.6663C1.3408 13.669 0.00987771 12.351 0.00724484 10.2527L4.43317e-06 4.70149C-0.00262844 2.76979 1.16768 1.52175 3.00411 1.35317L3.00346 0.853415C3.0028 0.560229 3.22001 0.339673 3.50963 0.339673C3.79924 0.339006 4.01646 0.558896 4.01711 0.852083L4.01777 1.31852L7.92759 1.31318L7.92693 0.846752C7.92627 0.553565 8.14349 0.333676 8.4331 0.333009C8.71614 0.332343 8.93993 0.552233 8.94059 0.845419ZM1.01433 4.90738L10.9798 4.89405V4.66084C10.9515 3.22822 10.2327 2.4766 8.94257 2.36465L8.94323 2.87773C8.94323 3.16425 8.72009 3.39147 8.43706 3.39147C8.14744 3.39214 7.92957 3.16558 7.92957 2.87906L7.92891 2.33933L4.0191 2.34466L4.01975 2.88373C4.01975 3.17091 3.8032 3.39747 3.51358 3.39747C3.22397 3.39813 3.0061 3.17225 3.0061 2.88506L3.00544 2.37198C1.72191 2.50058 1.0117 3.25487 1.01367 4.70015L1.01433 4.90738ZM8.15997 7.93585V7.94318C8.16656 8.24969 8.41668 8.48224 8.72012 8.47558C9.01632 8.46825 9.25262 8.21438 9.24604 7.90786C9.23221 7.61468 8.9946 7.37547 8.69906 7.37613C8.39627 7.38279 8.15932 7.62934 8.15997 7.93585ZM8.70366 10.9276C8.40088 10.9209 8.15668 10.6684 8.15602 10.3619C8.14944 10.0553 8.39232 9.80147 8.6951 9.79414H8.70168C9.01105 9.79414 9.26183 10.0467 9.26183 10.3599C9.26249 10.673 9.01236 10.9269 8.70366 10.9276ZM5.44806 7.94643C5.46122 8.25294 5.71201 8.49215 6.01479 8.47883C6.31098 8.46483 6.54729 8.21163 6.53412 7.90511C6.52688 7.60526 6.28334 7.37205 5.98714 7.37271C5.68436 7.38604 5.4474 7.63991 5.44806 7.94643ZM6.01723 10.8975C5.71445 10.9109 5.46432 10.6716 5.4505 10.3651C5.4505 10.0586 5.6868 9.80541 5.98958 9.79141C6.28578 9.79075 6.52998 10.024 6.53656 10.3231C6.55038 10.6303 6.31342 10.8835 6.01723 10.8975ZM2.7365 7.96995C2.74966 8.27647 3.00045 8.51635 3.30323 8.50235C3.59942 8.48903 3.83572 8.23515 3.8219 7.92864C3.81532 7.62879 3.57178 7.39557 3.27492 7.39624C2.97214 7.40956 2.73584 7.66344 2.7365 7.96995ZM3.30549 10.901C3.00271 10.915 2.75259 10.6751 2.73876 10.3686C2.73811 10.0621 2.97506 9.80823 3.27785 9.7949C3.57404 9.79423 3.81824 10.0274 3.82482 10.3273C3.83865 10.6338 3.60235 10.8877 3.30549 10.901Z" fill="#C0C1C3"/>
</g>
</svg>
