<svg width="24" height="24" viewBox="0 0 24 24" fill="none" xmlns="http://www.w3.org/2000/svg">
<g id="Layer_1" clip-path="url(#clip0_1241_35662)">
<path id="Vector" d="M23.317 10.263C23.613 9.813 23.829 9.306 23.925 8.771C23.97 8.529 24.001 8.282 24 8.027C24 8.027 24 8.025 24 8.024C23.987 7.934 23.975 7.852 23.961 7.762V7.757C23.961 7.757 23.959 7.753 23.959 7.75L23.296 5.432L22.803 3.706C22.183 1.534 20.197 0.0359993 17.938 0.0359993H17.059C17.026 0.0359993 17 0.0619993 17 0.0949993V4.036C17 4.588 16.552 5.036 16 5.036C15.448 5.036 15 4.588 15 4.036V0.0959993C15 0.0629993 14.974 0.0369993 14.941 0.0369993H9.059C9.026 0.0369993 9 0.0629993 9 0.0959993V4.037C9 4.589 8.552 5.037 8 5.037C7.448 5.037 7 4.589 7 4.037V0.0959993C7 0.0629993 6.974 0.0369993 6.941 0.0369993H6.061C3.802 0.0369993 1.817 1.535 1.197 3.707L0.685 5.501L0.041 7.751C0.041 7.751 0.041 7.755 0.041 7.757L0.039 7.762C0.025 7.852 0.013 7.934 0 8.024V8.026C0 8.281 0.03 8.529 0.075 8.77C0.256 9.771 0.85 10.705 1.681 11.278C2.339 11.751 3.141 12.036 4.013 12.036H5C6.178 12.036 7.228 11.513 7.96 10.699C7.982 10.674 8.018 10.674 8.04 10.699C8.772 11.513 9.822 12.036 11 12.036H13C14.178 12.036 15.228 11.513 15.96 10.699C15.982 10.674 16.018 10.674 16.04 10.699C16.772 11.513 17.822 12.036 19 12.036H19.987C20.859 12.036 21.661 11.751 22.319 11.278C22.709 11.021 23.044 10.647 23.317 10.263Z" fill="#D11243"/>
<g id="Group">
<path id="Vector_2" d="M19.8087 16.2413L18.6762 17.3769L14.5109 13.2171C14.6379 13.1683 14.77 13.1002 14.8925 13.0294C15.2477 12.8244 15.5649 12.5677 15.8223 12.264L19.8087 16.2413Z" fill="black"/>
<path id="Vector_3" d="M9.55958 13.3117L5.34103 17.2727L4.23371 16.2311L8.27831 12.4323C8.62082 12.8219 9.0624 13.1176 9.55958 13.3117Z" fill="black"/>
</g>
<path id="Vector_4" d="M20.0032 15H3.99684C1.78944 15 0 16.6495 0 18.6844V20.3156C0 22.3505 1.78944 24 3.99684 24H20.0032C22.2106 24 24 22.3505 24 20.3156V18.6844C24 16.6495 22.2106 15 20.0032 15Z" fill="#FFAC1C"/>
<g id="Group_2">
<path id="Vector_5" d="M5.693 18.773C5.811 18.773 5.919 18.79 6.014 18.822C6.111 18.855 6.218 18.915 6.338 19.005C6.52 19.127 6.733 19.124 6.854 18.969C6.913 18.896 6.942 18.809 6.942 18.709C6.942 18.64 6.929 18.579 6.905 18.523C6.879 18.467 6.838 18.419 6.784 18.377C6.636 18.255 6.464 18.161 6.272 18.096C6.083 18.033 5.879 18.001 5.667 18.001C5.336 18.001 5.04 18.074 4.788 18.219C4.534 18.365 4.337 18.576 4.201 18.846C4.068 19.111 4 19.423 4 19.775C4 20.127 4.067 20.441 4.201 20.706C4.337 20.978 4.534 21.19 4.788 21.336C5.04 21.481 5.335 21.554 5.667 21.554C5.88 21.554 6.084 21.522 6.272 21.458C6.463 21.394 6.636 21.299 6.78 21.181C6.838 21.136 6.88 21.084 6.907 21.024C6.93 20.97 6.942 20.911 6.942 20.846C6.942 20.745 6.912 20.658 6.855 20.587C6.756 20.462 6.585 20.438 6.459 20.49C6.421 20.505 6.384 20.523 6.339 20.55C6.211 20.636 6.098 20.697 6.001 20.731C5.908 20.764 5.805 20.781 5.693 20.781C5.425 20.781 5.232 20.703 5.1 20.543C4.963 20.377 4.894 20.119 4.894 19.775C4.894 19.434 4.963 19.177 5.101 19.01C5.232 18.85 5.426 18.772 5.693 18.772V18.773Z" fill="#0D0D0E"/>
<path id="Vector_6" d="M9.45997 20.737H8.34697V18.457C8.34697 18.331 8.30397 18.222 8.22397 18.142C8.06197 17.982 7.75397 17.978 7.58897 18.142C7.50797 18.222 7.46497 18.331 7.46497 18.457V21.094C7.46497 21.248 7.52797 21.344 7.58097 21.398C7.65797 21.475 7.76197 21.514 7.88997 21.514H9.45997C9.72397 21.514 9.88097 21.369 9.88097 21.126C9.88097 20.883 9.72397 20.737 9.45997 20.737Z" fill="#0D0D0E"/>
<path id="Vector_7" d="M12.5491 18.219C12.3011 18.074 12.0051 18.001 11.6701 18.001C11.3351 18.001 11.0401 18.074 10.7891 18.219C10.5361 18.366 10.3401 18.577 10.2051 18.847C10.0741 19.111 10.0081 19.424 10.0081 19.775C10.0081 20.126 10.0751 20.441 10.2091 20.706C10.3451 20.977 10.5411 21.189 10.7921 21.335C11.0401 21.48 11.3361 21.554 11.6701 21.554C12.0021 21.554 12.2961 21.48 12.5441 21.336C12.7951 21.19 12.9911 20.978 13.1271 20.707C13.2611 20.441 13.3281 20.128 13.3281 19.776C13.3281 19.424 13.2611 19.111 13.1301 18.848C12.9961 18.578 12.8011 18.366 12.5491 18.219ZM12.4461 19.775C12.4461 20.114 12.3761 20.372 12.2351 20.544C12.1001 20.71 11.9161 20.791 11.6701 20.791C11.4221 20.791 11.2351 20.71 11.1001 20.544C10.9591 20.372 10.8891 20.113 10.8891 19.775C10.8891 19.437 10.9591 19.18 11.1001 19.008C11.2351 18.843 11.4211 18.763 11.6701 18.763C11.9161 18.763 12.1021 18.843 12.2351 19.008C12.3761 19.178 12.4461 19.436 12.4461 19.775Z" fill="#0D0D0E"/>
<path id="Vector_8" d="M15.958 19.613C15.783 19.536 15.555 19.466 15.28 19.404C14.988 19.338 14.853 19.278 14.791 19.238C14.73 19.2 14.705 19.154 14.705 19.082C14.705 18.984 14.739 18.915 14.818 18.861C14.91 18.797 15.044 18.764 15.215 18.764C15.363 18.764 15.488 18.783 15.587 18.82C15.691 18.859 15.799 18.919 15.924 19.01C15.977 19.04 16.019 19.06 16.048 19.07C16.147 19.105 16.283 19.148 16.433 18.966C16.492 18.893 16.522 18.806 16.522 18.708C16.522 18.634 16.508 18.572 16.48 18.518C16.454 18.469 16.415 18.423 16.361 18.377C16.064 18.127 15.678 18 15.215 18C14.961 18 14.728 18.046 14.523 18.136C14.312 18.229 14.143 18.362 14.022 18.531C13.899 18.704 13.836 18.901 13.836 19.117C13.836 19.328 13.888 19.508 13.99 19.65C14.09 19.788 14.236 19.901 14.424 19.986C14.596 20.065 14.822 20.135 15.097 20.194C15.336 20.247 15.506 20.302 15.603 20.356C15.68 20.399 15.691 20.445 15.691 20.488C15.691 20.584 15.658 20.649 15.584 20.697C15.492 20.757 15.35 20.788 15.162 20.788C15.006 20.788 14.863 20.769 14.737 20.731C14.613 20.695 14.492 20.634 14.367 20.544C14.161 20.42 13.974 20.436 13.855 20.584C13.795 20.657 13.764 20.745 13.764 20.843C13.764 20.983 13.821 21.099 13.923 21.176C14.066 21.293 14.252 21.385 14.477 21.453C14.695 21.518 14.93 21.552 15.175 21.552C15.436 21.552 15.673 21.508 15.879 21.421C16.091 21.331 16.259 21.202 16.378 21.038C16.5 20.87 16.563 20.675 16.563 20.457C16.563 20.254 16.507 20.079 16.398 19.937C16.294 19.804 16.146 19.694 15.958 19.611V19.613Z" fill="#0D0D0E"/>
<path id="Vector_9" d="M19.1661 18.8C19.2891 18.8 19.3911 18.768 19.4661 18.703C19.5231 18.655 19.5911 18.566 19.5911 18.416C19.5911 18.267 19.5221 18.18 19.4641 18.133C19.3891 18.071 19.2891 18.041 19.1661 18.041H17.5421C17.4151 18.041 17.3121 18.079 17.2311 18.156C17.1761 18.209 17.1121 18.306 17.1121 18.465V21.089C17.1121 21.248 17.1761 21.345 17.2331 21.4C17.3111 21.475 17.4151 21.513 17.5421 21.513H19.1661C19.2891 21.513 19.3891 21.482 19.4641 21.421C19.5221 21.374 19.5911 21.287 19.5911 21.138C19.5911 20.987 19.5231 20.898 19.4661 20.85C19.3911 20.786 19.2901 20.754 19.1661 20.754H17.9801V20.127H19.0761C19.1971 20.127 19.2981 20.097 19.3741 20.035C19.4321 19.988 19.5011 19.901 19.5011 19.752C19.5011 19.6 19.4321 19.511 19.3721 19.463C19.2961 19.403 19.1961 19.373 19.0761 19.373H17.9801V18.8H19.1661Z" fill="#0D0D0E"/>
</g>
</g>
<defs>
<clipPath id="clip0_1241_35662">
<rect width="24" height="23.926" fill="white" transform="translate(0 0.0369987)"/>
</clipPath>
</defs>
</svg>
