<svg width="8" height="8" viewBox="0 0 8 8" fill="none" xmlns="http://www.w3.org/2000/svg">
<path id="Icon" fill-rule="evenodd" clip-rule="evenodd" d="M4.80797 4.00007L7.83243 0.975554C8.05585 0.752129 8.05585 0.390993 7.83243 0.167568C7.60901 -0.0558561 7.24788 -0.0558561 7.02446 0.167568L4 3.19209L0.975537 0.167568C0.752116 -0.0558561 0.390986 -0.0558561 0.167565 0.167568C-0.0558552 0.390993 -0.0558552 0.752129 0.167565 0.975554L3.19203 4.00007L0.167565 7.02459C-0.0558552 7.24801 -0.0558552 7.60915 0.167565 7.83257C0.27899 7.944 0.42527 8 0.571551 8C0.717831 8 0.864112 7.944 0.975537 7.83257L4 4.80806L7.02446 7.83257C7.13589 7.944 7.28217 8 7.42845 8C7.57473 8 7.72101 7.944 7.83243 7.83257C8.05585 7.60915 8.05585 7.24801 7.83243 7.02459L4.80797 4.00007Z" fill="#495057"/>
</svg>
