<svg width="24" height="24" viewBox="0 0 24 24" fill="none" xmlns="http://www.w3.org/2000/svg">
<g id="delete new">
<g id="Group 28670">
<path id="Vector" d="M11.814 6.41904H5.1411C4.70954 6.41904 4.51091 6.20203 4.51001 5.72899C4.54432 5.15296 4.29874 4.12089 5.09867 4.13689C6.32744 4.13689 7.55622 4.13489 8.78499 4.13989C9.2319 4.11589 9.11002 2.97281 9.95057 3.00181C11.1911 2.99881 12.4316 2.99981 13.6712 3.00281C13.9791 3.00281 14.2147 3.15982 14.3628 3.45584C14.5208 3.65786 14.5379 4.13289 14.8205 4.13889C16.0439 4.13489 17.2672 4.13689 18.4906 4.13689C19.3402 4.09488 19.0765 5.15796 19.1154 5.763C19.1145 6.19403 18.9041 6.41904 18.5032 6.41904H11.814Z" fill="#A0A0A0"/>
<path id="Vector_2" d="M17.8928 7.33472H5.71339C5.58699 7.33472 5.55088 7.36472 5.55991 7.50473C5.64116 8.74481 5.70436 9.98489 5.77659 11.215C5.92104 13.9052 6.09259 16.5853 6.23704 19.2655C6.28218 20.2956 6.93223 20.9956 7.88022 20.9956C10.5165 20.9956 13.1528 21.0056 15.7892 20.9956C16.8897 20.9896 17.3195 20.2186 17.3818 19.2865C17.4224 18.6815 17.8567 10.875 18.0643 7.51473C18.0734 7.35472 18.0373 7.33472 17.8928 7.33472ZM10.3811 17.4654C10.3811 17.8754 10.0741 18.2154 9.70397 18.2154C9.32478 18.2154 9.02684 17.8754 9.02684 17.4654V9.86489C9.02684 9.45486 9.32478 9.11484 9.70397 9.11484C10.0741 9.11484 10.3811 9.45486 10.3811 9.86489V17.4654ZM14.5974 17.4654C14.5974 17.8754 14.2995 18.2154 13.9203 18.2154C13.5501 18.2154 13.2431 17.8754 13.2431 17.4654V9.86489C13.2431 9.45486 13.5501 9.11484 13.9203 9.11484C14.2995 9.11484 14.5974 9.45486 14.5974 9.86489V17.4654Z" fill="#A0A0A0"/>
</g>
</g>
</svg>
