<svg width="121" height="121" viewBox="0 0 121 121" fill="none" xmlns="http://www.w3.org/2000/svg">
<g clip-path="url(#clip0_1033_112514)">
<g clip-path="url(#clip1_1033_112514)">
<g opacity="0.7">
<path opacity="0.7" d="M114.853 72.6764C112.634 72.3047 110.387 72.9208 108.191 73.4041C105.995 73.8875 103.626 74.2265 101.554 73.3519C99.3456 72.4193 97.9043 70.2937 95.9837 68.858C91.4276 65.4536 84.0748 66.9657 81.1312 71.7889C79.2757 73.8848 79.0128 76.1627 79.0128 76.1627H119.193C118.694 74.3382 116.783 73 114.853 72.6764Z" fill="#B0C3FF"/>
</g>
<path d="M121 76.2831C117.139 76.1687 113.278 76.0838 109.419 75.9821L97.8361 75.7377C95.9058 75.6938 93.9752 75.6472 92.0449 75.5936C90.1146 75.5455 88.184 75.5299 86.2537 75.5511L83.3581 75.5992C82.3929 75.626 81.4278 75.6431 80.4611 75.6826C78.5307 75.7489 76.5988 75.8367 74.667 75.9865L74.6655 76.0996C76.5946 76.2735 78.5249 76.3864 80.4553 76.4783C81.4205 76.5293 82.3856 76.5588 83.3509 76.5985L86.2465 76.6834C88.1768 76.7285 90.1073 76.7385 92.0376 76.7144C93.968 76.6847 95.8985 76.6634 97.8303 76.6437L109.414 76.549C113.275 76.4981 117.137 76.4629 120.998 76.3978L120.999 76.2834L121 76.2831Z" fill="#16246C"/>
<g opacity="0.35">
<path opacity="0.35" d="M98.026 28.9556C98.4113 29.1583 98.5025 29.6347 98.391 29.9185C98.3402 30.0706 98.2389 30.1415 98.1274 30.1821C98.0159 30.2328 97.884 30.2428 97.7624 30.2227C97.6306 30.2024 97.5292 30.1112 97.4886 30.0302C97.4582 29.9593 97.4279 29.9187 97.3467 29.8478C97.2758 29.7769 97.1844 29.6654 97.1034 29.5031C97.0223 29.3408 96.9512 29.1483 96.921 28.8442L96.8095 28.7531C96.4953 28.8239 96.2418 29.0673 96.0998 29.3715C95.9579 29.6654 95.9276 30.0303 96.0188 30.3851C96.0696 30.5675 96.1608 30.74 96.2824 30.8819C96.4041 31.034 96.5763 31.1557 96.7589 31.2367C97.1238 31.3888 97.4888 31.4091 97.8233 31.3584C98.1578 31.3076 98.4822 31.1557 98.7356 30.9124C98.8573 30.7806 98.9485 30.6386 99.0194 30.4765C99.0801 30.3143 99.1106 30.142 99.1004 29.9899C99.0801 29.6757 98.9584 29.3918 98.7761 29.1789C98.6747 29.0776 98.5734 28.9864 98.4517 28.9153C98.3301 28.8544 98.1881 28.8241 98.0664 28.8241L98.0258 28.9559L98.026 28.9556Z" fill="#C0C1C3"/>
</g>
<path d="M101.542 55.5854C100.984 56.0981 101.196 57.0028 101.443 57.7079C102.006 59.3213 102.568 60.9347 103.131 62.5481C103.53 61.035 104.073 59.312 103.959 57.7536C103.908 57.074 103.784 56.3633 103.348 55.8459C102.913 55.3285 102.045 55.123 101.542 55.5854Z" fill="#F0B542"/>
<path d="M86.5954 36.4167H30.1812C27.1867 36.4167 24.7592 38.8443 24.7592 41.8388V68.5092C24.7592 71.5038 27.1867 73.9313 30.1812 73.9313H86.5954C89.5899 73.9313 92.0174 71.5038 92.0174 68.5092V41.8388C92.0174 38.8443 89.5899 36.4167 86.5954 36.4167Z" fill="#A0A0A0"/>
<path d="M86.5954 74.014C72.0034 73.9763 57.3902 74.7892 42.7956 74.667C39.1344 74.7037 33.9832 74.5534 30.2813 74.5166C29.1504 74.5046 27.9821 74.1784 27.0335 73.544C25.3517 72.4702 24.3147 70.5105 24.3522 68.5212L24.3654 67.7383C24.4126 65.7779 24.4686 60.3885 24.4916 58.3526C24.5348 52.777 24.4824 47.0997 24.4499 41.5192C24.5344 38.4813 27.152 35.9871 30.1814 35.9646C48.9969 35.6205 67.8822 35.4611 86.7056 35.5761C87.8281 35.6051 88.962 35.9309 89.9075 36.5426C91.4313 37.4961 92.4958 39.1537 92.722 40.9367C92.8 41.418 92.7817 42.1146 92.775 42.6099L92.7137 45.7385C92.6972 49.3533 92.4501 54.5841 92.3955 58.2527C92.294 61.1563 92.2425 64.7487 92.185 67.6385C92.1716 68.0758 92.1881 68.7814 92.1126 69.2187C91.7607 71.9159 89.3228 74.0531 86.5958 74.014H86.5954ZM86.5954 73.8486C89.0718 73.8497 91.339 72.0102 91.7731 69.5592C91.8799 68.9777 91.8644 68.2331 91.8501 67.6381C91.838 66.5952 91.8162 65.5524 91.7921 64.5095C91.6659 58.5423 91.4447 51.6968 91.3214 45.7381L91.2602 42.6095C91.2467 42.2344 91.2676 41.5351 91.1853 41.1611C91.0533 40.28 90.643 39.4476 90.0447 38.7926C89.3075 37.9702 88.2659 37.4275 87.1707 37.2999C87.0142 37.2778 86.8356 37.2745 86.6761 37.2673C86.6348 37.262 86.5379 37.2638 86.4953 37.2636C71.9227 37.3624 57.2584 37.2343 42.6955 37.08C38.5241 37.029 34.3527 36.9387 30.1813 36.8691C28.7334 36.8506 27.2975 37.4759 26.3434 38.5734C25.7018 39.3026 25.2703 40.2256 25.1367 41.1898C25.0703 41.5982 25.074 42.283 25.0671 42.7098C25.0208 47.8958 24.9891 53.1748 25.027 58.3526C25.0535 60.407 25.1042 65.7475 25.1532 67.7383C25.1751 68.1466 25.147 68.8345 25.2418 69.2379C25.5508 71.2511 27.2229 72.9332 29.2245 73.2748C29.664 73.43 35.9041 73.2297 36.5385 73.2436C41.7112 73.1838 47 73.1675 52.1813 73.226C63.648 73.3713 75.1285 73.8887 86.5956 73.8486H86.5954Z" fill="#16246C"/>
<path d="M78.05 17.5394H38.3392C35.135 17.5394 32.5375 20.1369 32.5375 23.3411V58.989C32.5375 62.1932 35.135 64.7907 38.3392 64.7907H78.05C81.2542 64.7907 83.8517 62.1932 83.8517 58.989V23.3411C83.8517 20.1369 81.2542 17.5394 78.05 17.5394Z" fill="#C4D1F9" stroke="#16246C" stroke-width="1.23921" stroke-miterlimit="10"/>
<path d="M81.8335 76.3972H44.0257C40.3754 76.3972 37.4161 73.438 37.4161 69.7876V38.361C37.4161 37.4768 37.7704 36.6296 38.3999 36.0086L50.6448 23.9273C51.2632 23.317 52.097 22.9751 52.9658 22.9751H81.8335C85.4838 22.9751 88.443 25.9343 88.443 29.5847V69.7878C88.443 73.4381 85.4838 76.3974 81.8335 76.3974V76.3972Z" fill="#E1E9FF"/>
<path d="M81.8334 76.4591C71.9802 76.4381 61.7024 76.7439 51.8591 76.889C50.3703 76.9111 47.3545 76.9396 45.8643 76.9419C44.8066 76.9267 43.4106 77.0384 42.3793 76.7559C39.2845 76.0517 36.9612 73.212 36.9125 70.033C36.933 64.5241 37.1016 57.5686 37.1616 52.0312C37.2372 47.8986 37.2196 42.6323 37.2243 38.5428C37.1853 37.6232 37.5042 36.6839 38.1316 36.0026C38.2878 35.8191 39.2738 34.8656 39.4601 34.6669L41.5794 32.5471C42.9225 31.1857 46.5174 27.56 47.9045 26.1543L50.0089 24.0193C50.3608 23.6525 50.7726 23.2357 51.2487 22.995C51.7424 22.7304 52.2973 22.5749 52.8608 22.5544L55.8701 22.5107C60.8369 22.4723 65.8978 22.4059 70.8572 22.3919C72.7909 22.3908 77.9668 22.3481 79.8494 22.3448C80.5237 22.3528 81.8414 22.3094 82.5327 22.3662C84.8719 22.572 87.0347 23.9807 88.1753 26.035C88.8606 27.218 89.1327 28.6036 89.1059 29.9601L89.1064 30.7094C89.1166 31.5953 89.0761 37.175 89.0781 38.203C89.0615 44.1407 88.984 50.2514 88.8508 56.1876C88.761 60.6785 88.6544 65.1837 88.5864 69.676C88.63 73.3463 85.5105 76.5097 81.8334 76.4589V76.4591ZM81.8334 76.3351C85.4347 76.3431 88.4254 73.2778 88.2994 69.676C88.2298 65.1831 88.1265 60.679 88.0351 56.1876C87.902 50.2514 87.8246 44.1407 87.8078 38.203C87.7936 37.1707 87.7849 31.6424 87.7793 30.7094L87.7798 29.9601L87.78 29.5853C87.7559 28.5771 87.5327 27.5594 87.0227 26.6812C85.872 24.6319 83.682 23.5039 81.3479 23.6128C80.4358 23.6204 77.8076 23.5853 76.8518 23.5893C68.9841 23.5601 60.7345 23.4984 52.8844 23.4C51.9541 23.398 51.1655 23.8855 50.5439 24.5621C48.1275 26.877 44.3138 30.5548 41.9038 32.876L39.7557 34.9666C39.4204 35.3176 38.4757 36.1516 38.2023 36.5425C37.7796 37.1197 37.5824 37.8283 37.6083 38.5428C37.5619 42.6179 37.6484 47.9102 37.6709 52.0312C37.7251 55.8587 37.8853 66.0476 37.9432 69.9978C37.9827 70.9188 38.2322 71.8248 38.6657 72.6333C39.5136 74.2013 41.0563 75.3548 42.8001 75.7161C43.6657 75.8925 44.9694 75.8369 45.8641 75.8519C47.3637 75.8434 50.3616 75.8902 51.8591 75.9049C61.6999 76.0535 71.9832 76.3516 81.8334 76.3347V76.3351Z" fill="#16246C"/>
<path d="M52.0256 23.0291V37.0161C52.0256 37.0455 52.0018 37.0692 51.9724 37.0692L38.1298 37.1606C38.0813 37.1606 38.0583 37.1019 38.094 37.0692C42.8741 32.6973 47.1556 27.3599 51.9362 22.9892C51.9704 22.9579 52.0257 22.9827 52.0257 23.0289L52.0256 23.0291Z" fill="#C4D1F9"/>
<path d="M52.0873 23.0292C52.0693 25.0255 52.2534 27.022 52.4183 29.0184C52.6301 31.514 52.6268 34.0104 52.4678 36.5049C52.4579 36.6113 52.4417 36.9408 52.4338 37.0461C52.4232 37.2816 52.2024 37.4821 51.9716 37.4736C50.6802 37.3946 49.3674 37.3211 48.0756 37.2959C44.8293 37.2274 41.586 37.5389 38.3443 37.6845L38.1572 37.6914L38.1338 37.6923C37.6816 37.7091 37.3685 37.1558 37.645 36.7754C37.6773 36.7261 37.7165 36.69 37.7565 36.6505L38.0203 36.3891C40.508 33.9569 42.8004 31.3318 45.2683 28.8771C47.2166 26.9316 49.3895 25.2097 51.4306 23.3641L51.7078 23.1119L51.8461 22.9855L51.8808 22.9539C51.886 22.9487 51.9161 22.9186 51.9517 22.9142C52.0204 22.9005 52.0895 22.9596 52.0873 23.0292ZM51.9635 23.0292C51.9587 23.0488 52.0035 23.0161 51.9326 23.0798C51.8563 23.1508 51.6085 23.39 51.5269 23.467C50.2726 24.6696 49.1498 26.0434 48.0613 27.3955C45.1544 31.0022 41.9767 34.3895 38.481 37.4415C38.7249 37.2082 38.6193 36.6411 38.1306 36.6293L38.1539 36.6298L38.341 36.6342C41.5842 36.737 44.829 37.0055 48.0745 36.894C49.346 36.8532 50.6403 36.7633 51.9107 36.669L51.9575 36.6657L51.9691 36.6648C51.7959 36.6561 51.6255 36.8131 51.6166 36.993C51.615 37.0327 51.6157 37.0055 51.6152 37.0079L51.6144 36.9961L51.613 36.9727C51.4282 34.3231 51.4061 31.6696 51.6326 29.0182C51.7974 27.0218 51.9816 25.0253 51.9636 23.029L51.9635 23.0292Z" fill="#16246C"/>
<path d="M79.1655 28.5621H67.7147C65.9892 28.5621 64.5903 29.961 64.5903 31.6865V43.7267C64.5903 45.4523 65.9892 46.8511 67.7147 46.8511H79.1655C80.891 46.8511 82.2899 45.4523 82.2899 43.7267V31.6865C82.2899 29.961 80.891 28.5621 79.1655 28.5621Z" fill="#FFE5B1"/>
<path d="M67.7147 46.7912C71.184 46.8222 74.6532 46.5042 78.1223 46.3736C78.6406 46.3432 79.5245 46.3823 80.0102 46.1738C80.9647 45.8417 81.6774 44.9207 81.7674 43.9159C81.8841 40.2867 82.1374 36.6574 82.1068 33.0248L82.1001 31.9841C82.1539 30.9877 81.7432 30.0115 80.9374 29.4334C80.4274 29.0447 79.7843 28.875 79.1655 28.892C77.7778 28.9426 76.3901 29.0084 75.0024 29.0456C73.6147 29.0873 72.227 29.1087 70.8393 29.1313L68.7578 29.1647L67.7171 29.1779C66.8789 29.1915 66.0788 29.6411 65.6286 30.3444C65.3592 30.7538 65.2365 31.2333 65.2352 31.7212C65.2175 34.5837 65.1672 37.4453 64.9903 40.3074L64.8655 42.3889C64.8529 42.8533 64.7522 43.7222 64.8057 44.1809C64.9203 45.6252 66.2656 46.8082 67.7147 46.7912ZM67.7147 46.9116C66.1727 46.9313 64.7386 45.7655 64.4565 44.235C64.3612 43.7562 64.3568 42.8863 64.3151 42.3889L64.1904 40.3074C64.0134 37.4453 63.9632 34.5837 63.9454 31.7212C63.9117 29.6644 65.6517 27.9006 67.7173 27.9467C71.5143 27.9936 75.3757 28.0611 79.1655 28.2328C80.6955 28.2747 82.0828 29.4103 82.3978 30.9027C82.5397 31.5269 82.4603 32.3941 82.4732 33.0248C82.4362 36.4968 82.6869 39.9631 82.791 43.4323C82.801 43.8113 82.8012 44.2168 82.708 44.5891C82.4541 45.784 81.5212 46.8075 80.3585 47.1824C79.7172 47.4413 78.7983 47.3461 78.1224 47.3291C74.6534 47.1986 71.1841 46.8806 67.7149 46.9116H67.7147Z" fill="#16246C"/>
<path d="M82.2896 52.8127C81.5376 53.1395 80.6717 53.076 79.8487 53.006C78.6989 52.9083 77.5491 52.8106 76.3991 52.7128C74.9604 52.5906 73.5201 52.4683 72.0761 52.4416C70.3952 52.4106 68.7152 52.5094 67.0373 52.6081C66.0142 52.6682 64.9911 52.7284 63.9678 52.7886C60.4215 52.9973 56.8268 53.2029 53.3445 52.5297C51.655 52.203 49.6338 51.7576 48.4191 52.9257" stroke="#16246C" stroke-width="1.07894" stroke-miterlimit="10" stroke-linecap="round"/>
<path d="M57.8841 42.1709C57.4034 42.3321 57.1273 42.4639 56.7132 42.4639C52.8477 42.2003 48.9819 42.3007 45.0988 42.4639" stroke="#16246C" stroke-width="1.05428" stroke-miterlimit="10" stroke-linecap="round"/>
<path d="M97.7073 64.4066C97.1543 67.1878 96.0049 73.0022 95.0023 78.2491C94.2263 82.3157 93.5373 86.0433 93.2835 87.7567C92.5782 92.5104 88.8796 92.5104 88.8796 92.5104H32.168C25.2766 92.5104 25.1225 89.3412 25.1225 89.3412L19.9572 59.8287L18.8331 53.4033C18.398 51.2694 18.3926 49.5832 19.4296 48.1383C20.4667 46.6933 22.3359 45.8955 24.0982 46.1439L47.5062 46.1022C49.1398 46.1004 50.6917 46.8111 51.7578 48.0476L58.874 55.6297C59.8675 56.6885 61.249 57.2977 62.7031 57.314C69.3968 57.3938 88.8035 57.6077 92.5782 57.4627C94.5327 57.3884 95.8127 58.3384 96.6394 59.4552C97.6874 60.8694 98.05 62.6788 97.7073 64.4066Z" fill="#C0C1C3"/>
<path opacity="0.4" d="M95.0022 78.249C94.2262 82.3157 93.5373 86.0433 93.2835 87.7566C92.5782 92.5103 88.8796 92.5103 88.8796 92.5103H32.1679C25.2766 92.5103 25.1225 89.3412 25.1225 89.3412L19.9572 59.8286C23.7808 62.9942 28.1303 65.5596 32.6647 67.6047C39.8479 70.8446 47.5207 72.848 55.2061 74.5921C65.2159 76.8657 75.387 78.7295 85.6506 78.7694C88.7672 78.7821 91.9001 78.6189 95.0022 78.249Z" fill="#A0A0A0"/>
<path d="M24.092 46.2255C22.1627 45.9579 20.1223 46.959 19.2111 48.6827C18.2616 50.4647 18.8278 52.5045 19.1785 54.3847C20.1807 59.5569 21.5826 66.6139 22.6111 71.7796C23.754 77.61 24.8694 83.4474 25.8617 89.3053C25.8626 89.3013 25.8599 89.2841 25.8611 89.2912L25.8646 89.3089C25.8662 89.3204 25.8675 89.3323 25.8731 89.3506C25.8836 89.3842 25.8856 89.4155 25.9019 89.4527L25.9405 89.5615C26.1775 90.1085 26.6585 90.5148 27.1698 90.8067C29.3971 92.0481 32.5251 91.7703 35.0148 91.8481C52.8552 92.2029 70.8789 92.4266 88.7295 92.0696C90.2028 92.0403 91.5228 91.046 92.1512 89.7306L92.396 89.1421L92.5753 88.5223C93.8248 80.5872 95.354 72.422 96.8774 64.5195C97.4968 62.0609 96.2244 58.8835 93.5576 58.3753C93.1662 58.2986 92.7512 58.3066 92.3516 58.322C91.5558 58.3617 90.3496 58.3565 89.5381 58.3742C81.9453 58.4279 72.0929 58.2876 64.4116 58.1549C64.1381 58.1505 62.9061 58.1201 62.6639 58.115C61.1975 58.0802 59.7471 57.4949 58.6756 56.4976C58.4896 56.3275 58.315 56.1397 58.1474 55.9518C57.8184 55.5853 57.0701 54.7658 56.7398 54.3986C55.5109 53.0517 52.3947 49.5745 51.1511 48.1796C50.223 47.1617 48.8522 46.5505 47.4676 46.5324C39.6701 46.3482 31.8818 46.2177 24.092 46.2258V46.2255ZM24.1034 46.0607C32.0171 46.0514 39.9332 45.86 47.8391 45.6736C49.3589 45.7213 50.8362 46.3573 51.9215 47.4335C53.2555 48.7866 56.5164 52.1164 57.7847 53.4272C58.1337 53.7702 58.9107 54.5973 59.2414 54.9259C60.2306 56.0293 61.5623 56.5786 63.0356 56.5126L64.4305 56.5137L86.7442 56.6325C88.5984 56.6337 90.4677 56.6542 92.2959 56.6165C93.371 56.5607 94.4759 56.7371 95.4261 57.2719C97.303 58.3296 98.4541 60.4188 98.6111 62.5274C98.7159 63.5236 98.4988 64.5434 98.2909 65.5111C96.8729 72.3417 94.9529 81.9752 93.6185 88.7955L93.3866 89.5087L93.0733 90.199C92.6005 91.0962 91.8653 91.8905 90.9559 92.3777C90.3268 92.7191 89.6317 92.9229 88.915 92.9542L88.7295 92.9526L88.0318 92.943C84.0368 92.8937 78.0935 92.7985 74.08 92.7813C60.1521 92.6513 46.1446 93.026 32.2245 93.2059C30.2371 93.1794 28.2561 93.0817 26.4424 92.0823C25.4376 91.5176 24.5126 90.5713 24.3841 89.3764C22.3926 78.4057 20.6371 65.8271 18.8436 54.4474C18.5238 52.5176 18.0169 50.4016 19.0314 48.585C20.0023 46.8042 22.1239 45.7849 24.1034 46.0601V46.0607Z" fill="#16246C"/>
<path d="M88.4537 101.453C98.7144 101.453 107.032 93.1353 107.032 82.8746C107.032 72.6139 98.7144 64.2959 88.4537 64.2959C78.193 64.2959 69.875 72.6139 69.875 82.8746C69.875 93.1353 78.193 101.453 88.4537 101.453Z" fill="#5C57EA"/>
<path d="M107.115 82.8747C107.142 93.3152 99.1914 102.378 88.4537 102.141C79.6273 102.007 71.7187 95.1195 69.8873 86.5676C66.2201 70.155 84.1013 57.4239 98.3795 66.3153C103.923 69.8277 107.162 76.3822 107.115 82.8747ZM106.95 82.8747C107.01 76.5144 103.141 70.5529 97.6307 67.5614C85.5922 60.8391 70.8339 69.0216 70.3272 82.8748C69.995 93.0771 78.3286 101.083 88.4535 100.766C98.0568 100.654 107.07 92.7811 106.95 82.8748L106.95 82.8747Z" fill="#16246C"/>
<path d="M99.8559 83.788C99.6893 82.6846 98.3636 82.9965 97.5596 82.9437L92.8283 82.8692C92.8812 80.2802 92.6749 72.6886 92.6986 71.9627C92.7253 71.1519 90.9092 71.2418 89.1119 71.2188C88.0471 71.1971 85.9405 71.1512 84.8564 71.1273C84.4602 71.1186 84.1244 71.4163 84.0878 71.8091C83.9491 75.3545 84.1476 78.9721 84.0862 82.5196L79.7576 82.4324C78.8173 82.4832 77.0723 82.0006 77.061 83.4276C77.0803 84.578 79.8848 86.9001 80.6802 88.0717C82.0322 89.583 85.5928 93.6395 86.8748 95.1126C88.999 98.4977 90.4541 94.9066 92.2147 93.2512C93.9012 91.3003 97.5935 87.0337 99.5129 84.8557C99.77 84.5642 99.9033 84.1789 99.8568 83.7942C99.8567 83.7922 99.8561 83.79 99.8559 83.788Z" fill="white"/>
<path d="M99.7742 83.7992C99.594 82.7567 98.3167 83.0972 97.552 83.0604L97.443 82.9335C96.6497 82.9356 95.8195 82.9706 95.0377 83.0473C94.1584 83.1333 93.3456 83.1994 92.4942 83.2391C92.4307 81.8342 92.3118 80.4251 92.2175 79.0146C92.0614 76.7106 91.9358 74.1694 91.9686 71.9758C91.9677 72.0195 92.0389 72.151 92.0629 72.149C92.0748 72.1535 92.0524 72.1387 92.023 72.124C91.8828 72.0565 91.5875 71.9983 91.3028 71.9653C90.3737 71.8634 89.4037 71.8622 88.4564 71.7822C87.5671 71.7189 85.9529 71.5984 85.0782 71.5375C84.9975 71.5318 84.8046 71.5112 84.7255 71.5298C84.575 71.5598 84.4441 71.7043 84.4307 71.8587C84.1472 75.4114 84.3785 78.9555 84.4516 82.5259L84.4588 82.8769L84.0788 82.885C83.0013 82.9066 80.8242 82.9567 79.7466 82.9835C79.3395 83.0254 78.5879 82.9545 78.1087 83.0395C77.9435 83.0698 77.8565 83.1073 77.7836 83.1677C77.7794 83.1769 77.7794 83.1853 77.7733 83.1896C77.7638 83.1905 77.7696 83.2079 77.7651 83.2147C77.7622 83.223 77.7537 83.2272 77.7553 83.2489C77.7463 83.2894 77.743 83.3245 77.745 83.3675L77.7432 83.403C77.7419 83.4154 77.7403 83.4288 77.7441 83.427C77.7461 83.4291 77.747 83.4311 77.747 83.4333C77.7472 83.4362 77.753 83.4485 77.7548 83.4558C77.8309 83.6734 78.0246 83.9761 78.1973 84.1873C78.8685 85.0275 79.7459 85.8428 80.5187 86.6531C82.4373 88.8276 85.4429 92.0887 87.5361 94.5372C87.7159 94.7722 87.8748 95.069 88.0615 95.2626C88.3039 95.5094 88.4687 95.7164 88.7612 95.655C89.1258 95.5241 89.5295 95.1344 89.8301 94.8018C90.3869 94.2053 91.2131 93.1775 91.7004 92.8061C93.7566 90.6831 96.144 88.3771 98.1539 86.2096C98.5028 85.8349 98.8483 85.4574 99.1901 85.0765L99.447 84.7918C99.6867 84.5255 99.817 84.1556 99.7748 83.7994L99.7742 83.7992ZM99.938 83.7767C99.9929 84.1863 99.8529 84.6036 99.585 84.9129L99.3386 85.2075C99.009 85.599 98.6832 85.9937 98.3606 86.3913C96.4736 88.6969 94.5286 91.4112 92.6811 93.7467C91.8535 94.6342 91.2941 95.7077 90.3305 96.5961C89.2108 97.6616 87.8035 97.5936 86.7748 96.426C86.5155 96.1483 86.3244 95.8635 86.1328 95.5781L86.214 95.6876C85.691 95.1082 85.1748 94.5227 84.6586 93.9373C83.214 92.3001 80.7566 89.4299 79.364 87.7168C78.577 86.826 77.7705 86.0426 77.0479 85.036C76.7373 84.5791 76.4171 84.0963 76.3836 83.4848C76.3678 82.5214 77.0238 81.8672 77.9451 81.7992C78.5503 81.7329 79.2409 81.8803 79.7689 81.8812C80.8487 81.9517 83.0142 82.0886 84.0937 82.154L83.7209 82.513C83.9207 78.96 83.7436 75.304 83.7478 71.734C83.7951 71.1823 84.2966 70.7345 84.849 70.7323L85.0961 70.7265C85.4007 70.718 86.2294 70.6946 86.5453 70.6842C87.5076 70.6612 89.447 70.5943 90.4094 70.5682C91.3373 70.5818 92.8147 70.4339 93.334 71.4791C93.4491 71.7202 93.4321 72.0132 93.4337 72.2435C93.4487 73.1839 93.4787 74.1946 93.4778 75.1294C93.4866 77.7072 93.3811 80.2833 93.1817 82.8762L92.8343 82.5161C94.0835 82.5988 95.3102 82.7786 96.5293 82.8876C96.912 82.919 97.2929 82.9389 97.6766 82.9538L97.5678 82.8268C98.3804 82.8845 99.7851 82.6372 99.9383 83.7767H99.938Z" fill="#16246C"/>
<g opacity="0.35">
<path opacity="0.35" d="M16.4351 83.5444C16.8743 83.7707 16.9807 84.3162 16.8476 84.6355C16.7811 84.8085 16.6746 84.8883 16.5548 84.9416C16.435 84.9949 16.2754 85.0081 16.1289 84.9815C15.9826 84.9548 15.8628 84.8484 15.8229 84.7686C15.7962 84.6888 15.7563 84.6355 15.6632 84.5558C15.5834 84.476 15.4768 84.3429 15.3838 84.1699C15.2906 83.9837 15.2108 83.7575 15.1709 83.4248L15.0378 83.3184C14.6785 83.3981 14.3991 83.6777 14.2394 84.0102C14.0797 84.3561 14.0398 84.7686 14.1462 85.1678C14.1995 85.3674 14.3059 85.5671 14.4522 85.74C14.5985 85.913 14.7849 86.0461 14.9978 86.1525C15.4102 86.3255 15.8227 86.3389 16.2087 86.2856C16.5945 86.2323 16.9539 86.0593 17.2467 85.7799C17.3797 85.6336 17.4994 85.4739 17.5659 85.2743C17.6325 85.0879 17.6591 84.9017 17.6591 84.7155C17.6325 84.3561 17.4994 84.0369 17.2865 83.7839C17.1801 83.6641 17.047 83.5577 16.914 83.4911C16.7677 83.4246 16.6212 83.3847 16.4749 83.3847L16.4351 83.5444Z" fill="#C0C1C3"/>
</g>
<g opacity="0.35">
<path opacity="0.35" d="M4.04184 77.8806C4.48095 78.1069 4.58738 78.6524 4.4543 78.9717C4.38776 79.1447 4.28134 79.2244 4.1615 79.2777C4.04165 79.3311 3.88211 79.3443 3.73561 79.3176C3.5893 79.291 3.46946 79.1846 3.42957 79.1048C3.40292 79.025 3.36304 78.9717 3.26985 78.8919C3.19007 78.8122 3.08347 78.6791 2.99046 78.5061C2.89727 78.3199 2.81749 78.0937 2.77761 77.761L2.64453 77.6545C2.28519 77.7343 2.0058 78.0139 1.84607 78.3464C1.68634 78.6923 1.64646 79.1048 1.75288 79.504C1.80618 79.7036 1.91261 79.9032 2.05892 80.0762C2.20523 80.2492 2.39161 80.3822 2.60446 80.4887C3.01693 80.6616 3.42939 80.6751 3.81539 80.6218C4.20138 80.5684 4.56054 80.3955 4.85335 80.1161C4.98643 79.9698 5.10609 79.8101 5.17262 79.6104C5.23916 79.4241 5.26581 79.2379 5.26581 79.0517C5.23916 78.6923 5.10609 78.373 4.89324 78.1201C4.78681 78.0003 4.65373 77.8939 4.52066 77.8273C4.37435 77.7608 4.22785 77.7209 4.08154 77.7209L4.04184 77.8806Z" fill="#C0C1C3"/>
</g>
<path d="M41.2412 86.3327C34.808 76.0688 20.9178 80.7538 19.3058 92.055C19.1381 92.961 18.1633 93.4623 17.3213 93.0874C8.48095 88.5473 -0.976375 99.8821 6.84088 106.829H42.7799C42.7672 104.622 42.6258 101.066 42.407 98.8301C42.527 98.7259 42.6557 98.6318 42.7881 98.5433C42.649 94.45 43.7555 89.8957 41.2412 86.3327Z" fill="white"/>
<path d="M11.1871 94.7517C13.8108 93.9144 16.6848 94.6291 18.9524 96.2364C19.9595 96.9502 21.3544 96.2567 21.4313 95.0247C21.5718 92.7702 22.103 90.5552 23.1765 88.5778C24.8565 85.4831 28.0161 83.0721 31.5323 82.8859C35.0403 82.7008 38.4579 84.7849 40.3075 87.7717C41.6642 89.9624 42.2342 92.5625 42.1583 95.1498C42.1271 96.2088 43.1286 96.9988 44.1508 96.7205C45.5916 96.3283 47.1773 96.4478 48.51 97.1277C50.0163 97.8955 51.1331 99.3454 51.5797 100.971C51.8163 101.832 52.7435 102.329 53.5865 102.035C54.7987 101.614 56.1367 101.547 57.3778 101.88C58.6681 102.225 59.8125 102.961 60.9701 103.628C62.172 104.319 63.411 104.944 64.6807 105.5H8.18602C7.80963 105.133 7.47041 104.734 7.18667 104.286C5.06053 100.925 7.39844 95.9608 11.1871 94.7517Z" fill="#B0C3FF"/>
<path d="M0.000477468 105.676L16.9166 105.436L33.8328 105.243L42.2904 105.128L46.5191 105.091L48.634 105.089L50.7489 105.097L54.9776 105.138C56.3873 105.161 57.7969 105.175 59.2074 105.207C62.0267 105.263 64.8469 105.336 67.6659 105.459V105.551C64.8467 105.693 62.0276 105.784 59.2083 105.858C57.7987 105.899 56.3891 105.922 54.9796 105.954L50.7509 106.022L48.636 106.044L46.5211 106.055L42.2924 106.045L33.8338 105.984L16.9166 105.9L-0.000610352 105.769L0.000477468 105.676V105.676Z" fill="#16246C"/>
<path d="M30.5949 14.6671C30.9869 15.3153 30.5303 16.1248 30.0965 16.7327C29.1049 18.1244 28.1134 19.5161 27.1218 20.908C27.1617 19.3435 27.1227 17.5377 27.6675 16.0732C27.9069 15.435 28.2249 14.7875 28.7875 14.4122C29.35 14.0371 30.2406 14.0824 30.5949 14.6671Z" fill="#F0B542"/>
<path d="M80.9458 67.9869C79.6149 68.7355 78.3615 69.5639 77.2142 70.5586C76.0925 71.5398 75.0071 72.5777 74.1667 73.8187C72.469 76.324 71.6303 79.3945 71.7614 82.4314L71.6711 82.4394C71.2539 79.3463 71.9477 76.1197 73.5548 73.4295C74.3649 72.0741 75.3688 70.7982 76.6464 69.8518C77.0935 69.5249 77.6608 69.1565 78.1503 68.8973C79.0198 68.4393 79.951 68.0785 80.9148 67.9017L80.9458 67.9869Z" fill="white"/>
<path d="M50.8393 25.3053C50.1286 26.6846 49.213 27.9367 48.1957 29.1012C47.7891 29.5703 46.6902 30.6095 46.2335 31.0586C44.4759 32.7764 42.6199 34.3971 40.6756 35.8981L40.6163 35.8296C42.5891 33.9166 44.5089 31.9408 46.3107 29.8663C47.2669 28.6871 48.3049 27.5484 49.3998 26.4975C49.8414 26.066 50.2878 25.6425 50.7684 25.2489L50.8393 25.3053Z" fill="white"/>
<path d="M19.7397 53.1221C20.2368 54.4745 20.5887 55.9213 20.9054 57.3247C21.2214 58.7393 21.3678 60.1833 21.5802 61.6151C21.9528 64.1399 22.4775 67.7214 22.7962 70.2199L22.707 70.2359C22.1434 67.7961 21.3895 64.2315 20.8665 61.7427C20.4806 59.9879 20.0578 58.1999 19.8745 56.4063C19.7533 55.319 19.6514 54.2388 19.6506 53.1379L19.7398 53.1219L19.7397 53.1221Z" fill="white"/>
<path d="M35.4369 19.9017C34.6846 20.6824 34.5222 21.7169 34.4455 22.7383C34.3829 23.7915 34.3701 24.8679 34.2595 25.922C34.0484 28.0551 33.9741 30.1986 33.9244 32.3412C33.8849 33.7717 33.8949 35.2033 33.9074 36.6372L33.8169 36.6427C33.6597 35.216 33.5538 33.7833 33.4713 32.3483C33.352 30.193 33.3557 28.0344 33.3633 25.876C33.4525 23.9683 33.4218 20.8194 35.3848 19.8275L35.4369 19.9017Z" fill="white"/>
</g>
</g>
<defs>
<clipPath id="clip0_1033_112514">
<rect width="121" height="121" fill="white"/>
</clipPath>
<clipPath id="clip1_1033_112514">
<rect width="121" height="92.658" fill="white" transform="translate(0 14.171)"/>
</clipPath>
</defs>
</svg>