<svg width="180" height="155" viewBox="0 0 180 155" fill="none" xmlns="http://www.w3.org/2000/svg">
<g clip-path="url(#clip0_2288_1548)">
<g opacity="0.7">
<g opacity="0.7">
<path opacity="0.7" d="M70.5281 133.83C69.3623 129.469 67.5452 125.078 63.5479 123.292C60.989 122.141 57.8397 122.262 55.7197 120.43C54.4326 119.309 53.7665 117.659 52.9487 116.16C51.1771 112.889 48.3156 110.012 44.712 109.074C41.1084 108.135 36.7779 109.573 35.1276 112.92C33.8102 115.584 34.2947 118.946 32.6595 121.444C29.5707 126.168 22.0455 124.185 17.1245 126.925C14.7321 128.258 13.1272 130.65 11.2647 132.649C10.8861 133.058 10.4773 133.451 10.0535 133.83H70.5278L70.5281 133.83Z" fill="#B0C3FF"/>
</g>
</g>
<path d="M0.000976563 134.254L9.84293 134.118L19.6849 133.981L39.3685 133.785L49.2105 133.664C52.4963 133.618 55.7667 133.618 59.0524 133.664L63.9734 133.739C65.6086 133.785 67.2592 133.8 68.8944 133.86C72.1802 133.951 75.4506 134.072 78.7363 134.269V134.405C75.4506 134.602 72.1802 134.724 68.8944 134.814C67.2592 134.875 65.6086 134.89 63.9734 134.935L59.0524 135.011C55.7667 135.056 52.4963 135.041 49.2105 135.011L39.3685 134.89L19.6849 134.693L9.84293 134.557L0.000976562 134.421V134.254L0.000976563 134.254Z" fill="#343192"/>
<path d="M86.6372 8.84444C88.3811 7.24157 91.1542 1.87761 93.5686 0.336808C94.8039 -0.45142 97.5405 2.22722 98.1969 2.82128C102.569 6.77884 71.1022 59.9382 57.8218 62.3152C56.5188 62.5484 53.086 58.6467 53.086 58.6467C53.086 58.6467 78.7349 17.4154 86.6372 8.84444Z" fill="#A0A0A0"/>
<path d="M86.5876 8.79494C87.8532 7.53167 89.1185 5.4045 90.1635 3.9486C91.1184 2.61505 92.0721 1.21173 93.4159 0.226767C94.7695 -0.692277 97.1644 1.60649 98.1568 2.44089L98.2974 2.56632C98.8348 3.00006 98.9096 3.70852 98.9107 4.33079C98.2679 12.0312 90.4287 25.0687 86.0995 31.7015C80.4959 40.0827 74.6628 48.3731 67.8176 55.7996C65.1551 58.5049 61.8324 61.9035 58.0495 62.8395C57.2733 63.0047 56.6203 62.5953 56.0521 62.2203C54.6357 61.2223 53.4589 59.9916 52.299 58.7211L52.5496 58.313C57.7899 49.77 63.1036 41.2762 68.6853 32.952C71.406 28.9039 74.4635 24.5713 77.3517 20.6632C80.3626 16.6541 83.2603 12.5529 86.5876 8.79494ZM86.6863 8.89369C81.7856 14.5785 77.9337 21.0878 73.8846 27.3867C67.6673 37.1968 59.8281 49.2213 53.6223 58.9804L53.5602 58.2297C54.6799 59.456 55.8472 60.7729 57.2841 61.6165C57.4616 61.7127 57.6604 61.7696 57.7148 61.764C57.7022 61.7676 57.7769 61.7555 57.8312 61.7453L58 61.7119C62.8122 60.4874 68.1587 54.6181 71.4443 50.9248C79.3445 41.7848 85.4815 31.2924 91.2495 20.7222C92.7754 17.7307 99.6225 5.60252 98.067 3.06008C97.7236 2.72278 97.3501 2.3683 96.9884 2.051C96.2561 1.42309 95.4592 0.76465 94.5473 0.456592C94.3257 0.388876 94.0969 0.355274 93.8953 0.397341C93.2297 0.652559 92.7195 1.22712 92.2175 1.72858C91.5383 2.45935 90.926 3.2581 90.3302 4.0671C89.1123 5.66742 88.1153 7.46241 86.6863 8.89369Z" fill="#16246C"/>
<path d="M126.105 72.4369L118.849 145.032C118.849 145.032 122.317 149.195 95.4303 151.188C68.5439 153.181 61.9338 146.048 61.9338 146.048C61.4054 146.048 59.7151 133.759 57.9991 119.215C55.5315 98.3255 53.0127 72.7831 53.8002 72.3317C54.0721 72.1752 54.3722 72.0213 54.6979 71.8674C59.9357 69.3896 72.1426 67.0734 90.9877 66.2142C118.015 64.9855 124.902 70.7876 125.974 71.9136C126.09 72.0342 126.139 72.1009 126.139 72.1009L126.105 72.4369Z" fill="#C0C1C3"/>
<path opacity="0.4" d="M118.849 145.032C118.849 145.032 122.317 149.195 95.4305 151.188C68.544 153.181 61.934 146.048 61.934 146.048C61.4056 146.048 59.7152 133.759 57.9992 119.215C62.7958 119.174 67.7078 117.969 72.2761 116.409C93.9581 109.014 112.916 93.8986 124.951 74.4071C125.346 73.7684 125.736 73.1092 126.105 72.4371L118.849 145.032Z" fill="#B3B4B5"/>
<path d="M83.8164 7.87377C85.8577 5.67991 87.9733 3.5094 90.5026 1.90268C91.3822 1.34402 92.4523 0.842556 93.4332 1.19448C95.0602 1.77827 95.1048 4.06806 94.6318 5.7307C93.6892 9.04316 91.9219 12.0519 90.1364 14.9968C84.048 25.0391 77.537 34.8254 70.6264 44.3205C67.0769 49.1974 63.3353 54.0825 58.38 57.5214C56.9159 58.5376 54.7759 59.3659 53.5039 58.1175C52.581 57.2118 52.6972 55.7123 52.9527 54.4446C54.3962 47.2842 58.5082 41.191 62.4445 35.1727C66.5134 28.9515 70.9224 22.953 75.6448 17.2122C78.2729 14.0175 80.9985 10.9025 83.8162 7.87377H83.8164Z" fill="#C0C1C3"/>
<path d="M125.975 71.9131C125.771 72.8827 124.913 73.8384 123.318 74.5482C114.656 78.8569 104.677 79.5333 95.0033 79.6813C90.6666 80.6147 54.6098 77.8968 53.802 71.8472C58.7833 67.8104 72.1429 67.0735 90.9878 66.2155C118.014 64.9861 124.902 70.7868 125.975 71.9131Z" fill="#A0A0A0"/>
<path d="M126.06 72.1263C124.625 68.675 112.247 67.7804 108.643 67.4361C96.2811 66.5415 83.7908 66.6671 71.4654 67.9263C66.8894 68.4475 62.2619 69.0313 57.9057 70.5046C56.6394 70.9661 55.1057 71.5825 54.3565 72.6577L54.4437 72.2986C54.7002 78.5242 55.0414 84.7477 55.4669 90.9663C56.7266 109.626 59.2716 128.184 62.613 146.579L62.3463 146.181C62.5935 146.301 62.8262 146.433 63.0816 146.547C64.3967 147.097 65.8701 147.509 67.2565 147.85C70.1341 148.56 73.0626 149.048 76.0034 149.451C86.5759 150.849 97.3923 150.96 107.861 148.778C110.149 148.307 112.453 147.737 114.623 146.907C115.538 146.562 116.708 146.029 117.326 145.382L117.146 145.749C117.749 142.875 118.199 139.735 118.581 136.823C120.413 121.739 121.705 106.523 123.521 91.44C124.192 85.667 125.09 79.0559 126.057 73.3377L126.223 73.3623C124.835 85.0437 123.834 97.9947 122.865 109.73C122.116 118.797 121.361 127.986 120.307 137.037C119.935 140 119.524 143.224 118.896 146.149L118.852 146.369L118.716 146.516C118.467 146.82 118.173 147.052 117.865 147.273C116.015 148.497 113.855 149.102 111.764 149.697C97.1342 153.35 81.5174 152.616 66.9366 149.096C65.0665 148.575 63.2276 148.089 61.5057 147.035C59.5855 134.611 58.0204 122.139 56.6347 109.647C55.2594 97.1803 53.9902 84.6976 53.1517 72.1796C54.0484 70.5811 55.8265 69.8311 57.4253 69.1955C61.8984 67.5839 66.6288 66.968 71.3058 66.4263C83.7521 65.2228 96.2988 65.2284 108.731 66.5127C113.129 67.0447 122.402 68.1318 125.576 71.0592C125.861 71.3403 126.102 71.6828 126.22 72.0765L126.06 72.1265L126.06 72.1263Z" fill="#16246C"/>
<path d="M55.5101 73.8383C65.8817 77.3026 76.7758 79.2227 87.6933 79.4177C98.5956 79.5818 109.58 78.0082 120.042 74.8938C111.235 78.7628 101.437 80.6817 91.8253 81.0495C79.4481 81.4045 66.7138 79.1653 55.5098 73.8383H55.5101Z" fill="#16246C"/>
<path d="M71.5259 140.401C72.7813 147.808 73.8555 139.115 74.0494 136.086C75.2303 122.637 74.9666 94.6225 73.2784 88.4439C72.6199 86.0312 71.9512 88.0335 71.6783 89.7169C70.8308 94.9672 70.6631 100.736 70.4745 107.004C70.2516 116.705 70.3353 132.343 71.5198 140.361L71.5259 140.4V140.401Z" fill="#A0A0A0"/>
<path d="M71.5262 140.401C72.3819 145.402 73.1709 143.052 73.6402 139.681C73.966 137.345 74.0637 134.984 74.2012 132.632C74.6406 122.626 74.3731 112.593 73.9524 102.594C73.7121 98.3798 73.5438 94.0626 72.8792 89.9129C72.7361 89.3309 72.6366 88.4198 72.3459 87.9171C72.3439 87.916 72.3426 87.9145 72.3416 87.9127C72.3359 87.9017 72.347 87.9207 72.3601 87.9273C72.3878 87.9555 72.4416 87.9761 72.4811 87.9927C72.5829 88.0363 72.8025 88.0138 72.8779 87.945C72.9267 87.9099 72.9128 87.9135 72.9002 87.9327C72.6586 88.34 72.5465 88.8605 72.4391 89.3368C71.5254 94.5233 71.2971 99.8144 71.0242 105.076C70.5545 116.835 70.1044 128.69 71.5262 140.401ZM71.5262 140.401C70.3165 131.036 70.2398 121.564 70.0438 112.133C69.9913 107.405 70.0264 102.684 70.2272 97.9547C70.4368 94.6836 70.5497 91.3483 71.3366 88.1407C71.5072 87.649 71.6354 87.1627 72.1097 86.8062C72.586 86.4743 73.196 86.6905 73.4712 87.1229C73.9711 87.8837 74.044 88.8335 74.2528 89.6703C74.9953 94.5294 75.1136 99.4296 75.2236 104.322C75.3473 114.949 75.0154 125.585 74.1022 136.171C73.9486 138.366 72.8192 148.09 71.5259 140.401H71.5262Z" fill="#16246C"/>
<path d="M90.0924 142.253C91.7799 145.959 92.7503 138.879 92.7777 137.455C93.2604 127.239 93.4023 116.983 93.1935 106.779C92.9649 101.906 93.3748 96.6315 92.414 91.8898C91.1133 86.6915 89.4024 91.0423 89.1082 93.978C88.7994 96.3491 88.7735 98.8879 88.7155 101.306C88.668 111.08 88.6568 120.856 88.8899 130.644C89.0561 134.342 88.8668 138.825 90.0788 142.219L90.0924 142.253Z" fill="#A0A0A0"/>
<path d="M90.0926 142.252C91.7204 145.711 92.5632 139.572 92.6786 138.39C92.8361 136.481 92.8479 133.48 92.9198 131.53C93.1083 122.394 92.8885 113.208 92.5068 104.078C92.3967 100.101 92.5106 96.1351 91.7593 92.237C91.6585 91.7312 91.4954 91.2118 91.2935 90.7398C91.1963 90.5228 91.0796 90.3025 90.9862 90.2066C90.9478 90.1673 90.9129 90.1496 90.9719 90.174C91.0304 90.195 91.1104 90.1673 91.0953 90.1658C91.0552 90.1853 90.8975 90.3505 90.7877 90.548C90.2834 91.4516 90.0282 92.5256 89.8587 93.5552C89.5024 96.0599 89.4193 98.6042 89.3359 101.172C89.1828 109.267 88.8724 120.645 88.9463 128.627L88.964 130.342C89.1007 134.311 88.8119 138.434 90.0929 142.252H90.0926ZM90.0926 142.252C88.7939 138.548 89.0507 134.22 88.8032 130.347C88.4671 120.615 88.1801 110.894 88.1027 101.151C88.1991 98.5018 87.8151 89.641 90.8208 88.7799C91.7162 88.6134 92.3244 89.4891 92.6009 90.1642C92.8428 90.738 93.0239 91.3331 93.1432 91.9423C93.9075 95.9353 93.7316 100.045 93.7339 104.062C93.878 114.343 93.4728 124.702 92.9475 134.967C92.8823 135.907 92.8382 137.453 92.7325 138.395C92.5986 139.681 91.7014 145.7 90.0926 142.252V142.252Z" fill="#16246C"/>
<path d="M91.5996 28.3043C91.5996 28.3043 112.858 33.5967 121.8 36.8479C120.178 43.4984 114.709 64.9784 114.709 64.9784L101.363 72.6057L81.8538 64.4777C81.8538 64.4777 84.1015 55.2182 84.8803 52.0892C86.4611 45.0615 91.5996 28.3043 91.5996 28.3043Z" fill="#FFE5B1"/>
<path d="M108.445 68.4187C108.226 68.5369 114.708 64.978 114.708 64.978L105.067 63.0134L101.575 72.6084L108.445 68.4189V68.4187Z" fill="#DDC493"/>
<path d="M107.186 142.698C107.474 142.771 107.777 142.32 108.063 141.409C108.35 140.501 108.62 139.136 108.862 137.439C110.525 124.587 110.597 106.061 109.762 95.0294C109.591 93.0348 109.34 90.4913 108.839 89.0093C107.11 84.8788 106.061 100.39 105.978 101.995C105.377 111.172 105.161 123.654 105.555 132.45C105.901 137.999 106.06 141.741 107.177 142.695L107.186 142.698Z" fill="#A0A0A0"/>
<path d="M107.186 142.698C108.258 142.771 108.846 137.328 108.963 136.369C109.719 129.628 109.906 122.832 109.899 116.054C109.877 111.592 109.774 106.953 109.556 102.509C109.452 100.256 109.33 97.9999 109.141 95.7615C108.957 93.6009 108.801 91.2732 108.18 89.2317L108.198 89.2774C108.138 89.1371 108.077 89.0173 108.007 88.928C108.01 88.9293 108.018 88.9524 108.137 88.9962C108.186 89.0062 108.267 89.0242 108.336 89.0047C108.419 88.9952 108.477 88.9611 108.521 88.9265C108.528 88.9147 108.52 88.9285 108.515 88.9342C108.214 89.4282 108.088 90.0738 107.935 90.7076C107.696 91.8119 107.526 92.9566 107.373 94.1011C106.501 101.02 106.125 107.999 105.798 114.97C105.518 121.955 105.347 128.962 105.803 135.944C105.881 137.107 105.961 138.271 106.109 139.427C106.299 140.545 106.367 141.841 107.186 142.698L107.186 142.698ZM107.186 142.698C105.973 141.536 105.937 137.658 105.75 135.947L105.495 132.457C104.988 121.959 104.897 111.441 105.434 100.939C105.575 98.5968 105.743 96.2619 106.034 93.9303C106.181 92.7619 106.343 91.5954 106.589 90.4175C106.773 89.6531 106.912 88.7998 107.415 88.0769C107.644 87.7455 108.12 87.5175 108.524 87.655C109.09 87.8353 109.271 88.3019 109.48 88.741C109.87 89.9319 110.018 91.0947 110.166 92.2505C110.568 95.6468 110.65 99.0626 110.74 102.47C110.884 113.794 110.366 125.134 109.015 136.376C108.875 137.461 108.253 142.762 107.186 142.698H107.186Z" fill="#16246C"/>
<path d="M114.663 65.2251C110.175 67.6931 105.643 70.1668 101.448 73.1014C97.9506 72.1524 94.544 70.8809 91.2136 69.465C87.958 68.0976 84.7649 66.5943 81.5394 65.1755L80.9881 64.9332L81.1023 64.3314C82.8106 55.1017 85.1137 45.9297 87.9144 36.9753C88.933 33.7688 90.0165 30.5812 91.1553 27.4163C93.8781 28.2576 96.6034 29.1004 99.3352 29.9213C106.881 32.2054 114.442 34.4775 121.86 37.1556C117.494 35.9121 111.075 34.3072 106.624 33.1057C101.537 31.7747 96.4526 30.4363 91.3944 28.9917L92.277 28.5397C88.5613 39.6052 85.4895 50.9131 83.0814 62.3361L82.6049 64.6236L82.1678 63.7797C83.7742 64.5207 85.3684 65.2797 86.9605 66.0343C90.1344 67.5451 93.3007 69.0641 96.5619 70.3669C98.1842 71.0261 99.8271 71.633 101.493 72.1691L101.109 72.2273C105.414 69.4997 110.025 67.3122 114.663 65.2256L114.663 65.2251Z" fill="#16246C"/>
<path d="M121.86 37.1556C121.17 41.9645 119.974 46.6446 118.747 51.3253C117.487 55.9992 116.184 60.614 114.663 65.2253C114.872 60.3587 115.9 55.5842 117.128 50.8931C118.4 46.2094 119.891 41.6049 121.86 37.1556Z" fill="#16246C"/>
<path d="M114.709 64.978C111.452 65.0601 108.12 64.3719 104.92 63.8368L105.814 63.3882C104.727 65.5585 103.625 68.0229 102.639 70.2578C102.291 71.0355 101.953 71.8215 101.575 72.6081C101.619 70.867 101.947 69.1536 102.417 67.4817C102.943 65.609 103.704 63.8022 104.602 62.078L105.213 62.1896C108.469 62.7918 111.625 63.7717 114.708 64.9777L114.709 64.978Z" fill="#16246C"/>
<path d="M66.3822 30.6335C63.5079 35.1859 60.5445 39.6864 57.9239 44.3802C56.3784 47.2309 51.5057 55.7727 53.8619 58.4436L53.7149 58.332C55.3958 59.2326 57.6168 58.0596 59.1789 57.1195C61.0111 55.9786 62.6029 54.4755 64.1268 52.9404C67.9743 49.0346 71.374 44.6764 74.5497 40.2028C77.0735 36.6043 79.4281 32.8915 81.6992 29.1312C84.7921 23.997 87.7939 18.6882 90.3453 13.2707C91.2393 11.3472 92.187 9.24692 92.9796 7.27879C93.3718 6.26381 93.7789 5.25422 94.1459 4.23027C94.4245 3.5431 94.7879 2.47734 94.4017 1.87713C94.0115 1.43518 92.9437 1.94331 92.4258 2.18801C91.0771 2.84773 89.7228 3.9889 88.5457 4.94027C86.0105 7.01536 83.5971 9.22897 81.3078 11.5765C78.2541 14.7081 75.4567 18.0978 72.7583 21.5821L72.6214 21.4856C73.7949 19.6186 75.0317 17.79 76.3273 15.997C80.2751 10.6361 84.8726 5.68386 90.1686 1.62704C91.1856 0.931665 92.1696 0.288104 93.4621 0.0500706C95.3671 -0.294411 96.4975 1.21484 96.2816 3.02266C96.238 3.64032 96.0107 4.249 95.8081 4.81817C95.4507 5.87367 95.0555 6.91379 94.6438 7.94877C90.2199 18.7052 83.98 28.6315 77.0476 37.9302C73.0821 43.2364 69.0601 48.4742 64.6862 53.4652C62.4319 55.9799 60.0351 58.5349 56.7601 59.7161C55.5463 60.1373 53.9789 60.2737 52.849 59.4735C48.4318 55.0691 58.4556 41.0841 61.3315 36.9793C62.9095 34.7834 64.5513 32.638 66.2465 30.5363L66.3833 30.6335H66.3822Z" fill="#16246C"/>
<path d="M66.1521 22.7254C64.0152 25.4792 63.772 29.4321 65.1145 32.6489C65.4983 33.5687 66.1634 34.5485 67.1581 34.6093C67.7827 34.6476 68.3608 34.3026 68.8764 33.9478C71.7636 31.9604 74.1467 29.2472 75.745 26.1279C76.2741 25.0949 76.7263 23.984 76.7351 22.8234C76.7774 17.2065 68.1938 20.0944 66.1521 22.7254Z" fill="#A0A0A0"/>
<path d="M66.1521 22.7254C63.9613 25.5469 63.9633 29.6135 65.587 32.6861C66.6869 34.5981 67.5436 34.2182 69.0246 32.955C71.6786 30.7996 73.8971 28.0891 75.4536 25.0557C75.8193 24.3101 76.1053 23.5506 76.1441 22.7734C76.457 17.6911 67.9827 20.231 66.1521 22.7254ZM66.1521 22.7254C68.1559 20.3018 75.2963 17.2789 77.0087 21.2908C78.1845 24.3765 75.7688 28.034 73.9507 30.3897C72.7824 31.8212 71.406 33.0822 69.8821 34.1151C68.5239 35.0929 66.859 35.8698 65.5662 34.3201C64.6595 33.182 64.3907 31.7325 64.1965 30.3558C63.8928 27.691 64.502 24.8531 66.1518 22.7257L66.1521 22.7254Z" fill="#16246C"/>
<path d="M92.7203 42.1587L101.773 44.9299C102.385 45.1174 103.04 44.8232 103.312 44.2435C103.957 42.8692 104.535 41.4635 105.044 40.033C105.306 39.2964 104.843 38.4963 104.074 38.3532C101.502 37.8738 96.478 36.4731 95.8596 36.2835C94.651 35.9126 93.8986 35.7156 93.2505 36.9499C92.6715 38.0521 92.2796 39.3133 91.8784 40.5335C91.654 41.2158 92.0334 41.9488 92.7203 42.1592V42.1587Z" fill="#DDC493"/>
<path d="M92.7204 42.1586C95.7194 43.0863 98.7874 43.8025 101.863 44.4768C101.996 44.5084 102.098 44.5053 102.224 44.4794C102.474 44.423 102.667 44.2473 102.752 44.0308C102.772 43.9733 102.865 43.744 102.886 43.6814C103.01 43.36 103.333 42.4774 103.455 42.1419C103.739 41.3503 104.011 40.5552 104.276 39.7588C104.355 39.4576 104.14 39.1847 103.834 39.1573L103.694 39.1288C100.943 38.5578 98.3077 37.6503 95.676 36.6679C94.9927 36.4109 94.3391 36.1154 93.8718 36.5156C93.6258 36.7056 93.4373 37.0109 93.2588 37.3307C92.7165 38.2921 92.3336 39.3335 91.9622 40.3736C91.6259 41.0579 91.9747 41.9416 92.7201 42.1588L92.7204 42.1586ZM92.7204 42.1586C91.9688 41.9516 91.6018 41.0536 91.9057 40.3546C92.2256 39.2904 92.5144 38.2092 92.9379 37.1748C93.1444 36.65 93.4699 35.9797 94.0903 35.7704C94.6916 35.5616 95.361 35.7443 95.9215 35.8615C97.3533 36.1608 98.8177 36.4278 100.256 36.7243C101.246 36.9347 103.038 37.2958 104.013 37.49C105.366 37.62 106.298 39.0123 105.813 40.301C105.8 40.3341 105.703 40.5903 105.686 40.6316C105.205 41.8556 104.646 43.0479 104.017 44.2024L103.882 44.4489C103.593 45.0406 102.967 45.4592 102.324 45.4772C102.082 45.4923 101.813 45.4421 101.593 45.3548C98.6676 44.1921 95.7245 43.0684 92.7199 42.1583L92.7204 42.1586Z" fill="#16246C"/>
<path d="M89.7688 47.1907C95.7175 47.9345 101.49 49.5318 107.163 51.4132C109.05 52.0616 110.922 52.7604 112.748 53.5683L112.617 53.8554C112.359 53.6317 112.106 53.4006 111.856 53.1654C112.411 53.397 113.141 53.7571 113.688 54.0167C109.391 53.4698 105.163 52.4577 101.008 51.2591C97.1793 50.133 93.4006 48.8874 89.769 47.1904L89.7688 47.1907Z" fill="#16246C"/>
<path d="M88.7047 52.9688C91.667 53.0354 94.5306 53.6003 97.3832 54.2995C100.226 55.0374 103.014 55.9021 105.65 57.2551C102.688 57.1918 99.8238 56.627 96.972 55.9244C94.13 55.1834 91.3426 54.3185 88.7047 52.9688Z" fill="#16246C"/>
<path d="M87.3596 57.9504C89.5786 57.8386 91.6968 58.1379 93.8503 58.5085C95.9975 58.9171 98.0844 59.3832 100.121 60.2733C96.1004 61.0027 90.87 60.0432 87.3596 57.9504Z" fill="#16246C"/>
<path d="M108.218 43.0337C110.436 42.552 113.151 43.2673 114.831 44.7971C112.618 45.4794 109.802 44.7207 108.218 43.0337Z" fill="#16246C"/>
<path d="M128.894 55.5571C127.855 55.2945 126.949 56.2466 126.305 57.0849C124.832 59.0014 123.358 60.918 121.885 62.8348C123.985 62.1346 126.445 61.441 128.202 60.0988C128.966 59.5114 129.711 58.8134 129.986 57.8972C130.261 56.981 129.832 55.7947 128.894 55.5569L128.894 55.5571Z" fill="#FFD990"/>
<path d="M39.8952 90.4915C38.8846 89.5022 37.7224 88.5449 36.3214 88.3415C34.9204 88.1381 33.2944 89.003 33.1364 90.4069C32.9653 91.9597 34.5354 93.0948 35.8943 93.8681C38.9777 95.6218 42.0745 97.3809 45.1712 99.14C43.7269 96.2177 42.2258 92.779 39.8955 90.4918L39.8952 90.4915Z" fill="#FFD990"/>
<g opacity="0.35">
<path opacity="0.35" d="M20.8047 112.998C20.2596 113.284 20.1306 113.959 20.2883 114.36C20.3601 114.575 20.5035 114.675 20.6613 114.733C20.819 114.805 21.0055 114.819 21.1776 114.79C21.3641 114.762 21.5075 114.633 21.5649 114.518C21.608 114.418 21.6509 114.36 21.7658 114.26C21.8661 114.16 21.9953 114.002 22.11 113.772C22.2246 113.543 22.3252 113.27 22.368 112.84L22.5258 112.711C22.9703 112.811 23.3289 113.156 23.5297 113.586C23.7306 114.002 23.7734 114.518 23.6444 115.02C23.5726 115.278 23.4435 115.522 23.2714 115.723C23.0993 115.938 22.8556 116.11 22.5973 116.225C22.081 116.44 21.5647 116.469 21.0914 116.397C20.6182 116.325 20.1593 116.11 19.8007 115.766C19.6286 115.58 19.4996 115.379 19.3993 115.149C19.3134 114.92 19.2703 114.676 19.2846 114.461C19.3134 114.017 19.4855 113.615 19.7435 113.314C19.8869 113.17 20.0303 113.041 20.2024 112.941C20.3745 112.855 20.5753 112.812 20.7475 112.812L20.8049 112.998L20.8047 112.998Z" fill="#B3D5FF"/>
</g>
<g opacity="0.35">
<path opacity="0.35" d="M132.308 111.982C131.834 112.225 131.72 112.814 131.863 113.158C131.935 113.344 132.05 113.43 132.179 113.488C132.308 113.545 132.48 113.559 132.638 113.531C132.795 113.502 132.924 113.387 132.967 113.301C132.996 113.215 133.039 113.158 133.14 113.072C133.225 112.986 133.34 112.842 133.441 112.656C133.541 112.455 133.627 112.211 133.67 111.853L133.814 111.738C134.201 111.824 134.502 112.125 134.674 112.484C134.846 112.857 134.889 113.301 134.774 113.731C134.717 113.947 134.602 114.161 134.445 114.348C134.287 114.534 134.086 114.678 133.857 114.792C133.412 114.979 132.968 114.993 132.552 114.936C132.136 114.878 131.749 114.692 131.433 114.391C131.29 114.233 131.161 114.061 131.089 113.846C131.017 113.645 130.989 113.444 130.989 113.243C131.017 112.856 131.161 112.512 131.39 112.24C131.505 112.11 131.648 111.996 131.792 111.924C131.949 111.852 132.107 111.809 132.265 111.809L132.308 111.981L132.308 111.982Z" fill="#B3D5FF"/>
</g>
<g opacity="0.35">
<path opacity="0.35" d="M155.281 124.226C154.808 124.47 154.693 125.058 154.836 125.402C154.908 125.589 155.023 125.675 155.152 125.732C155.281 125.79 155.453 125.804 155.611 125.775C155.768 125.747 155.897 125.632 155.941 125.546C155.969 125.46 156.012 125.402 156.113 125.316C156.199 125.23 156.313 125.087 156.414 124.9C156.514 124.7 156.6 124.456 156.643 124.097L156.787 123.983C157.174 124.069 157.475 124.37 157.647 124.728C157.819 125.101 157.862 125.546 157.748 125.976C157.69 126.191 157.575 126.406 157.418 126.593C157.26 126.779 157.059 126.922 156.83 127.037C156.385 127.224 155.941 127.238 155.525 127.18C155.109 127.123 154.722 126.937 154.406 126.635C154.263 126.478 154.134 126.306 154.062 126.09C153.99 125.889 153.962 125.689 153.962 125.488C153.99 125.101 154.134 124.757 154.363 124.484C154.478 124.355 154.621 124.24 154.765 124.169C154.923 124.097 155.08 124.054 155.238 124.054L155.281 124.226L155.281 124.226Z" fill="#B3D5FF"/>
</g>
<path d="M55.0104 74.8167C55.5101 75.807 55.7486 76.8399 55.91 77.9083C56.0795 78.9484 55.9113 79.9995 55.8882 81.0427C55.8433 83.0811 55.7481 85.296 55.5935 87.3234L55.426 87.3311C55.2451 86.2951 55.0964 85.2575 54.9453 84.22C54.8345 83.4441 54.6354 81.8833 54.5482 81.105C54.4282 80.0685 54.163 79.0374 54.235 77.9862C54.2963 76.9074 54.4377 75.8573 54.8429 74.8244L55.0104 74.8167Z" fill="white"/>
<path d="M68.1325 24.48C68.2802 23.9344 68.7383 23.4532 69.2298 23.1595C69.4863 23.0182 69.8149 22.9048 70.0937 22.8184C70.2784 22.7676 70.5428 22.6976 70.735 22.7235C71.2949 22.813 71.8033 23.2144 71.8695 23.8593L71.7835 23.9696C71.2882 24.0773 71.0189 24.1404 70.7534 24.1709C70.56 24.2081 70.3641 24.1114 70.1835 24.0527C69.9926 24.0014 69.7438 24.0108 69.5481 24.0324C69.4281 24.0437 69.2244 24.0824 69.1082 24.1155C68.8117 24.1953 68.5229 24.3412 68.2495 24.5567L68.1325 24.48Z" fill="white"/>
<path d="M124.863 74.0776C123.624 75.2639 122.192 76.1294 120.657 76.8158C120.05 77.0923 118.468 77.5599 117.812 77.7728C115.301 78.5779 112.665 79.203 110.061 79.5896L110.03 79.4534C112.523 78.6687 115.016 77.7422 117.422 76.725C119.851 75.5681 122.109 74.5101 124.798 73.954L124.863 74.0774V74.0776Z" fill="white"/>
<path d="M95.3986 2.03545C95.2103 5.00727 94.5452 8.03193 93.5241 10.8355C93.2968 11.4508 92.9634 12.3435 92.7141 12.9616C91.9728 14.714 90.8537 16.2923 89.5186 17.642C89.2377 17.9034 88.9599 18.1645 88.656 18.4023L88.5444 18.3181C89.1069 16.9346 89.7851 15.6192 90.4435 14.2867C91.0653 12.9896 91.8815 11.7155 92.4907 10.41C92.7202 9.91235 93.1529 8.89455 93.352 8.38385C93.5546 7.87393 93.934 6.82894 94.1056 6.30722C94.5811 4.90903 94.949 3.47262 95.2601 2.01672L95.3986 2.03545Z" fill="white"/>
<path d="M175.979 151.699C175.607 150.98 175.061 150.388 174.454 149.919C172.65 148.547 170.37 147.969 168.138 147.911C164.554 147.811 160.299 148.611 157.5 145.847C156.128 144.509 155.262 142.792 153.857 141.38C150.792 138.245 145.594 137.435 141.662 139.422C140.791 139.827 139.961 140.287 139.133 140.641C137.978 141.076 137.289 141.33 136.676 140.497C135.921 139.109 135.919 137.559 135.567 135.883C134.139 128.252 126.973 122.192 119.228 122.267C111.813 122.279 104.963 127.5 102.896 134.559C102.109 136.869 101.542 139.36 100.482 141.524C95.2696 136.92 87.6772 135.186 82.0554 140.252C77.9901 143.993 78.1386 150.188 82.1188 153.967C101.692 154.744 121.287 155.193 140.87 154.648C152.45 154.37 163.984 152.849 175.551 152.372L176.311 152.341L175.979 151.699Z" fill="white"/>
<path d="M168.481 149.784C165.013 149.708 161.213 150.404 158.306 148.496C156.413 147.255 155.278 145.15 153.582 143.651C150.887 141.274 146.738 140.714 143.513 142.288C141.257 143.394 138.955 145.498 136.608 144.59C134.216 143.666 133.974 140.487 133.474 137.973C132.263 131.902 126.963 126.86 120.831 125.966C114.699 125.058 108.173 128.359 105.266 133.825C103.464 137.201 102.98 141.183 101.057 144.484C98.3012 141.819 94.652 139.881 90.8062 139.866C86.9603 139.851 83.0235 142.076 81.6761 145.665C80.6616 148.315 81.4491 151.57 83.4172 153.493H175.9C174.765 151.086 171.373 149.844 168.481 149.784L168.481 149.784Z" fill="#B0C3FF"/>
<path d="M78.7373 153.387L104.053 153.114L129.37 152.917L142.028 152.796L148.357 152.766H151.521L154.686 152.781L161.015 152.857C163.12 152.902 165.239 152.917 167.344 152.978C171.568 153.069 175.778 153.19 180.002 153.387V153.523C175.778 153.72 171.568 153.841 167.344 153.932C165.24 153.992 163.12 154.007 161.015 154.053L154.686 154.129L151.521 154.144H148.357L142.028 154.113L129.37 153.992L104.053 153.796L78.7373 153.523V153.387V153.387Z" fill="#343192"/>
</g>
<defs>
<clipPath id="clip0_2288_1548">
<rect width="180" height="154.887" fill="white"/>
</clipPath>
</defs>
</svg>
