<svg width="17" height="17" viewBox="0 0 17 17" fill="none" xmlns="http://www.w3.org/2000/svg">
<path d="M1.40395 16.8646C0.866312 16.878 0.459115 16.4475 0.517847 15.9022C0.598262 15.1553 0.695808 14.4102 0.788573 13.6647C0.83137 13.3205 0.849922 12.9717 0.94963 12.6373C1.08798 12.1732 1.34066 11.7776 1.68412 11.4352C4.10323 9.02334 6.52041 6.60947 8.93873 4.19679C9.17235 3.96368 9.33528 3.9651 9.57112 4.20049C10.7826 5.4095 11.9938 6.61897 13.2043 7.82907C13.4362 8.06092 13.4349 8.22528 13.1991 8.46061C10.7765 10.879 8.35203 13.2955 5.93138 15.716C5.40308 16.2442 4.75651 16.4816 4.02783 16.559C3.18754 16.6483 2.34941 16.7575 1.51032 16.8578C1.47509 16.862 1.43941 16.8626 1.40395 16.8646Z" fill="#5C57EA"/>
<path d="M13.342 0.512207C13.8342 0.521654 14.2518 0.679753 14.5904 1.01228C15.1984 1.60911 15.8073 2.20548 16.3983 2.81886C17.0627 3.50834 17.0725 4.54616 16.4164 5.24065C15.8754 5.81323 15.3079 6.36088 14.748 6.91548C14.5708 7.09111 14.3856 7.089 14.2064 6.9107C12.9634 5.6738 11.7219 4.4353 10.4824 3.19487C10.306 3.01834 10.3076 2.83355 10.4855 2.65467C11.0362 2.10099 11.588 1.54827 12.1462 1.00215C12.4805 0.675086 12.8937 0.525126 13.342 0.512264V0.512207Z" fill="#5C57EA"/>
</svg>
