<svg xmlns="http://www.w3.org/2000/svg" width="106" height="100" viewBox="0 0 106 100" fill="none">
<path d="M45.1033 99.9919C69.737 99.9919 89.7066 96.2605 89.7066 91.6577C89.7066 87.0548 69.737 83.3235 45.1033 83.3235C20.4696 83.3235 0.5 87.0548 0.5 91.6577C0.5 96.2605 20.4696 99.9919 45.1033 99.9919Z" fill="#F5F5F7" fill-opacity="0.8"/>
<path fill-rule="evenodd" clip-rule="evenodd" d="M80.7854 67.1737L65.0452 47.8019C64.29 46.8901 63.186 46.3381 62.0235 46.3381H28.1814C27.0196 46.3381 25.9156 46.8901 25.1604 47.8019L9.4209 67.1737V77.2941H80.786V67.1737H80.7854Z" fill="#AEB8C2"/>
<path fill-rule="evenodd" clip-rule="evenodd" d="M22.7566 21.3354H67.4493C68.1473 21.3354 68.8166 21.6127 69.3102 22.1062C69.8037 22.5997 70.0809 23.2691 70.0809 23.967V85.3775C70.0809 86.0755 69.8037 86.7448 69.3102 87.2383C68.8166 87.7319 68.1473 88.0091 67.4493 88.0091H22.7566C22.0586 88.0091 21.3893 87.7319 20.8958 87.2383C20.4023 86.7448 20.125 86.0755 20.125 85.3775V23.967C20.125 23.2691 20.4023 22.5997 20.8958 22.1062C21.3893 21.6127 22.0586 21.3354 22.7566 21.3354V21.3354Z" fill="#F5F5F7"/>
<path fill-rule="evenodd" clip-rule="evenodd" d="M28.5777 27.8835H61.6283C61.9773 27.8835 62.312 28.0222 62.5587 28.2689C62.8055 28.5157 62.9441 28.8504 62.9441 29.1993V45.6184C62.9441 45.9674 62.8055 46.3021 62.5587 46.5488C62.312 46.7956 61.9773 46.9342 61.6283 46.9342H28.5777C28.2287 46.9342 27.894 46.7956 27.6472 46.5488C27.4005 46.3021 27.2619 45.9674 27.2619 45.6184V29.1993C27.2619 28.8504 27.4005 28.5157 27.6472 28.2689C27.894 28.0222 28.2287 27.8835 28.5777 27.8835ZM28.75 54.077H61.4559C61.8506 54.077 62.2291 54.2338 62.5082 54.5128C62.7873 54.7919 62.9441 55.1704 62.9441 55.5651C62.9441 55.9598 62.7873 56.3383 62.5082 56.6174C62.2291 56.8965 61.8506 57.0533 61.4559 57.0533H28.75C28.3553 57.0533 27.9768 56.8965 27.6977 56.6174C27.4186 56.3383 27.2619 55.9598 27.2619 55.5651C27.2619 55.1704 27.4186 54.7919 27.6977 54.5128C27.9768 54.2338 28.3553 54.077 28.75 54.077ZM28.75 61.8158H61.4559C61.8507 61.8158 62.2293 61.9726 62.5085 62.2518C62.7876 62.5309 62.9444 62.9095 62.9444 63.3043C62.9444 63.699 62.7876 64.0776 62.5085 64.3568C62.2293 64.6359 61.8507 64.7928 61.4559 64.7928H28.75C28.3552 64.7928 27.9766 64.6359 27.6975 64.3568C27.4184 64.0776 27.2615 63.699 27.2615 63.3043C27.2615 62.9095 27.4184 62.5309 27.6975 62.2518C27.9766 61.9726 28.3552 61.8158 28.75 61.8158ZM80.6402 90.4355C80.1303 92.4559 78.3395 93.9618 76.2092 93.9618H13.9967C11.8665 93.9618 10.0757 92.4553 9.56646 90.4355C9.46934 90.0505 9.42029 89.6549 9.42041 89.2579V67.1743H26.7349C28.6474 67.1743 30.1888 68.7849 30.1888 70.7401V70.7664C30.1888 72.721 31.748 74.2993 33.6605 74.2993H56.5454C58.4579 74.2993 60.0171 72.7066 60.0171 70.7513V70.7434C60.0171 68.7881 61.5586 67.1737 63.4711 67.1737H80.7855V89.2585C80.7855 89.6645 80.7349 90.0585 80.6402 90.4355Z" fill="#DCE0E6"/>
<path fill-rule="evenodd" clip-rule="evenodd" d="M82.8166 22.4026L78.3232 24.1461C78.2078 24.1909 78.082 24.2023 77.9604 24.1789C77.8388 24.1555 77.7263 24.0982 77.6357 24.0137C77.5452 23.9292 77.4804 23.8208 77.4487 23.7011C77.4171 23.5813 77.4199 23.4551 77.4568 23.3368L78.7311 19.2533C77.0278 17.3164 76.0278 14.9546 76.0278 12.4059C76.0278 5.83026 82.6844 0.5 90.8962 0.5C99.1061 0.5 105.763 5.83026 105.763 12.4059C105.763 18.9816 99.1068 24.3118 90.8956 24.3118C87.9166 24.3118 85.143 23.6105 82.8166 22.4026Z" fill="#DCE0E6"/>
<path d="M96.7528 14.556C97.7879 14.556 98.6271 13.7268 98.6271 12.704C98.6271 11.6812 97.7879 10.8521 96.7528 10.8521C95.7176 10.8521 94.8784 11.6812 94.8784 12.704C94.8784 13.7268 95.7176 14.556 96.7528 14.556Z" fill="white"/>
<path fill-rule="evenodd" clip-rule="evenodd" d="M86.9132 14.3245H83.1646L85.0711 11.0837L86.9132 14.3245ZM89.256 11.0837H92.5356V14.3245H89.256V11.0837Z" fill="white"/>
</svg>