<svg width="16" height="16" viewBox="0 0 16 16" fill="none" xmlns="http://www.w3.org/2000/svg">
<g id="Close">
<rect width="16" height="16" rx="8" fill="#A0A0A0"/>
<path id="Union" fill-rule="evenodd" clip-rule="evenodd" d="M11.0786 5.96734C11.3715 5.67445 11.3715 5.19957 11.0786 4.90668C10.7857 4.61379 10.3108 4.61379 10.0179 4.90668L7.99262 6.93196L5.96734 4.90668C5.67445 4.61379 5.19957 4.61379 4.90668 4.90668C4.61379 5.19957 4.61379 5.67445 4.90668 5.96734L6.93196 7.99262L4.90672 10.0179C4.61383 10.3108 4.61383 10.7856 4.90672 11.0785C5.19962 11.3714 5.67449 11.3714 5.96738 11.0785L7.99262 9.05328L10.0179 11.0785C10.3108 11.3714 10.7856 11.3714 11.0785 11.0785C11.3714 10.7856 11.3714 10.3108 11.0785 10.0179L9.05328 7.99262L11.0786 5.96734Z" fill="white"/>
</g>
</svg>
