<svg width="22" height="22" viewBox="0 0 22 22" fill="none" xmlns="http://www.w3.org/2000/svg">
<path d="M14 11C15.3113 11 16.4231 11.8424 16.8311 13.0146C16.886 13.0053 16.9424 13 17 13C17.5523 13 18 13.4477 18 14C18 14.5523 17.5523 15 17 15C16.9423 15 16.886 14.9937 16.8311 14.9844C16.4233 16.1571 15.3116 17 14 17C12.6941 17 11.5859 16.1647 11.1738 15H5C4.44772 15 4 14.5523 4 14C4 13.4477 4.44772 13 5 13H11.1738C11.5859 11.8353 12.6941 11 14 11ZM14 13C13.4477 13 13 13.4477 13 14C13 14.5523 13.4477 15 14 15C14.5523 15 15 14.5523 15 14C15 13.4477 14.5523 13 14 13ZM8 5C9.30585 5 10.4141 5.83532 10.8262 7H17C17.5523 7 18 7.44772 18 8C18 8.55228 17.5523 9 17 9H10.8262C10.4141 10.1647 9.30585 11 8 11C6.69415 11 5.58594 10.1647 5.17383 9H5C4.44772 9 4 8.55228 4 8C4 7.44772 4.44772 7 5 7H5.17383C5.58594 5.83532 6.69415 5 8 5ZM8 7C7.44772 7 7 7.44772 7 8C7 8.55228 7.44772 9 8 9C8.55228 9 9 8.55228 9 8C9 7.44772 8.55228 7 8 7Z" fill="#d11243"/>
</svg>
