<svg width="12" height="12" viewBox="0 0 12 12" fill="none" xmlns="http://www.w3.org/2000/svg">
<g id="Layer_1" clip-path="url(#clip0_941_16486)">
<path id="Vector" d="M6 0C2.69149 0 0 2.69149 0 6C0 9.30851 2.69149 12 6 12C9.30851 12 12 9.30851 12 6C12 2.69149 9.30851 0 6 0ZM5.95451 7.70951C5.76101 7.90301 5.5065 7.9995 5.25101 7.9995C4.99552 7.9995 4.7385 7.902 4.54301 7.707L3.51136 6.70723C3.31291 6.5149 3.30797 6.19812 3.5003 5.9997C3.6926 5.8013 4.00934 5.79638 4.20773 5.98866L5.24501 6.99398L7.79292 4.49344C7.98996 4.30005 8.30637 4.3027 8.50015 4.49939C8.69419 4.69634 8.69182 5.0133 8.49487 5.20734L5.955 7.70951H5.95451Z" fill="#00961F"/>
</g>
<defs>
<clipPath id="clip0_941_16486">
<rect width="12" height="12" fill="white"/>
</clipPath>
</defs>
</svg>
