<svg width="30" height="30" viewBox="0 0 30 30" fill="none" xmlns="http://www.w3.org/2000/svg">
<g id="Layer_1" clip-path="url(#clip0_1245_35811)">
<path id="Vector" d="M25.7972 10.2C27.6932 10.2228 29.2748 8.75759 29.3972 6.86759C29.5424 3.55319 26.9732 0.749991 23.6588 0.605991C23.5712 0.602391 6.59717 0.599991 6.59717 0.599991C3.28277 0.599991 0.597168 3.28559 0.597168 6.59999C0.597168 8.58839 2.20997 10.2 4.19717 10.2H25.7972Z" fill="#D11243"/>
<path id="Vector_2" d="M22.1971 29.4C26.1735 29.4 29.3971 26.1764 29.3971 22.2C29.3971 18.2235 26.1735 15 22.1971 15C18.2206 15 14.9971 18.2235 14.9971 22.2C14.9971 26.1764 18.2206 29.4 22.1971 29.4Z" fill="black"/>
<path id="Vector_3" d="M12.5971 22.2C12.5971 17.2512 16.3639 13.1796 21.1783 12.6672C21.2275 12.6636 21.2227 12.6 21.1723 12.6H2.99712C2.33472 12.6 1.79712 13.1376 1.79712 13.8V23.4C1.80072 26.712 4.48512 29.3964 7.79712 29.4H15.8551C13.8583 27.6396 12.5971 25.0644 12.5971 22.2Z" fill="#FFAC1C"/>
<g id="Group">
<path id="Vector_4" d="M19.1924 22.056C19.268 20.4492 20.588 19.1916 22.1972 19.1916C22.6544 19.1916 23.1032 19.296 23.5112 19.494L23.3984 19.608C23.2256 19.7808 23.174 20.0388 23.2676 20.2644C23.3612 20.49 23.5796 20.6364 23.8244 20.6364H25.4444C25.7768 20.6364 26.0468 20.3664 26.0468 20.034V18.4128C26.0468 18.0804 25.7756 17.8092 25.442 17.8092C25.2836 17.8092 25.1336 17.8716 25.0184 17.9868L24.6548 18.3504C23.9168 17.8788 23.072 17.6292 22.1972 17.6292C19.7504 17.6292 17.7452 19.542 17.6312 21.984C17.6216 22.194 17.6996 22.3956 17.852 22.5528C17.996 22.7016 18.1964 22.7928 18.4016 22.8012C18.83 22.8012 19.1732 22.4736 19.1924 22.0572V22.056Z" fill="white"/>
<path id="Vector_5" d="M26.5602 21.8544C26.4198 21.6996 26.2278 21.6096 26.019 21.6H26.013H25.9866C25.5594 21.6 25.2222 21.9204 25.203 22.3452C25.1274 23.9508 23.8074 25.2096 22.1982 25.2096C21.741 25.2096 21.2934 25.1052 20.8842 24.9072L20.997 24.7944C21.1698 24.6216 21.2214 24.3636 21.1278 24.138C21.0342 23.9124 20.8158 23.766 20.571 23.766H18.9498C18.6174 23.766 18.3474 24.036 18.3474 24.3684V25.9896C18.3474 26.322 18.6186 26.5932 18.9522 26.5932C19.1106 26.5932 19.2606 26.5308 19.3758 26.4156L19.7394 26.052C20.4762 26.5248 21.3222 26.7732 22.197 26.7732C24.6438 26.7732 26.649 24.8604 26.763 22.4184C26.7726 22.2096 26.7006 22.0092 26.5602 21.8544Z" fill="white"/>
</g>
<path id="Vector_6" d="M19.3963 4.04519C19.2259 3.87239 18.9979 3.77639 18.7543 3.77519H18.7495C18.5071 3.77519 18.2791 3.86879 18.1063 4.03919C17.3215 4.81679 16.0363 5.25719 14.6599 5.19479C13.4959 5.14079 12.4831 4.73279 11.9503 4.10039C11.6275 3.71519 11.0515 3.66599 10.6651 3.98879C10.2799 4.31279 10.2295 4.88879 10.5535 5.27399C11.4211 6.30479 12.8875 6.93959 14.5759 7.01639C14.6875 7.02119 14.7991 7.02479 14.9095 7.02479C16.6735 7.02479 18.3055 6.40919 19.3891 5.33519C19.7467 4.98119 19.7491 4.40279 19.3951 4.04519H19.3963Z" fill="white"/>
</g>
<defs>
<clipPath id="clip0_1245_35811">
<rect width="28.806" height="28.8" fill="white" transform="translate(0.597168 0.599991)"/>
</clipPath>
</defs>
</svg>
