<svg width="24" height="24" viewBox="0 0 24 24" fill="none" xmlns="http://www.w3.org/2000/svg">
<g id="Group 1">
<path id="Vector" d="M6 24C2.68629 24 0 21.3137 0 18C0 14.6863 2.68629 12 6 12C9.31371 12 12 14.6863 12 18C12 21.3137 9.31371 24 6 24Z" fill="#0D0D0E"/>
<path id="Vector_2" d="M24 7.987C23.987 7.897 23.975 7.815 23.961 7.725L22.803 3.67C22.183 1.498 20.198 0 17.938 0H17.059C17.026 0 17 0.026 17 0.059V4C17 4.552 16.552 5 16 5C15.448 5 15 4.552 15 4V0.059C15 0.026 14.974 0 14.941 0H9.059C9.026 0 9 0.026 9 0.059V4C9 4.552 8.553 5 8 5C7.447 5 7 4.552 7 4V0.059C7 0.026 6.974 0 6.941 0H6.062C3.803 0 1.818 1.497 1.197 3.669L0.0410004 7.714L0 7.991C-0.00300026 9.332 0.657 10.514 1.667 11.242C1.687 11.256 1.713 11.257 1.734 11.244C2.97 10.46 4.431 10.001 6 10.001C8.013 10.001 9.85 10.754 11.258 11.987C11.268 11.996 11.281 12.001 11.295 12.001H13C14.178 12.001 15.228 11.478 15.96 10.664C15.982 10.639 16.018 10.639 16.04 10.664C16.772 11.478 17.822 12.001 19 12.001H19.987C22.203 12.001 24 10.203 24 7.987Z" fill="#D11243"/>
<path id="Vector_3" d="M18.941 24H11.421C11.367 24 11.344 23.938 11.383 23.902C12.986 22.438 13.999 20.337 13.999 18C13.999 16.542 13.601 15.178 12.917 14H12.999C14.051 14 15.074 13.717 15.973 13.197C15.99 13.187 16.009 13.187 16.026 13.197C16.925 13.718 17.948 14 19 14H20.046C21.067 14 22.047 13.739 22.916 13.257C22.955 13.236 23 13.262 23 13.306V19.941C23 22.183 21.183 24 18.941 24Z" fill="#FFAC1C"/>
<path id="Vector_4" d="M7.43987 15.2719L9.05387 16.8859C9.64887 17.5089 9.64887 18.4899 9.05387 19.1139L7.43987 20.7279C7.17587 20.9919 6.74887 20.9919 6.48487 20.7279C6.22087 20.4639 6.22087 20.0369 6.48487 19.7729L7.58287 18.6749L3.17487 18.6749C2.80187 18.6749 2.49987 18.3729 2.49987 17.9999C2.49987 17.6269 2.80187 17.3249 3.17487 17.3249L7.58287 17.3249L6.48487 16.2269C6.22087 15.9629 6.22087 15.5359 6.48487 15.2719C6.74887 15.0079 7.17587 15.0079 7.43987 15.2719Z" fill="white"/>
</g>
</svg>
