<svg width="68" height="28" viewBox="0 0 68 28" fill="none" xmlns="http://www.w3.org/2000/svg">
<g id="Logo" clip-path="url(#clip0_750_69184)">
<path id="Union" fill-rule="evenodd" clip-rule="evenodd" d="M33.5584 3.24515C33.853 1.98475 33.1463 0.747464 31.9801 0.481601C30.8138 0.215739 29.6296 1.02197 29.335 2.28238C29.0405 3.54278 29.7472 4.78006 30.9134 5.04592C32.0797 5.31178 33.2639 4.50555 33.5584 3.24515ZM17.111 3.24579C17.4057 1.98539 16.6991 0.74801 15.5329 0.482029C14.3666 0.216049 13.1823 1.02219 12.8876 2.28259C12.593 3.54299 13.2995 4.78037 14.4658 5.04635C15.632 5.31233 16.8163 4.50619 17.111 3.24579ZM21.48 23.8086C16.477 23.8086 13.2612 21.8604 10.6809 18.1919C9.57499 18.2115 8.84344 19.3158 9.32708 20.5963C10.6683 24.1487 15.3918 28.0002 22.2328 28.0002C30.1584 28.0002 35.3848 23.5041 35.3848 20.7274C35.3848 19.7632 34.8905 18.8781 33.4019 18.0917C31.0585 21.3271 27.0293 23.8086 21.48 23.8086Z" fill="#D11243"/>
<path id="Vector" d="M67.9995 17.0698C67.9995 19.376 65.8966 21.4288 63.3796 21.4288C60.6028 21.4288 59.0622 19.77 59.0622 18.1095C59.0622 16.449 60.3008 15.2904 61.82 15.8528C61.4685 16.1059 61.356 16.4238 61.356 16.755C61.356 17.2234 61.7193 17.8085 62.4851 17.8085C63.1207 17.8085 63.7188 17.269 63.7188 16.3283C63.7188 14.9231 62.0292 13.5181 60.9591 11.7073C60.7768 12.682 60.3831 13.5824 59.7656 14.4323C58.3782 16.3414 56.3776 17.8673 54.321 17.8673C53.3213 17.8673 52.1911 17.1121 52.1911 15.7516C52.1911 15.5998 52.1996 15.4433 52.2145 15.2837C50.9551 16.7864 49.3581 17.8675 47.8006 17.8675C46.6501 17.8675 45.6098 17.1283 45.6098 15.7516C45.6098 14.0652 47.2124 10.814 47.2124 8.52956C47.2124 8.08459 47.0841 7.57797 46.7936 7.25032C47.2626 6.65377 47.7868 6.13335 48.8675 6.13335C49.915 6.13335 50.8997 6.85477 50.8997 8.03139C50.8997 9.70863 49.7877 12.1758 49.7877 13.6009C49.7877 14.0352 50.0739 14.29 50.4854 14.29C52.02 14.29 53.7635 10.6889 53.7635 8.52933C53.7635 8.06946 53.6154 7.53613 53.3546 7.14013C53.8236 6.54359 54.4705 6.12311 55.4285 6.12311C56.3534 6.12311 57.3595 6.8403 57.3595 7.93123C57.3595 9.71998 56.3286 12.4904 56.3286 13.5991C56.3286 13.9824 56.5583 14.29 57.0523 14.29C58.377 14.29 60.1 11.3502 60.1 8.88904C60.1 8.88904 60.1009 8.86077 60.1016 8.84742C60.1237 6.85121 61.7094 5.67458 63.2487 5.67458C64.1689 5.67458 64.767 6.06813 65.0018 6.49885C64.1094 6.49885 63.6672 7.35004 63.6672 8.30674C63.6663 11.4166 67.9995 13.1141 67.9995 17.0698ZM13.8928 6.12355C12.9347 6.12355 12.2494 6.55049 11.7468 7.25366C12.0549 7.63785 12.2279 8.14002 12.2279 8.92978C12.2279 10.4781 10.6555 14.4683 10.6555 15.7645C10.6555 17.0609 11.7858 17.8675 12.7855 17.8675C13.6471 17.8675 14.7181 17.3413 15.3365 16.4029C14.9096 15.9526 14.6511 15.1882 14.6511 14.353C14.6511 13.0342 15.8237 9.81859 15.8237 8.03006C15.8237 6.93913 14.9225 6.12355 13.8928 6.12355ZM30.3485 6.12355C29.3904 6.12355 28.7049 6.55049 28.2023 7.25366C28.5104 7.63785 28.6834 8.14002 28.6834 8.92978C28.6834 10.4781 27.1113 14.4683 27.1113 15.7645C27.1113 17.0609 28.2415 17.8675 29.2412 17.8675C30.1028 17.8675 31.1738 17.3413 31.7922 16.4029C31.3654 15.9526 31.1069 15.1882 31.1069 14.353C31.1069 13.0342 32.2795 9.81859 32.2795 8.03006C32.2793 6.93913 31.3782 6.12355 30.3485 6.12355ZM45.1423 10.7459C45.1423 14.4757 42.0577 17.8675 38.1403 17.8675C35.4374 17.8675 32.97 16.4331 32.97 13.2452C32.97 9.51542 36.0558 6.12355 39.9721 6.12355C42.6639 6.12378 45.1423 7.55816 45.1423 10.7459ZM41.2132 12.252C41.5531 10.3484 40.9545 8.77196 39.7753 8.56651C38.5964 8.36128 37.2422 9.83528 36.9023 11.7389C36.5654 13.6267 37.2633 15.2369 38.4423 15.4422C39.6214 15.6476 40.8733 14.1556 41.2132 12.252ZM23.3836 10.28C23.671 10.6656 24.1526 10.9534 24.8828 10.9534C25.9382 10.9534 26.7441 9.98642 26.7441 8.5231C26.7441 7.32845 25.6448 6.12355 23.5506 6.12355C19.8579 6.12355 16.5147 9.60156 16.5147 13.3912C16.5147 16.0763 18.3044 17.8678 21.2191 17.8678C24.0421 17.8678 26.1149 16.1173 26.1149 14.4176C26.1149 13.9673 25.7651 13.6376 25.176 13.5637C24.549 14.548 23.5206 15.0433 22.5644 15.0433C21.3794 15.0433 20.3925 13.9862 20.3925 12.5565C20.3925 10.6575 21.8824 8.56651 23.1348 8.56651C23.6189 8.56651 23.8603 8.86344 23.8603 9.31442C23.8605 9.69127 23.7365 9.99065 23.3836 10.28ZM8.5136 13.2347C7.99164 13.8742 6.48728 14.1916 4.17317 13.9125C5.82424 9.83573 6.92991 5.95216 6.92991 3.07804C6.93014 1.46336 6.10235 0.431641 4.60949 0.431641C3.72558 0.431641 2.77384 0.808267 2.12499 1.76341C2.55793 2.25645 2.7051 3.16152 2.7051 3.94615C2.7051 9.66789 -0.000488281 13.6879 -0.000488281 16.0401C-0.000488281 17.0097 0.568575 17.5348 1.1773 17.8573C1.61272 17.5047 2.36884 17.2561 2.90094 17.2561C4.12313 17.2561 6.00093 18.0612 7.98961 18.0298C9.24155 18.01 9.91811 16.7201 9.90211 15.7326C9.88836 14.8817 9.38691 13.8317 8.5136 13.2347Z" fill="#0D0D0E"/>
</g>
<defs>
<clipPath id="clip0_750_69184">
<rect width="68" height="28" fill="white" transform="translate(-0.000488281)"/>
</clipPath>
</defs>
</svg>
