<svg width="16" height="19" viewBox="0 0 16 19" fill="none" xmlns="http://www.w3.org/2000/svg">
<g id="Group">
<g id="Subtract">
<path fill-rule="evenodd" clip-rule="evenodd" d="M8.21517 17.8611C8.21517 17.8611 15.3337 13.1155 15.3337 8.03084C15.3337 6.1429 14.5837 4.33229 13.2487 2.99731C11.9137 1.66234 10.1031 0.912354 8.21517 0.912354C6.32723 0.912354 4.51661 1.66234 3.18164 2.99731C1.84666 4.33229 1.09668 6.1429 1.09668 8.03084C1.09668 13.1155 8.21517 17.8611 8.21517 17.8611ZM12.1254 8.03081C12.1254 10.1903 10.3748 11.9409 8.21526 11.9409C6.05576 11.9409 4.30514 10.1903 4.30514 8.03081C4.30514 5.87131 6.05576 4.12069 8.21526 4.12069C10.3748 4.12069 12.1254 5.87131 12.1254 8.03081Z" fill="#464646"/>
<path d="M8.21517 17.8611L7.84537 18.4158C8.0693 18.5651 8.36104 18.5651 8.58497 18.4158L8.21517 17.8611ZM13.2487 2.99731L12.7773 3.46872L13.2487 2.99731ZM3.18164 2.99731L3.65304 3.46872L3.18164 2.99731ZM14.667 8.03084C14.667 10.2912 13.061 12.5815 11.2975 14.3869C10.4335 15.2715 9.56701 16.0041 8.91555 16.516C8.59036 16.7715 8.32011 16.9709 8.13233 17.1057C8.03847 17.173 7.96532 17.2242 7.91632 17.258C7.89182 17.2749 7.87337 17.2875 7.8614 17.2956C7.85542 17.2997 7.85105 17.3026 7.84836 17.3044C7.84702 17.3053 7.84609 17.306 7.84559 17.3063C7.84534 17.3065 7.84519 17.3066 7.84516 17.3066C7.84514 17.3066 7.84519 17.3066 7.84518 17.3066C7.84526 17.3065 7.84537 17.3064 8.21517 17.8611C8.58497 18.4158 8.58513 18.4157 8.58532 18.4156C8.58542 18.4155 8.58563 18.4154 8.58583 18.4153C8.58623 18.415 8.58673 18.4147 8.58734 18.4143C8.58857 18.4134 8.59022 18.4123 8.5923 18.4109C8.59645 18.4081 8.6023 18.4042 8.60978 18.3991C8.62475 18.389 8.64627 18.3743 8.67391 18.3552C8.72918 18.317 8.80896 18.2612 8.90975 18.1889C9.11127 18.0443 9.39715 17.8332 9.73932 17.5644C10.4226 17.0275 11.3357 16.256 12.2513 15.3186C14.0471 13.48 16.0003 10.8552 16.0003 8.03084H14.667ZM12.7773 3.46872C13.9872 4.67867 14.667 6.31971 14.667 8.03084H16.0003C16.0003 5.96609 15.1801 3.98591 13.7201 2.52591L12.7773 3.46872ZM8.21517 1.57902C9.9263 1.57902 11.5673 2.25876 12.7773 3.46872L13.7201 2.52591C12.2601 1.06591 10.2799 0.245687 8.21517 0.245687V1.57902ZM3.65304 3.46872C4.86299 2.25876 6.50404 1.57902 8.21517 1.57902V0.245687C6.15042 0.245687 4.17023 1.06591 2.71023 2.52591L3.65304 3.46872ZM1.76335 8.03084C1.76335 6.31971 2.44309 4.67867 3.65304 3.46872L2.71023 2.52591C1.25023 3.98591 0.430013 5.96609 0.430013 8.03084H1.76335ZM8.21517 17.8611C8.58497 17.3064 8.58508 17.3065 8.58516 17.3066C8.58515 17.3066 8.5852 17.3066 8.58518 17.3066C8.58515 17.3066 8.585 17.3065 8.58475 17.3063C8.58425 17.306 8.58332 17.3053 8.58198 17.3044C8.57929 17.3026 8.57492 17.2997 8.56894 17.2956C8.55697 17.2875 8.53852 17.2749 8.51402 17.258C8.46502 17.2242 8.39186 17.173 8.29801 17.1057C8.11023 16.9709 7.83998 16.7715 7.51479 16.516C6.86333 16.0041 5.99686 15.2715 5.13284 14.3869C3.36938 12.5815 1.76335 10.2912 1.76335 8.03084H0.430013C0.430013 10.8552 2.38322 13.48 4.17901 15.3186C5.09462 16.256 6.00777 17.0275 6.69102 17.5644C7.03319 17.8332 7.31907 18.0443 7.52059 18.1889C7.62138 18.2612 7.70116 18.317 7.75643 18.3552C7.78407 18.3743 7.80559 18.389 7.82056 18.3991C7.82804 18.4042 7.83389 18.4081 7.83804 18.4109C7.84012 18.4123 7.84177 18.4134 7.843 18.4143C7.84361 18.4147 7.84411 18.415 7.84451 18.4153C7.84471 18.4154 7.84492 18.4155 7.84502 18.4156C7.84521 18.4157 7.84537 18.4158 8.21517 17.8611ZM8.21526 12.6076C10.743 12.6076 12.792 10.5585 12.792 8.03081H11.4587C11.4587 9.82212 10.0066 11.2743 8.21526 11.2743V12.6076ZM3.63848 8.03081C3.63848 10.5585 5.68757 12.6076 8.21526 12.6076V11.2743C6.42395 11.2743 4.97181 9.82212 4.97181 8.03081H3.63848ZM8.21526 3.45402C5.68757 3.45402 3.63848 5.50312 3.63848 8.03081H4.97181C4.97181 6.2395 6.42395 4.78736 8.21526 4.78736V3.45402ZM12.792 8.03081C12.792 5.50312 10.743 3.45402 8.21526 3.45402V4.78736C10.0066 4.78736 11.4587 6.2395 11.4587 8.03081H12.792Z" fill="#464646"/>
</g>
</g>
</svg>
