<svg width="64" height="64" viewBox="0 0 64 64" fill="none" xmlns="http://www.w3.org/2000/svg">
<g id="location">
<path id="Vector" d="M54.0102 58.7401C54.0102 61.6501 44.1502 64.0001 32.0002 64.0001C19.8502 64.0001 9.99023 61.6501 9.99023 58.7401C9.99023 56.1401 17.8902 54.0001 28.2502 53.5601H35.7502C46.1202 54.0001 54.0102 56.1401 54.0102 58.7401Z" fill="#E3E2E1"/>
<path id="Vector_2" d="M32 0C20.7 0 11.54 9.15 11.54 20.45C11.54 31.75 32 58.74 32 58.74C32 58.74 52.45 31.75 52.45 20.45C52.45 9.15 43.3 0 32 0ZM32 33.99C24.52 33.99 18.46 27.93 18.46 20.45C18.46 12.97 24.52 6.91 32 6.91C39.48 6.91 45.54 12.97 45.54 20.45C45.54 27.93 39.48 33.99 32 33.99Z" fill="#E82327"/>
</g>
</svg>
