<svg width="24" height="24" viewBox="0 0 24 24" fill="none" xmlns="http://www.w3.org/2000/svg">
<g id="JNYVwL.tif">
<g id="Group">
<path id="Vector" d="M5.74453 0.00351479C5.88883 0.00350389 6.01685 0.115534 6.01685 0.259831C6.01779 2.07145 6.01779 3.88354 6.01732 5.69516C6.01732 6.01616 6.01638 6.01756 5.69492 6.01756C3.8833 6.01756 2.07121 6.01756 0.259587 6.01709C0.115074 6.01709 0.00325973 5.88928 0.00327065 5.74477C0.00341106 3.88569 0.00488739 2.0266 -0.000488281 0.167516C-0.000488281 0.0278721 0.0276279 -0.000244141 0.167272 -0.000244141C2.02636 0.00513153 3.88544 0.0036552 5.74453 0.00351479Z" fill="#464646"/>
<path id="Vector_2" d="M14.9982 0.00561523C14.998 0.00561523 14.9978 0.00582943 14.9978 0.00608331C15.0029 0.0912148 15.0132 0.176812 15.0132 0.261941C15.0142 2.07356 15.0142 3.88471 15.0137 5.69634C15.0137 6.01873 15.0128 6.01967 14.6927 6.01967C12.889 6.01967 11.0854 6.01545 9.28173 6.02483C9.04368 6.02623 8.97808 5.95454 8.97901 5.71977C8.98792 3.89268 8.9837 2.0656 8.98464 0.238511C8.98464 0.106926 9.102 0.00561523 9.23358 0.00561523C11.1553 0.00561523 13.0765 0.00561523 14.9982 0.00561523Z" fill="#464646"/>
<path id="Vector_3" d="M23.996 5.74477C23.996 5.88907 23.884 6.01709 23.7397 6.01709C21.928 6.01803 20.116 6.01803 18.3043 6.01756C17.9833 6.01756 17.9819 6.01663 17.9819 5.69516C17.9819 3.88354 17.9819 2.07145 17.9824 0.259831C17.9824 0.115318 18.1102 0.00350387 18.2547 0.00351479C20.1138 0.0036552 21.9729 0.00513153 23.832 -0.000244141C23.9716 -0.000244141 24.0002 0.0278721 23.9997 0.167516C23.9944 2.0266 23.9958 3.88569 23.996 5.74477Z" fill="#464646"/>
<path id="Vector_4" d="M0.00244141 8.99795C0.00244141 8.9982 0.00265528 8.99841 0.00290877 8.99839C0.0880405 8.99323 0.173637 8.98295 0.258768 8.98295C2.07039 8.98202 3.88154 8.98202 5.69316 8.98249C6.01556 8.98249 6.0165 8.98342 6.0165 9.30348C6.0165 11.1071 6.01228 12.9108 6.02165 14.7144C6.02306 14.9525 5.95136 15.0181 5.71659 15.0172C3.88951 15.0083 2.06242 15.0125 0.235337 15.0115C0.103753 15.0115 0.00244141 14.8942 0.00244141 14.7626C0.00244141 12.8409 0.00244141 10.9197 0.00244141 8.99795Z" fill="#464646"/>
<path id="Vector_5" d="M23.9953 15.0014C23.9953 15.0011 23.9951 15.0009 23.9948 15.001C23.9097 15.0061 23.8241 15.0164 23.739 15.0164C21.9274 15.0173 20.1162 15.0173 18.3046 15.0169C17.9822 15.0169 17.9812 15.0159 17.9812 14.6959C17.9812 12.8922 17.9855 11.0886 17.9761 9.28491C17.9747 9.04686 18.0464 8.98125 18.2812 8.98219C20.1082 8.99109 21.9353 8.98687 23.7624 8.98781C23.894 8.98781 23.9953 9.10517 23.9953 9.23676V15.0014Z" fill="#464646"/>
<path id="Vector_6" d="M0.00327627 18.2553C0.00326537 18.111 0.115296 17.983 0.259592 17.983C2.07121 17.982 3.8833 17.982 5.69492 17.9825C6.01592 17.9825 6.01732 17.9834 6.01732 18.3049C6.01732 20.1165 6.01732 21.9286 6.01685 23.7402C6.01685 23.8847 5.88905 23.9965 5.74453 23.9965C3.88545 23.9964 2.02636 23.9949 0.167277 24.0003C0.0276336 24.0003 -0.000951258 23.9722 -0.000482655 23.8325C0.00489302 21.9734 0.00341669 20.1144 0.00327627 18.2553Z" fill="#464646"/>
<path id="Vector_7" d="M9.00064 23.9956C9.00089 23.9956 9.00109 23.9953 9.00108 23.9951C8.99591 23.91 8.98564 23.8244 8.98564 23.7392C8.9847 21.9276 8.9847 20.1165 8.98517 18.3048C8.98517 17.9824 8.98611 17.9815 9.30616 17.9815C11.1098 17.9815 12.9135 17.9857 14.7171 17.9763C14.9552 17.9749 15.0208 18.0466 15.0198 18.2814C15.0109 20.1085 15.0152 21.9356 15.0142 23.7627C15.0142 23.8942 14.8969 23.9956 14.7653 23.9956H9.00064Z" fill="#464646"/>
<path id="Vector_8" d="M18.255 23.9962C18.1107 23.9962 17.9827 23.8842 17.9827 23.7399C17.9818 21.9283 17.9818 20.1162 17.9822 18.3046C17.9822 17.9836 17.9832 17.9822 18.3046 17.9822C20.1163 17.9822 21.9284 17.9822 23.74 17.9826C23.8845 17.9826 23.9963 18.1105 23.9963 18.255C23.9961 20.1141 23.9947 21.9731 24 23.8322C24 23.9719 23.9719 24.0005 23.8323 24C21.9732 23.9946 20.1141 23.9961 18.255 23.9962Z" fill="#464646"/>
<path id="Vector_9" d="M15.0137 12.0145C15.0137 12.9199 15.0071 13.8252 15.0184 14.7305C15.0212 14.9569 14.95 15.0225 14.726 15.0215C12.9073 15.0136 11.0887 15.0136 9.27002 15.0215C9.04368 15.0225 8.97808 14.9531 8.97901 14.7291C8.98698 12.9105 8.98698 11.0918 8.97901 9.27319C8.97808 9.04686 9.04696 8.98125 9.27142 8.98219C11.0901 8.99015 12.9087 8.99015 14.7274 8.98219C14.9537 8.98125 15.0212 9.05014 15.0184 9.2746C15.0076 10.1874 15.0137 11.1007 15.0137 12.0141V12.0145Z" fill="#464646"/>
</g>
</g>
</svg>
