<svg width="121" height="108" viewBox="0 0 121 108" fill="none" xmlns="http://www.w3.org/2000/svg">
<g clip-path="url(#clip0_1803_5049)">
<g opacity="0.7">
<path opacity="0.7" d="M7.35819 88.9991C9.70517 88.606 12.0819 89.2576 14.4049 89.7689C16.7279 90.2802 19.2333 90.6388 21.4248 89.7137C23.7612 88.7272 25.2859 86.4788 27.3174 84.9601C32.1368 81.359 39.9144 82.9585 43.0281 88.0603C44.9907 90.2773 45.2688 92.6868 45.2688 92.6868H2.76758C3.29516 90.757 5.31632 89.3414 7.35819 88.9991Z" fill="#B0C3FF"/>
</g>
<path d="M0.855469 92.8138C4.9394 92.6928 9.02333 92.603 13.1057 92.4955L25.3575 92.2369C27.3994 92.1905 29.4414 92.1412 31.4833 92.0845C33.5252 92.0337 35.5672 92.0172 37.6091 92.0396L40.672 92.0904C41.693 92.1188 42.7139 92.1368 43.7364 92.1786C45.7783 92.2488 47.8219 92.3416 49.8653 92.5001L49.8668 92.6197C47.8263 92.8036 45.7844 92.9231 43.7426 93.0204C42.7215 93.0742 41.7007 93.1055 40.6797 93.1475L37.6168 93.2373C35.5749 93.285 33.5328 93.2956 31.491 93.2701C29.4491 93.2386 27.407 93.2162 25.3636 93.1953L13.1105 93.0951C9.02659 93.0413 4.94132 93.0041 0.857387 92.9352L0.855852 92.8142L0.855469 92.8138Z" fill="#16246C"/>
<g opacity="0.35">
<path opacity="0.35" d="M90.6065 84.0898C89.873 84.4737 89.7067 85.3678 89.9217 85.9153C90.0278 86.1948 90.2025 86.3351 90.4175 86.4239C90.6238 86.5156 90.876 86.54 91.1153 86.4941C91.3576 86.4525 91.5582 86.2791 91.6268 86.1301C91.6826 85.9911 91.7428 85.9167 91.8919 85.7805C92.0322 85.6415 92.2043 85.4296 92.3562 85.1271C92.5065 84.8205 92.6455 84.448 92.7029 83.8834L92.915 83.7158C93.5139 83.8462 93.9868 84.3147 94.2532 84.8778C94.5154 85.4453 94.5871 86.1315 94.398 86.8079C94.2991 87.1431 94.1343 87.4741 93.8952 87.7593C93.6602 88.0401 93.335 88.2809 92.9982 88.4357C92.309 88.7308 91.617 88.7523 90.9836 88.6578C90.3488 88.5575 89.7341 88.2767 89.2628 87.8067C89.0349 87.5616 88.8516 87.2879 88.7283 86.9713C88.6136 86.6604 88.5635 86.3422 88.5735 86.0413C88.6078 85.4395 88.8343 84.9066 89.1882 84.4967C89.3702 84.2961 89.5794 84.1257 89.813 84.0039C90.0523 83.8907 90.3074 83.8318 90.5509 83.8263L90.6067 84.09L90.6065 84.0898Z" fill="#4B4F54"/>
</g>
<g opacity="0.35">
<path opacity="0.35" d="M17.7791 40.8633C17.3263 41.0997 17.2247 41.6513 17.3578 41.9881C17.4238 42.1601 17.5311 42.2473 17.6629 42.3005C17.7904 42.3563 17.9452 42.3722 18.0927 42.3434C18.2417 42.3177 18.365 42.2117 18.408 42.1185C18.4423 42.0326 18.4797 41.9867 18.5714 41.9021C18.6588 41.8162 18.7633 41.6858 18.8579 41.4996C18.9495 41.3105 19.037 41.0811 19.0713 40.7331L19.2017 40.6299C19.5699 40.71 19.8622 40.9981 20.0256 41.3464C20.1875 41.696 20.2304 42.1187 20.1144 42.5356C20.0528 42.7419 19.951 42.9468 19.8049 43.1217C19.6601 43.295 19.4595 43.4427 19.2518 43.5386C18.8276 43.7206 18.4007 43.7334 18.011 43.6761C17.6198 43.6145 17.2416 43.4412 16.9506 43.1516C16.8103 42.9997 16.6971 42.8321 16.6212 42.6372C16.551 42.4453 16.5193 42.2504 16.5251 42.064C16.5466 41.6929 16.6856 41.3648 16.9033 41.1126C17.0151 40.9893 17.1439 40.8834 17.2887 40.8088C17.4364 40.7386 17.5925 40.7028 17.7429 40.6999L17.7787 40.8633H17.7791Z" fill="#4B4F54"/>
</g>
<g opacity="0.7">
<path opacity="0.7" d="M0.507015 85.7448C1.33876 85.7448 2.01305 85.1332 2.01305 84.3787C2.01305 83.6243 1.33876 83.0127 0.507015 83.0127C-0.324729 83.0127 -0.999023 83.6243 -0.999023 84.3787C-0.999023 85.1332 -0.324729 85.7448 0.507015 85.7448Z" fill="#D8E2FF"/>
</g>
<path d="M60.4482 100.142C58.377 103.002 53.8721 103.002 50.8842 101.118C47.8963 99.2351 46.0514 96.0304 44.2736 92.9792C42.6511 90.1927 40.8714 87.2623 38.0983 85.4769C35.7701 83.9791 32.2682 83.4133 31.1406 80.6172C31.0926 80.4964 31.0485 80.3717 31.0082 80.2413C30.9795 80.1473 30.9526 80.0514 30.9296 79.9517C30.1932 76.8679 32.7649 73.3584 35.9887 71.5384C36.5181 71.2392 37.0665 70.9861 37.6189 70.7885C37.8912 70.6907 38.1635 70.6063 38.4358 70.5373C40.1427 70.1 41.8495 70.2266 43.2169 71.1874C43.8056 71.6017 44.264 72.1502 44.6571 72.7543C44.6744 72.7773 44.6878 72.8003 44.7013 72.8233C44.7204 72.8501 44.7377 72.8789 44.7549 72.9077C44.7856 72.9556 44.8163 73.0036 44.8451 73.0534C45.1423 73.5482 45.4051 74.0699 45.6659 74.58C47.5146 78.218 49.6357 81.7794 52.5508 84.6349C54.8387 86.8768 57.5945 88.6642 59.5162 91.2264C61.4378 93.7866 62.3276 97.5493 60.4482 100.142Z" fill="#C0C1C3"/>
<path d="M12.5132 68.8289C12.5641 70.9302 13.3937 72.9579 14.572 74.6987C15.6212 76.2486 17.073 77.6735 18.9106 78.0293C19.4971 78.1428 20.2329 78.07 20.5014 77.5364C20.6539 77.2336 20.6036 76.8727 20.5444 76.539C20.0379 73.6844 19.1334 70.9015 17.8738 68.2906C17.244 66.9851 16.5256 65.7223 15.7236 64.5148C15.3556 63.961 15.1272 63.1883 14.4912 63.5642C14.0594 63.8193 13.6864 64.5256 13.4482 64.9498C12.7898 66.1231 12.4806 67.4872 12.513 68.8291L12.5132 68.8289Z" fill="#A0A0A0"/>
<path d="M14.4435 63.3286C13.3278 66.1326 12.8725 69.0891 13.7447 71.9412C14.5793 74.5989 16.653 76.985 19.4338 77.625C21.2614 78.0607 23.3185 77.8396 25.0512 76.7347C24.7131 77.1206 24.3127 77.4585 23.8723 77.7477C22.5107 78.6111 20.8324 78.9122 19.2361 78.7035C16.4754 78.3529 14.1539 76.327 13.0246 73.8396C11.4313 70.4538 12.1765 66.1773 14.4431 63.3286H14.4435Z" fill="#16246C"/>
<path d="M72.1775 67.9807C73.0807 68.721 73.7769 69.1832 74.1547 69.2637C73.8574 69.2273 72.9139 69.3098 71.5235 69.4728H71.5158C71.3336 69.4939 71.1432 69.5338 70.9443 69.5418C62.9218 69.8648 56.6303 70.2967 45.3572 72.7886C45.3196 72.7969 45.2786 72.7944 45.2402 72.7963C45.0599 72.8097 44.8797 72.8193 44.7013 72.8232C42.2005 72.8769 39.7477 72.1155 37.6189 70.7884C37.2967 70.587 36.9803 70.3741 36.6754 70.1478C34.6138 68.6309 32.928 66.5673 31.9058 64.2238C31.4935 63.2783 31.1828 62.2983 30.9661 61.2992C30.3122 58.294 30.5116 55.1143 31.3785 52.1628C31.6911 51.0985 32.0324 49.7387 32.5924 48.6437V48.6418C32.7478 48.3349 32.9223 48.0492 33.116 47.7979C33.1409 47.7653 33.1677 47.7327 33.1927 47.7021C33.2023 47.6906 33.2119 47.6771 33.2234 47.6656C33.3193 47.5525 33.4209 47.4393 33.5283 47.33C34.048 46.793 34.6886 46.3078 35.3521 45.838C36.2055 45.23 37.0935 44.6489 37.8011 44.0084C40.8447 41.2564 43.4893 38.0652 45.6391 34.569C45.9191 34.1126 46.4868 33.0118 47.1829 31.6502C47.881 30.2809 48.7114 28.6488 49.5111 27.1472V27.1453C50.027 26.1768 50.5295 25.262 50.9782 24.5064C51.3944 23.8026 51.7626 23.2368 52.0484 22.8936C51.9582 23.9809 51.9141 25.0683 51.9103 26.1557C51.9065 26.9765 51.9275 27.7973 51.9736 28.6182C52.2459 33.7943 53.4062 38.9704 55.0996 44.1484C55.767 46.2004 56.5206 48.2525 57.3357 50.3045C57.9858 51.9461 59.451 54.1458 61.2614 56.4644C64.7096 60.8773 69.4139 65.7216 72.1775 67.9807Z" fill="#C0C1C3"/>
<path d="M31.1748 49.282C39.4974 41.7821 46.3815 32.9315 51.6213 23.0298C48.1725 33.7652 40.7338 43.3043 31.1748 49.282Z" fill="#16246C"/>
<path d="M50.2562 27.7853C49.1694 38.8149 52.0768 50.1508 58.8291 58.9705C61.8757 62.9835 65.5585 66.4535 69.7559 69.3231C65.64 67.3039 61.9375 64.3526 58.8661 60.9069C50.9898 52.0734 47.5149 39.3306 50.2562 27.7852V27.7853Z" fill="#16246C"/>
<path d="M80.2754 69.563C80.0184 69.7318 79.7499 69.8852 79.4699 70.0213C77.0152 71.22 74.0522 70.9687 70.9435 69.5419C70.9013 69.5227 70.8591 69.5035 70.8188 69.4844H70.8169C64.9906 66.7553 58.6677 59.9299 54.2127 50.8051C52.153 46.586 50.7261 42.3553 49.9303 38.4047C49.9303 38.4028 49.9303 38.4009 49.9283 38.3989C49.7653 37.5935 49.6292 36.7995 49.5198 36.0209C49.0903 32.9869 49.0577 30.1678 49.4201 27.7092V27.7053C49.4489 27.5174 49.4777 27.3314 49.5103 27.1473V27.1454C50.0568 24.0462 51.2612 21.5684 53.1176 20.0284C53.5721 19.6506 54.065 19.3304 54.5982 19.0696C57.4077 17.6983 60.8827 18.2257 64.4805 20.2394C69.9539 23.3002 75.713 29.7996 79.8554 38.2858C80.0299 38.6425 80.1987 38.9973 80.3636 39.354C82.3658 43.6805 83.7025 47.9936 84.3795 51.9769C85.7584 60.1102 84.3795 66.8704 80.2754 69.563Z" fill="#C0C1C3"/>
<path d="M78.4199 67.8689C84.7251 64.7909 84.8789 52.1402 78.7634 39.6128C72.648 27.0854 62.5791 19.4251 56.2739 22.503C49.9688 25.581 49.815 38.2317 55.9304 50.7591C62.0459 63.2865 72.1148 70.9468 78.4199 67.8689Z" fill="#A0A0A0"/>
<path opacity="0.4" d="M80.9203 65.6351V65.637C80.7458 66.8932 80.5425 68.1436 80.3104 69.3901C80.0535 69.5589 79.785 69.7123 79.505 69.8485C77.0502 71.0471 74.0872 70.7959 70.9785 69.369C54.7914 69.9131 51.6318 72.1211 45.3914 72.6159C45.2264 72.7022 45.0538 72.7904 44.8793 72.8805C45.1766 73.3753 45.4393 73.8969 45.7001 74.4071C47.5489 78.0451 49.6699 81.6064 52.585 84.462C54.8729 86.7039 57.6288 88.4913 59.5504 91.0535C61.472 93.6137 62.3619 97.3764 60.4824 99.9693C58.4112 102.829 53.9063 102.829 50.9184 100.945C47.9305 99.0622 46.0856 95.8575 44.3078 92.8063C42.6854 90.0198 40.9057 87.0894 38.1325 85.3039C35.8043 83.8061 32.3025 83.2404 31.1748 80.4443C31.2956 80.2352 31.4145 80.0243 31.5315 79.8133C33.1003 77.0364 34.5981 74.2191 36.023 71.3655C36.255 70.9033 36.4852 70.4392 36.7095 69.9751C36.8131 69.7679 36.9147 69.5589 37.0164 69.3499C42.2289 58.6064 46.4346 47.3739 49.5549 35.848C49.6278 35.5795 49.6987 35.3149 49.7697 35.0483V35.0464C50.5694 32.0431 51.2962 29.0207 51.9444 25.9829C52.3836 23.9482 52.7844 21.9057 53.1527 19.8556C53.6072 19.4778 54.1 19.1575 54.6332 18.8967C57.4427 17.5255 60.9178 18.0529 64.5155 20.0666C64.7495 17.7595 65.3383 15.5195 66.2531 13.4502H66.255C67.3769 14.0965 68.4355 14.8521 69.3963 15.6978C74.9042 20.5518 77.7713 27.7415 79.4877 34.8776C79.831 36.3045 80.134 37.739 80.3987 39.1812C80.7362 41.0318 81.0104 42.894 81.2195 44.7619C81.2502 45.0381 81.2808 45.3142 81.3077 45.5904V45.5942C81.3365 45.8781 81.3652 46.1638 81.3902 46.4496C81.5436 48.1123 81.6433 49.7808 81.6951 51.4512C81.8389 56.1881 81.58 60.9404 80.9203 65.6351Z" fill="#A0A0A0"/>
<path d="M45.2476 81.1709C46.1634 83.2645 47.3792 85.2535 48.7715 87.0589C49.3283 87.7783 50.0639 88.6058 50.7133 89.2421C52.0968 90.6352 53.4663 92.0273 54.821 93.4526L54.7616 93.5387C54.1358 93.2827 53.5461 92.9555 52.9738 92.5954C51.8442 91.8612 50.8078 90.9771 49.9468 89.9383C49.5757 89.4742 49.0707 88.8043 48.7247 88.3325C48.4317 87.9267 47.8704 87.0873 47.6073 86.6613L47.1042 85.793C46.3091 84.3431 45.625 82.7822 45.1494 81.2075L45.2474 81.1711L45.2476 81.1709Z" fill="#16246C"/>
<path d="M38.4317 83.3132C37.8978 80.323 40.6174 77.1201 43.6569 77.173C43.0229 77.5635 42.4535 77.949 41.9309 78.3814C40.3198 79.6964 39.2009 81.3672 38.4317 83.3132Z" fill="#16246C"/>
<path d="M80.3141 69.6213C73.9131 73.6573 65.3314 67.136 61.077 62.3344C55.1502 55.7177 51.298 47.1519 49.6694 38.4572L49.6642 38.4051C49.6611 38.4658 49.6945 38.546 49.74 38.5867L49.6677 38.4515C49.5317 37.5593 49.3777 36.6708 49.2576 35.7779C48.9096 33.138 48.8419 30.2056 49.194 27.6892C50.2685 19.3789 56.0527 15.4449 64.0227 19.3292C77.1198 26.1354 87.2594 46.7001 84.8884 61.2473C84.3505 64.4154 83.1062 67.7846 80.3143 69.6211L80.3141 69.6213ZM80.2376 69.5047C87.7357 64.1562 83.8846 49.6046 80.9358 42.4834C79.1279 38.0466 76.7754 33.8175 73.938 29.9574C70.3786 25.2291 65.1442 19.8802 59.0934 18.877C53.6661 18.0882 50.5949 22.3127 49.74 27.1858C47.9472 37.4241 53.289 49.5758 59.3855 58.2985C62.891 63.1514 67.5781 68.4171 73.1723 70.2123C75.4918 70.9459 78.1689 70.8937 80.2376 69.5047Z" fill="#16246C"/>
<path d="M60.504 100.183C58.4213 102.99 54.2722 103.129 51.2952 101.763C49.2343 100.79 47.5831 99.1142 46.2524 97.3048C43.0807 93.041 41.4308 87.1806 36.2789 84.8212C34.3448 83.8651 31.9813 82.9939 31.0151 80.8768C29.134 76.5511 33.5905 71.729 37.4324 70.2696L37.7332 70.1543L37.9963 70.3875C39.8468 72.0378 42.4285 72.5068 44.8493 72.3715L44.8951 72.3743C44.9964 72.4023 44.8075 72.327 45.1462 72.4451C45.6026 72.811 45.3717 72.6911 45.4333 72.7145L45.4384 72.723C45.804 73.3115 46.2944 74.2718 46.624 74.8947C48.2018 77.8368 49.9569 80.7342 52.1846 83.2225C54.4302 85.7403 57.3562 87.6871 59.4114 90.4533C61.4516 93.1524 62.5906 97.2216 60.5042 100.183L60.504 100.183ZM60.3911 100.101C62.4109 97.2369 61.0115 93.282 58.7978 90.9594C57.0905 89.1078 54.9399 87.676 53.021 86.0113C49.7009 83.1809 47.3 79.4113 45.3656 75.5481C45.0629 74.9538 44.5967 73.9743 44.2623 73.4038C44.3202 73.4218 44.0876 73.2945 44.5365 73.6591C44.8689 73.7745 44.6732 73.6999 44.768 73.7266L44.7939 73.7283C43.9382 73.7532 42.9647 73.6978 42.089 73.5411C40.756 73.3106 39.4325 72.8344 38.3022 72.0661C37.9236 71.8059 37.5677 71.5115 37.2401 71.1893L37.8039 71.3073C35.8282 71.9697 34.0096 73.2325 32.6878 74.8592C30.4761 77.5316 30.2643 81.0703 33.5601 82.9406C34.9539 83.78 36.5742 84.2523 38.0183 85.0496C43.4965 88.1474 45.1523 94.7129 49.1933 99.125C49.9134 99.8927 50.7256 100.596 51.6225 101.133C54.2984 102.726 58.4013 102.831 60.3911 100.101V100.101Z" fill="#16246C"/>
<path d="M33.5276 47.3302C33.5813 47.2612 33.6369 47.1921 33.6944 47.125C28.1098 50.414 16.6434 57.2337 16.6434 57.2337C15.6327 59.1668 15.0344 61.2975 14.8464 63.4684C14.553 66.8437 15.2511 70.3111 16.9291 73.2587C17.9206 75 19.0617 76.4825 20.431 77.6485C20.6842 77.8652 20.945 78.0704 21.2135 78.266C23.5359 79.9403 26.472 80.7898 30.3364 80.5923C30.3364 80.5923 30.578 80.4657 31.0076 80.2414C31.1514 80.1685 31.3145 80.0822 31.4966 79.9863C34.1489 78.6055 40.7365 75.1726 44.8444 73.0535C45.019 72.9634 45.1916 72.8751 45.3565 72.7888C45.3316 72.7888 45.3085 72.7888 45.2836 72.7869C45.0746 72.7831 44.8655 72.7716 44.6565 72.7543C42.5278 72.5798 40.3856 71.7647 38.4352 70.5374C37.9366 70.2248 37.4514 69.8853 36.9815 69.5228C34.6457 67.7182 32.7049 65.3517 31.581 62.8988C31.3432 62.3772 31.1361 61.844 30.9654 61.2994C29.6402 57.1224 30.2558 52.3529 32.5917 48.6439V48.642C32.8238 48.2738 33.0731 47.9151 33.3396 47.5699C33.401 47.4894 33.4624 47.4088 33.5276 47.3302Z" fill="#5C57EA"/>
<path d="M33.4726 47.2876L33.6295 47.0696L33.7378 47.199C29.6293 49.9781 25.425 52.6064 21.1997 55.2016C19.7938 56.0688 18.3735 56.9121 16.9612 57.7684L17.1944 57.5221C15.9925 59.8689 15.3572 62.5015 15.3081 65.1643C15.1629 70.4549 17.7567 76.1408 22.4798 78.8015C24.8596 80.1067 27.6446 80.4052 30.3157 80.1848L30.1471 80.2308L33.8458 78.1709C36.333 76.7859 42.4352 73.5466 45.0263 72.1579L45.3567 73.5019L45.1933 73.4975C44.8821 73.4812 44.5704 73.4771 44.2592 73.4407C38.9626 72.8266 34.2867 69.0407 31.6881 64.5094C29.5841 60.8322 29.268 56.2483 30.6078 52.2605C31.2963 50.2999 32.193 48.7197 33.4743 47.2863L33.5817 47.3753C33.4281 47.5931 33.2754 47.8131 33.1331 48.0388C31.2313 50.9746 30.3038 55.103 30.9543 58.8414C31.2514 60.6142 31.8755 62.3252 32.8109 63.8573C35.4514 68.1096 40.2211 71.8411 45.3567 72.077L48.0332 72.2381L45.6872 73.4208C41.3029 75.609 34.9044 78.8907 30.5261 80.9546L30.4335 80.9997L30.3575 81.0008C28.9587 81.0288 27.5547 80.9331 26.1821 80.6524C21.8652 79.8269 18.7022 76.9332 16.5867 73.1927C13.7464 68.3354 13.3953 61.9737 16.0926 56.9464L16.1784 56.7855L16.3258 56.7C22.1737 53.2888 28.0518 49.9236 34.0782 46.8345L33.7595 47.1812L33.5827 47.3736L33.4726 47.288V47.2876Z" fill="#16246C"/>
<path d="M42.1377 73.5115C51.5193 70.2171 61.5825 68.4957 71.5224 69.4734C66.5985 70.0926 61.702 70.5293 56.8093 71.2694C51.9132 71.9727 47.0664 72.9277 42.1377 73.5115Z" fill="#16246C"/>
<path d="M59.7444 57.5416C62.8569 55.242 67.7903 52.3061 70.8198 50.073C72.7915 48.6387 70.0456 39.5186 64.9491 40.476C61.3227 41.6737 56.7584 43.64 53.1318 44.8374" fill="#C0C1C3"/>
<path d="M59.7033 57.4855C61.2889 55.8893 63.1107 54.5662 64.9506 53.2941C65.868 52.6643 66.7963 52.0533 67.7603 51.4979C68.7198 50.9383 69.7096 50.4245 70.6458 49.8314C70.8196 49.7326 70.9546 49.5318 71.0514 49.3061C71.644 47.5644 70.8071 45.4475 69.8691 43.9697C68.7463 42.2099 66.9702 40.7888 65.1755 41.1605C62.2453 42.236 59.2538 43.3145 56.2465 44.1752C55.2276 44.4554 54.201 44.7201 53.1541 44.9036L53.1104 44.7713C54.9996 43.8275 56.8897 42.9314 58.8142 42.0703C60.7585 41.2176 62.7731 40.3533 64.8163 39.7676C67.4635 39.3 69.6543 41.321 70.5918 43.578C71.2877 45.1221 72.4158 49.0188 70.9989 50.3108C69.3064 51.7841 67.5461 53.172 65.6122 54.3123C63.7128 55.4802 61.7834 56.5674 59.7862 57.5978L59.7033 57.4855Z" fill="#16246C"/>
<path d="M64.5678 42.771C64.2127 44.2345 64.8889 45.5221 65.6384 46.7071C66.4943 47.9437 67.3467 48.8383 68.8156 49.5611C68.0183 50.0223 66.9791 49.9709 66.1073 49.6135C64.3404 48.8786 63.108 47.0528 63.1577 45.1191C63.1817 44.1913 63.6525 43.0974 64.568 42.7712L64.5678 42.771Z" fill="#16246C"/>
<path d="M78.8142 39.5886C81.895 46.0972 84.5425 53.6899 83.3874 60.976C82.8795 63.8922 81.4387 66.9599 78.6247 68.2875C76.4703 69.3001 73.9519 69.0508 71.7915 68.1926C65.8063 65.7756 60.853 59.6243 57.5312 54.2541C53.5832 47.6725 50.7219 40.1164 50.9144 32.3133C51.0195 29.6811 51.5013 26.9782 52.974 24.7145C54.4405 22.4361 56.8203 21.1585 59.5362 21.2513C68.2637 21.7776 75.3208 32.4274 78.8142 39.5886ZM78.7137 39.6377C75.2757 32.7624 69.5741 25.4833 62.1682 22.8634C60.3298 22.2871 58.3027 22.169 56.5362 23.0396C54.7663 23.9236 53.6379 25.5658 52.9665 27.384C51.1643 32.5672 52.1148 38.3394 53.5468 43.517C56.1483 52.6023 62.7119 64.1912 72.0178 67.5691C74.9085 68.5796 78.0055 68.3639 80.1304 65.9513C80.9758 64.9828 81.5662 63.8032 81.9628 62.5848C84.128 55.054 82.0173 46.5912 78.7137 39.6377Z" fill="#16246C"/>
<path d="M32.8703 52.7595C34.2252 51.3565 35.6822 50.0739 37.1554 48.8035C38.0017 48.0867 38.9999 47.3403 39.8148 46.5854C40.8805 45.5976 42.0945 44.3602 43.0618 43.2759C44.1038 42.1258 45.0678 40.9038 45.9951 39.6465L46.113 39.7211C45.3708 41.1027 44.5168 42.4254 43.6059 43.712C42.7272 44.9285 41.6233 46.2746 40.6032 47.3748C40.1353 47.8767 39.455 48.6049 38.9677 49.1035C38.1227 49.9456 37.1734 50.6741 36.1668 51.3122C35.1481 51.9416 34.0833 52.4991 32.9445 52.8777L32.8701 52.7597L32.8703 52.7595Z" fill="white"/>
<path d="M91.4452 48.6573C89.9628 51.0277 87.3201 52.046 84.3801 51.977C83.8604 51.9655 83.3292 51.9194 82.7941 51.8389C82.4182 51.7852 82.0404 51.7123 81.6607 51.6241C79.3076 51.0833 76.9333 49.9384 74.9331 48.3121C74.795 48.1989 74.8755 47.9746 75.0539 47.9784C77.7158 48.0225 79.7601 48.383 81.3557 46.6225C81.4056 46.5707 81.4516 46.517 81.4977 46.4614C81.7662 46.1412 82.0193 45.7576 82.2629 45.2973C81.8966 45.1823 81.5379 45.0614 81.1851 44.9349C81.1103 44.9099 81.0355 44.8831 80.9626 44.8562C69.7551 40.7963 64.6039 31.8249 64.3718 23.1718C64.3431 22.188 64.3795 21.208 64.4811 20.2395C64.7151 17.9324 65.3039 15.6924 66.2187 13.6231H66.2206C67.8315 9.97935 70.4627 6.86678 73.9895 4.84543C87.2184 -2.73367 108.579 0.382738 118.438 15.4393C127.486 29.2531 106.801 54.2917 91.4452 48.6573Z" fill="#E1E9FF"/>
<path d="M91.486 48.7778C91.3961 48.9635 91.3307 49.1247 91.2137 49.2839C90.6763 50.0788 89.9736 50.7574 89.1484 51.2554C85.0064 53.701 79.4599 52.3355 75.6188 49.8876C75.191 49.6115 74.7738 49.3169 74.3688 49.0072C73.9872 48.7124 73.8535 48.1407 74.0627 47.7073C74.2135 47.3374 74.6657 47.0535 75.0577 47.0714L75.2849 47.0706H75.7176C76.9567 47.0666 78.5701 47.1652 79.5158 46.7135C80.3437 46.3505 80.8929 45.6392 81.3177 44.7975L81.9419 46.3167C81.1194 46.0668 80.2852 45.7721 79.4885 45.4468C78.5454 45.1162 77.4165 44.5426 76.5144 44.1097C76.152 43.9045 75.1852 43.3415 74.8118 43.1273C74.0823 42.6461 73.3411 42.1716 72.6585 41.6237L71.6369 40.7937C71.3289 40.559 70.9599 40.1606 70.6725 39.8965C69.5473 38.8519 68.5844 37.6334 67.6863 36.3905C67.3353 35.8337 66.9763 35.2799 66.6445 34.7122C66.5425 34.5206 65.985 33.4257 65.8929 33.2501C65.7767 33.0209 65.6139 32.5742 65.5065 32.3439C62.9812 26.3781 63.1396 19.3329 65.8375 13.4547L65.9526 13.204C65.9545 13.204 66.2182 13.2067 66.2201 13.2067L65.8394 13.4545C67.2271 10.4338 69.2972 7.69709 71.9618 5.69281C72.9038 4.9581 73.9864 4.33501 75.0358 3.76581C86.162 -1.97393 100.296 -1.06318 110.715 5.87672C114.32 8.25938 117.478 11.3982 119.803 15.0537C121.538 17.8073 122.194 21.2165 121.949 24.3786C121.159 33.9969 113.915 43.2381 105.497 47.5921C101.25 49.7482 95.9719 50.8086 91.486 48.7772V48.7778ZM91.4035 48.5368C98.3245 50.5736 105.357 46.8115 110.217 42.041C115.609 36.7228 120.226 28.7283 119.106 20.9611C118.838 19.2333 118.213 17.598 117.265 16.14C117.122 15.9278 116.693 15.3147 116.542 15.0913C113.244 10.4384 108.585 6.87685 103.307 4.64282C94.3784 0.921159 83.3901 0.432698 74.6693 4.98131C71.0292 6.81874 68.1903 10.0556 66.6008 13.7914L66.4951 14.0365C66.4936 14.0369 66.2197 14.039 66.2182 14.0394L66.5989 13.7914C65.3092 16.8173 64.8069 20.1604 65.0625 23.4022C65.1381 24.3703 65.2979 25.4777 65.494 26.4158C65.645 26.9912 65.7652 27.6181 65.9549 28.1762L66.3289 29.3269L66.7816 30.4468C66.9748 30.9903 67.3048 31.5559 67.5472 32.0827C67.7102 32.4247 68.2442 33.3011 68.4436 33.6459C69.6248 35.4968 71.0487 37.1957 72.6856 38.6592C72.9598 38.9373 73.7515 39.5531 74.0646 39.8124C74.3653 40.0766 74.709 40.2864 75.0341 40.5198C75.5908 40.9366 76.4475 41.4668 77.061 41.8155L77.5794 42.1233L78.1208 42.3916L79.2014 42.9338C79.5119 43.0966 79.9904 43.2694 80.3161 43.412C80.9597 43.7154 81.9095 44.0369 82.5831 44.2777L83.8087 44.7106L83.2073 45.797C82.6763 46.7929 81.8403 47.8218 80.7765 48.3686C79.4511 49.0745 77.9121 49.0444 76.5129 48.9683C76.1504 48.9391 75.4067 48.9082 75.0448 48.8858C75.1595 48.8875 75.3131 48.8513 75.4341 48.7711C75.838 48.5264 75.8712 47.9181 75.5101 47.6272C75.5035 47.6218 75.4965 47.6164 75.5012 47.6202L75.5108 47.6283C75.6539 47.7426 75.7908 47.869 75.9372 47.98C80.0873 51.3206 87.6416 53.4969 91.4041 48.5368H91.4035Z" fill="#16246C"/>
<path d="M100.97 9.7176C100.991 9.49111 98.3794 21.2236 97.0533 27.3164C94.872 26.9368 92.6907 26.5575 90.5094 26.178C90.4561 20.196 91.0032 14.2087 92.1399 8.33545C95.3545 8.84558 97.7558 9.20728 100.97 9.7176Z" fill="#D11243"/>
<path d="M100.935 9.67203C100.939 9.68124 100.829 9.76869 101.018 9.74702C101.027 9.72957 101.021 9.74222 101.023 9.73839C101.023 9.73839 101.022 9.74242 101.022 9.74433L101.02 9.76044C101.01 9.81798 100.994 9.94398 100.986 10.0042C100.502 13.6305 99.7986 17.2504 99.0075 20.8217C98.4897 23.0939 97.795 25.3219 97.2168 27.5784C94.9837 27.0986 92.7286 26.7323 90.4639 26.4377L90.2572 26.4091L90.2453 26.1802C89.9672 21.677 90.1546 17.1416 90.7865 12.673C91.0291 11.0087 91.3503 9.35272 91.7283 7.71436L92.2235 7.8043C94.7143 8.24002 98.4191 9.12642 100.934 9.67184L100.935 9.67203ZM101.005 9.76294C98.9309 9.58861 96.428 9.37343 94.3649 9.14349C93.5982 9.0593 92.8264 8.96916 92.0553 8.86618L92.6673 8.43755C91.7141 14.3125 91.021 20.2256 90.7727 26.1756L90.5542 25.9182C92.7185 26.3892 94.8957 26.8011 97.0914 27.0955L96.8342 27.2685C97.0987 25.7876 97.3139 24.2957 97.5754 22.8141C97.9542 20.6113 98.4927 18.3797 99.0368 16.2094C99.5805 14.0674 100.157 11.9254 100.866 9.83044L100.889 9.76313L100.902 9.72918L100.908 9.71135L100.913 9.70042C100.916 9.6937 100.91 9.70368 100.921 9.68354C101.112 9.65707 101.001 9.75181 101.006 9.76274L101.005 9.76294Z" fill="#16246C"/>
<path d="M93.8049 29.3348C92.3018 28.6254 90.4308 28.9242 89.0878 29.9038C87.0676 31.3773 86.3223 34.387 87.4925 36.5967C88.6628 38.8064 91.6449 39.8742 93.921 38.8386C96.197 37.803 97.3431 34.7756 96.2553 32.5241C95.1675 30.2726 92.003 29.3045 89.8794 30.6245" fill="#D11243"/>
<path d="M93.7804 29.3872C91.8024 28.8155 89.5835 29.6194 88.4234 31.295C87.3173 32.9105 86.8029 35.2583 87.9599 36.9916C88.9303 38.4422 90.8209 39.1334 92.5078 38.8177C95.4774 38.3298 97.0698 34.5435 95.3338 32.1083C94.9976 31.6615 94.5602 31.2839 94.084 30.9924C92.8633 30.2747 91.3249 30.067 89.9097 30.6736L89.8489 30.5758C91.7197 29.0796 94.6745 29.6288 96.2022 31.4087C99.0681 34.8065 95.8334 40.4452 91.4311 39.5127C86.8048 38.6812 84.7493 33.0475 88.4115 29.8218C89.8731 28.5867 92.1944 28.2031 93.8293 29.2829L93.7802 29.387L93.7804 29.3872Z" fill="#16246C"/>
<path d="M106.465 54.1418C105.684 53.372 104.392 53.7424 103.39 54.1484C101.098 55.0756 98.8058 56.003 96.5137 56.9303C98.7287 57.4003 101.257 58.0626 103.502 57.7885C104.48 57.6663 105.499 57.4368 106.216 56.7711C106.933 56.1055 107.169 54.837 106.465 54.1416L106.465 54.1418Z" fill="#FFD990"/>
<path d="M62.3292 8.13253C61.9668 9.2832 61.6043 10.4358 61.2419 11.5865C61.0769 12.11 60.912 12.6336 60.7471 13.1571C60.5764 12.578 60.3827 11.97 60.212 11.3506C59.9493 10.4051 59.7402 9.43471 59.7402 8.5065C59.7402 8.42404 59.7422 8.34157 59.746 8.25911C59.7767 7.55911 59.8802 6.8246 60.3117 6.27995C60.7432 5.7353 61.6273 5.49557 62.1586 5.95392C62.7473 6.46406 62.5594 7.39994 62.3292 8.13253Z" fill="#FFD990"/>
<path d="M82.1561 86.3199C75.3512 75.4629 60.6585 80.4187 58.9534 92.3728C58.776 93.3311 57.7448 93.8614 56.8542 93.4648C47.5031 88.6625 37.4993 100.652 45.7682 108H83.7838C83.7703 105.666 83.6208 101.904 83.3893 99.5394C83.5162 99.4291 83.6524 99.3296 83.7924 99.236C83.6453 94.9062 84.8157 90.0887 82.1561 86.3199Z" fill="white"/>
<path d="M50.3645 95.225C53.1397 94.3394 56.1798 95.0954 58.5784 96.7955C59.6437 97.5506 61.1193 96.817 61.2006 95.5139C61.3492 93.1291 61.9111 90.7861 63.0466 88.6944C64.8237 85.4209 68.1658 82.8707 71.8851 82.6737C75.5959 82.4779 79.2109 84.6824 81.1674 87.8418C82.6025 90.159 83.2055 92.9093 83.1251 95.6462C83.0921 96.7664 84.1515 97.602 85.2328 97.3076C86.7568 96.8928 88.4341 97.0191 89.8439 97.7383C91.4372 98.5505 92.6185 100.084 93.0909 101.804C93.3412 102.714 94.3219 103.24 95.2137 102.93C96.4959 102.484 97.9113 102.413 99.224 102.765C100.589 103.13 101.799 103.909 103.024 104.614C104.295 105.345 105.606 106.006 106.949 106.594H47.19C46.7919 106.206 46.433 105.784 46.1329 105.31C43.8839 101.755 46.3569 96.504 50.3645 95.225Z" fill="#B0C3FF"/>
<path d="M111.108 106.78L93.2148 106.527L75.3212 106.323L66.3749 106.201L61.9019 106.162L59.6648 106.16L57.4277 106.168L52.9547 106.212C51.4636 106.236 49.9725 106.251 48.4804 106.285C45.4983 106.343 42.5152 106.421 39.5332 106.551V106.649C42.5154 106.799 45.4973 106.895 48.4795 106.973C49.9706 107.017 51.4616 107.041 52.9525 107.075L57.4256 107.147L59.6627 107.17L61.8998 107.182L66.3728 107.171L75.3201 107.106L93.2148 107.017L111.109 106.879L111.108 106.78Z" fill="#16246C"/>
<path d="M18.3232 59.3969C18.9452 58.7064 19.6799 58.2113 20.4675 57.7673C21.2295 57.3256 22.1022 57.1509 22.9248 56.8627C24.5323 56.2989 26.2926 55.7237 27.9246 55.251L27.9816 55.3827C27.2264 55.8325 26.4602 56.2565 25.695 56.6828C25.1222 56.9998 23.9621 57.6181 23.3801 57.9169C22.6062 58.3179 21.8805 58.8334 21.0367 59.0852C20.1733 59.3541 19.3096 59.5493 18.3804 59.5288L18.3234 59.397L18.3232 59.3969Z" fill="white"/>
</g>
<defs>
<clipPath id="clip0_1803_5049">
<rect width="123" height="108" fill="white" transform="translate(-1)"/>
</clipPath>
</defs>
</svg>
