<svg width="16" height="16" viewBox="0 0 16 16" fill="none" xmlns="http://www.w3.org/2000/svg">
<g id="Close">
<path id="Union" fill-rule="evenodd" clip-rule="evenodd" d="M12.5226 4.52252C12.8155 4.22962 12.8155 3.75475 12.5226 3.46186C12.2297 3.16896 11.7548 3.16896 11.4619 3.46186L7.9917 6.93209L4.52252 3.46291C4.22962 3.17001 3.75475 3.17001 3.46186 3.46291C3.16896 3.7558 3.16896 4.23067 3.46186 4.52357L6.93104 7.99275L3.46193 11.4619C3.16904 11.7548 3.16904 12.2296 3.46193 12.5225C3.75482 12.8154 4.2297 12.8154 4.52259 12.5225L7.9917 9.05341L11.4619 12.5236C11.7548 12.8165 12.2296 12.8165 12.5225 12.5236C12.8154 12.2307 12.8154 11.7558 12.5225 11.4629L9.05236 7.99275L12.5226 4.52252Z" fill="#DADADA"/>
</g>
</svg>
