<svg width="54" height="54" viewBox="0 0 54 54" fill="none" xmlns="http://www.w3.org/2000/svg">
<path d="M36.9168 41.1663H17.0835C15.9563 41.1663 14.8753 40.7186 14.0783 39.9215C13.2813 39.1245 12.8335 38.0435 12.8335 36.9163V14.2497C12.8335 13.874 12.9828 13.5136 13.2484 13.2479C13.5141 12.9823 13.8744 12.833 14.2502 12.833H34.0835C34.4592 12.833 34.8196 12.9823 35.0852 13.2479C35.3509 13.5136 35.5002 13.874 35.5002 14.2497V31.2497H41.1668V36.9163C41.1668 38.0435 40.7191 39.1245 39.922 39.9215C39.125 40.7186 38.044 41.1663 36.9168 41.1663ZM35.5002 34.083V36.9163C35.5002 37.2921 35.6494 37.6524 35.9151 37.9181C36.1808 38.1838 36.5411 38.333 36.9168 38.333C37.2926 38.333 37.6529 38.1838 37.9186 37.9181C38.1842 37.6524 38.3335 37.2921 38.3335 36.9163V34.083H35.5002ZM32.6668 38.333V15.6663H15.6668V36.9163C15.6668 37.2921 15.8161 37.6524 16.0818 37.9181C16.3474 38.1838 16.7078 38.333 17.0835 38.333H32.6668ZM18.5002 19.9163H29.8335V22.7497H18.5002V19.9163ZM18.5002 25.583H29.8335V28.4163H18.5002V25.583ZM18.5002 31.2497H25.5835V34.083H18.5002V31.2497Z" fill="#A0A0A0"/>
<path d="M6.2 1H1V6.2" stroke="#D9D9D9" stroke-width="0.866667"/>
<path d="M53 6.2L53 1L47.8 1" stroke="#D9D9D9" stroke-width="0.866667"/>
<path d="M47.8 53H53V47.8" stroke="#D9D9D9" stroke-width="0.866667"/>
<path d="M1 47.8L1 53L6.2 53" stroke="#D9D9D9" stroke-width="0.866667"/>
</svg>
