<svg width="48" height="48" viewBox="0 0 48 48" fill="none" xmlns="http://www.w3.org/2000/svg">
<path d="M39 10.5H31.5C31.1022 10.5 30.7206 10.658 30.4393 10.9393C30.158 11.2206 30 11.6022 30 12V40.5C30 40.8978 30.158 41.2794 30.4393 41.5607C30.7206 41.842 31.1022 42 31.5 42H39C39.7956 42 40.5587 41.6839 41.1213 41.1213C41.6839 40.5587 42 39.7956 42 39V13.5C42 12.7044 41.6839 11.9413 41.1213 11.3787C40.5587 10.8161 39.7956 10.5 39 10.5Z" fill="#EF9A9A"/>
<path d="M30 3H9C7.34315 3 6 4.34315 6 6V42C6 43.6569 7.34315 45 9 45H30C31.6569 45 33 43.6569 33 42V6C33 4.34315 31.6569 3 30 3Z" fill="#E57373"/>
<path d="M15 22.5H12V25.5H15V22.5Z" fill="#E3F2FD"/>
<path d="M21 22.5H18V25.5H21V22.5Z" fill="#E3F2FD"/>
<path d="M15 28.5H12V31.5H15V28.5Z" fill="#E3F2FD"/>
<path d="M21 28.5H18V31.5H21V28.5Z" fill="#E3F2FD"/>
<path d="M15 34.5H12V37.5H15V34.5Z" fill="#E3F2FD"/>
<path d="M22.5 34.5H18V37.5H22.5V34.5Z" fill="#E3F2FD"/>
<path d="M27 22.5H24V25.5H27V22.5Z" fill="#E3F2FD"/>
<path d="M27 28.5H24V31.5H27V28.5Z" fill="#E3F2FD"/>
<path d="M27 33H24V37.5H27V33Z" fill="#E3F2FD"/>
<path d="M25.5 9H13.5C12.6716 9 12 9.67157 12 10.5V16.5C12 17.3284 12.6716 18 13.5 18H25.5C26.3284 18 27 17.3284 27 16.5V10.5C27 9.67157 26.3284 9 25.5 9Z" fill="#E3F2FD"/>
<path d="M39 10.5H36V42H39V10.5Z" fill="#E3F2FD"/>
<path d="M30 3H21.795C23.2954 5.8613 24.0614 9.05056 24.024 12.2812C23.9867 15.5118 23.1472 18.6825 21.5811 21.5083C20.015 24.3342 17.7713 26.7267 15.0516 28.4707C12.332 30.2147 9.22157 31.2557 6 31.5V42C6 42.7957 6.31607 43.5587 6.87868 44.1213C7.44129 44.6839 8.20435 45 9 45H30C30.7956 45 31.5587 44.6839 32.1213 44.1213C32.6839 43.5587 33 42.7957 33 42V6C33 5.20435 32.6839 4.44129 32.1213 3.87868C31.5587 3.31607 30.7956 3 30 3Z" fill="#EF5350"/>
<path d="M18.555 25.5H21V22.5H20.91C20.2274 23.5763 19.4385 24.5814 18.555 25.5ZM12 31.5H15V28.5H14.865C13.9521 29.0765 12.9939 29.5782 12 30V31.5Z" fill="#BBDEFB"/>
<path d="M21 28.5H18V31.5H21V28.5Z" fill="#BBDEFB"/>
<path d="M15 34.5H12V37.5H15V34.5Z" fill="#BBDEFB"/>
<path d="M22.5 34.5H18V37.5H22.5V34.5Z" fill="#BBDEFB"/>
<path d="M27 22.5H24V25.5H27V22.5Z" fill="#BBDEFB"/>
<path d="M27 28.5H24V31.5H27V28.5Z" fill="#BBDEFB"/>
<path d="M27 33H24V37.5H27V33Z" fill="#BBDEFB"/>
<path d="M25.4997 9H23.7447C23.9059 9.99205 23.9912 10.995 23.9997 12C23.9954 14.0367 23.6766 16.0606 23.0547 18H25.4997C25.8975 18 26.279 17.842 26.5603 17.5607C26.8417 17.2794 26.9997 16.8978 26.9997 16.5V10.5C26.9997 10.1022 26.8417 9.72064 26.5603 9.43934C26.279 9.15804 25.8975 9 25.4997 9Z" fill="#BBDEFB"/>
</svg>
