<svg width="205" height="147" viewBox="0 0 205 147" fill="none" xmlns="http://www.w3.org/2000/svg">
<g id="Frame 29070" clip-path="url(#clip0_5308_877)">
<g id="Group">
<g id="Group_2">
<g id="Group_3">
<g id="Group_4" opacity="0.7">
<path id="Vector" opacity="0.7" d="M91.7822 113.633C90.4026 108.485 88.2407 103.276 83.5255 101.155C80.4988 99.7963 76.772 99.9404 74.26 97.7785C72.7363 96.4607 71.9539 94.5046 70.9861 92.7133C68.886 88.8424 65.5092 85.445 61.2264 84.3331C56.9643 83.2213 51.8373 84.9302 49.8813 88.8835C48.3164 92.0338 48.893 96.0283 46.9781 98.9727C43.3336 104.553 34.4181 102.205 28.5911 105.479C25.7497 107.065 23.8554 109.885 21.6522 112.253C21.1993 112.727 20.7257 113.2 20.2109 113.653L91.7822 113.633Z" fill="#EC8582"/>
</g>
<path id="Vector_2" d="M9.81348 114.209C17.8848 114.086 25.9767 113.983 34.0686 113.88L58.3238 113.633L70.4514 113.468C74.487 113.406 78.5227 113.406 82.5789 113.468L88.6324 113.571C90.6502 113.612 92.6681 113.653 94.6859 113.715C98.7216 113.839 102.757 113.983 106.813 114.209V114.374C102.778 114.621 98.7421 114.765 94.6859 114.868C92.6681 114.93 90.6502 114.971 88.6324 115.012L82.5789 115.115C78.5433 115.156 74.5076 115.156 70.4514 115.115L58.3238 114.951L34.0686 114.703C25.9973 114.601 17.9054 114.498 9.81348 114.374V114.209Z" fill="#6E1427"/>
</g>
</g>
</g>
<g id="Group_5">
<path id="Vector_3" d="M143.475 109.646L95.7943 130.214C95.0517 130.533 94.2851 130.705 93.5231 130.74C90.8123 130.876 88.1876 129.307 87.1145 126.636L55.4416 47.7587C54.0132 44.198 55.933 40.1765 59.6004 39.05L108.87 23.8993C112.111 22.9021 115.579 24.5415 116.863 27.6797L140.485 85.3646L146.945 101.142C148.3 104.45 146.755 108.232 143.475 109.646L143.475 109.646Z" fill="#E7E3CF"/>
<path id="Vector_4" d="M143.477 109.645C143.477 109.645 118.127 120.76 103.629 126.855C98.4545 129.031 92.5095 126.46 90.547 121.201L67.3293 62.616L122.928 46.5121L140.484 85.3639L146.945 101.142C148.299 104.45 146.755 108.231 143.475 109.645L143.477 109.645Z" fill="#CBC6B2"/>
<path id="Vector_5" d="M143.522 109.759C128.872 116.015 114.047 123.105 99.5194 129.662C98.5313 130.084 96.5822 131.026 95.568 131.399C93.5798 132.084 91.3067 131.878 89.4654 130.853C87.8289 129.972 86.5774 128.426 85.9515 126.69C76.9401 104.291 68.8844 81.5075 59.5955 59.2216C58.7049 57.0003 56.8169 52.5118 55.9014 50.2973L54.9719 48.0682C54.2944 46.4753 54.1712 44.5918 54.747 42.9355C55.3805 41.0362 56.8333 39.4463 58.663 38.6267C59.2475 38.4027 59.8639 38.1818 60.4429 38.0041C64.541 36.6751 70.1194 34.8355 74.2218 33.5289C85.0555 30.0391 96.7212 26.4052 107.603 22.9775C108.901 22.5342 110.283 22.2145 111.663 22.3923C113.943 22.625 116.077 23.9213 117.341 25.837C117.953 26.7066 118.629 28.6437 119.063 29.6346C123.139 39.6024 127.786 51.0029 131.703 60.9826C135.678 71.1367 139.848 82.3774 143.783 92.5602C144.773 95.1275 145.846 97.8667 146.861 100.432C148.544 103.97 147.17 108.174 143.519 109.762L143.521 109.76L143.522 109.759ZM143.425 109.536C146.611 108.193 148.166 104.282 146.735 101.134C146.597 100.827 146.173 99.7994 146.025 99.4673C144.601 96.041 142.726 91.8187 141.246 88.3793C132.84 69.4686 124.432 49.8042 116.658 30.6167C116.383 30.0286 115.594 27.8164 115.179 27.2628C114.328 25.9863 112.917 25.0954 111.38 24.9221C110.353 24.77 109.313 25.0591 108.341 25.374C97.4111 28.6743 85.7232 32.1783 74.7991 35.4005C70.6784 36.6239 65.0138 38.2401 60.8864 39.4389C60.3226 39.5851 59.7681 39.7659 59.2282 39.9514C57.7265 40.5717 56.4993 41.8215 55.9331 43.3536C55.411 44.7401 55.455 46.2709 55.9919 47.6588L56.8626 49.9118C64.8749 70.97 73.7592 91.7091 82.5141 112.461C84.3752 116.954 86.3703 121.876 88.209 126.395C88.6736 127.47 89.4941 128.397 90.521 128.966C91.8376 129.721 93.4692 129.896 94.9194 129.438C95.1445 129.391 96.2633 128.908 96.5189 128.807C111.996 122.383 128.069 116.233 143.423 109.536L143.426 109.536L143.425 109.536Z" fill="#7F1314"/>
<path id="Vector_6" d="M155.423 96.2349C154.069 100.367 143.089 102.692 138.522 104.75C126.034 110.377 103.79 119.037 103.79 119.037C102.862 119.414 101.88 119.58 100.915 119.541C99.2518 119.478 97.6359 118.815 96.4102 117.603C94.844 116.05 93.1688 113.896 91.4846 111.424C84.1554 100.669 76.6006 83.8525 76.6006 83.8525L62.8162 49.5003C61.5536 46.355 63.1943 42.8262 66.3687 41.8545L109.016 28.8133C111.822 27.9547 114.84 29.4203 115.972 32.1924L141.666 85.0902C141.833 85.4332 142.233 85.5937 142.59 85.4606L148.122 83.4015C148.2 83.3725 148.282 83.3552 148.364 83.3532C153.216 83.2417 157.115 91.0656 155.423 96.2349Z" fill="white"/>
<path id="Vector_7" d="M155.84 92.7112L102.103 115.364C102.052 116.713 101.679 118.79 100.915 119.54C100.915 119.54 102.042 120.102 106.068 118.311C110.096 116.522 152.961 98.8531 152.961 98.8531C152.961 98.8531 156.309 97.5306 155.837 92.7107L155.84 92.7107L155.84 92.7112Z" fill="#D8D8D8"/>
<path id="Vector_8" d="M100.916 119.541C99.2526 119.477 97.6367 118.815 96.4111 117.602C94.8449 116.05 93.1699 113.896 91.4857 111.424L99.9305 107.943C99.9305 107.943 103.795 116.041 100.916 119.541Z" fill="#EAEAEA"/>
<path id="Vector_9" d="M89.5055 125.646C78.721 100.555 68.4016 74.8132 58.7551 49.2612L57.835 46.7686L58.8927 49.2051C69.596 74.3341 79.9447 100.064 89.5078 125.647L89.5055 125.646Z" fill="#7F1314"/>
<path id="Vector_10" d="M101.968 116.478C102.137 113.809 101.448 111.096 100.136 108.777C99.3956 107.6 98.7277 106.31 98.6918 104.879C98.6602 103.759 99.1724 102.516 100.247 102.01L100.562 101.879L101.186 101.617C115.642 95.5894 132.095 88.8648 146.632 83.0123C149.476 81.6787 152.598 83.5901 154.174 85.9725C155.261 87.57 155.93 89.3483 156.364 91.2154C157.112 94.3004 156.43 98.1216 153.212 99.5196C150.617 100.567 146.28 102.312 143.633 103.375C134.674 106.971 122.427 111.88 113.492 115.535C111.867 116.195 107.559 117.989 105.979 118.632C105.252 118.904 104.201 119.411 103.45 119.659C101.19 120.38 98.6504 119.794 96.8241 118.332C96.1192 117.766 95.495 117.043 94.8869 116.373C92.2081 113.286 89.9896 109.839 87.8446 106.373C84.0882 100.18 80.7261 93.7654 77.5459 87.2631C77.3479 86.8595 76.2535 84.5712 76.082 84.1974C75.8467 83.698 75.5158 82.804 75.2951 82.3073C70.8506 71.5156 66.3689 60.4863 61.9906 49.6664C60.8218 46.7425 62.0567 43.1065 64.8382 41.579C65.568 41.15 66.7373 40.8339 67.552 40.5797C77.7873 37.4039 90.9555 33.3769 101.228 30.2848C102.141 29.9835 106.887 28.5928 107.711 28.3267C108.106 28.2091 108.624 28.0474 109.046 27.9352C111.06 27.4118 113.293 27.9584 114.858 29.3155C115.639 29.9758 116.268 30.848 116.655 31.7649C125.158 49.5987 133.759 67.7443 142.041 85.6669L141.888 85.7425C135.321 72.8689 128.864 59.9385 122.417 46.996C120.864 43.8895 116.702 35.4624 115.209 32.4227C114.897 31.7047 114.415 31.0544 113.811 30.556C112.628 29.5568 110.962 29.1642 109.468 29.5722L106.915 30.3621C103.644 31.3734 94.7732 34.1192 91.3877 35.1676C85.0087 37.1617 74.4397 40.3169 68.064 42.2669L66.7663 42.6588C66.5506 42.7186 66.4007 42.7767 66.2044 42.8514C64.5975 43.487 63.4401 45.0698 63.268 46.8041C63.1813 47.5713 63.2847 48.3562 63.5552 49.0856L64.5435 51.5869L66.539 56.6214C70.0092 65.3685 73.5445 74.2974 76.9628 83.0778C77.2657 83.8907 78.2252 85.9473 78.5965 86.7711C81.6197 93.312 84.8444 99.7757 88.4734 106.003C90.5303 109.489 92.6927 112.931 95.3131 116.007C95.8948 116.652 96.4849 117.37 97.1633 117.913C99.2514 119.614 102.142 119.913 104.533 118.682C116.771 113.626 130.993 107.492 143.194 102.272C145.801 101.151 150.105 99.3136 152.693 98.2095C155.147 97.0568 155.496 93.9423 154.884 91.5452C154.227 88.7789 152.874 85.7053 150.206 84.4824C149.042 83.9252 148.022 84.0244 146.882 84.5512C132.431 90.3031 115.987 96.7565 101.482 102.327L100.848 102.567C99.3644 102.995 99.084 104.793 99.49 106.142C99.7067 106.997 100.13 107.783 100.57 108.547C101 109.36 101.349 110.213 101.614 111.088C102.132 112.839 102.349 114.685 102.142 116.504L101.971 116.482L101.969 116.477L101.968 116.478Z" fill="#7F1314"/>
<path id="Vector_11" d="M103.016 30.0529C103.016 30.0529 100.414 27.3014 99.4162 25.21C98.5078 23.3081 96.8013 20.7161 93.8389 21.2864C91.9832 21.6419 89.9675 22.7679 88.4071 22.7041C88.4071 22.7041 86.2008 22.5946 85.2946 19.5778C84.9419 18.4052 84.5372 17.2685 84.0623 16.2378C83.0353 14.0018 78.8374 12.1154 75.6897 15.4543C74.7919 16.4315 73.6486 18.0392 74.1332 20.3241C74.5095 22.0972 75.6065 22.7142 75.9686 24.4774C76.2834 26.0151 75.9307 26.6361 75.1715 27.0718C73.9885 27.7488 68.779 28.3213 67.922 32.2445C67.922 32.2445 67.5228 33.4477 68.5916 36.2236C68.84 36.2403 70.441 35.6704 70.7494 35.6196C70.7494 35.6196 72.5422 37.8762 74.3799 40.2337C75.8903 42.173 77.2383 44.3341 79.2759 44.0575C82.3136 43.6422 102.641 36.5563 103.58 35.9823C104.68 35.3109 105.991 33.3186 103.016 30.0529ZM81.0892 21.883C79.7155 22.8544 77.7316 21.3337 77.1893 19.5552C76.6447 17.7792 77.2138 16.7717 78.1122 16.602C79.767 16.2869 80.7463 16.6628 81.2909 18.4388C81.8356 20.2172 81.9316 21.2852 81.089 21.883L81.0892 21.883Z" fill="#D11243"/>
<path id="Vector_12" d="M81.2198 31.4668C82.9061 32.8137 84.6453 33.2774 86.9318 32.5959C89.47 31.8385 90.9693 30.1416 91.5948 28.3233C92.3842 28.4841 92.7327 28.8268 92.8645 29.2734C93.2471 30.5584 91.478 33.3526 87.8539 34.4337C84.7264 35.3665 82.0336 34.2265 80.9308 32.7648C80.5352 32.2374 80.7164 31.6272 81.2198 31.4668Z" fill="#F1A2A2"/>
<path id="Vector_13" d="M74.4312 20.2605C74.6994 21.656 75.8215 22.6491 76.1973 24.0513C76.7065 25.8975 76.4201 27.2029 74.4218 27.7582C72.2132 28.4905 69.7549 29.2551 68.7276 31.4698C68.5903 31.7893 68.4987 32.144 68.4392 32.4701C68.3425 33.6711 68.7852 34.8744 69.2467 35.9683L68.6276 35.5158C68.6056 35.5105 68.5593 35.5147 68.5569 35.5146C68.7749 35.4646 69.2291 35.3114 69.4499 35.2399C69.7296 35.1498 70.1445 35.0129 70.4165 34.9346C70.5319 34.9 70.9112 34.8311 71.0386 34.804C72.278 36.3409 73.4951 37.897 74.7198 39.4434C75.7688 40.7087 76.7364 42.441 78.1488 43.1634C78.8601 43.5125 79.5966 43.2423 80.3291 43.0796C81.194 42.8631 82.0648 42.6146 82.9329 42.3591C84.6718 41.8504 86.4041 41.3 88.1385 40.757C92.1897 39.4614 97.1418 37.9744 101.138 36.6025C101.676 36.3973 102.829 36.0416 103.356 35.7947C104.188 35.3725 104.692 34.4149 104.589 33.4836C104.471 32.1858 103.608 31.0265 102.724 30.0863C101.792 29.067 100.89 28.0338 100.086 26.9048C99.0295 25.493 98.4222 23.6572 97.0041 22.571C94.287 20.2908 91.2978 23.4933 88.2993 23.3434C86.5872 23.1595 85.2887 21.6508 84.7906 20.1466C84.4576 19.0891 84.1332 17.9709 83.7097 16.9459C83.4999 16.3786 83.2261 15.8564 82.7653 15.4264C80.877 13.5925 77.8497 13.6957 76.0278 15.6062C74.7745 16.8091 74.027 18.526 74.4237 20.258L74.4312 20.2605ZM73.8287 20.3891C73.1667 17.5007 75.2541 14.5141 77.9217 13.4994C80.2839 12.6404 83.2193 13.6116 84.5032 15.818C85.1478 17.0467 85.5805 18.3963 86.0162 19.7093C86.4205 20.8583 87.3026 21.9058 88.4735 22.0582C90.1283 22.0212 91.6737 21.1431 93.336 20.8209C96.6882 20.0085 98.7397 22.6822 99.8897 25.4301C100.908 27.4658 102.549 29.083 103.95 30.8498C104.765 31.9596 105.438 33.5109 104.836 34.896C104.543 35.5839 103.972 36.1546 103.27 36.4179L102.633 36.6849C96.2886 39.2163 89.8627 41.6585 83.344 43.7013C82.4707 43.974 81.5947 44.2439 80.6951 44.4845C79.6945 44.7794 78.524 45.015 77.5421 44.5195C75.7347 43.6511 74.7368 41.8304 73.5227 40.3792C72.4036 38.9444 71.2743 37.5191 70.165 36.0771L70.8653 36.3481L70.7968 36.3641C70.1471 36.5382 69.4178 36.8034 68.7522 36.9187C68.4417 36.9474 68.1889 36.9041 67.9155 36.9039L67.9229 36.4747L67.7612 35.9644C67.4257 34.7728 67.1137 33.5081 67.3356 32.2604C67.6166 30.8453 68.7379 29.3788 70.1715 28.6013C71.4487 27.8404 72.8611 27.4504 74.1929 27.0492C74.7866 26.8645 75.4024 26.6654 75.6299 26.0886C75.8291 25.5749 75.7223 24.8507 75.565 24.2233C75.205 22.8969 74.0581 21.7934 73.824 20.384L73.8287 20.3891Z" fill="#7F1314"/>
<path id="Vector_14" d="M70.71 35.6449C69.4971 34.128 67.4712 30.4056 69.9859 29.203L70.0555 29.2725C69.8619 29.8668 69.7905 30.3294 69.7914 30.8294C69.7974 31.3151 69.7248 31.8408 69.8032 32.3838C69.8839 32.9294 70.0234 33.471 70.1898 33.9987C70.3535 34.5383 70.5637 35.069 70.7938 35.5927L70.7124 35.6451L70.71 35.6449Z" fill="#7F1314"/>
<path id="Vector_15" d="M76.426 14.8398C75.1108 16.2416 75.013 18.331 75.9883 19.9097C76.6662 21.0415 77.2082 22.2782 77.3804 23.5989C77.7246 25.8302 76.1684 28.0283 73.7678 27.5762L73.7648 27.4785C74.385 27.3162 74.9574 27.0918 75.3835 26.7238C76.2727 25.9683 76.442 24.8 76.4128 23.6773C76.3949 22.4741 75.9547 21.2757 75.4049 20.2096C74.4802 18.4024 74.7918 16.068 76.3591 14.7657L76.4236 14.8401L76.4262 14.84L76.426 14.8398Z" fill="#7F1314"/>
<path id="Vector_16" d="M83.0694 17.7574C83.6725 19.5419 83.2554 21.7524 81.2437 22.3809C79.3465 23.0114 77.2545 21.5374 76.9341 19.6336C76.1431 14.9082 81.4542 12.7222 83.0668 17.7572L83.0694 17.7574ZM82.9761 17.7852C82.4067 15.8843 79.7785 15.1965 78.2227 16.2672C76.4436 17.5439 77.2048 20.1949 78.9207 21.135C81.0361 22.3969 83.6711 20.0397 82.9761 17.7852Z" fill="#7F1314"/>
<path id="Vector_17" d="M77.6431 16.7297C78.8676 15.9069 80.5964 16.5325 81.3938 17.6837C82.2281 18.7986 82.3441 20.5478 81.3862 21.5948C81.471 20.9325 81.4401 20.3341 81.3035 19.7755C80.9137 18.0705 79.4391 16.7173 77.6431 16.7321L77.6431 16.7297Z" fill="#7F1314"/>
<path id="Vector_18" d="M88.1139 66.0777C86.0977 66.9672 84.1421 67.999 82.1844 69.0189C81.692 69.2689 81.202 69.5239 80.7074 69.764C80.1905 70.0235 79.6364 70.309 79.0424 70.3717C77.7852 70.5497 76.427 69.9453 75.8197 68.8074C75.6748 68.5877 75.581 68.2323 75.4851 67.9889C75.3132 67.5029 74.8463 66.1502 74.6747 65.6421C74.1409 64.0761 73.5777 62.5217 72.9628 60.986L72.6541 60.2193C71.9821 58.8779 72.4934 57.1446 73.7472 56.3248C74.1479 56.0049 74.8373 55.7996 75.3067 55.6005C75.8203 55.3972 76.3336 55.2013 76.8493 55.0053C78.7383 54.2868 80.7711 53.5711 82.6743 52.8771C84.0217 52.2957 85.7008 52.686 86.6122 53.8637C86.9758 54.2847 87.1808 54.9814 87.3841 55.4874C87.5801 56.0034 87.7784 56.5166 87.9645 57.0347C88.5264 58.5258 89.0531 60.2161 89.5607 61.7378C89.7321 62.2654 89.9563 62.8305 89.917 63.4009C89.8846 64.5593 89.1556 65.6349 88.1184 66.0778L88.1134 66.0776L88.1139 66.0777ZM88.0739 65.9891C89.3084 65.4446 90.0014 63.9074 89.4793 62.6464C89.2706 62.1645 88.6705 60.9024 88.4402 60.4005C87.6142 58.6585 86.8574 56.8763 86.1345 55.0898C85.6388 53.8612 84.2012 53.3359 82.9969 53.8271L82.604 53.957C80.8125 54.5451 78.8933 55.1851 77.1 55.7466C76.575 55.9109 76.0474 56.0723 75.5176 56.2313C75.0955 56.3801 74.4049 56.5169 74.032 56.7737C72.8911 57.4173 72.3477 58.9035 72.9342 60.1069L73.2331 60.8784C73.8355 62.4189 74.4873 63.9381 75.1708 65.4457C75.394 65.9377 75.9741 67.2313 76.1851 67.7108L76.3518 68.0892C76.5887 68.6279 77.0204 69.06 77.5554 69.301C78.3372 69.654 79.2294 69.5646 80.0019 69.2121C80.636 68.9499 81.287 68.6977 81.9258 68.4503C83.9916 67.6691 86.0617 66.9001 88.0687 65.9885L88.0737 65.9886L88.0739 65.9891Z" fill="#7F1314"/>
<path id="Vector_19" d="M73.2471 32.7832C73.6983 33.3498 74.1973 33.8441 74.6857 34.3724C75.4782 35.2306 76.2629 36.1274 76.9862 37.0455C78.1601 38.5618 79.2581 40.101 80.0319 41.891C79.1822 41.3685 78.449 40.7407 77.7555 40.0796C76.0307 38.3999 73.4557 35.2316 73.2471 32.7832Z" fill="#7F1314"/>
<path id="Vector_20" d="M98.1812 87.337C96.1651 88.2264 94.2094 89.2583 92.2518 90.2782C91.7594 90.5282 91.2693 90.7831 90.7748 91.0233C90.2579 91.2828 89.7038 91.5682 89.1098 91.631C87.8526 91.809 86.4944 91.2046 85.8871 90.0667C85.7421 89.847 85.6484 89.4916 85.5525 89.2482C85.3806 88.7621 84.9137 87.4095 84.7421 86.9014C84.2083 85.3354 83.6451 83.7809 83.0302 82.2452L82.7215 81.4786C82.0495 80.1372 82.5608 78.4039 83.8145 77.584C84.2153 77.2641 84.9047 77.0589 85.3741 76.8597C85.8877 76.6565 86.401 76.4606 86.9167 76.2646C88.8057 75.5461 90.8385 74.8303 92.7417 74.1363C94.0891 73.5549 95.7682 73.9453 96.6796 75.1229C97.0432 75.544 97.2482 76.2407 97.4515 76.7467C97.6475 77.2626 97.8458 77.7759 98.0319 78.2966C98.5938 79.7874 99.1205 81.478 99.6281 82.9997C99.7996 83.5273 100.024 84.0924 99.9844 84.6628C99.952 85.8212 99.2231 86.8966 98.1858 87.3397L98.1807 87.3371L98.1812 87.337ZM98.1412 87.2484C99.3758 86.7039 100.069 85.1666 99.5467 83.9057C99.338 83.4237 98.7379 82.1617 98.5076 81.6598C97.6816 79.9177 96.9247 78.1356 96.2019 76.349C95.7061 75.1205 94.2685 74.5951 93.0642 75.0864L92.6715 75.216C90.8801 75.8044 88.9607 76.4442 87.1674 77.0056C86.6425 77.1697 86.1148 77.3314 85.585 77.4904C85.1629 77.6391 84.4723 77.776 84.0994 78.0327C82.9585 78.6764 82.4152 80.1626 83.0016 81.366L83.3005 82.1374C83.9029 83.6779 84.5547 85.1972 85.2382 86.7048C85.4614 87.1967 86.0415 88.4904 86.2526 88.9698L86.4193 89.3483C86.6561 89.887 87.0878 90.3191 87.6229 90.5601C88.4047 90.913 89.2968 90.8236 90.0693 90.4712C90.7034 90.209 91.3544 89.9567 91.9932 89.7093C94.059 88.9282 96.1291 88.1592 98.1362 87.2475L98.1411 87.2476L98.1412 87.2484Z" fill="#7F1314"/>
</g>
<g id="Group_6">
<path id="Vector_21" d="M123.41 65.3873C119.75 64.4888 115.658 64.7906 112.515 66.8819C109.398 68.9801 107.504 73.0781 108.655 76.6763C109.402 79.0148 111.315 80.8981 113.53 81.9579C115.772 83.0245 118.277 83.312 120.743 83.2326C124.131 83.0985 127.556 82.207 130.229 80.1268C131.376 79.228 132.385 78.1276 132.935 76.7945C134.114 73.9304 132.955 70.4669 130.738 68.2829C128.629 66.2099 125.609 65.072 122.646 65.2648" fill="#D11243"/>
<path id="Vector_22" d="M112.6 66.9862C111.779 67.5887 111.059 68.3279 110.479 69.1594C109.899 69.991 109.433 70.908 109.154 71.8476C108.843 72.8058 108.743 73.7934 108.81 74.7711C108.826 75.0219 108.848 75.2471 108.921 75.4861L108.993 75.8342C109.016 75.9503 109.066 76.0732 109.09 76.1892C109.211 76.6603 109.422 77.1008 109.641 77.5157C110.559 79.2148 112.16 80.5209 113.923 81.3223C115.718 82.105 117.696 82.4154 119.685 82.3728C120.676 82.3642 121.688 82.279 122.669 82.1032C123.65 81.9275 124.594 81.6868 125.532 81.3626C126.471 81.0383 127.346 80.6423 128.158 80.1745C128.58 79.9313 128.977 79.6812 129.355 79.3986C129.752 79.1485 130.111 78.8335 130.47 78.5185C131.156 77.9073 131.734 77.1849 132.139 76.3889C132.519 75.586 132.727 74.7095 132.736 73.7524C132.738 72.8209 132.561 71.8414 132.203 70.923C131.877 69.9858 131.37 69.1098 130.772 68.2643L130.923 68.1127C131.769 68.7505 132.515 69.5536 133.085 70.5014C133.373 70.9625 133.597 71.461 133.814 71.9851C134.005 72.5024 134.156 73.0639 134.224 73.6304C134.284 73.9206 134.292 74.1969 134.294 74.4989C134.27 74.794 134.304 75.0773 134.254 75.3655C134.206 75.9557 134.048 76.544 133.872 77.0998C133.461 78.2234 132.756 79.2134 131.964 80.0156C131.14 80.8364 130.247 81.502 129.273 82.0633C128.279 82.5922 127.255 83.0306 126.189 83.3205C124.055 83.9003 121.864 84.0808 119.716 83.9987C117.568 83.9165 115.348 83.4862 113.382 82.5207C112.393 82.0089 111.463 81.3761 110.678 80.6173C109.892 79.8585 109.206 78.9344 108.733 77.9304C108.51 77.4319 108.293 76.9078 108.192 76.36C108.175 76.2184 108.126 76.0955 108.109 75.9538L108.058 75.5289C108.024 75.2457 108.016 74.9693 108.007 74.6929C107.999 73.5942 108.204 72.5249 108.587 71.5037C109.347 69.4868 110.765 67.7832 112.547 66.6705L112.6 66.9862Z" fill="#6E1427"/>
<path id="Vector_23" d="M118.412 58.9215C116.012 58.1412 114.771 55.2866 115.082 52.793C115.393 50.2993 116.916 48.1029 118.6 46.224C122.088 42.3335 126.456 39.2548 131.322 37.296C135.423 35.626 139.891 34.7397 143.712 32.4738C145.051 31.6811 146.376 30.5284 146.401 28.9999C146.419 27.9081 145.739 26.9584 145.026 26.1366C139.17 19.3862 128.5 17.3771 120.581 21.5057C118.276 16.4742 117.203 10.8409 117.506 5.30198C117.575 3.81276 117.892 2.11584 119.173 1.33496C119.999 0.816042 121.041 0.821232 122.044 0.870711C130.263 1.26346 138.51 2.67815 146.096 5.94443C153.681 9.21072 160.502 14.4103 164.932 21.3545C168.258 26.5771 169.946 33.9107 166 38.6927C162.212 43.2975 155.293 43.2806 149.314 43.3506C143.334 43.4206 136.174 44.8192 134.042 50.4164C132.684 53.9455 133.505 58.8807 130.161 60.6987C128.836 61.4403 127.215 61.3351 125.707 61.1227C122.984 60.7223 120.314 59.9244 117.823 58.7635" fill="#D11243"/>
<path id="Vector_24" d="M118.36 59.0171C117.553 58.7462 116.834 58.2519 116.291 57.6129C116.019 57.2934 115.787 56.9297 115.581 56.5727C115.407 56.1971 115.233 55.8215 115.123 55.4085C114.873 54.6011 114.796 53.7582 114.881 52.9309C114.939 52.0968 115.184 51.2852 115.474 50.5128C116.111 48.9564 117.079 47.5983 118.155 46.3514C119.23 45.1044 120.395 43.9361 121.649 42.8464C124.149 40.6925 126.946 38.8651 129.955 37.4781C132.964 36.0911 136.157 35.247 139.213 34.0921C140.741 33.5147 142.213 32.8399 143.559 32.0216C144.222 31.5962 144.841 31.1316 145.301 30.5421C145.762 29.9526 145.972 29.2688 145.848 28.605C145.724 27.9411 145.297 27.2785 144.798 26.6788C144.552 26.3662 144.267 26.0979 143.989 25.804C143.71 25.5101 143.432 25.2162 143.14 24.9734L142.226 24.1803L141.259 23.4826C140.942 23.2329 140.578 23.0532 140.253 22.8291C139.922 22.6307 139.572 22.3998 139.201 22.2456L138.135 21.7132C137.764 21.5591 137.393 21.4049 137.016 21.2763C136.817 21.1958 136.645 21.1221 136.465 21.074L135.883 20.8905L135.3 20.707C135.095 20.652 134.923 20.5784 134.711 20.549L133.544 20.2911C133.152 20.2137 132.754 20.1618 132.356 20.11L131.771 20.0356L131.18 19.9868C130.775 19.9606 130.377 19.9087 129.991 19.9149C128.401 19.9002 126.815 20.0783 125.246 20.3981C123.696 20.7503 122.2 21.309 120.798 22.03L120.195 22.3343L119.922 21.7129C118.56 18.7984 117.613 15.6663 117.093 12.4837C116.836 10.8796 116.688 9.27742 116.65 7.67713C116.618 6.87355 116.644 6.05813 116.67 5.24271C116.697 4.42728 116.788 3.57443 117.105 2.69979C117.247 2.27183 117.473 1.83889 117.769 1.45213C118.064 1.06537 118.463 0.706082 118.911 0.469711C119.359 0.233341 119.856 0.119897 120.314 0.0507323C120.772 -0.0184326 121.21 -0.0108659 121.622 -0.0101636C123.223 0.0625135 124.824 0.135186 126.405 0.284598C127.986 0.43401 129.585 0.615867 131.171 0.848882C132.757 1.0819 134.329 1.36607 135.913 1.70827C137.472 2.0436 139.035 2.46252 140.592 2.90703C142.141 3.37712 143.652 3.89149 145.142 4.4826C148.147 5.67169 151.026 7.12841 153.738 8.89705C159.171 12.4087 163.934 17.0845 167.037 22.9328C167.766 24.4166 168.364 25.9752 168.782 27.5949C169.174 29.2077 169.378 30.9073 169.273 32.6336C169.174 34.3343 168.734 36.0805 167.885 37.6076C167.46 38.3712 166.959 39.1141 166.332 39.7136C166.181 39.8651 166.024 40.0423 165.873 40.1939L165.377 40.6093C165.051 40.9056 164.686 41.137 164.341 41.4008C162.903 42.3589 161.284 42.9669 159.643 43.3496C158.028 43.7392 156.384 43.9292 154.767 44.0169C153.15 44.1045 151.547 44.141 149.958 44.1264C149.16 44.1318 148.394 44.1186 147.615 44.1565C146.835 44.1944 146.082 44.2392 145.314 44.3351C143.786 44.5014 142.275 44.8093 140.858 45.2795C139.415 45.7427 138.053 46.4194 136.931 47.3251C135.802 48.2563 134.933 49.4491 134.447 50.854C133.961 52.2589 133.761 53.823 133.453 55.3851C133.298 56.1662 133.137 56.9729 132.841 57.7708C132.552 58.5431 132.172 59.346 131.537 59.971C130.928 60.6029 130.142 61.0775 129.315 61.2945C128.487 61.5115 127.631 61.5288 126.828 61.4506C123.603 61.08 120.536 60.1212 117.676 58.6969L117.757 58.4991C119.214 59.1089 120.699 59.6165 122.244 60.0029C123.019 60.1834 123.769 60.357 124.533 60.4794C125.297 60.6018 126.093 60.7056 126.852 60.7444C127.611 60.7832 128.372 60.7128 129.064 60.4871C129.756 60.2614 130.355 59.8735 130.827 59.342C131.299 58.8105 131.612 58.1543 131.83 57.4449C132.047 56.7356 132.195 55.9801 132.316 55.2177C132.56 53.693 132.664 52.0759 133.179 50.4594C133.669 48.8362 134.672 47.3502 135.958 46.2418C137.244 45.1334 138.75 44.3307 140.304 43.7602C141.858 43.1896 143.485 42.858 145.085 42.6287C145.885 42.5141 146.703 42.4319 147.515 42.3753C148.327 42.3186 149.157 42.2945 149.93 42.2821C151.507 42.2388 153.085 42.1954 154.625 42.0871C156.172 41.9533 157.681 41.7546 159.154 41.3817C160.602 41.0021 161.988 40.4415 163.16 39.6587C163.433 39.4578 163.758 39.2707 163.994 39.005L164.393 38.6457C164.511 38.5128 164.629 38.38 164.747 38.2471C165.237 37.7481 165.639 37.1705 165.971 36.5466C166.635 35.299 166.98 33.9109 167.068 32.4541C167.149 31.0229 166.974 29.523 166.618 28.0843C166.262 26.6455 165.738 25.2167 165.059 23.8558C164.716 23.1882 164.373 22.5206 163.965 21.8903C163.531 21.2533 163.13 20.5975 162.664 19.9791C162.23 19.342 161.725 18.768 161.259 18.1496C160.753 17.5755 160.255 16.9758 159.717 16.4205C158.666 15.3166 157.551 14.2502 156.364 13.2467C155.177 12.2433 153.944 11.3097 152.657 10.4716C147.514 7.00983 141.617 4.71715 135.539 3.30786C134.014 2.95382 132.467 2.67651 130.946 2.40607C129.393 2.15435 127.851 1.96066 126.271 1.81124C124.722 1.64312 123.128 1.54486 121.585 1.46034C120.826 1.42152 120.149 1.4869 119.643 1.73511C119.137 1.98332 118.788 2.46552 118.559 3.11683C118.336 3.74255 118.247 4.48622 118.183 5.23676C118.145 5.99416 118.125 6.784 118.139 7.55514C118.165 9.09741 118.275 10.6347 118.52 12.1808C118.991 15.2404 119.863 18.2428 121.135 21.0786L120.252 20.7871C121.77 20.0424 123.382 19.46 125.049 19.0841C126.702 18.7594 128.397 18.5832 130.089 18.6253C130.501 18.626 130.925 18.6847 131.355 18.7179L131.972 18.7735L132.608 18.8616C133.032 18.9203 133.456 18.9791 133.847 19.0565L135.084 19.3606C135.289 19.4155 135.494 19.4705 135.699 19.5254L136.307 19.7158L136.916 19.9062C137.121 19.9611 137.312 20.0672 137.51 20.1478C137.907 20.3088 138.303 20.4698 138.674 20.624L139.81 21.2026C140.199 21.3892 140.55 21.6201 140.907 21.8254C141.257 22.0563 141.64 22.2685 141.957 22.5182L142.962 23.2807L143.92 24.1132C144.231 24.3884 144.535 24.6892 144.806 25.0087C145.078 25.3281 145.389 25.6033 145.653 25.9484C146.189 26.6129 146.698 27.3798 146.856 28.3269C146.952 28.7911 146.899 29.2977 146.75 29.7513C146.601 30.2048 146.382 30.6122 146.092 30.9733C145.521 31.6701 144.83 32.1978 144.109 32.635C142.673 33.4839 141.117 34.1636 139.57 34.7086C136.462 35.8497 133.283 36.6427 130.295 37.9529C127.332 39.27 124.53 41.0139 122.05 43.091C120.81 44.1295 119.627 45.2654 118.558 46.4868C117.489 47.7082 116.509 49.0082 115.886 50.5135C115.577 51.2534 115.339 52.0395 115.269 52.8156C115.191 53.6173 115.249 54.4277 115.481 55.2026C115.597 55.5901 115.745 55.9589 115.919 56.3345C116.1 56.6845 116.307 57.0414 116.585 57.3353C117.077 57.9606 117.777 58.4224 118.526 58.7051L118.36 59.0171Z" fill="#6E1427"/>
</g>
<g id="Group_7">
<path id="Vector_25" d="M78.8135 140.188C78.87 136.533 79.9676 133.65 83.0146 128.351C90.6382 114.968 105.276 110.311 119.011 120.591C121.165 122.093 123.091 123.901 124.953 125.649C143.866 146.665 154.353 116.925 173.119 128.112C175.845 129.833 178.901 133.471 181.896 133.382C185.863 131.897 190.772 131.767 194.335 134.238C196.203 135.533 197.294 137.681 197.294 139.954L195.426 139.959L78.8135 140.188ZM188.113 136.027C187.444 136.027 186.721 136.097 185.933 136.234L189.916 136.226C189.361 136.093 188.763 136.027 188.113 136.027Z" fill="white"/>
<path id="Vector_26" d="M118.312 123.999C123.227 127.425 127.012 132.646 132.316 135.279C146.316 143.605 158.929 122.312 172.446 131.538C175.755 133.734 178.741 137.445 182.61 137.107C187.599 135.551 192.362 135.045 195.795 139.958V139.959L81.1826 140.184C81.4225 136.474 93.5678 106.744 118.312 123.999Z" fill="#EC8582"/>
<path id="Vector_27" d="M199.317 140.182L167.69 140.735L136.063 140.877C125.52 140.929 114.977 141.035 104.436 140.972L96.5287 140.916C93.893 140.888 91.2573 140.872 88.6216 140.828L80.7145 140.714L76.7617 140.634L74.7851 140.593L72.8086 140.543V140.448L74.7851 140.398L76.7617 140.357L80.7145 140.277L88.6216 140.163C91.2573 140.12 93.893 140.105 96.5287 140.075L104.436 140.019C114.979 139.957 125.521 140.062 136.063 140.114L167.69 140.256L199.317 140.083V140.181V140.182Z" fill="#6E1427"/>
</g>
</g>
<defs>
<clipPath id="clip0_5308_877">
<rect width="203.372" height="146.346" fill="white" transform="translate(0.813477)"/>
</clipPath>
</defs>
</svg>
