<svg width="13" height="14" viewBox="0 0 13 14" fill="none" xmlns="http://www.w3.org/2000/svg">
<path d="M9.11681 9.61861L6.76468 10.0915C5.1759 9.26411 4.17173 7.64585 3.60057 6.16433L4.04033 3.7168L3.20906 1.42346H1.0667C0.422699 1.42346 -0.0844342 1.97564 0.0117481 2.63634C0.251867 4.28576 0.844876 7.9442 2.91444 10.0915C5.18122 12.8471 8.35575 13.325 10.0785 13.714C10.7438 13.8642 11.3339 13.3257 11.3339 12.6193V10.4952L9.11681 9.61861Z" fill="#C0C1C3"/>
<path d="M7.21875 3.75928C7.83181 3.88511 9.13149 4.51427 9.42576 6.02425" stroke="#C0C1C3" stroke-width="1.5"/>
<path d="M7.21875 0.739258C9.42576 1.11675 11.6328 2.62673 12.0006 6.02419" stroke="#C0C1C3" stroke-width="1.5"/>
</svg>
