<svg width="120" height="106" viewBox="0 0 120 106" fill="none" xmlns="http://www.w3.org/2000/svg">
<g id="Frame 5">
<g id="Group">
<g id="Group_2">
<path id="Vector" d="M49.3196 0.883914C28.6539 16.09 -2.27129 82.1541 1.17298 94.5755C6.08291 112.237 118.315 102.05 118.315 87.7602C118.315 73.5434 61.4112 -8.0199 49.3196 0.883914Z" fill="#D11243"/>
</g>
<g id="Group_3">
<path id="Vector_2" d="M49.429 0.993797C46.571 3.11899 44.0061 5.72051 41.6611 8.43196C39.316 11.1434 37.1175 14.0014 35.0656 16.9327C30.9252 22.832 27.1878 28.9877 23.7435 35.29C20.2992 41.5923 17.0748 48.0411 14.1069 54.5999C11.1389 61.122 8.35419 67.7907 6.00915 74.5694C4.83663 77.9404 3.7374 81.3846 2.9313 84.8289C2.52824 86.551 2.16182 88.3098 1.97861 90.032C1.86869 90.9113 1.83205 91.7541 1.86869 92.5968C1.90533 93.4396 2.01526 94.2457 2.30839 94.8686C2.60152 95.5282 3.1145 96.151 3.70075 96.664C4.32366 97.177 5.01983 97.6533 5.75265 98.0564C7.25494 98.8625 8.9038 99.4488 10.5893 99.9251C13.9603 100.878 17.4778 101.464 21.032 101.867C28.1038 102.673 35.2855 102.856 42.4672 102.783C49.6488 102.71 56.7939 102.307 63.9389 101.684C71.084 101.061 78.1924 100.182 85.2641 99.0091C88.7817 98.4228 92.2992 97.7266 95.7802 96.9572C99.2611 96.1511 102.705 95.2717 106.04 94.1724C107.725 93.6228 109.374 92.9999 110.913 92.3403C112.489 91.6442 113.991 90.8381 115.2 89.8854C115.786 89.409 116.263 88.8594 116.446 88.4197C116.556 88.1999 116.592 88.0167 116.592 87.8335C116.592 87.5404 116.556 87.1739 116.482 86.7709C116.189 85.2319 115.603 83.5831 114.943 81.9709C113.624 78.7465 112.012 75.5587 110.327 72.4442C108.641 69.293 106.846 66.2152 104.977 63.1373C103.145 60.0594 101.24 57.0182 99.2977 54.0136C97.3557 51.0091 95.3771 48.0045 93.3618 45.0365C89.3313 39.1007 85.1908 33.2381 80.8305 27.522C76.4702 21.806 71.9267 16.2365 66.9435 11.0701C64.4153 8.50525 61.8137 6.01365 58.9557 3.88846C57.5267 2.82587 56.0244 1.83655 54.3756 1.14037C53.5695 0.8106 52.7267 0.517452 51.8473 0.480811C51.0046 0.334246 50.1252 0.48082 49.429 0.993797ZM49.2458 0.737304C50.0153 0.151044 51.0046 -0.0321619 51.9206 0.0044793C52.8366 0.0777617 53.7527 0.334246 54.5954 0.664017C56.2809 1.3602 57.8198 2.31288 59.3221 3.37548C62.2901 5.50067 65.0015 7.88235 67.5664 10.4106C70.1679 12.9022 72.6962 15.5037 75.1145 18.1785C77.5695 20.8533 79.9511 23.5648 82.2595 26.3129C91.5298 37.3785 100.177 49.0304 107.798 61.3419C109.704 64.4198 111.536 67.5342 113.295 70.722C115.053 73.9098 116.702 77.1709 118.131 80.6152C118.827 82.3373 119.487 84.0961 119.853 86.1113C119.927 86.6243 120 87.1373 120 87.7602C120 88.493 119.817 89.1892 119.524 89.7755C118.937 90.948 118.131 91.7541 117.325 92.4136C115.713 93.6961 113.991 94.5388 112.269 95.3083C110.547 96.0411 108.788 96.664 107.066 97.2503C103.548 98.3495 99.9939 99.1923 96.4397 99.9617C92.8855 100.731 89.2947 101.317 85.7405 101.867C78.5954 102.966 71.3771 103.736 64.1588 104.285C56.9404 104.835 49.7221 105.128 42.4672 105.165C35.2122 105.165 27.9939 104.908 20.7756 103.992C17.1847 103.516 13.5572 102.893 10.0397 101.867C8.2809 101.317 6.52212 100.695 4.83662 99.7785C3.99388 99.3388 3.18777 98.7892 2.45494 98.1297C1.72212 97.4701 1.02595 96.664 0.586251 95.6747C0.476327 95.4182 0.403049 95.1617 0.293125 94.9052C0.219843 94.6488 0.183202 94.3923 0.109919 94.1358L0.0366323 93.403L0 92.6701C0 91.7175 0.0366278 90.7648 0.146551 89.8488C0.366399 88.0167 0.769461 86.2213 1.20916 84.4259C2.08855 80.8717 3.22441 77.4274 4.47021 74.0564C9.5267 60.4991 15.9389 47.4915 23.1572 35.0335C24.9527 31.919 26.8214 28.8411 28.7634 25.7999C30.7053 22.7587 32.7206 19.7541 34.8092 16.8228C36.8977 13.8915 39.1328 11.0335 41.4778 8.32204C43.8229 5.53731 46.3145 2.89914 49.2458 0.737304Z" fill="#6E1427"/>
</g>
</g>
<g id="Group_4">
<g id="Group_5">
<path id="Vector_3" d="M52.9013 71.798C51.0193 57.8553 49.1373 43.9126 47.2553 29.9433C47.1758 29.2806 47.0963 28.5915 47.3348 28.0083C47.6264 27.3456 48.2891 26.9215 48.9518 26.5769C50.6217 25.7287 52.4242 25.1455 54.2797 24.8805C55.1809 24.7479 56.1617 24.7214 56.9039 25.2516C57.8846 25.9673 57.9907 27.3456 58.0437 28.5385C58.3883 41.845 58.3088 55.1781 57.7521 68.4846C57.6991 69.704 57.5931 71.0293 56.7713 71.9306C55.9496 72.8053 54.4917 72.9908 53.4845 72.3282C52.4772 71.6655 52.6893 70.3932 52.4772 69.1738" fill="#EFECE7"/>
</g>
<g id="Group_6">
<path id="Vector_4" d="M52.7936 71.7981C51.4152 62.8387 50.0899 53.8528 48.738 44.8669L46.75 31.4013L46.5114 29.7048C46.4849 29.4133 46.4319 29.0952 46.4584 28.7241C46.4849 28.3795 46.5379 27.9819 46.7235 27.6373C46.8825 27.2662 47.1476 26.9746 47.3861 26.736C47.6512 26.4975 47.9163 26.3119 48.1814 26.1529C48.4464 25.9938 48.7115 25.8613 48.9766 25.7288C49.2416 25.5962 49.5067 25.4637 49.7718 25.3577C50.8586 24.8805 51.9984 24.5094 53.1647 24.2709C53.7479 24.1648 54.331 24.0588 54.9672 24.0058C55.6034 23.9793 56.3455 24.0323 57.0612 24.4034C57.4058 24.589 57.7239 24.854 57.9625 25.1721C58.201 25.4902 58.3866 25.8083 58.4926 26.1529C58.7312 26.8156 58.8107 27.4782 58.8637 28.0614C58.8902 28.3795 58.8902 28.6446 58.9167 28.9361L58.9432 29.7843L58.9963 31.4808C59.0758 33.7604 59.1553 36.0135 59.2083 38.2931C59.3143 42.8524 59.3143 47.3851 59.2083 51.9443C59.1288 54.2239 59.0493 56.5035 58.9432 58.7566C58.8107 61.0362 58.7047 63.2893 58.5456 65.5689C58.4661 66.7087 58.3866 67.822 58.2806 68.9883C58.2276 69.5715 58.148 70.1812 57.936 70.7908C57.7504 71.4005 57.4058 72.0102 56.8757 72.4343C56.3456 72.8849 55.6829 73.0969 55.0467 73.1235C54.4105 73.15 53.7478 72.9909 53.2177 72.5933C52.9526 72.4078 52.7141 72.1162 52.608 71.8246C52.502 71.533 52.4225 71.2149 52.396 70.9234C52.343 70.3402 52.3695 69.7836 52.3165 69.2269L52.5285 69.2004C52.6611 69.7571 52.7141 70.3402 52.8201 70.8703C52.9261 71.4005 53.1647 71.8776 53.5623 72.0897C54.4105 72.5668 55.6034 72.3813 56.213 71.7186C56.5311 71.4005 56.7432 70.9499 56.8492 70.4727C56.9552 69.9956 56.9817 69.4655 57.0082 68.9088L57.0347 65.5159L57.0612 58.7036C57.0612 56.4505 57.0877 54.1709 57.0612 51.8913C57.0612 47.3586 57.0612 42.8258 57.0878 38.2931C57.0878 36.04 57.1143 33.7604 57.0878 31.5073L57.0612 29.8109V28.9626C57.0612 28.6711 57.0612 28.406 57.0347 28.1409C57.0082 27.6108 56.9552 27.1336 56.8227 26.7095C56.6901 26.3119 56.4781 26.0203 56.1865 25.8613C55.8949 25.6758 55.4708 25.6227 54.9672 25.6227C54.4901 25.6227 53.9334 25.7288 53.4033 25.8083C52.343 25.9938 51.3092 26.3119 50.3019 26.7095C49.3212 27.1336 48.2079 27.6108 47.9163 28.2204C47.7572 28.512 47.7307 28.9626 47.8103 29.4928L48.0223 31.1627L49.6923 44.6813C50.7525 53.6938 51.8659 62.7062 52.8996 71.7186L52.7936 71.7981Z" fill="#6E1427"/>
</g>
<g id="Group_7">
<g id="Group_8">
<path id="Vector_5" d="M55.9115 85.8262C58.5743 85.7314 60.6594 83.5908 60.5687 81.045C60.478 78.4993 58.2459 76.5125 55.5831 76.6073C52.9203 76.7022 50.8352 78.8428 50.9259 81.3885C51.0166 83.9342 53.2487 85.9211 55.9115 85.8262Z" fill="#EFECE7"/>
</g>
<g id="Group_9">
<path id="Vector_6" d="M53.0603 77.179C52.053 77.8947 51.3903 79.0345 51.2048 80.2274C51.0192 81.4202 51.3638 82.666 52.053 83.6203C52.3976 84.0974 52.8217 84.548 53.2989 84.8661C53.776 85.2107 54.3326 85.4757 54.8893 85.5818C55.4459 85.6878 56.0291 85.6348 56.5592 85.4492C56.8243 85.3697 57.0894 85.2372 57.3544 85.1312C57.6195 84.9986 57.8581 84.8396 58.0966 84.654C58.5473 84.3094 58.9449 83.8588 59.263 83.3817C59.5545 82.9046 59.7931 82.3744 59.8726 81.8178C60.0847 80.731 59.8196 79.5647 59.2364 78.6369C58.9449 78.1598 58.5473 77.7622 58.0966 77.4441C57.8581 77.2851 57.6195 77.1525 57.3544 77.0465C57.0894 76.9405 56.8243 76.861 56.5327 76.8079C55.3929 76.5959 54.1471 76.7814 52.9543 77.179L52.9013 77.073C53.9615 76.3838 55.2604 75.9597 56.6123 76.0657C57.2749 76.0922 57.9641 76.3043 58.5738 76.6224C59.1834 76.967 59.7136 77.4706 60.1112 78.0273C60.9064 79.1671 61.2245 80.6515 60.9064 82.0298C60.5618 83.3817 59.7136 84.548 58.6003 85.3167C58.3352 85.5288 58.0171 85.6613 57.7255 85.8203C57.4075 85.9529 57.0894 86.0854 56.7713 86.1649C56.1086 86.324 55.4194 86.377 54.7302 86.218C54.0411 86.0589 53.4579 85.7408 52.9278 85.3432C52.3976 84.9456 51.947 84.442 51.6024 83.8853C50.8867 82.772 50.5951 81.3937 50.8602 80.1213C51.1253 78.849 51.8675 77.6827 52.9808 77.02L53.0603 77.179Z" fill="#6E1427"/>
</g>
</g>
</g>
</g>
</svg>
