<svg width="29" height="30" viewBox="0 0 29 30" fill="none" xmlns="http://www.w3.org/2000/svg">
<g id="Layer_1" clip-path="url(#clip0_1245_35854)">
<path id="Vector" d="M13.3001 9H3.7001C1.71187 9 0.100098 10.6118 0.100098 12.6V25.8C0.100098 27.7882 1.71187 29.4 3.7001 29.4H13.3001C15.2883 29.4 16.9001 27.7882 16.9001 25.8V12.6C16.9001 10.6118 15.2883 9 13.3001 9Z" fill="#D11243"/>
<path id="Vector_2" d="M14.596 6.60001H2.5C2.5 3.29161 5.1916 0.600006 8.5 0.600006H18.5956C16.474 1.87321 14.9644 4.05121 14.596 6.60001Z" fill="black"/>
<path id="Vector_3" d="M7.3002 24.6C7.3002 23.9376 6.7626 23.4 6.1002 23.4H4.9002C4.2378 23.4 3.7002 23.9376 3.7002 24.6C3.7002 25.2624 4.2378 25.8 4.9002 25.8H6.1002C6.7626 25.8 7.3002 25.2624 7.3002 24.6Z" fill="white"/>
<path id="Vector_4" d="M7.3002 19.8C7.3002 19.1376 6.7626 18.6 6.1002 18.6H4.9002C4.2378 18.6 3.7002 19.1376 3.7002 19.8C3.7002 20.4624 4.2378 21 4.9002 21H6.1002C6.7626 21 7.3002 20.4624 7.3002 19.8Z" fill="white"/>
<path id="Vector_5" d="M13.3002 24.6C13.3002 23.9376 12.7626 23.4 12.1002 23.4H10.9002C10.2378 23.4 9.7002 23.9376 9.7002 24.6C9.7002 25.2624 10.2378 25.8 10.9002 25.8H12.1002C12.7626 25.8 13.3002 25.2624 13.3002 24.6Z" fill="white"/>
<path id="Vector_6" d="M13.3002 19.8C13.3002 19.1376 12.7626 18.6 12.1002 18.6H10.9002C10.2378 18.6 9.7002 19.1376 9.7002 19.8C9.7002 20.4624 10.2378 21 10.9002 21H12.1002C12.7626 21 13.3002 20.4624 13.3002 19.8Z" fill="white"/>
<path id="Vector_7" d="M12.1002 12.6H4.9002C4.23745 12.6 3.7002 13.1373 3.7002 13.8V15C3.7002 15.6627 4.23745 16.2 4.9002 16.2H12.1002C12.7629 16.2 13.3002 15.6627 13.3002 15V13.8C13.3002 13.1373 12.7629 12.6 12.1002 12.6Z" fill="white"/>
<path id="Vector_8" d="M22.9001 1.8C19.5917 1.8 16.9001 4.4916 16.9001 7.8V7.8288C18.3509 8.9232 19.3001 10.6464 19.3001 12.6V20.4L19.3121 20.4036C19.3145 20.8416 19.5437 21.264 19.9625 21.474L21.1625 22.074C21.5537 22.2684 22.0181 22.2372 22.3769 21.9912L24.4973 20.5404L27.1013 22.0404C27.2861 22.1472 27.4925 22.2012 27.7001 22.2012C27.9077 22.2012 28.1153 22.1472 28.3001 22.0404C28.6721 21.8256 28.9001 21.4296 28.9001 21.0012V7.8C28.9001 4.4916 26.2085 1.8 22.9001 1.8Z" fill="#FFAC1C"/>
</g>
<defs>
<clipPath id="clip0_1245_35854">
<rect width="28.8" height="28.8" fill="white" transform="translate(0.100098 0.600006)"/>
</clipPath>
</defs>
</svg>
