<svg width="26" height="26" viewBox="0 0 26 26" fill="none" xmlns="http://www.w3.org/2000/svg">
<g id="Layer_1" clip-path="url(#clip0_2455_2185)">
<path id="Vector" d="M25.2606 11.0787C25.5813 10.5912 25.8153 10.0419 25.9193 9.46233C25.9681 9.20016 26.0017 8.93256 26.0006 8.6563C26.0006 8.6563 26.0006 8.65413 26.0006 8.65305C25.9865 8.55555 25.9735 8.46671 25.9583 8.36921V8.36379C25.9583 8.36379 25.9562 8.35945 25.9562 8.3562L25.2379 5.84493L24.7038 3.97502C24.0321 1.62192 21.8805 -0.000976562 19.4332 -0.000976562H18.4809C18.4451 -0.000976562 18.4169 0.0271913 18.4169 0.0629428V4.33254C18.4169 4.93056 17.9316 5.41592 17.3336 5.41592C16.7355 5.41592 16.2502 4.93056 16.2502 4.33254V0.0640261C16.2502 0.0282747 16.222 0.000106816 16.1863 0.000106816H9.81384C9.77809 0.000106816 9.74992 0.0282747 9.74992 0.0640261V4.33362C9.74992 4.93165 9.26456 5.417 8.66654 5.417C8.06851 5.417 7.58316 4.93165 7.58316 4.33362V0.0640261C7.58316 0.0282747 7.55499 0.000106816 7.51924 0.000106816H6.56587C4.11852 0.000106816 1.96801 1.62301 1.29632 3.97611L0.741626 5.91969L0.0439302 8.35729C0.0439302 8.35729 0.0439302 8.36162 0.0439302 8.36379L0.0417635 8.36921C0.0265962 8.46671 0.0135956 8.55555 -0.000488281 8.65305V8.65522C-0.000488281 8.93148 0.0320131 9.20016 0.0807651 9.46125C0.276857 10.5457 0.920383 11.5576 1.82067 12.1784C2.53353 12.6908 3.4024 12.9996 4.34711 12.9996H5.4164C6.69262 12.9996 7.83017 12.433 8.6232 11.5511C8.64704 11.524 8.68604 11.524 8.70987 11.5511C9.50291 12.433 10.6405 12.9996 11.9167 12.9996H14.0834C15.3597 12.9996 16.4972 12.433 17.2902 11.5511C17.3141 11.524 17.3531 11.524 17.3769 11.5511C18.1699 12.433 19.3075 12.9996 20.5837 12.9996H21.653C22.5977 12.9996 23.4666 12.6908 24.1794 12.1784C24.602 11.8999 24.9649 11.4948 25.2606 11.0787Z" fill="#D11243"/>
<path id="Vector_2" d="M24.9217 14.4199V21.6027C24.9217 24.0294 22.95 26.0012 20.5232 26.0012H5.48592C3.04832 26.0012 1.0874 24.0294 1.0874 21.6027V14.4199C1.0874 14.3657 1.13074 14.344 1.17407 14.3657C2.11661 14.8857 3.17832 15.1674 4.28337 15.1674H5.42092C6.54763 15.1674 7.64184 14.864 8.61688 14.3115C9.57026 14.9074 11.1737 15.2974 12.9937 15.2974C14.8138 15.2974 16.428 14.9074 17.3814 14.3115C18.3565 14.864 19.4507 15.1674 20.5882 15.1674H21.7149C22.82 15.1674 23.8817 14.8857 24.8242 14.3657C24.8676 14.344 24.9217 14.3657 24.9217 14.4199Z" fill="#FFAC1C"/>
<path id="Vector_3" d="M16.9727 19.1192C16.8188 18.9632 16.613 18.8766 16.393 18.8755H16.3887C16.1699 18.8755 15.964 18.96 15.808 19.1138C15.0995 19.8159 13.9392 20.2135 12.6966 20.1571C11.6457 20.1084 10.7313 19.74 10.2503 19.1691C9.95886 18.8213 9.43884 18.7769 9.08999 19.0683C8.74223 19.3608 8.69673 19.8809 8.98924 20.2286C9.77252 21.1593 11.0964 21.7324 12.6207 21.8017C12.7215 21.806 12.8222 21.8093 12.9219 21.8093C14.5145 21.8093 15.9879 21.2535 16.9662 20.2839C17.289 19.9643 17.2923 19.4421 16.9727 19.1192Z" fill="black"/>
</g>
<defs>
<clipPath id="clip0_2455_2185">
<rect width="26.0011" height="26" fill="white" transform="translate(-0.000488281)"/>
</clipPath>
</defs>
</svg>
