<svg width="12" height="12" viewBox="0 0 12 12" fill="none" xmlns="http://www.w3.org/2000/svg">
<path d="M6.0007 1.49811H4.04511C4.34469 1.40558 4.52145 1.18684 4.60548 1.05747C4.65769 0.977102 4.69698 0.897473 4.72125 0.847159C4.73466 0.819369 4.74394 0.799675 4.75168 0.783258C4.75185 0.782903 4.75202 0.78255 4.75218 0.782198C5.58646 0.780596 6.42095 0.781158 7.2553 0.782878C7.257 0.787129 7.25887 0.791781 7.26092 0.796912C7.27132 0.822828 7.28719 0.86219 7.30603 0.903679C7.33918 0.976659 7.41058 1.12439 7.54398 1.25779C7.6473 1.3611 7.78107 1.44888 7.94045 1.49811H6.0007ZM10.6121 1.24548C10.6121 1.2454 10.6125 1.24702 10.6131 1.25055C10.6123 1.24732 10.612 1.24556 10.6121 1.24548ZM1.38705 1.24431C1.38711 1.24439 1.3868 1.24626 1.38597 1.24966C1.38657 1.24593 1.38699 1.24423 1.38705 1.24431ZM1.05857 1.49762C1.0586 1.49759 1.05955 1.49764 1.06136 1.49785L1.05857 1.49762Z" fill="#CE0000" stroke="#CE0000" stroke-width="1.5625"/>
<path d="M8.93326 11.2157C7.63732 11.2201 6.34286 11.2187 5.04632 11.2172C4.39697 11.2164 3.7471 11.2157 3.09626 11.2157C2.92461 11.2157 2.83018 11.1616 2.7796 11.1132C2.72841 11.0643 2.67126 10.9723 2.66317 10.8056L2.66322 10.8056L2.6627 10.797C2.60981 9.911 2.55203 9.02538 2.49436 8.14145L2.49242 8.11165C2.43406 7.2171 2.37587 6.32424 2.32269 5.4301L2.3227 5.4301L2.32242 5.42579C2.30424 5.14636 2.28669 4.86351 2.26902 4.57879C2.25034 4.27763 2.23152 3.97438 2.2117 3.6709H3.53613C3.30375 3.90422 3.16173 4.22585 3.16173 4.57643V9.64344C3.16173 10.3415 3.72475 10.9247 4.44301 10.9247C5.14784 10.9247 5.7243 10.3483 5.7243 9.64344V4.57643C5.7243 4.22372 5.57994 3.90316 5.34738 3.6709H6.65219C6.41963 3.90316 6.27528 4.22372 6.27528 4.57643V9.64344C6.27528 10.3483 6.85174 10.9247 7.55656 10.9247C8.27482 10.9247 8.83784 10.3415 8.83784 9.64344V4.57643C8.83784 4.22585 8.69582 3.90422 8.46344 3.6709H9.78932C9.69388 5.11197 9.56494 7.15751 9.4682 8.69241C9.39822 9.80261 9.34509 10.6456 9.33364 10.7996L9.33362 10.7998C9.31831 11.0065 9.26351 11.1007 9.23245 11.1351L9.23206 11.1355C9.21872 11.1503 9.16086 11.2145 8.93326 11.2157ZM8.93326 11.2157C8.9335 11.2157 8.93374 11.2157 8.93398 11.2157L8.93665 11.9969L8.93281 11.2157C8.93296 11.2157 8.93311 11.2157 8.93326 11.2157ZM10.4966 3.671C10.4965 3.67102 10.4948 3.67102 10.4918 3.6709L10.4966 3.671Z" fill="#CE0000" stroke="#CE0000" stroke-width="1.5625"/>
</svg>
