<svg width="16" height="16" viewBox="0 0 16 16" fill="none" xmlns="http://www.w3.org/2000/svg">
<g id="Close">
<path id="Union" fill-rule="evenodd" clip-rule="evenodd" d="M12.7657 4.28033C13.0586 3.98744 13.0586 3.51256 12.7657 3.21967C12.4728 2.92678 11.9979 2.92678 11.705 3.21967L7.99268 6.93202L4.28033 3.21967C3.98744 2.92678 3.51256 2.92678 3.21967 3.21967C2.92678 3.51256 2.92678 3.98744 3.21967 4.28033L6.93202 7.99268L3.21974 11.705C2.92685 11.9978 2.92685 12.4727 3.21974 12.7656C3.51263 13.0585 3.98751 13.0585 4.2804 12.7656L7.99268 9.05334L11.705 12.7656C11.9978 13.0585 12.4727 13.0585 12.7656 12.7656C13.0585 12.4727 13.0585 11.9978 12.7656 11.705L9.05334 7.99268L12.7657 4.28033Z" fill="#CE0000"/>
</g>
</svg>
