<svg width="20" height="20" viewBox="0 0 20 20" fill="none" xmlns="http://www.w3.org/2000/svg">
<g id="mdi:reload">
<path id="Vector" d="M2.08398 10C2.08398 11.8897 2.83465 13.7019 4.17085 15.0381C5.50705 16.3743 7.31932 17.125 9.20898 17.125C11.1011 17.125 12.914 16.3808 14.2757 15.0667L13.0882 13.8792C12.5896 14.4068 11.9881 14.8265 11.3209 15.1125C10.6537 15.3984 9.93489 15.5445 9.20898 15.5417C4.26898 15.5417 1.79898 9.5725 5.29023 6.08125C8.78148 2.59 14.7507 5.06792 14.7507 10H12.3757L15.5423 13.1667H15.6215L18.709 10H16.334C16.334 8.11033 15.5833 6.29806 14.2471 4.96186C12.9109 3.62567 11.0987 2.875 9.20898 2.875C7.31932 2.875 5.50705 3.62567 4.17085 4.96186C2.83465 6.29806 2.08398 8.11033 2.08398 10Z" fill="#D11243"/>
</g>
</svg>
