<svg width="15" height="15" viewBox="0 0 15 15" fill="none" xmlns="http://www.w3.org/2000/svg">
<path d="M1.66667 15C1.20833 15 0.816111 14.8369 0.49 14.5108C0.163889 14.1847 0.000555556 13.7922 0 13.3333V1.66667C0 1.20833 0.163333 0.816111 0.49 0.49C0.816667 0.163889 1.20889 0.000555556 1.66667 0H10.9792C11.2014 0 11.4133 0.0416667 11.615 0.125C11.8167 0.208333 11.9936 0.326389 12.1458 0.479167L14.5208 2.85417C14.6736 3.00694 14.7917 3.18417 14.875 3.38583C14.9583 3.5875 15 3.79917 15 4.02083V13.3333C15 13.7917 14.8369 14.1842 14.5108 14.5108C14.1847 14.8375 13.7922 15.0006 13.3333 15H1.66667ZM7.5 12.5C8.19444 12.5 8.78472 12.2569 9.27083 11.7708C9.75694 11.2847 10 10.6944 10 10C10 9.30556 9.75694 8.71528 9.27083 8.22917C8.78472 7.74306 8.19444 7.5 7.5 7.5C6.80556 7.5 6.21528 7.74306 5.72917 8.22917C5.24306 8.71528 5 9.30556 5 10C5 10.6944 5.24306 11.2847 5.72917 11.7708C6.21528 12.2569 6.80556 12.5 7.5 12.5ZM3.33333 5.83333H9.16667C9.40278 5.83333 9.60083 5.75333 9.76083 5.59333C9.92083 5.43333 10.0006 5.23556 10 5V3.33333C10 3.09722 9.92 2.89944 9.76 2.74C9.6 2.58056 9.40222 2.50056 9.16667 2.5H3.33333C3.09722 2.5 2.89944 2.58 2.74 2.74C2.58056 2.9 2.50056 3.09778 2.5 3.33333V5C2.5 5.23611 2.58 5.43417 2.74 5.59417C2.9 5.75417 3.09778 5.83389 3.33333 5.83333Z" fill="white"/>
</svg>
