<svg width="22" height="22" viewBox="0 0 22 22" fill="none" xmlns="http://www.w3.org/2000/svg">
<g id="Search">
<path id="Union" fill-rule="evenodd" clip-rule="evenodd" d="M4.39977 10.1852C4.39977 6.9901 6.98989 4.39998 10.185 4.39998C13.38 4.39998 15.9701 6.9901 15.9701 10.1852C15.9701 11.746 15.352 13.1624 14.3473 14.2031C14.3204 14.2234 14.2946 14.2458 14.2701 14.2703C14.2456 14.2948 14.2232 14.3206 14.2029 14.3475C13.1622 15.3523 11.7458 15.9704 10.185 15.9704C6.98989 15.9704 4.39977 13.3802 4.39977 10.1852ZM14.7681 15.8054C13.5189 16.8253 11.9234 17.437 10.185 17.437C6.17987 17.437 2.93311 14.1903 2.93311 10.1852C2.93311 6.18008 6.17987 2.93332 10.185 2.93332C14.19 2.93332 17.4368 6.18008 17.4368 10.1852C17.4368 11.9236 16.8251 13.5191 15.8052 14.7683L18.8516 17.8147C19.138 18.1011 19.138 18.5655 18.8516 18.8518C18.5652 19.1382 18.1009 19.1382 17.8145 18.8518L14.7681 15.8054Z" fill="#0D0D0E"/>
</g>
</svg>
