<svg width="376" height="291" viewBox="0 0 376 291" fill="none" xmlns="http://www.w3.org/2000/svg">
<path d="M272.119 39.7906C271.591 38.9492 272.187 37.8601 273.18 37.8601C274.02 37.8601 274.589 37.0706 274.405 36.3092H274.406L274.575 29.9576L272.434 30.4067L271.701 31.2065L268.296 24.8965C266.193 20.998 261.855 18.5769 256.976 18.5769C253.852 18.5769 250.967 19.4942 248.568 21.0835C248.171 21.3471 247.67 21.3631 247.254 21.1306C245.402 20.0959 243.26 19.5046 240.982 19.5046C238.748 19.5046 236.634 19.996 234.735 20.934C234.365 21.117 233.94 21.1146 233.571 20.9293C231.786 20.0303 229.746 19.5261 227.564 19.5261C224.392 19.5261 221.973 20.4754 220.187 21.6284C219.813 21.8697 219.344 21.8753 218.947 21.6756C216.171 20.2796 212.927 19.5062 209.373 19.5054C208.349 19.5054 207.335 19.5773 206.336 19.7139C205.675 19.805 205.07 19.3456 204.952 18.688C204.685 17.189 204.175 15.7363 203.416 14.3923C201.604 11.1866 198.538 8.88055 195.003 8.06553C194.055 7.8466 193.082 7.73633 192.11 7.73633C185.873 7.73633 180.505 12.1103 179.056 18.3731C179.039 18.4482 179.023 18.5225 179.007 18.5977C178.875 19.2209 178.311 19.662 177.679 19.5989C177.062 19.5373 176.432 19.5054 175.791 19.5054C174.755 19.5054 173.731 19.5861 172.721 19.7387C172.054 19.8394 171.439 19.3767 171.322 18.7119C171.056 17.2057 170.545 15.7459 169.782 14.3955C167.97 11.189 164.904 8.88295 161.369 8.06793C160.421 7.84899 159.447 7.73873 158.475 7.73873C154.206 7.73873 150.346 9.78906 147.87 13.0899C147.682 12.8318 147.488 12.5769 147.281 12.3324C144.773 9.37036 141.141 7.73952 137.055 7.73952C132.026 7.73952 127.515 10.1598 124.679 14.3795L123.944 15.4734V13.5765L120.885 13.1738L120.713 13.6596L121.254 19.781L121.267 19.7778C121.244 20.103 121.331 20.4331 121.557 20.6927L124.05 23.5629C124.256 23.8002 124.37 24.1094 124.364 24.4234C124.247 29.8713 122.631 34.5121 121.199 38.624C120.201 41.4925 119.318 44.0534 118.985 46.6655L118.259 43.7274L117.851 43.2736L118.952 50.5688C119.497 54.7094 121.955 58.1956 125.885 60.3003L130.318 62.6742C130.767 62.9147 131.316 62.8612 131.71 62.5384L133.975 60.6846C134.276 60.4377 134.677 60.3442 135.056 60.4321C135.195 60.4641 135.33 60.4953 135.457 60.5256C136.324 60.7278 137.327 60.9587 138.424 61.1632C138.439 61.2056 138.451 61.2479 138.467 61.2903C142.248 71.4133 154.697 82.309 173.094 82.309C182.016 82.309 190.646 79.9031 197.396 75.5332C203.245 71.7473 207.068 66.9603 208.32 62.015C208.447 61.5132 208.847 61.1369 209.357 61.0514C211.73 60.6543 214.01 59.8808 216.133 58.7557C216.552 58.5336 217.063 58.54 217.447 58.8197C219.646 60.4241 222.383 61.363 225.381 61.363C227.583 61.363 229.783 60.8996 231.917 60.0062C232.259 59.8632 232.641 59.8768 232.975 60.0398C234.711 60.8868 236.659 61.3622 238.716 61.3622C239.547 61.3622 240.378 61.3015 241.205 61.1824C241.689 61.1129 242.162 61.3167 242.447 61.7138C243.165 62.711 244.009 63.6339 244.97 64.4585C248.219 67.2487 252.461 68.7238 257.24 68.7238C267.126 68.7238 275.478 60.572 275.478 50.9236C275.478 46.3395 273.936 42.6895 272.116 39.7906H272.119Z" fill="#3B3B3B"/>
<g opacity="0.7">
<g opacity="0.7">
<path d="M269.404 269.709C272.181 271.861 275.582 273.018 278.869 274.314C282.154 275.61 285.441 277.206 287.685 279.914C289.398 281.973 290.3 284.888 289.768 287.434H374.251C372.216 285.768 369.392 284.773 366.754 284.356C362.242 283.639 357.405 283.824 353.472 281.51C349.283 279.057 346.946 274.198 342.758 271.699C333.595 266.192 321.214 274.475 311.334 270.449C303.791 267.371 300.412 258.231 293.285 254.251C288.68 251.66 282.872 251.613 277.943 253.487C272.992 255.361 268.849 258.994 265.725 263.275L265.447 261.956C265.077 264.988 266.997 267.857 269.404 269.708V269.709Z" fill="#999999"/>
</g>
</g>
<path d="M295.736 287.365C302.355 287.18 308.949 287.042 315.568 286.856L335.399 286.44C338.708 286.37 342.017 286.278 345.303 286.185C348.612 286.116 351.921 286.069 355.207 286.116L360.159 286.185C361.802 286.231 363.468 286.255 365.11 286.324C368.419 286.44 371.728 286.579 375.038 286.81V286.995C371.729 287.273 368.42 287.481 365.134 287.62C363.491 287.713 361.825 287.759 360.182 287.829L355.23 287.968C351.922 288.037 348.612 288.06 345.326 288.014C342.017 287.968 338.709 287.945 335.422 287.898L315.591 287.759C308.973 287.69 302.378 287.62 295.759 287.527L295.736 287.365Z" fill="#343434"/>
<g opacity="0.7">
<g opacity="0.7">
<path d="M159.959 286.96C158.987 286.15 158.131 285.225 157.252 284.322C153.225 280.157 148.621 276.339 143.114 274.488C133.094 271.11 121.871 274.743 111.643 272.081C107.247 270.924 103.221 268.656 99.379 266.203C94.4737 263.056 89.7761 259.586 85.3327 255.814C82.2548 253.199 79.224 250.375 75.5445 248.732C70.5465 246.488 64.8078 246.581 59.3927 247.39C52.127 248.478 44.5833 251.116 40.1175 256.947C36.4379 261.737 35.1195 268.285 30.4915 272.195C26.581 275.504 21.1427 276.199 16.4684 278.258C12.7888 279.877 9.24904 283.256 8.73926 286.958H159.959V286.96Z" fill="#999999"/>
</g>
</g>
<path d="M0.0380859 287.214L42.1298 286.844L84.2216 286.566L105.279 286.381L115.808 286.334H121.06L126.313 286.358L136.842 286.474C140.36 286.52 143.854 286.566 147.371 286.636C150.889 286.705 154.383 286.775 157.9 286.867L163.153 287.03L165.791 287.099L168.428 287.192V287.377L165.791 287.47L163.153 287.539L157.9 287.702C154.383 287.794 150.889 287.864 147.371 287.933C143.854 288.003 140.36 288.049 136.842 288.096L126.313 288.211L121.06 288.235H115.808L105.279 288.188L84.2216 288.003L42.1298 287.725L0.0380859 287.355V287.216V287.214Z" fill="#343434"/>
<path d="M299.276 288.862H87.6493L84.2334 139.948H305.293L299.276 288.862Z" fill="#F7F7F7"/>
<path d="M299.414 289.006C252.182 289.854 201.458 290.441 154.197 290.609C133.567 290.729 108.416 290.442 87.6489 290.183L86.3409 290.167L86.3281 288.891L85.9453 251.652C85.5131 214.572 84.4599 177.064 83.1895 139.971L83.1543 138.913L84.2338 138.902C139.496 138.199 194.762 137.912 250.028 137.816C269.151 137.771 288.277 137.886 307.4 137.945L307.299 140.027C305.066 187.545 302.181 241.496 299.414 289.004V289.006ZM299.138 288.718C299.953 245.752 301.965 182.265 303.285 139.868L305.292 141.957C268.448 142.153 231.605 142.104 194.762 141.892C157.918 141.778 121.075 141.454 84.233 140.994L85.2773 139.925C85.7352 188.761 87.0696 239.915 88.9697 288.832L87.6481 287.541C108.239 287.178 132.948 287.094 153.367 287.115C200.83 287.282 251.673 287.892 299.137 288.719L299.138 288.718Z" fill="#3B3B3B"/>
<path d="M115.066 174.319H90.4131V186.645H115.066V174.319Z" fill="#D3D3D3"/>
<path d="M256.134 163.02H231.481V175.346H256.134V163.02Z" fill="#E0E0E0"/>
<path d="M195.872 195.89H171.22V208.217H195.872V195.89Z" fill="#D3D3D3"/>
<path d="M300.14 236.293H275.992V223.967H300.645L300.14 236.293Z" fill="#D3D3D3"/>
<path d="M98.3046 210.27H86.4348L86.124 197.944H98.3046V210.27Z" fill="#E0E0E0"/>
<path d="M301.01 210.27H291.891V197.944H301.619L301.01 210.27Z" fill="#D3D3D3"/>
<path d="M169.051 248.276H157.182V260.602H169.051V248.276Z" fill="#E0E0E0"/>
<path d="M302.853 153.439L85.607 156.167L85.2402 139.948H303.391L302.853 153.439Z" fill="#E0E0E0"/>
<path d="M305.292 278.278H84.2324V289.532H305.292V278.278Z" fill="#F7F7F7"/>
<path d="M305.405 289.644C269.925 290.38 230.779 290.896 195.29 290.804C167.434 290.643 139.709 289.844 111.912 290.045C102.449 290.092 92.9831 290.113 83.5129 290.273L83.5033 289.532L83.3579 278.279L83.3467 277.418C102.063 277.115 120.781 276.896 139.498 276.792C189.409 276.366 241.539 276.618 291.475 277.536L305.292 277.836L305.743 277.846C305.671 281.836 305.514 285.817 305.405 289.645V289.644ZM305.18 289.418L304.85 278.278L305.292 278.721L291.476 279.022C222.758 280.293 152.917 280.212 84.2328 279.153L85.1078 278.278L84.9623 289.531L84.2328 288.801C102.606 289.033 121.013 289.131 139.387 288.952C194.099 287.866 250.435 288.233 305.18 289.418Z" fill="#3B3B3B"/>
<path d="M269.612 79.0317H119.919L73.1564 121.34C72.9918 121.489 73.0973 121.763 73.3194 121.763H316.842L269.612 79.0317Z" fill="#F7F7F7"/>
<path d="M81.0267 148.646H102.769C105.417 148.646 107.563 146.499 107.563 143.851V121.736H73.6244C73.1338 121.736 72.7591 122.175 72.835 122.66L76.2908 144.598C76.6584 146.929 78.6672 148.646 81.0267 148.646Z" fill="#BCBCB9"/>
<path d="M81.0269 148.526C87.4512 148.594 93.8754 147.869 100.297 147.647C100.782 147.62 102.225 147.597 102.706 147.584C104.949 147.596 106.703 145.638 106.591 143.415C106.914 136.365 107.385 128.774 107.139 121.736L107.564 122.16C96.8511 122.561 86.1344 123.028 75.4105 123.015C74.9934 123.026 74.0745 123.01 73.6518 123.019C73.615 123.023 73.7253 123.014 73.7581 123.001C73.9858 122.938 74.14 122.711 74.1024 122.475C74.0944 122.439 74.1104 122.536 74.1136 122.56L74.1496 122.809L74.2207 123.306C74.796 127.172 75.3809 131.401 75.7301 135.274L76.462 143.297C76.4332 146.052 78.0936 148.496 81.0269 148.526ZM81.0269 148.765C77.9682 148.786 76.0217 146.274 75.7285 143.412L73.9586 135.553C73.0869 131.769 72.3709 127.544 71.7157 123.7L71.631 123.205L71.5887 122.957C71.3553 121.92 72.0209 120.809 73.0493 120.535C73.504 120.391 73.9626 120.476 74.4053 120.455C85.4648 120.422 96.5171 120.894 107.564 121.311L107.998 121.32L107.988 121.735C107.889 126.017 107.911 130.299 108.11 134.581L108.435 141.004C108.459 141.723 108.528 143.102 108.552 143.815C108.575 145.265 108.084 146.753 107.068 147.826C105.793 149.285 103.795 149.869 101.903 149.691L100.297 149.644C93.8754 149.421 87.452 148.696 81.0277 148.765L81.0269 148.765Z" fill="#3B3B3B"/>
<path d="M308.522 148.646H286.781C284.133 148.646 281.986 146.499 281.986 143.851V121.736H315.925C316.415 121.736 316.79 122.175 316.714 122.66L313.258 144.598C312.891 146.929 310.882 148.646 308.522 148.646Z" fill="#BCBCB9"/>
<path d="M308.522 148.766C302.098 148.697 295.674 149.422 289.253 149.645L287.647 149.692C285.759 149.867 283.755 149.288 282.482 147.827C281.466 146.754 280.975 145.267 280.998 143.816C281.03 143.108 281.082 141.732 281.115 141.006L281.44 134.583C281.639 130.301 281.661 126.019 281.562 121.737L281.552 121.322L281.986 121.313C293.033 120.895 304.085 120.424 315.145 120.456C315.574 120.476 316.05 120.4 316.501 120.536C317.527 120.812 318.196 121.92 317.961 122.959C317.949 123.088 317.851 123.559 317.834 123.702C317.17 127.554 316.464 131.764 315.591 135.555L313.821 143.414C313.525 146.269 311.585 148.792 308.522 148.767V148.766ZM308.522 148.526C311.428 148.511 313.134 146.034 313.087 143.297L313.82 135.275C314.169 131.408 314.76 127.164 315.329 123.306L315.4 122.809L315.436 122.56C315.44 122.536 315.455 122.439 315.448 122.475C315.408 122.714 315.566 122.937 315.792 123.001C315.824 123.014 315.935 123.022 315.898 123.019H315.647C315.359 123.009 314.448 123.023 314.14 123.016C303.417 123.029 292.7 122.562 281.987 122.161L282.411 121.737C282.165 128.769 282.634 136.372 282.96 143.416C282.852 145.637 284.597 147.6 286.845 147.585C287.331 147.582 288.744 147.638 289.254 147.648C295.675 147.87 302.099 148.595 308.523 148.527L308.522 148.526Z" fill="#3B3B3B"/>
<path d="M112.903 148.646H137.042C139.69 148.646 141.836 146.499 141.836 143.851L142.39 121.736H107.562L108.167 144.598C108.534 146.928 110.543 148.646 112.902 148.646H112.903Z" fill="#F7F7F7"/>
<path d="M112.903 148.526C119.377 148.477 126.569 148.055 133.074 147.74C135.868 147.482 139.448 148.301 140.476 144.893C140.702 144.198 140.604 142.669 140.645 141.884C140.77 135.156 141.093 128.433 141.356 121.71L142.39 122.77L107.563 122.336L108.163 121.72C108.182 125.532 108.223 129.344 108.209 133.157L108.223 138.876C108.241 140.758 108.239 142.754 108.279 144.579C108.573 146.81 110.657 148.577 112.903 148.525L112.903 148.526ZM112.903 148.766C110.552 148.79 108.403 146.937 108.055 144.615C107.996 142.706 107.889 140.797 107.809 138.888C107.527 133.136 107.183 126.867 106.935 121.144L107.563 121.136L142.39 120.702L143.438 120.689L143.423 121.762C143.35 128.482 143.336 135.201 143.125 141.918C143.021 143.061 143.179 144.434 142.783 145.592C142.156 147.604 140.408 149.193 138.352 149.598C136.485 149.859 134.894 149.578 133.074 149.551C126.557 149.223 119.388 148.826 112.903 148.766Z" fill="#3B3B3B"/>
<path d="M147.73 148.646H171.869C174.517 148.646 176.664 146.499 176.664 143.851L177.217 121.736L142.402 122.205L142.994 144.598C143.362 146.928 145.371 148.646 147.73 148.646Z" fill="#BCBCB9"/>
<path d="M147.731 148.526C154.455 148.593 161.179 147.839 167.902 147.628C169.846 147.41 172.208 148.017 173.897 146.982C175.079 146.249 175.739 144.998 175.763 143.57L175.882 141.89C176.404 135.385 176.848 128.215 176.766 121.724L177.225 122.189C171.426 122.449 165.628 122.885 159.826 123.053C154.713 123.241 147.468 123.434 142.421 123.484L143.683 122.171C143.73 125.904 143.811 129.637 143.696 133.374C143.59 137.112 143.378 140.852 143.29 144.589C143.442 146.599 145.505 148.613 147.731 148.525L147.731 148.526ZM147.731 148.766C145.343 148.804 143.112 146.984 142.701 144.605C142.041 137.161 141.29 129.714 141.124 122.239L141.072 120.944C149.906 120.815 159.667 120.798 168.504 121.05C171.568 121.14 174.632 121.246 177.695 121.291L177.671 121.748C177.23 128.802 177.379 136.507 177.58 143.593C177.822 146.265 175.863 149.028 173.174 149.567C171.321 149.895 169.718 149.649 167.903 149.664C161.18 149.453 154.456 148.699 147.732 148.766L147.731 148.766Z" fill="#3B3B3B"/>
<path d="M182.248 148.646H206.387C209.035 148.646 211.181 146.499 211.181 143.851L211.735 121.736H176.907L177.511 144.598C177.879 146.928 179.888 148.646 182.247 148.646H182.248Z" fill="#F7F7F7"/>
<path d="M182.248 148.526C188.722 148.477 195.913 148.055 202.419 147.74C205.212 147.482 208.793 148.301 209.821 144.893C210.047 144.198 209.948 142.669 209.99 141.884C210.115 135.156 210.438 128.433 210.701 121.71L211.734 122.77L176.907 122.336L177.507 121.72C177.527 125.532 177.567 129.344 177.554 133.157L177.568 138.876C177.586 140.758 177.584 142.754 177.624 144.579C177.917 146.81 180.002 148.577 182.247 148.525L182.248 148.526ZM182.248 148.766C179.897 148.79 177.748 146.937 177.4 144.615C177.341 142.706 177.234 140.797 177.153 138.888C176.872 133.136 176.528 126.867 176.279 121.144L176.909 121.136L211.736 120.702L212.783 120.689L212.769 121.762C212.695 128.482 212.682 135.201 212.47 141.918C212.366 143.061 212.524 144.434 212.129 145.592C211.502 147.604 209.753 149.193 207.697 149.598C205.831 149.859 204.239 149.578 202.42 149.551C195.903 149.223 188.732 148.826 182.248 148.766Z" fill="#3B3B3B"/>
<path d="M217.163 148.646H241.692C244.383 148.646 246.564 146.499 246.564 143.851L247.127 121.736H211.736L212.35 144.598C212.723 146.928 214.765 148.646 217.163 148.646Z" fill="#BCBCB9"/>
<path d="M217.162 148.526C225.571 148.537 233.981 147.572 242.391 147.509C244.196 147.197 245.607 145.612 245.658 143.753L245.777 142.059C246.303 135.5 246.751 128.269 246.676 121.725L247.127 122.188C244.178 122.276 241.229 122.415 238.279 122.541C229.779 122.893 220.242 123.02 211.736 123.013L213.012 121.702C213.065 125.513 213.147 129.324 213.034 133.14C212.931 136.956 212.727 140.774 212.644 144.59C212.805 146.622 214.923 148.614 217.162 148.526ZM217.162 148.765C214.761 148.803 212.478 147.011 212.056 144.605C211.396 137.004 210.631 129.401 210.46 121.77L210.407 120.461C219.384 120.439 229.304 120.561 238.279 120.931C241.387 121.064 244.494 121.211 247.602 121.298L247.578 121.747C247.134 128.86 247.279 136.63 247.474 143.776C247.646 146.53 245.511 149.171 242.774 149.615C241.038 149.848 239.249 149.666 237.502 149.662C230.723 149.451 223.942 148.697 217.161 148.765L217.162 148.765Z" fill="#3B3B3B"/>
<path d="M252.467 148.646H276.606C279.254 148.646 281.4 146.499 281.4 143.851L281.954 121.736H247.126L247.73 144.598C248.098 146.928 250.107 148.646 252.467 148.646Z" fill="#F7F7F7"/>
<path d="M252.467 148.526C258.941 148.477 266.132 148.055 272.638 147.74C275.431 147.482 279.012 148.301 280.039 144.893C280.265 144.198 280.167 142.669 280.209 141.884C280.333 135.156 280.657 128.433 280.92 121.71L281.953 122.77L247.126 122.336L247.726 121.72C247.745 125.532 247.786 129.344 247.772 133.157L247.787 138.876C247.804 140.758 247.803 142.754 247.843 144.579C248.136 146.81 250.221 148.577 252.466 148.525L252.467 148.526ZM252.467 148.766C250.115 148.79 247.967 146.937 247.618 144.615C247.56 142.706 247.453 140.797 247.372 138.888C247.091 133.136 246.747 126.867 246.498 121.144L247.127 121.136L281.954 120.702L283.001 120.689L282.987 121.762C282.913 128.482 282.9 135.201 282.688 141.918C282.584 143.061 282.742 144.434 282.347 145.592C281.72 147.604 279.971 149.193 277.915 149.598C276.049 149.859 274.457 149.578 272.638 149.551C266.121 149.223 258.951 148.826 252.467 148.766Z" fill="#3B3B3B"/>
<path d="M269.612 79.0317H267.586C262.427 79.1005 248.949 79.2571 248.193 79.0317H248.184L281.954 121.675H316.745L269.612 79.0317Z" fill="#8E8C86"/>
<path d="M205.418 79.0039L212.172 121.675H247.127L226.829 79.0039H205.418Z" fill="#8E8C86"/>
<path d="M142.391 121.675H177.345L184.085 79.0039H162.674L142.391 121.675Z" fill="#8E8C86"/>
<path d="M72.6084 121.675H107.563L141.342 79.0039H119.931L72.6084 121.675Z" fill="#8E8C86"/>
<path d="M106.164 289.649H163.687V173.595C163.687 170.78 161.419 168.498 158.623 168.498H111.228C108.432 168.498 106.164 170.78 106.164 173.595V289.649Z" fill="white"/>
<path d="M106.22 289.592C122.493 289.214 147.603 289.112 163.686 288.982L163.019 289.649C162.876 268.709 163.132 246.022 163.366 225.017C163.445 209.961 163.471 193.873 163.317 178.852L163.278 174.235C163.284 173.47 163.261 172.794 163.009 172.093C162.293 169.983 160.187 168.785 158.007 168.99C146.648 169.096 127.849 169.225 116.458 169.26C115.818 169.307 111.367 169.228 110.771 169.307C108.305 169.599 106.749 171.806 106.976 174.231C107.075 211.754 106.712 251.983 106.219 289.591L106.22 289.592ZM106.107 289.706C105.58 252.924 105.281 211.456 105.349 174.238C105.148 171.566 106.713 168.894 109.306 168.04C110.085 167.737 111.014 167.705 111.842 167.718C114.712 167.749 131.657 167.789 134.924 167.821L153.39 167.96C153.687 167.963 158.389 168.009 158.584 168.011C160.915 168.003 163.118 169.594 163.817 171.821C164.088 172.579 164.116 173.464 164.092 174.236L164.053 178.853C163.909 193.864 163.915 209.973 164.005 225.018C164.229 246.27 164.513 269.123 164.348 290.319C147.939 290.403 122.69 289.869 106.106 289.706H106.107Z" fill="#3B3B3B"/>
<path d="M156.162 173.292H113.687C112.363 173.292 111.29 174.365 111.29 175.689V226.078C111.29 227.401 112.363 228.475 113.687 228.475H156.162C157.486 228.475 158.559 227.401 158.559 226.078V175.689C158.559 174.365 157.486 173.292 156.162 173.292Z" fill="white"/>
<path d="M113.687 228.396C127.277 228.434 140.879 227.742 154.472 227.76L156.04 227.768C157.054 227.837 157.881 227.028 157.874 226.042C157.896 225.638 157.88 222.615 157.897 222.12C158.148 207.832 158.474 192.429 158.215 178.198C158.191 177.805 158.199 176.258 158.179 175.845C158.253 174.703 157.281 173.689 156.161 173.729C147.795 173.882 139.429 173.996 131.063 174.043L118.514 174.124L115.377 174.139L113.809 174.135C113.042 174.093 112.444 174.532 112.202 175.208C112.102 175.473 112.121 176.206 112.122 176.508C112.117 185.913 112.073 195.343 111.816 204.744C111.807 209.103 111.372 219.335 111.409 223.568C111.455 224.403 111.286 225.867 111.467 226.673C111.703 227.66 112.668 228.403 113.687 228.396H113.687ZM113.687 228.555C112.598 228.575 111.549 227.79 111.281 226.723C111.099 225.832 111.217 224.489 111.172 223.569C110.896 207.885 110.351 191.382 110.457 175.725C110.38 173.948 112.061 172.33 113.809 172.449L115.377 172.445L118.514 172.459C130.69 172.551 144.058 172.597 156.161 172.854C157.738 172.841 159.07 174.303 158.937 175.846C158.948 176.294 158.896 177.721 158.902 178.199C158.755 188.488 158.784 199.261 159.002 209.572L159.22 222.121L159.237 225.258C159.221 225.753 159.293 226.528 159.097 227.026C158.721 228.316 157.346 229.255 156.04 229.182L154.471 229.191C140.879 229.208 127.277 228.517 113.687 228.555L113.687 228.555Z" fill="#3B3B3B"/>
<path d="M113.688 286.097H156.163C157.487 286.097 158.56 285.063 158.56 283.787V235.235C158.56 233.96 157.487 232.925 156.163 232.925H113.688C112.364 232.925 111.291 233.959 111.291 235.235V283.787C111.291 285.063 112.364 286.097 113.688 286.097Z" fill="white"/>
<path d="M113.688 286.018C127.522 286.054 141.37 285.33 155.208 285.395C155.346 285.388 156.169 285.406 156.306 285.389C157.134 285.342 157.867 284.626 157.875 283.812L157.907 280.748C158.182 265.884 158.492 251.018 158.199 236.152L158.188 235.383C158.257 234.257 157.263 233.316 156.163 233.354C147.962 233.505 139.76 233.617 131.558 233.663C127.649 233.688 117.461 233.763 113.684 233.761C112.882 233.747 112.118 234.428 112.132 235.212L112.128 238.274C112.126 250.12 111.83 263.27 111.51 275.181C111.443 277.727 111.423 280.32 111.395 282.87C111.414 283.381 111.331 283.906 111.47 284.374C111.722 285.337 112.693 286.026 113.689 286.019L113.688 286.018ZM113.688 286.176C112.628 286.195 111.574 285.472 111.287 284.426C111.097 283.554 111.222 282.235 111.175 281.333C111.149 277.252 110.871 267.11 110.775 262.879C110.512 253.659 110.464 244.408 110.454 235.185C110.46 233.767 111.546 232.483 112.915 232.182C113.411 232.055 114.126 232.093 114.642 232.09C117.733 232.093 128.287 232.166 131.558 232.188C139.759 232.233 147.96 232.345 156.162 232.496C157.68 232.474 159.063 233.854 158.931 235.384L158.92 236.153C158.627 251.019 158.937 265.885 159.212 280.748L159.24 283.835C159.261 285.539 157.636 286.916 155.977 286.797L155.208 286.799C141.37 286.863 127.522 286.14 113.688 286.176Z" fill="#3B3B3B"/>
<path d="M154.655 235.18H146.866C146.086 235.18 145.453 235.812 145.453 236.592C145.453 237.372 146.086 238.005 146.866 238.005H154.655C155.435 238.005 156.068 237.372 156.068 236.592C156.068 235.812 155.435 235.18 154.655 235.18Z" fill="#505050"/>
<path d="M120.022 197.915L119.524 197.289L134.65 185.25L151.628 196.844L151.178 197.504L134.686 186.242L120.022 197.915Z" fill="#3B3B3B"/>
<path d="M138.006 186.26C138.006 188.009 136.587 189.427 134.838 189.427C133.089 189.427 131.671 188.009 131.671 186.26C131.671 184.511 133.089 183.093 134.838 183.093C136.587 183.093 138.006 184.511 138.006 186.26Z" fill="#3B3B3B"/>
<path d="M151.264 196.232H119.782C118.879 196.232 118.146 196.964 118.146 197.868V215.482C118.146 216.386 118.879 217.118 119.782 217.118H151.264C152.168 217.118 152.9 216.386 152.9 215.482V197.868C152.9 196.964 152.168 196.232 151.264 196.232Z" fill="#5B5B5B"/>
<path d="M151.264 217.199C141.11 217.254 130.92 218.222 120.758 217.677L119.91 217.649C118.843 217.708 117.739 216.78 117.712 215.678C117.86 211.178 117.959 206.563 117.876 202.078C117.862 200.949 117.839 199.819 117.803 198.689L117.781 197.836C117.757 196.756 118.69 195.801 119.782 195.795C124.302 195.641 128.821 195.527 133.341 195.481C138.949 195.407 144.674 195.332 150.29 195.414L151.136 195.422C152.373 195.342 153.601 196.381 153.658 197.642C153.672 198.202 153.639 198.862 153.633 199.408C153.602 200.472 153.476 203.389 153.426 204.492L153.122 211.271C153.064 212.401 153.053 213.531 153.018 214.661L153.004 215.51C152.999 216.428 152.178 217.224 151.264 217.198V217.199ZM151.264 217.039C151.803 217.034 152.326 216.733 152.588 216.266C152.879 215.808 152.779 215.23 152.782 214.663C152.747 213.533 152.736 212.403 152.678 211.273L152.374 204.494C152.283 202.825 152.173 199.456 152.126 197.787C152.077 197.416 151.776 197.112 151.415 197.055C151.324 197.035 150.428 197.052 150.29 197.053C144.671 197.136 138.951 197.057 133.341 196.985C128.822 196.939 124.302 196.825 119.782 196.671C119.141 196.635 118.531 197.191 118.515 197.849L118.49 198.691C118.33 204.293 118.352 210.02 118.597 215.597C118.654 216.005 118.934 216.364 119.3 216.508C119.595 216.659 120.405 216.558 120.757 216.561L124.147 216.455C133.189 216.147 142.226 217.036 151.264 217.04L151.264 217.039Z" fill="#3B3B3B"/>
<path d="M125.694 206.422C125.599 206.422 125.523 206.407 125.469 206.378C125.414 206.349 125.357 206.279 125.298 206.169C125.1 205.795 124.898 205.52 124.694 205.344C124.487 205.168 124.257 205.08 124.001 205.08C123.883 205.08 123.781 205.096 123.692 205.124C123.604 205.154 123.514 205.202 123.423 205.267C123.331 205.334 123.249 205.427 123.175 205.549C123.102 205.67 123.041 205.822 122.993 206.004C122.945 206.187 122.922 206.408 122.922 206.664C122.922 207.273 123.059 207.742 123.334 208.072C123.61 208.401 124.033 208.567 124.605 208.567C124.854 208.567 125.098 208.536 125.336 208.473C125.574 208.411 125.788 208.325 125.979 208.215C126.096 208.149 126.199 208.116 126.288 208.116C126.324 208.116 126.367 208.124 126.414 208.138C126.462 208.153 126.505 208.178 126.546 208.215C126.586 208.252 126.619 208.306 126.645 208.38C126.67 208.453 126.683 208.545 126.683 208.655C126.683 208.846 126.641 209.031 126.557 209.21C126.473 209.389 126.357 209.545 126.21 209.677C126.005 209.868 125.731 210.031 125.391 210.166C125.051 210.302 124.616 210.37 124.089 210.37C123.612 210.37 123.172 210.304 122.769 210.172C122.366 210.04 122.02 209.835 121.73 209.556C121.44 209.277 121.214 208.928 121.048 208.506C120.883 208.085 120.8 207.581 120.8 206.994C120.8 206.474 120.881 206.003 121.042 205.581C121.203 205.159 121.43 204.799 121.724 204.503C122.017 204.206 122.372 203.977 122.785 203.816C123.199 203.655 123.656 203.573 124.154 203.573C124.528 203.573 124.869 203.612 125.177 203.689C125.485 203.767 125.747 203.874 125.962 204.014C126.179 204.153 126.345 204.321 126.463 204.52C126.58 204.718 126.639 204.937 126.639 205.18C126.639 205.385 126.61 205.564 126.551 205.718C126.493 205.872 126.418 206.002 126.326 206.108C126.235 206.215 126.132 206.293 126.018 206.345C125.904 206.396 125.796 206.422 125.694 206.422Z" fill="white"/>
<path d="M127.519 205.554V204.729C127.519 204.48 127.515 204.234 127.508 203.992C127.508 203.911 127.529 203.843 127.573 203.788C127.618 203.734 127.688 203.703 127.783 203.695C127.899 203.688 128.019 203.682 128.14 203.678C128.261 203.674 128.388 203.673 128.519 203.673H128.888C128.98 203.673 129.059 203.677 129.124 203.684C129.307 203.699 129.437 203.746 129.509 203.827C129.582 203.908 129.62 204.055 129.62 204.267V208.214C129.62 208.295 129.617 208.379 129.613 208.467C129.61 208.555 129.604 208.639 129.596 208.719H131.676C131.799 208.719 131.888 208.743 131.939 208.791C131.99 208.839 132.017 208.925 132.017 209.049C132.017 209.306 132.005 209.522 131.983 209.698C131.962 209.911 131.907 210.059 131.819 210.144C131.731 210.229 131.588 210.27 131.39 210.27H128.245C127.966 210.27 127.775 210.21 127.672 210.088C127.57 209.967 127.519 209.79 127.519 209.555V205.553V205.554Z" fill="white"/>
<path d="M135.469 210.369C135.021 210.369 134.606 210.299 134.221 210.16C133.835 210.021 133.502 209.805 133.22 209.511C132.937 209.218 132.716 208.848 132.555 208.4C132.393 207.953 132.312 207.425 132.312 206.817C132.312 206.304 132.39 205.848 132.543 205.448C132.697 205.049 132.912 204.709 133.187 204.431C133.462 204.152 133.794 203.94 134.182 203.793C134.571 203.646 135.003 203.573 135.48 203.573C135.957 203.573 136.387 203.651 136.771 203.804C137.155 203.958 137.482 204.184 137.75 204.481C138.018 204.778 138.225 205.143 138.372 205.575C138.518 206.007 138.591 206.502 138.591 207.059C138.591 207.587 138.517 208.056 138.372 208.467C138.225 208.878 138.016 209.223 137.744 209.506C137.473 209.788 137.145 210.003 136.761 210.15C136.376 210.297 135.945 210.369 135.469 210.369ZM135.613 208.819C135.671 208.819 135.736 208.812 135.81 208.798C136.008 208.761 136.165 208.647 136.283 208.456C136.4 208.265 136.46 207.962 136.46 207.543C136.46 207.441 136.456 207.326 136.448 207.196C136.44 207.068 136.426 206.909 136.404 206.718C136.345 206.146 136.221 205.737 136.03 205.492C135.839 205.247 135.609 205.124 135.337 205.124C135.183 205.124 135.052 205.159 134.941 205.228C134.831 205.298 134.738 205.39 134.661 205.503C134.583 205.617 134.527 205.751 134.49 205.905C134.453 206.059 134.436 206.223 134.436 206.4C134.436 206.502 134.439 206.617 134.447 206.746C134.454 206.874 134.468 207.033 134.491 207.225C134.549 207.768 134.683 208.169 134.893 208.429C135.101 208.689 135.342 208.819 135.613 208.819Z" fill="white"/>
<path d="M140.131 207.951C140.401 208.28 140.682 208.522 140.972 208.676C141.261 208.83 141.53 208.907 141.78 208.907C142.036 208.907 142.222 208.856 142.335 208.753C142.449 208.651 142.506 208.526 142.506 208.379C142.506 208.277 142.469 208.19 142.396 208.121C142.322 208.051 142.223 207.991 142.099 207.939C141.974 207.888 141.833 207.84 141.676 207.796C141.518 207.752 141.351 207.701 141.175 207.642C140.941 207.569 140.714 207.482 140.493 207.379C140.273 207.275 140.079 207.149 139.911 206.999C139.742 206.849 139.606 206.663 139.503 206.444C139.401 206.224 139.35 205.953 139.35 205.629C139.35 205.359 139.405 205.098 139.515 204.849C139.626 204.599 139.792 204.38 140.015 204.189C140.238 203.999 140.525 203.848 140.873 203.739C141.221 203.629 141.633 203.573 142.11 203.573C142.821 203.573 143.375 203.693 143.77 203.931C144.166 204.17 144.364 204.497 144.364 204.914C144.364 205.061 144.327 205.216 144.254 205.376C144.18 205.538 144.071 205.673 143.924 205.784C143.887 205.812 143.841 205.84 143.786 205.866C143.732 205.891 143.674 205.905 143.616 205.905C143.513 205.905 143.425 205.864 143.352 205.784C143.11 205.528 142.886 205.34 142.681 205.224C142.476 205.107 142.282 205.047 142.099 205.047C141.916 205.047 141.767 205.092 141.653 205.18C141.539 205.267 141.483 205.385 141.483 205.53C141.483 205.641 141.521 205.731 141.598 205.8C141.676 205.87 141.777 205.932 141.9 205.987C142.025 206.042 142.166 206.09 142.324 206.13C142.481 206.17 142.644 206.216 142.813 206.268C143.025 206.326 143.24 206.398 143.456 206.482C143.673 206.567 143.867 206.676 144.039 206.812C144.21 206.948 144.353 207.119 144.462 207.323C144.572 207.53 144.627 207.785 144.627 208.094C144.627 208.445 144.561 208.761 144.429 209.04C144.297 209.319 144.108 209.556 143.863 209.755C143.617 209.952 143.318 210.105 142.966 210.21C142.615 210.317 142.218 210.37 141.779 210.37C141.405 210.37 141.057 210.339 140.735 210.277C140.412 210.214 140.135 210.123 139.904 210.002C139.673 209.88 139.491 209.726 139.359 209.54C139.228 209.353 139.162 209.139 139.162 208.897C139.162 208.706 139.193 208.53 139.255 208.369C139.317 208.208 139.429 208.057 139.59 207.918C139.642 207.881 139.695 207.856 139.75 207.841C139.805 207.826 139.851 207.82 139.888 207.82C139.968 207.82 140.048 207.864 140.13 207.951L140.131 207.951Z" fill="white"/>
<path d="M149.401 205.202C149.122 205.209 148.804 205.213 148.445 205.213H147.444C147.459 205.318 147.466 205.43 147.466 205.55V206.324L149.291 206.313C149.401 206.313 149.474 206.334 149.511 206.378C149.547 206.422 149.565 206.505 149.565 206.629C149.565 206.752 149.564 206.874 149.56 206.994C149.556 207.114 149.546 207.211 149.532 207.283C149.511 207.451 149.46 207.563 149.384 207.622C149.306 207.679 149.202 207.709 149.07 207.709L147.464 207.686V208.214C147.464 208.295 147.462 208.379 147.458 208.467C147.455 208.555 147.449 208.64 147.441 208.719H149.674C149.798 208.719 149.886 208.743 149.937 208.791C149.989 208.839 150.015 208.925 150.015 209.049C150.015 209.306 150.004 209.522 149.982 209.698C149.96 209.912 149.905 210.059 149.817 210.144C149.729 210.229 149.586 210.27 149.389 210.27H146.089C145.81 210.27 145.62 210.21 145.517 210.088C145.415 209.967 145.364 209.79 145.364 209.555V205.234C145.364 205.007 145.362 204.794 145.358 204.596C145.354 204.398 145.349 204.208 145.341 204.024C145.333 203.885 145.357 203.793 145.407 203.749C145.458 203.705 145.551 203.683 145.683 203.683C146.034 203.683 146.398 203.681 146.771 203.677C147.144 203.673 147.508 203.672 147.859 203.672H149.651C149.775 203.672 149.864 203.695 149.915 203.743C149.966 203.791 149.993 203.876 149.993 203.999C149.993 204.232 149.981 204.437 149.959 204.611C149.937 204.823 149.882 204.971 149.794 205.059C149.707 205.147 149.575 205.193 149.399 205.201L149.401 205.202Z" fill="white"/>
<path d="M290.477 260.288H188.133V264.456H290.477V260.288Z" fill="#E6E6E6"/>
<path d="M287.633 168.498H189.024C186.376 168.498 184.229 170.644 184.229 173.292V255.466C184.229 258.114 186.376 260.26 189.024 260.26H287.633C290.281 260.26 292.427 258.114 292.427 255.466V173.292C292.427 170.644 290.281 168.498 287.633 168.498Z" fill="white"/>
<path d="M189.024 260.181C221.159 260.125 254.837 259.338 286.944 259.599C290.047 259.847 292.123 257.624 291.84 254.504C291.928 246.984 292.013 234.507 292.099 226.964C292.198 210.023 292.2 191.879 292.06 174.944L292.048 173.414C292.132 171.013 290.022 168.864 287.632 168.936C254.741 169.188 221.851 169.397 188.96 169.325C187.028 169.323 185.269 170.894 185.074 172.822C184.971 173.574 185.079 176.452 185.037 177.315C185.033 200.833 184.492 227.169 184.368 250.755L184.353 253.815C184.376 254.836 184.246 255.868 184.54 256.824C185.088 258.757 186.998 260.198 189.024 260.181ZM189.024 260.34C186.931 260.38 184.925 258.906 184.331 256.887C184.013 255.871 184.139 254.824 184.106 253.815L184.091 250.755C184.033 231.668 183.541 208.583 183.469 189.555C183.426 185.475 183.425 181.395 183.421 177.315C183.464 176.344 183.351 173.668 183.457 172.631C183.653 170.842 184.777 169.207 186.357 168.352C187.365 167.78 188.571 167.636 189.712 167.675C222.352 167.595 254.992 167.816 287.633 168.062C290.479 168.027 292.945 170.59 292.806 173.415L292.794 174.945C292.656 191.881 292.652 210.024 292.755 226.965C292.752 235.231 293.059 247.865 292.987 256.103C292.699 259.076 289.878 261.206 286.943 260.923C254.845 261.191 221.151 260.388 189.023 260.341L189.024 260.34Z" fill="#3B3B3B"/>
<path d="M284.78 172.95H191.877C190.553 172.95 189.479 174.023 189.479 175.347V253.41C189.479 254.734 190.553 255.807 191.877 255.807H284.78C286.104 255.807 287.177 254.734 287.177 253.41V175.347C287.177 174.023 286.104 172.95 284.78 172.95Z" fill="white"/>
<path d="M191.877 255.728C222.126 255.664 253.691 254.852 283.913 255.165L284.611 255.172C284.871 255.179 284.979 255.167 285.167 255.135C285.845 254.999 286.414 254.429 286.544 253.745C286.739 246.364 286.72 234.79 286.849 227.363C286.957 210.974 286.945 193.545 286.787 177.161C286.727 176.602 286.898 175.076 286.601 174.563C286.294 173.852 285.545 173.371 284.78 173.388C255.032 173.684 225.282 173.828 195.532 173.775L192.744 173.771C192.649 173.777 191.691 173.747 191.532 173.808C190.346 174.125 190.217 175.122 190.292 176.295C190.271 194.71 189.976 216.303 189.702 234.864C189.597 240.251 189.647 246.184 189.589 251.598C189.652 252.253 189.43 253.688 189.763 254.323C190.105 255.154 190.971 255.733 191.877 255.728ZM191.877 255.888C190.363 255.929 189.184 254.457 189.378 252.992L189.371 251.597L189.341 246.019C189.346 238.588 189.051 220.248 188.954 212.551C188.794 201.396 188.687 190.24 188.671 179.084L188.667 176.295C188.684 175.808 188.621 175.439 188.722 174.753C188.944 173.515 189.943 172.476 191.175 172.212C207.485 171.936 223.836 172.202 240.156 172.2C255.031 172.247 269.905 172.361 284.78 172.514C286.473 172.47 287.816 174.173 287.579 175.768L287.567 177.162C287.411 193.546 287.393 210.975 287.505 227.364C287.531 234.919 287.803 246.443 287.725 253.968C287.496 255.42 286.058 256.533 284.61 256.445L283.912 256.452C253.698 256.773 222.117 255.946 191.876 255.889L191.877 255.888Z" fill="#3B3B3B"/>
<g opacity="0.16">
<path d="M287.177 230.484C259.351 230.223 224.902 233.857 189.479 247.332V255.808H287.177V230.484Z" fill="#B4B4B4"/>
</g>
<path d="M147.112 46.146H142.318V79.7024H147.112V46.146Z" fill="#3B3B3B"/>
<path d="M197.159 46.146H192.365V79.7024H197.159V46.146Z" fill="#3B3B3B"/>
<path d="M247.206 46.146H242.412V79.7024H247.206V46.146Z" fill="#3B3B3B"/>
<path d="M310.937 179.378L311.086 175.12L304.461 174.889L304.718 167.494L302.944 167.433L301.001 223.154L302.776 223.216L303.056 215.171L309.681 215.402L309.83 211.143L303.205 210.913L304.312 179.148L310.937 179.378Z" fill="#3B3B3B"/>
<path d="M309.33 171.78L307.68 219.101C307.594 221.584 309.536 223.667 312.019 223.753L326.452 224.256C328.935 224.343 331.018 222.4 331.104 219.917L332.754 172.597C332.841 170.114 330.898 168.031 328.415 167.944L313.983 167.441C311.5 167.354 309.417 169.297 309.33 171.78Z" fill="#5B5B5B"/>
<path d="M326.449 224.378C323.287 224.279 320.124 224.21 316.958 224.235C314.517 224.061 311.947 224.797 309.639 223.726C307.993 222.888 306.866 221.123 306.818 219.255C306.597 207.6 307.901 195.307 308.527 183.676C308.672 180.516 308.781 177.354 308.84 174.192L308.883 171.82C308.838 169.098 311.244 166.717 314.006 166.787C317.171 166.801 320.338 166.766 323.5 166.823C323.925 166.818 328.645 166.877 328.929 166.916C331.679 167.165 333.941 169.684 333.91 172.447C333.812 177.869 333.673 183.685 333.459 189.088C333.149 198.575 332.316 208.046 331.515 217.507C331.337 219.091 331.539 220.833 330.592 222.208C329.717 223.61 328.076 224.459 326.448 224.379L326.449 224.378ZM326.458 224.138C327.998 224.177 329.532 223.353 330.29 222.021C331.114 220.646 330.823 219.006 330.863 217.483C330.854 214.317 330.773 211.149 330.732 207.982C330.587 201.647 330.737 195.322 330.905 188.996C331.066 183.622 331.342 177.827 331.596 172.442C331.652 170.572 330.067 169 328.174 168.994L323.436 168.722C320.276 168.559 317.12 168.304 313.961 168.097C311.861 167.91 309.844 169.697 309.777 171.849L309.655 174.219C309.325 180.54 309.2 186.866 309.253 193.197C309.299 200.662 309.255 209.531 308.711 216.917L308.549 219.256C308.408 221.318 310.1 223.157 312.246 223.237C316.975 223.659 321.715 223.97 326.458 224.137L326.458 224.138Z" fill="#3B3B3B"/>
<path d="M322.82 178.455C322.859 178.457 322.896 178.466 322.934 178.481C322.972 178.497 323.009 178.523 323.042 178.559L323.663 179.259C323.367 179.617 323.005 179.883 322.575 180.055C322.144 180.228 321.639 180.304 321.06 180.284C320.529 180.265 320.056 180.158 319.642 179.962C319.227 179.767 318.879 179.505 318.597 179.176C318.315 178.848 318.104 178.462 317.961 178.02C317.82 177.578 317.759 177.101 317.778 176.589C317.795 176.067 317.901 175.591 318.095 175.16C318.29 174.73 318.553 174.361 318.887 174.056C319.218 173.75 319.612 173.517 320.067 173.357C320.521 173.196 321.018 173.126 321.559 173.144C321.822 173.154 322.068 173.185 322.299 173.239C322.529 173.294 322.744 173.365 322.943 173.454C323.141 173.543 323.324 173.647 323.49 173.767C323.655 173.887 323.802 174.017 323.928 174.159L323.355 174.875C323.317 174.918 323.274 174.958 323.226 174.992C323.177 175.028 323.109 175.043 323.022 175.04C322.965 175.039 322.911 175.024 322.861 174.996C322.811 174.969 322.756 174.936 322.7 174.897C322.645 174.858 322.583 174.816 322.515 174.77C322.448 174.725 322.367 174.682 322.275 174.642C322.181 174.602 322.072 174.567 321.947 174.537C321.821 174.507 321.675 174.489 321.504 174.483C321.21 174.473 320.939 174.516 320.692 174.611C320.445 174.706 320.231 174.849 320.05 175.036C319.868 175.223 319.724 175.453 319.616 175.724C319.509 175.996 319.45 176.304 319.438 176.646C319.425 177.004 319.463 177.325 319.551 177.606C319.639 177.888 319.764 178.126 319.925 178.323C320.087 178.519 320.278 178.671 320.498 178.777C320.719 178.885 320.957 178.942 321.213 178.952C321.361 178.956 321.496 178.954 321.617 178.944C321.738 178.933 321.852 178.912 321.958 178.881C322.064 178.85 322.164 178.808 322.261 178.755C322.358 178.702 322.455 178.636 322.553 178.556C322.593 178.526 322.636 178.501 322.681 178.481C322.727 178.462 322.773 178.453 322.821 178.455L322.82 178.455Z" fill="white" stroke="white" stroke-width="0.859" stroke-miterlimit="10"/>
<path d="M320.052 188.486L322.644 188.577L322.599 189.873L318.385 189.726L318.629 182.731L320.251 182.788L320.052 188.486Z" fill="white" stroke="white" stroke-width="0.859" stroke-miterlimit="10"/>
<path d="M323.727 196.021C323.709 196.527 323.605 196.995 323.416 197.423C323.226 197.853 322.967 198.223 322.639 198.534C322.311 198.844 321.921 199.083 321.467 199.25C321.015 199.417 320.517 199.491 319.972 199.472C319.428 199.453 318.935 199.344 318.493 199.146C318.051 198.948 317.677 198.683 317.369 198.35C317.062 198.017 316.829 197.631 316.67 197.189C316.511 196.748 316.44 196.274 316.458 195.769C316.474 195.263 316.578 194.796 316.769 194.366C316.958 193.938 317.218 193.568 317.547 193.259C317.878 192.95 318.269 192.712 318.724 192.545C319.178 192.378 319.677 192.304 320.221 192.324C320.766 192.343 321.258 192.452 321.698 192.651C322.139 192.851 322.511 193.116 322.816 193.448C323.122 193.779 323.355 194.165 323.514 194.606C323.672 195.047 323.743 195.52 323.727 196.021ZM322.066 195.963C322.078 195.617 322.045 195.305 321.964 195.025C321.884 194.745 321.763 194.506 321.602 194.308C321.44 194.111 321.24 193.956 321.001 193.846C320.761 193.735 320.485 193.674 320.175 193.663C319.861 193.652 319.581 193.693 319.333 193.787C319.083 193.88 318.872 194.021 318.697 194.206C318.522 194.392 318.386 194.622 318.286 194.896C318.187 195.17 318.132 195.479 318.12 195.825C318.107 196.174 318.14 196.488 318.221 196.769C318.301 197.049 318.421 197.287 318.582 197.485C318.744 197.683 318.945 197.836 319.187 197.946C319.429 198.055 319.705 198.115 320.019 198.126C320.33 198.137 320.608 198.097 320.856 198.005C321.102 197.912 321.313 197.773 321.487 197.587C321.663 197.401 321.799 197.17 321.899 196.897C321.998 196.623 322.053 196.312 322.066 195.963Z" fill="white" stroke="white" stroke-width="0.859" stroke-miterlimit="10"/>
<path d="M321.698 203.487C321.649 203.563 321.595 203.618 321.541 203.655C321.488 203.692 321.418 203.708 321.335 203.705C321.261 203.702 321.183 203.676 321.1 203.627C321.016 203.577 320.922 203.522 320.817 203.461C320.712 203.4 320.591 203.344 320.456 203.292C320.319 203.241 320.163 203.211 319.987 203.206C319.683 203.195 319.454 203.253 319.302 203.378C319.149 203.501 319.068 203.674 319.06 203.895C319.055 204.036 319.096 204.153 319.182 204.249C319.267 204.345 319.383 204.43 319.526 204.502C319.67 204.574 319.834 204.642 320.018 204.704C320.204 204.765 320.394 204.835 320.587 204.911C320.778 204.987 320.967 205.075 321.152 205.174C321.335 205.273 321.498 205.397 321.638 205.546C321.778 205.696 321.89 205.875 321.972 206.085C322.055 206.294 322.09 206.545 322.081 206.835C322.07 207.159 322.003 207.459 321.881 207.737C321.76 208.014 321.589 208.254 321.368 208.456C321.148 208.658 320.88 208.813 320.563 208.924C320.247 209.033 319.891 209.08 319.494 209.067C319.276 209.059 319.056 209.028 318.832 208.976C318.607 208.924 318.391 208.853 318.182 208.764C317.975 208.675 317.78 208.571 317.598 208.452C317.417 208.333 317.259 208.203 317.126 208.061L317.633 207.319C317.67 207.262 317.721 207.218 317.787 207.185C317.852 207.152 317.921 207.136 317.995 207.139C318.09 207.143 318.186 207.176 318.281 207.24C318.377 207.304 318.485 207.376 318.606 207.453C318.726 207.532 318.865 207.604 319.023 207.67C319.181 207.736 319.369 207.773 319.586 207.781C319.88 207.791 320.112 207.735 320.28 207.611C320.448 207.487 320.536 207.284 320.547 207.002C320.552 206.839 320.512 206.705 320.426 206.599C320.341 206.493 320.225 206.405 320.082 206.332C319.938 206.26 319.774 206.195 319.591 206.137C319.407 206.08 319.219 206.017 319.025 205.947C318.833 205.879 318.645 205.795 318.463 205.697C318.28 205.6 318.118 205.474 317.979 205.319C317.838 205.167 317.728 204.976 317.645 204.75C317.563 204.525 317.529 204.249 317.539 203.922C317.549 203.66 317.611 203.406 317.724 203.16C317.839 202.913 318.003 202.698 318.213 202.509C318.424 202.321 318.681 202.174 318.983 202.067C319.285 201.961 319.627 201.915 320.011 201.928C320.226 201.935 320.435 201.959 320.636 202C320.838 202.041 321.028 202.097 321.209 202.169C321.39 202.241 321.558 202.325 321.713 202.422C321.868 202.519 322.006 202.626 322.126 202.746L321.697 203.485L321.698 203.487Z" fill="white" stroke="white" stroke-width="0.859" stroke-miterlimit="10"/>
<path d="M321.906 211.685L321.862 212.933L318.992 212.833L318.935 214.465L321.134 214.542L321.091 215.742L318.893 215.665L318.836 217.331L321.706 217.431L321.662 218.679L317.159 218.522L317.404 211.528L321.906 211.685Z" fill="white" stroke="white" stroke-width="0.859" stroke-miterlimit="10"/>
<path d="M269.569 79.144C232.082 79.7752 194.682 80.0773 157.231 80.2523C147.944 80.3122 129.207 80.3162 119.919 80.3082L120.775 79.9782L86.5015 110.779C83.931 113.151 76.4608 119.753 73.9022 122.072C73.7776 122.186 74.0125 121.992 74.0684 121.796C74.261 121.301 73.8871 120.752 73.3685 120.724C73.267 120.723 73.3924 120.724 73.3924 120.724L73.7528 120.727C74.9817 120.732 77.5219 120.754 78.7931 120.76C157.335 122.099 236.209 120.41 314.75 120.848C314.639 120.885 314.639 120.964 314.689 121.038C314.681 121.038 314.72 121.063 314.653 121.005L314.389 120.764L313.86 120.281C299.083 106.691 284.264 92.965 269.57 79.144H269.569ZM269.655 78.9203C284.685 91.9654 300.076 105.623 315.061 118.935L315.599 119.419L315.869 119.66C315.893 119.679 316.011 119.795 316.087 119.881C316.977 120.934 316.201 122.711 314.772 122.676L314.59 122.677L314.23 122.679C243.488 123.279 172.557 121.368 101.833 122.592C99.3588 122.596 76.6158 122.795 74.4743 122.794L73.7544 122.799L73.394 122.801C72.8811 122.839 72.3081 122.493 72.134 122.009C72.0157 121.727 71.9997 121.39 72.1132 121.078C72.2091 120.765 72.5391 120.489 72.5031 120.525L72.7684 120.282C72.9889 120.1 74.0932 119.053 74.3609 118.822C75.4452 117.752 83.6569 110.385 84.9969 109.115L119.063 78.0861L119.425 77.7561C129.049 77.7489 147.836 77.7577 157.454 77.812C194.853 77.9862 232.301 78.2842 269.655 78.9203Z" fill="#3B3B3B"/>
<path d="M273.18 31.4677C274.134 31.4677 274.741 30.4497 274.289 29.6107L268.297 18.5049C266.194 14.6064 261.856 12.1853 256.977 12.1853C253.852 12.1853 250.968 13.1026 248.569 14.6919C248.172 14.9555 247.671 14.9715 247.255 14.739C245.403 13.7043 243.261 13.113 240.983 13.113C238.748 13.113 236.635 13.6044 234.735 14.5424C234.365 14.7254 233.94 14.723 233.572 14.5377C231.786 13.6387 229.747 13.1345 227.565 13.1345C224.393 13.1345 221.974 14.0838 220.187 15.2368C219.813 15.4781 219.345 15.4837 218.947 15.284C216.172 13.888 212.927 13.1146 209.374 13.1138C208.35 13.1138 207.336 13.1857 206.337 13.3223C205.675 13.4134 205.07 12.9532 204.953 12.2963C204.686 10.7974 204.175 9.3447 203.416 8.00072C201.605 4.79497 198.539 2.48895 195.004 1.67393C194.056 1.45499 193.082 1.34473 192.111 1.34473C185.873 1.34473 180.505 5.71866 179.057 11.9815C179.039 12.0566 179.023 12.1309 179.007 12.2061C178.875 12.8285 178.312 13.2704 177.679 13.2073C177.062 13.1457 176.433 13.1138 175.792 13.1138C174.756 13.1138 173.731 13.1945 172.722 13.3471C172.055 13.4478 171.44 12.9843 171.323 12.3203C171.057 10.8141 170.545 9.35429 169.782 8.00391C167.971 4.79737 164.905 2.49135 161.37 1.67633C160.422 1.45739 159.448 1.34712 158.476 1.34712C154.207 1.34712 150.347 3.39746 147.87 6.69829C147.683 6.4402 147.488 6.1853 147.281 5.9408C144.773 2.97876 141.142 1.34792 137.056 1.34792C132.027 1.34792 127.516 3.76821 124.68 7.98793L121.464 12.7734C121.146 13.2456 121.185 13.8721 121.558 14.3011L124.051 17.1713C124.257 17.4086 124.371 17.7178 124.365 18.0318C124.248 23.4797 122.633 28.1205 121.201 32.2324C119.934 35.8736 118.839 39.0178 118.839 42.4033C118.839 47.3158 121.408 51.5092 125.887 53.9079L130.32 56.2818C130.769 56.5223 131.318 56.4688 131.712 56.146L133.977 54.2922C134.279 54.0453 134.679 53.9518 135.059 54.0397C135.197 54.0717 135.332 54.1028 135.459 54.1324C136.326 54.3346 137.329 54.5655 138.427 54.77C138.442 54.8124 138.454 54.8547 138.47 54.8971C142.251 65.0201 154.7 75.9158 173.096 75.9158C182.018 75.9158 190.648 73.5099 197.399 69.14C203.248 65.3541 207.07 60.5671 208.322 55.6218C208.449 55.12 208.849 54.7437 209.36 54.6582C211.732 54.2611 214.012 53.4876 216.135 52.3625C216.554 52.1404 217.065 52.1468 217.449 52.4265C219.648 54.0309 222.385 54.9698 225.383 54.9698C227.586 54.9698 229.785 54.5064 231.92 53.613C232.262 53.47 232.644 53.4836 232.978 53.6466C234.713 54.4936 236.661 54.969 238.718 54.969C239.549 54.969 240.38 54.9083 241.207 54.7892C241.691 54.7197 242.164 54.9235 242.449 55.3206C243.167 56.3178 244.011 57.2407 244.972 58.0653C248.221 60.8555 252.464 62.3305 257.243 62.3305C267.128 62.3305 275.48 54.1788 275.48 44.5304C275.48 39.9463 273.939 36.2963 272.118 33.3974C271.59 32.556 272.186 31.4669 273.18 31.4669L273.18 31.4677Z" fill="#F7F7F7"/>
<path d="M273.18 31.3078C273.93 31.3285 274.517 30.46 274.178 29.7752L272.999 27.5938C271.813 25.3965 269.414 21.0249 268.21 18.8412C264.327 11.6586 254.74 11.0234 248.512 15.4381C247.944 15.6626 247.299 15.5547 246.783 15.2503C243.285 13.4245 238.97 13.5372 235.469 15.2407C235.244 15.3502 235.048 15.4732 234.759 15.5555C234.13 15.7537 233.457 15.6035 232.887 15.3014C231.135 14.5176 229.204 14.1724 227.287 14.2635C224.978 14.3586 222.772 15.029 220.865 16.2986C219.91 16.9459 218.786 16.7029 217.887 16.198C214.426 14.671 210.493 14.1996 206.731 14.6862C206.235 14.806 205.507 14.7245 205.02 14.4768C204.237 14.1013 203.686 13.3398 203.547 12.4896C203.201 10.6622 202.438 8.91471 201.33 7.4293C195.261 -0.673751 182.745 2.36259 180.258 11.9846L180.177 12.2595C180.023 13.1728 179.379 13.983 178.47 14.2403C177.354 14.4856 176.21 14.1157 175.074 14.202C174.397 14.2083 173.683 14.2755 173.01 14.3538C172.101 14.5367 171.113 14.1037 170.649 13.3302C170.349 12.87 170.308 12.3034 170.204 11.8136C169.579 8.78926 167.767 6.02219 165.209 4.23075C159.996 0.407348 152.112 1.80487 148.304 7.02179L147.849 7.61627L147.43 7.0154C143.078 0.634274 133.146 0.270712 127.647 5.36299C125.345 7.32303 123.867 10.3386 122.127 12.7837L121.928 13.0849C121.819 13.2527 121.787 13.4676 121.845 13.6586C121.893 13.7976 121.994 13.9439 122.101 14.0477L124.017 16.2187L124.5 16.7589C124.961 17.1856 125.026 18.0333 124.973 18.5495C124.912 24.6686 122.52 30.5838 120.783 36.2594C118.252 44.3864 120.685 50.5758 128.628 53.9797C128.622 53.9709 130.949 55.1982 130.908 55.1607L131.125 54.9793C131.686 54.4967 132.53 53.8135 133.069 53.354C133.611 52.8315 134.598 52.555 135.362 52.7604L135.54 52.7995L135.893 52.8754L138.674 53.4427L139.416 53.5938L139.695 54.3089C148.622 75.5793 178.179 79.3731 196.243 67.8438C200.889 64.8498 205.132 60.7987 206.668 55.4347C206.872 54.4943 207.482 53.6401 208.384 53.2566C209.592 52.8594 210.813 52.7875 212.007 52.3528C213.052 52.0292 214.084 51.5986 215.067 51.1127C216.033 50.4975 217.43 50.4008 218.39 51.1479C222.149 54.0308 227.372 54.0117 231.64 52.2362C232.656 51.8479 233.753 52.5063 234.54 52.8475C236.52 53.6681 238.75 53.8494 240.906 53.6041C241.76 53.4539 242.694 53.7655 243.25 54.4304C243.577 54.8323 243.791 55.2062 244.12 55.5882C246.654 58.7172 250.417 60.6812 254.467 61.3021C265.982 63.39 277 53.255 275.029 41.4995C274.611 38.7061 273.538 36.0317 272.058 33.6298C271.331 32.7468 272.009 31.2646 273.181 31.3078H273.18ZM273.18 31.6274C272.247 31.613 271.773 32.7373 272.353 33.446C272.859 34.2562 273.324 35.0944 273.734 35.9598C276.225 41.1503 276.511 47.5027 273.766 52.6805C267.997 64.4111 251.174 66.7763 242.372 57.0784C242.091 56.7595 241.735 56.3281 241.48 55.9981C241.455 55.9781 241.423 55.9749 241.397 55.9837C240.842 56.0836 240.282 56.1459 239.718 56.1906C237.457 56.4639 234.174 55.8239 232.446 54.9002C227.596 57.1191 221.393 57.0872 216.849 53.9373L216.52 53.7112C216.58 53.7695 216.771 53.8207 216.831 53.7943C216.838 53.7975 216.906 53.7647 216.853 53.7911L216.515 53.9677C214.364 55.0704 212.042 55.8526 209.66 56.2641C209.611 56.2753 209.698 56.2569 209.712 56.2474C209.803 56.2098 209.875 56.1323 209.907 56.046C209.924 55.9845 209.892 56.1043 209.892 56.1043C207.011 66.384 196.922 72.6644 187.284 75.5777C168.755 81.3803 144.572 74.5142 137.158 55.2302L138.179 56.0963L135.298 55.4467L134.944 55.3628L134.769 55.3205C134.757 55.3181 134.769 55.3189 134.769 55.3189C134.78 55.3173 134.788 55.3125 134.795 55.3061C134.266 55.7176 133.262 56.5374 132.737 56.9513C132.104 57.5402 131.17 57.8494 130.317 57.6161C130.1 57.5682 129.819 57.4419 129.688 57.366L129.371 57.1918L128.737 56.8434C127.526 56.1531 126.142 55.4507 124.905 54.7236C120.315 52.1603 117.441 46.8714 117.887 41.6353C118.331 35.7089 121.437 30.4136 122.737 24.802C123.258 22.7325 123.612 20.6278 123.718 18.5024C123.751 18.0701 123.803 17.8464 123.582 17.5579C122.645 16.4784 122.033 15.7217 121.233 14.8036C120.626 14.1964 120.49 13.176 120.995 12.4616L121.2 12.162C122.356 10.4872 123.717 8.41132 124.93 6.77728C126.767 4.41692 129.299 2.58792 132.145 1.65385C137.842 -0.297405 144.734 1.36619 148.308 6.37697L147.434 6.37057C154.488 -3.17874 169.292 -0.179946 172.14 11.3662C172.179 11.5715 172.289 11.9942 172.327 12.1828C172.36 12.2723 172.47 12.3402 172.54 12.3226C174.221 12.0246 175.925 11.9846 177.627 12.0853C177.914 12.1101 177.851 12.0589 177.926 11.7441C181.61 -4.14078 203.286 -3.76763 206.321 11.9902C206.285 11.9471 206.218 11.9191 206.158 11.9263C210.493 11.371 215 11.9495 218.972 13.8656L219.525 14.142C219.554 14.158 219.531 14.1524 219.504 14.1764C223.336 11.7497 228.302 11.3718 232.506 12.9746C233.051 13.1768 233.572 13.4405 234.092 13.6962C234.142 13.7113 234.194 13.7153 234.247 13.7049C234.294 13.6914 234.258 13.7113 234.373 13.6586L234.678 13.5212C238.516 11.8552 243.113 11.8456 246.847 13.7521C247.85 14.2475 247.784 14.4584 248.496 13.9846C249.238 13.5364 250.015 13.1472 250.818 12.8316C257.109 10.2323 265.484 12.2715 268.625 18.6174L270.958 23.0265L273.311 27.4252L274.488 29.6402C274.898 30.5375 274.179 31.6601 273.181 31.6274H273.18Z" fill="#3B3B3B"/>
<path d="M162.622 15.9537C163.225 13.3481 161.78 10.7904 159.395 10.2406C157.01 9.69088 154.588 11.3569 153.985 13.9625C153.383 16.5682 154.828 19.1259 157.213 19.6757C159.598 20.2254 162.02 18.5594 162.622 15.9537Z" fill="#5B5B5B"/>
<path d="M196.258 15.9513C196.86 13.3456 195.415 10.7879 193.03 10.2381C190.644 9.6884 188.223 11.3552 187.62 13.9609C187.018 16.5665 188.463 19.1242 190.848 19.674C193.233 20.2237 195.655 18.5569 196.258 15.9513Z" fill="#5B5B5B"/>
<path d="M149.472 46.85C154.749 54.4337 161.325 58.4608 171.556 58.4608C182.905 58.4608 191.145 53.331 195.937 46.6431C198.982 48.2691 199.992 50.0989 199.992 52.0917C199.992 57.8312 189.305 67.1256 173.096 67.1256C159.106 67.1256 149.446 59.164 146.703 51.82C145.714 49.1728 147.21 46.8908 149.472 46.85Z" fill="#5B5B5B"/>
<path d="M266.691 44.5313C266.691 49.2984 262.391 53.5421 257.243 53.5421C251.565 53.5421 248.414 50.1134 248.414 46.6807C248.414 43.2481 250.947 40.8534 254.053 42.016C253.334 42.5393 253.105 43.1961 253.105 43.8809C253.105 44.8493 253.848 46.0591 255.414 46.0591C256.714 46.0591 257.938 44.9436 257.938 42.9996C257.938 40.0943 254.482 37.1898 252.293 33.4471C251.921 35.4622 251.115 37.3232 249.853 39.0803C247.015 43.0267 242.924 46.1814 238.718 46.1814C236.674 46.1814 234.363 44.62 234.363 41.8074C234.363 41.4942 234.38 41.1698 234.411 40.8406C231.835 43.9464 228.569 46.1821 225.384 46.1821C223.031 46.1821 220.903 44.6544 220.903 41.8074C220.903 38.3212 224.181 31.6005 224.181 26.8782C224.181 25.9585 223.918 24.9109 223.324 24.2334C224.284 23.0004 225.355 21.9241 227.565 21.9241C229.708 21.9241 231.721 23.4151 231.721 25.8482C231.721 29.3152 229.447 34.4155 229.447 37.3616C229.447 38.2597 230.033 38.7862 230.874 38.7862C234.013 38.7862 237.578 31.3416 237.578 26.8774C237.578 25.9265 237.275 24.8238 236.742 24.0056C237.702 22.7727 239.024 21.9034 240.984 21.9034C242.875 21.9034 244.932 23.3864 244.932 25.6413C244.932 29.3392 242.824 35.0659 242.824 37.3584C242.824 38.151 243.294 38.787 244.304 38.787C247.012 38.787 250.536 32.7096 250.536 27.6221C250.536 27.6221 250.538 27.5637 250.54 27.5358C250.585 23.4087 253.828 20.9765 256.976 20.9765C258.858 20.9765 260.081 21.7899 260.562 22.6808C258.737 22.6808 257.832 24.4403 257.832 26.4179C257.83 32.847 266.692 36.3556 266.692 44.5329L266.691 44.5313ZM156.04 21.9026C154.081 21.9026 152.679 22.7855 151.652 24.2389C152.281 25.0332 152.635 26.0711 152.635 27.7036C152.635 30.9045 149.42 39.153 149.42 41.833C149.42 44.513 151.732 46.1805 153.776 46.1805C155.538 46.1805 157.728 45.0923 158.993 43.153C158.119 42.2221 157.591 40.6416 157.591 38.9157C157.591 36.1894 159.989 29.5422 159.989 25.845C159.989 23.5901 158.146 21.9042 156.04 21.9042V21.9026ZM189.693 21.9026C187.734 21.9026 186.332 22.7855 185.303 24.2389C185.934 25.0332 186.287 26.0711 186.287 27.7036C186.287 30.9045 183.072 39.153 183.072 41.833C183.072 44.513 185.383 46.1805 187.427 46.1805C189.189 46.1805 191.379 45.0923 192.644 43.153C191.772 42.2221 191.243 40.6416 191.243 38.9157C191.243 36.1894 193.641 29.5422 193.641 25.845C193.641 23.5901 191.797 21.9042 189.692 21.9042L189.693 21.9026ZM219.947 31.4583C219.947 39.1682 213.639 46.1805 205.628 46.1805C200.1 46.1805 195.054 43.2153 195.054 36.6248C195.054 28.9149 201.365 21.9026 209.374 21.9026C214.878 21.9026 219.947 24.8686 219.947 31.4583ZM211.912 34.5713C212.607 30.6361 211.383 27.3776 208.972 26.9525C206.561 26.5282 203.791 29.5757 203.096 33.5102C202.408 37.4127 203.835 40.7415 206.245 41.1658C208.657 41.5909 211.218 38.5066 211.912 34.5713ZM175.45 30.4946C176.038 31.2913 177.022 31.8865 178.516 31.8865C180.674 31.8865 182.322 29.8874 182.322 26.863C182.322 24.3932 180.074 21.9026 175.792 21.9026C168.24 21.9026 161.402 29.0923 161.402 36.9261C161.402 42.477 165.062 46.1805 171.023 46.1805C176.796 46.1805 181.035 42.5617 181.035 39.0483C181.035 38.1175 180.32 37.4359 179.115 37.2833C177.832 39.3184 175.73 40.342 173.774 40.342C171.351 40.342 169.332 38.1566 169.332 35.2018C169.332 31.2761 172.379 26.9533 174.941 26.9533C175.931 26.9533 176.424 27.5669 176.424 28.4994C176.424 29.2785 176.171 29.8961 175.45 30.4946ZM145.04 36.6033C143.972 37.9257 140.896 38.5817 136.163 38.0048C139.54 29.5773 141.801 21.5486 141.801 15.6077C141.801 12.2702 140.109 10.1367 137.056 10.1367C135.248 10.1367 133.302 10.915 131.975 12.8894C132.86 13.909 133.161 15.7795 133.161 17.4016C133.161 29.2297 127.628 37.5397 127.628 42.4027C127.628 44.4067 128.791 45.4926 130.036 46.159C130.926 45.4303 132.473 44.9165 133.561 44.9165C136.06 44.9165 139.9 46.5809 143.967 46.5161C146.528 46.4754 147.912 43.809 147.879 41.7675C147.851 40.008 146.825 37.8378 145.039 36.6033H145.04Z" fill="#5B5B5B"/>
<path d="M141.436 79.0783C137.432 84.5717 129.298 95.5417 125.205 100.965C119.875 108.353 114.305 115.516 107.658 121.811L107.47 121.662C112.059 113.741 117.743 106.668 123.701 99.7758C128.027 94.5485 136.834 84.0843 141.248 78.9297L141.436 79.0783Z" fill="#3B3B3B"/>
<path d="M162.783 79.0552C160.159 85.358 156.186 94.4351 153.399 100.781C150.369 108.099 147.054 115.246 142.5 121.788L142.283 121.685C144.472 114.02 147.913 106.933 151.667 99.9589L157.063 89.4299C158.899 85.9381 160.703 82.4312 162.567 78.9521L162.783 79.0552Z" fill="#3B3B3B"/>
<path d="M184.204 79.0224C183.559 85.2294 182.448 94.2177 181.661 100.505C180.928 107.713 179.874 114.835 177.46 121.725L177.224 121.687C177.051 114.389 178.242 107.288 179.767 100.205L181.808 89.5857C182.529 86.0524 183.216 82.5134 183.968 78.9849L184.204 79.0224Z" fill="#3B3B3B"/>
<path d="M248.384 78.957C252.805 84.1212 261.6 94.5678 265.932 99.8031C271.889 106.696 277.573 113.769 282.163 121.69L281.975 121.838C275.328 115.543 269.758 108.381 264.427 100.992C260.34 95.5754 252.192 84.5903 248.196 79.1057L248.384 78.957Z" fill="#3B3B3B"/>
<path d="M227.066 78.979C230.29 84.9966 234.811 93.814 237.966 99.9857C241.72 106.961 245.162 114.047 247.35 121.712L247.133 121.815C242.578 115.274 239.263 108.126 236.234 100.808L231.487 89.9706C229.943 86.3405 228.367 82.7249 226.85 79.0821L227.066 78.979Z" fill="#3B3B3B"/>
<path d="M205.665 79.0122C206.965 85.1161 208.678 94.0086 209.866 100.232C211.39 107.316 212.582 114.415 212.409 121.714L212.173 121.752C209.759 114.862 208.705 107.74 207.972 100.532L206.641 89.8C206.238 86.2163 205.801 82.6382 205.429 79.0498L205.665 79.0122Z" fill="#3B3B3B"/>
</svg>
