<svg width="375" height="291" viewBox="0 0 375 291" fill="none" xmlns="http://www.w3.org/2000/svg">
<g clip-path="url(#clip0_3612_69823)">
<path d="M272.082 39.7356C271.554 38.8954 272.15 37.8078 273.143 37.8078C273.983 37.8078 274.552 37.0194 274.367 36.259H274.369L274.538 29.9162L272.397 30.3647L271.663 31.1634L268.259 24.8621C266.156 20.969 261.818 18.5512 256.939 18.5512C253.814 18.5512 250.93 19.4672 248.531 21.0543C248.134 21.3177 247.633 21.3336 247.217 21.1014C245.365 20.0681 243.223 19.4776 240.945 19.4776C238.71 19.4776 236.597 19.9683 234.697 20.9051C234.327 21.0878 233.902 21.0855 233.534 20.9003C231.748 20.0027 229.709 19.4992 227.527 19.4992C224.355 19.4992 221.936 20.4471 220.149 21.5985C219.775 21.8395 219.307 21.8451 218.909 21.6456C216.134 20.2516 212.889 19.4792 209.336 19.4784C208.312 19.4784 207.298 19.5502 206.299 19.6867C205.637 19.7776 205.032 19.3188 204.915 18.6621C204.648 17.1652 204.137 15.7145 203.378 14.3724C201.567 11.1711 198.501 8.86826 194.966 8.05437C194.017 7.83573 193.044 7.72562 192.073 7.72562C185.835 7.72562 180.467 12.0935 179.019 18.3477C179.001 18.4227 178.985 18.497 178.969 18.572C178.837 19.1943 178.274 19.6348 177.641 19.5718C177.024 19.5103 176.395 19.4784 175.754 19.4784C174.717 19.4784 173.693 19.559 172.684 19.7114C172.017 19.8119 171.401 19.3499 171.285 18.6861C171.019 17.182 170.507 15.7241 169.744 14.3756C167.933 11.1735 164.867 8.87065 161.332 8.05676C160.383 7.83813 159.409 7.72801 158.438 7.72801C154.169 7.72801 150.308 9.77551 147.832 13.0718C147.644 12.8141 147.45 12.5595 147.243 12.3153C144.735 9.3574 141.103 7.72881 137.018 7.72881C131.989 7.72881 127.477 10.1458 124.642 14.3597L123.906 15.452V13.5577L120.848 13.1556L120.675 13.6407L121.216 19.7537L121.23 19.7505C121.207 20.0753 121.294 20.4048 121.519 20.6641L124.012 23.5303C124.218 23.7673 124.332 24.0761 124.326 24.3897C124.209 29.83 122.594 34.4644 121.162 38.5706C120.163 41.4352 119.281 43.9926 118.948 46.6011L118.221 43.667L117.813 43.2138L118.915 50.499C119.459 54.6339 121.918 58.1153 125.847 60.217L130.28 62.5877C130.729 62.8279 131.278 62.7744 131.672 62.452L133.938 60.6008C134.239 60.3543 134.639 60.2609 135.019 60.3487C135.157 60.3806 135.292 60.4117 135.419 60.442C136.286 60.6439 137.29 60.8745 138.387 61.0788C138.402 61.1211 138.414 61.1634 138.43 61.2057C142.211 71.3147 154.66 82.1954 173.056 82.1954C181.978 82.1954 190.609 79.7928 197.359 75.4289C203.208 71.6483 207.031 66.8678 208.283 61.9294C208.41 61.4283 208.809 61.0525 209.32 60.9671C211.692 60.5705 213.973 59.7981 216.096 58.6746C216.514 58.4528 217.026 58.4592 217.409 58.7385C219.608 60.3407 222.346 61.2783 225.344 61.2783C227.546 61.2783 229.746 60.8155 231.88 59.9234C232.222 59.7806 232.604 59.7941 232.938 59.9569C234.673 60.8027 236.621 61.2775 238.678 61.2775C239.509 61.2775 240.34 61.2168 241.167 61.0979C241.651 61.0285 242.124 61.232 242.41 61.6286C243.127 62.6244 243.972 63.546 244.932 64.3695C248.181 67.1559 252.424 68.6289 257.203 68.6289C267.089 68.6289 275.44 60.4883 275.44 50.8533C275.44 46.2755 273.899 42.6305 272.079 39.7356H272.082Z" fill="#711C1C"/>
<g opacity="0.7">
<g opacity="0.7">
<path d="M269.366 269.337C272.143 271.486 275.544 272.641 278.831 273.935C282.116 275.23 285.403 276.824 287.647 279.527C289.36 281.584 290.262 284.495 289.73 287.037H374.214C372.178 285.374 369.354 284.38 366.716 283.964C362.204 283.247 357.368 283.432 353.434 281.122C349.245 278.672 346.908 273.82 342.72 271.324C333.557 265.824 321.177 274.097 311.297 270.076C303.753 267.002 300.375 257.875 293.247 253.9C288.642 251.312 282.834 251.266 277.906 253.137C272.954 255.009 268.812 258.637 265.687 262.912L265.409 261.594C265.039 264.622 266.959 267.487 269.366 269.336V269.337Z" fill="#FD9D99"/>
</g>
</g>
<path d="M295.699 286.969C302.318 286.784 308.912 286.646 315.531 286.461L335.362 286.045C338.671 285.975 341.98 285.883 345.266 285.79C348.575 285.721 351.884 285.675 355.17 285.721L360.122 285.79C361.765 285.837 363.431 285.86 365.074 285.929C368.382 286.045 371.691 286.184 375.001 286.414V286.599C371.692 286.877 368.383 287.085 365.097 287.223C363.454 287.316 361.788 287.362 360.145 287.432L355.193 287.571C351.885 287.64 348.575 287.663 345.289 287.617C341.98 287.571 338.672 287.547 335.385 287.501L315.554 287.362C308.936 287.293 302.341 287.223 295.722 287.131L295.699 286.969Z" fill="#5F1B2B"/>
<g opacity="0.7">
<g opacity="0.7">
<path d="M159.921 286.564C158.949 285.755 158.092 284.831 157.214 283.93C153.187 279.771 148.582 275.958 143.075 274.109C133.055 270.736 121.833 274.364 111.605 271.706C107.209 270.551 103.182 268.286 99.3406 265.836C94.4353 262.693 89.7378 259.228 85.2943 255.461C82.2164 252.85 79.1856 250.03 75.5061 248.389C70.5081 246.148 64.7693 246.241 59.3542 247.049C52.0886 248.135 44.5448 250.77 40.079 256.592C36.3994 261.376 35.081 267.915 30.453 271.82C26.5425 275.124 21.1042 275.818 16.4298 277.874C12.7502 279.491 9.21047 282.865 8.70068 286.563H159.921V286.564Z" fill="#FD9D99"/>
</g>
</g>
<path d="M0 286.818L42.0918 286.449L84.1837 286.171L105.241 285.986L115.77 285.94H121.023L126.276 285.963L136.804 286.078C140.322 286.125 143.816 286.171 147.333 286.24C150.851 286.31 154.345 286.379 157.862 286.472L163.115 286.634L165.753 286.703L168.391 286.796V286.981L165.753 287.073L163.115 287.143L157.862 287.305C154.345 287.397 150.851 287.467 147.333 287.536C143.816 287.606 140.322 287.652 136.804 287.698L126.276 287.814L121.023 287.837H115.77L105.241 287.791L84.1837 287.606L42.0918 287.328L0 286.959V286.82V286.818Z" fill="#5F1B2B"/>
<path d="M299.238 288.463H87.6107L84.1948 139.755H305.255L299.238 288.463Z" fill="#FFF6E3"/>
<path d="M299.376 288.607C252.144 289.454 201.42 290.04 154.158 290.208C133.528 290.328 108.377 290.041 87.6098 289.782L86.3018 289.766L86.289 288.492L85.9063 251.304C85.474 214.276 84.4209 176.819 83.1504 139.778L83.1152 138.721L84.1947 138.71C139.457 138.009 194.724 137.721 249.989 137.626C269.113 137.581 288.238 137.696 307.362 137.755L307.26 139.834C305.027 187.286 302.143 241.163 299.376 288.605L299.376 288.607ZM299.1 288.32C299.915 245.413 301.927 182.014 303.248 139.675L305.254 141.761C268.41 141.957 231.567 141.908 194.724 141.697C157.88 141.583 121.037 141.259 84.1947 140.8L85.2391 139.732C85.6969 188.5 87.0313 239.584 88.9314 288.434L87.6098 287.144C108.2 286.782 132.91 286.698 153.329 286.719C200.791 286.886 251.635 287.495 299.099 288.321L299.1 288.32Z" fill="#711C1C"/>
<path d="M115.028 174.078H90.3752V186.387H115.028V174.078Z" fill="#D7D4BF"/>
<path d="M256.096 162.795H231.444V175.104H256.096V162.795Z" fill="#E4E1CE"/>
<path d="M195.834 195.62H171.181V207.929H195.834V195.62Z" fill="#D7D4BF"/>
<path d="M300.103 235.966H275.955V223.657H300.608L300.103 235.966Z" fill="#D7D4BF"/>
<path d="M98.2668 209.98H86.397L86.0862 197.671H98.2668V209.98Z" fill="#E4E1CE"/>
<path d="M300.972 209.98H291.853V197.671H301.581L300.972 209.98Z" fill="#D7D4BF"/>
<path d="M169.013 247.934H157.143V260.243H169.013V247.934Z" fill="#E4E1CE"/>
<path d="M302.814 153.228L85.5682 155.952L85.2014 139.755H303.352L302.814 153.228Z" fill="#E4E1CE"/>
<path d="M305.255 277.894H84.1948V289.132H305.255V277.894Z" fill="#FFF6E3"/>
<path d="M305.367 289.245C269.888 289.979 230.741 290.495 195.252 290.403C167.397 290.242 139.671 289.444 111.874 289.644C102.411 289.691 92.945 289.712 83.4748 289.873L83.4652 289.132L83.3198 277.895L83.3086 277.035C102.025 276.734 120.743 276.514 139.46 276.41C189.371 275.984 241.501 276.237 291.438 277.153L305.254 277.453L305.706 277.462C305.633 281.446 305.476 285.422 305.367 289.245V289.245ZM305.142 289.019L304.812 277.894L305.255 278.336L291.439 278.637C222.72 279.906 152.879 279.826 84.1947 278.768L85.0697 277.894L84.9242 289.131L84.1947 288.403C102.568 288.634 120.975 288.732 139.349 288.553C194.061 287.469 250.398 287.835 305.142 289.019Z" fill="#711C1C"/>
<path d="M269.575 78.923H119.881L73.1186 121.173C72.954 121.321 73.0595 121.595 73.2816 121.595H316.804L269.575 78.923Z" fill="#FFF6E3"/>
<path d="M80.9892 148.441H102.731C105.379 148.441 107.525 146.298 107.525 143.653V121.569H73.5868C73.0962 121.569 72.7215 122.007 72.7974 122.491L76.2532 144.399C76.6208 146.727 78.6296 148.441 80.9892 148.441Z" fill="#F4586B"/>
<path d="M80.9891 148.321C87.4134 148.39 93.8377 147.665 100.259 147.443C100.744 147.417 102.187 147.394 102.668 147.38C104.912 147.393 106.665 145.437 106.554 143.218C106.876 136.177 107.347 128.597 107.102 121.569L107.526 121.992C96.8133 122.392 86.0965 122.859 75.3726 122.845C74.9555 122.857 74.0366 122.841 73.6139 122.849C73.5772 122.853 73.6875 122.845 73.7202 122.832C73.9479 122.769 74.1022 122.542 74.0646 122.306C74.0566 122.27 74.0726 122.367 74.0758 122.391L74.1117 122.64L74.1829 123.136C74.7582 126.997 75.3431 131.22 75.6922 135.088L76.4242 143.099C76.3954 145.851 78.0558 148.292 80.9891 148.321ZM80.9891 148.561C77.9304 148.581 75.9839 146.073 75.6906 143.214L73.9208 135.367C73.049 131.588 72.3331 127.368 71.6779 123.53L71.5932 123.035L71.5508 122.788C71.3175 121.752 71.9831 120.642 73.0115 120.369C73.4661 120.225 73.9248 120.31 74.3674 120.289C85.427 120.256 96.4785 120.728 107.526 121.144L107.96 121.153L107.95 121.567C107.851 125.843 107.873 130.119 108.073 134.396L108.397 140.81C108.421 141.527 108.49 142.905 108.514 143.616C108.537 145.065 108.046 146.551 107.03 147.622C105.755 149.079 103.757 149.662 101.866 149.485L100.26 149.437C93.8377 149.216 87.4142 148.491 80.9899 148.56L80.9891 148.561Z" fill="#711C1C"/>
<path d="M308.486 148.441H286.744C284.096 148.441 281.949 146.298 281.949 143.653V121.569H315.888C316.379 121.569 316.753 122.007 316.677 122.491L313.222 144.399C312.854 146.727 310.845 148.441 308.486 148.441Z" fill="#F4586B"/>
<path d="M308.486 148.56C302.061 148.492 295.637 149.216 289.216 149.438L287.61 149.485C285.722 149.661 283.718 149.082 282.446 147.623C281.429 146.551 280.938 145.066 280.961 143.618C280.993 142.91 281.045 141.536 281.078 140.812L281.403 134.397C281.603 130.121 281.624 125.845 281.525 121.569L281.516 121.155L281.949 121.146C292.996 120.728 304.048 120.258 315.108 120.29C315.537 120.31 316.013 120.234 316.464 120.37C317.49 120.646 318.16 121.752 317.925 122.79C317.913 122.918 317.814 123.389 317.797 123.532C317.134 127.378 316.427 131.583 315.554 135.368L313.784 143.216C313.488 146.068 311.548 148.587 308.486 148.562V148.56ZM308.486 148.321C311.391 148.307 313.097 145.832 313.05 143.099L313.783 135.088C314.132 131.227 314.724 126.988 315.293 123.136L315.364 122.64L315.4 122.391C315.403 122.367 315.418 122.27 315.411 122.306C315.372 122.545 315.529 122.768 315.755 122.832C315.787 122.845 315.898 122.853 315.861 122.849H315.611C315.322 122.84 314.411 122.853 314.104 122.846C303.38 122.86 292.663 122.393 281.95 121.992L282.374 121.57C282.128 128.591 282.597 136.185 282.922 143.218C282.814 145.436 284.559 147.396 286.808 147.381C287.293 147.379 288.707 147.435 289.216 147.444C295.638 147.666 302.061 148.391 308.486 148.322V148.321Z" fill="#711C1C"/>
<path d="M112.865 148.441H137.004C139.652 148.441 141.798 146.298 141.798 143.653L142.352 121.569H107.524L108.128 144.398C108.496 146.726 110.505 148.441 112.864 148.441H112.865Z" fill="#FFF6E3"/>
<path d="M112.865 148.321C119.339 148.272 126.53 147.851 133.036 147.537C135.83 147.279 139.41 148.097 140.438 144.693C140.664 143.999 140.566 142.472 140.607 141.689C140.732 134.97 141.055 128.256 141.319 121.542L142.352 122.6L107.525 122.167L108.125 121.552C108.145 125.359 108.185 129.166 108.172 132.974L108.186 138.684C108.204 140.564 108.203 142.557 108.242 144.38C108.535 146.608 110.62 148.373 112.865 148.321ZM112.865 148.561C110.514 148.584 108.365 146.734 108.017 144.416C107.958 142.509 107.851 140.603 107.771 138.696C107.489 132.953 107.145 126.692 106.896 120.977L107.526 120.969L142.353 120.535L143.401 120.523L143.386 121.594C143.313 128.305 143.299 135.015 143.087 141.722C142.984 142.864 143.142 144.235 142.746 145.391C142.119 147.4 140.371 148.987 138.315 149.392C136.448 149.652 134.857 149.372 133.037 149.345C126.52 149.018 119.35 148.62 112.865 148.561Z" fill="#711C1C"/>
<path d="M147.693 148.441H171.832C174.48 148.441 176.626 146.298 176.626 143.653L177.18 121.569L142.365 122.037L142.957 144.398C143.325 146.726 145.333 148.441 147.693 148.441Z" fill="#F4586B"/>
<path d="M147.693 148.321C154.418 148.388 161.142 147.635 167.864 147.425C169.808 147.207 172.171 147.813 173.859 146.78C175.042 146.048 175.702 144.798 175.726 143.372L175.845 141.694C176.367 135.198 176.81 128.038 176.729 121.557L177.187 122.02C171.389 122.28 165.591 122.716 159.788 122.884C154.675 123.071 147.43 123.264 142.383 123.314L143.645 122.003C143.692 125.731 143.773 129.459 143.659 133.191C143.552 136.923 143.341 140.658 143.252 144.39C143.405 146.396 145.467 148.408 147.694 148.32L147.693 148.321ZM147.693 148.56C145.306 148.599 143.075 146.781 142.663 144.406C142.003 136.972 141.252 129.535 141.087 122.071L141.035 120.777C149.869 120.649 159.63 120.631 168.467 120.883C171.53 120.973 174.594 121.079 177.658 121.124L177.634 121.58C177.193 128.624 177.341 136.319 177.542 143.395C177.785 146.064 175.826 148.822 173.136 149.361C171.284 149.689 169.68 149.443 167.866 149.457C161.143 149.247 154.419 148.494 147.695 148.561L147.693 148.56Z" fill="#711C1C"/>
<path d="M182.211 148.441H206.35C208.998 148.441 211.144 146.298 211.144 143.653L211.698 121.569H176.87L177.474 144.398C177.842 146.726 179.85 148.441 182.21 148.441H182.211Z" fill="#FFF6E3"/>
<path d="M182.211 148.321C188.685 148.272 195.876 147.851 202.382 147.537C205.175 147.279 208.756 148.097 209.783 144.693C210.009 143.999 209.911 142.472 209.953 141.689C210.077 134.97 210.401 128.256 210.665 121.542L211.698 122.6L176.871 122.167L177.471 121.552C177.49 125.359 177.531 129.166 177.517 132.974L177.532 138.684C177.549 140.564 177.548 142.557 177.588 144.38C177.881 146.608 179.965 148.373 182.211 148.321ZM182.211 148.561C179.859 148.584 177.711 146.734 177.362 144.416C177.304 142.509 177.197 140.603 177.116 138.696C176.835 132.953 176.49 126.692 176.242 120.977L176.872 120.969L211.699 120.535L212.746 120.523L212.732 121.594C212.658 128.305 212.645 135.015 212.433 141.722C212.329 142.864 212.487 144.235 212.092 145.391C211.464 147.4 209.716 148.987 207.66 149.392C205.794 149.652 204.202 149.372 202.383 149.345C195.866 149.018 188.695 148.62 182.211 148.561Z" fill="#711C1C"/>
<path d="M217.125 148.441H241.655C244.345 148.441 246.526 146.298 246.526 143.653L247.09 121.569H211.698L212.312 144.398C212.685 146.726 214.727 148.441 217.125 148.441Z" fill="#F4586B"/>
<path d="M217.125 148.321C225.534 148.332 233.944 147.369 242.354 147.305C244.159 146.994 245.57 145.411 245.62 143.555L245.74 141.863C246.266 135.313 246.714 128.093 246.638 121.558L247.09 122.02C244.14 122.107 241.191 122.247 238.242 122.372C229.742 122.724 220.204 122.851 211.698 122.844L212.974 121.534C213.027 125.341 213.11 129.146 212.997 132.957C212.893 136.767 212.689 140.58 212.606 144.39C212.768 146.42 214.885 148.41 217.125 148.321ZM217.125 148.56C214.724 148.598 212.44 146.808 212.018 144.406C211.359 136.816 210.593 129.223 210.422 121.602L210.37 120.295C219.347 120.273 229.267 120.395 238.242 120.764C241.349 120.897 244.457 121.044 247.564 121.131L247.54 121.58C247.097 128.682 247.241 136.442 247.436 143.578C247.608 146.329 245.473 148.965 242.736 149.409C241 149.642 239.211 149.46 237.464 149.456C230.685 149.245 223.905 148.493 217.123 148.56L217.125 148.56Z" fill="#711C1C"/>
<path d="M252.429 148.441H276.568C279.216 148.441 281.363 146.298 281.363 143.653L281.916 121.569H247.089L247.693 144.398C248.06 146.726 250.07 148.441 252.429 148.441Z" fill="#FFF6E3"/>
<path d="M252.43 148.321C258.903 148.272 266.095 147.851 272.6 147.537C275.394 147.279 278.974 148.097 280.002 144.693C280.228 143.999 280.13 142.472 280.171 141.689C280.296 134.97 280.62 128.256 280.883 121.542L281.916 122.6L247.089 122.167L247.689 121.552C247.708 125.359 247.749 129.166 247.735 132.974L247.75 138.684C247.767 140.564 247.766 142.557 247.805 144.38C248.099 146.608 250.183 148.372 252.429 148.32L252.43 148.321ZM252.43 148.561C250.078 148.584 247.929 146.734 247.581 144.416C247.523 142.509 247.416 140.603 247.335 138.696C247.054 132.953 246.709 126.692 246.461 120.977L247.09 120.969L281.917 120.535L282.965 120.523L282.95 121.594C282.877 128.305 282.863 135.015 282.652 141.722C282.548 142.864 282.707 144.235 282.31 145.391C281.683 147.4 279.935 148.987 277.879 149.392C276.012 149.652 274.421 149.372 272.601 149.345C266.084 149.018 258.915 148.62 252.43 148.561H252.43Z" fill="#711C1C"/>
<path d="M269.574 78.923H267.548C262.389 78.9917 248.911 79.1481 248.155 78.923H248.146L281.916 121.507H316.707L269.574 78.923Z" fill="#B21944"/>
<path d="M205.38 78.8951L212.135 121.507H247.089L226.791 78.8951H205.38Z" fill="#B21944"/>
<path d="M142.353 121.507H177.308L184.048 78.8951H162.636L142.353 121.507Z" fill="#B21944"/>
<path d="M72.5703 121.507H107.525L141.304 78.8951H119.893L72.5703 121.507Z" fill="#B21944"/>
<path d="M106.126 289.249H163.649V173.356C163.649 170.544 161.381 168.266 158.585 168.266H111.19C108.394 168.266 106.126 170.544 106.126 173.356V289.249Z" fill="white"/>
<path d="M106.182 289.193C122.455 288.814 147.566 288.713 163.648 288.583L162.982 289.249C162.839 268.339 163.094 245.683 163.329 224.707C163.408 209.671 163.434 193.606 163.28 178.605L163.241 173.995C163.247 173.231 163.224 172.556 162.971 171.855C162.255 169.749 160.149 168.552 157.969 168.757C146.61 168.863 127.811 168.992 116.42 169.027C115.78 169.073 111.329 168.995 110.733 169.073C108.267 169.365 106.713 171.569 106.939 173.991C107.037 211.462 106.674 251.635 106.181 289.192L106.182 289.193ZM106.069 289.306C105.543 252.575 105.244 211.164 105.312 173.998C105.11 171.33 106.675 168.661 109.269 167.808C110.048 167.505 110.976 167.474 111.804 167.487C114.674 167.517 131.619 167.558 134.887 167.59L153.352 167.729C153.65 167.731 158.351 167.777 158.546 167.78C160.878 167.771 163.081 169.36 163.78 171.584C164.051 172.341 164.079 173.225 164.055 173.996L164.016 178.606C163.872 193.597 163.877 209.683 163.968 224.708C164.191 245.93 164.475 268.751 164.311 289.919C147.901 290.003 122.653 289.469 106.068 289.306H106.069Z" fill="#711C1C"/>
<path d="M156.124 173.052H113.65C112.326 173.052 111.253 174.124 111.253 175.446V225.766C111.253 227.088 112.326 228.159 113.65 228.159H156.124C157.448 228.159 158.522 227.088 158.522 225.766V175.446C158.522 174.124 157.448 173.052 156.124 173.052Z" fill="white"/>
<path d="M113.65 228.08C127.239 228.119 140.842 227.428 154.434 227.445L156.003 227.454C157.016 227.523 157.844 226.715 157.837 225.73C157.858 225.327 157.842 222.308 157.859 221.813C158.111 207.545 158.437 192.164 158.177 177.952C158.153 177.56 158.161 176.014 158.142 175.603C158.215 174.462 157.244 173.449 156.124 173.489C147.758 173.642 139.392 173.756 131.026 173.802L118.477 173.884L115.34 173.898L113.771 173.894C113.004 173.853 112.407 174.292 112.164 174.967C112.065 175.232 112.084 175.962 112.085 176.265C112.08 185.657 112.036 195.073 111.778 204.461C111.77 208.814 111.334 219.033 111.371 223.259C111.417 224.093 111.249 225.555 111.429 226.36C111.666 227.346 112.63 228.088 113.649 228.08H113.65ZM113.65 228.24C112.561 228.26 111.512 227.476 111.243 226.41C111.062 225.521 111.179 224.179 111.134 223.26C110.859 207.598 110.313 191.118 110.419 175.483C110.343 173.709 112.023 172.092 113.771 172.211L115.34 172.207L118.477 172.221C130.653 172.313 144.021 172.359 156.124 172.616C157.7 172.602 159.033 174.063 158.899 175.603C158.911 176.05 158.859 177.475 158.864 177.953C158.717 188.227 158.747 198.986 158.965 209.283L159.182 221.814L159.2 224.947C159.184 225.442 159.256 226.216 159.059 226.713C158.684 228.001 157.309 228.939 156.002 228.866L154.434 228.874C140.841 228.892 127.239 228.202 113.649 228.239L113.65 228.24Z" fill="#711C1C"/>
<path d="M113.65 285.703H156.124C157.448 285.703 158.521 284.67 158.521 283.396V234.911C158.521 233.637 157.448 232.604 156.124 232.604H113.65C112.326 232.604 111.252 233.636 111.252 234.911V283.396C111.252 284.669 112.326 285.703 113.65 285.703Z" fill="white"/>
<path d="M113.65 285.624C127.484 285.659 141.332 284.937 155.17 285.001C155.308 284.995 156.131 285.013 156.268 284.996C157.096 284.948 157.829 284.234 157.837 283.42L157.869 280.36C158.144 265.517 158.454 250.672 158.161 235.826L158.15 235.058C158.219 233.934 157.225 232.994 156.125 233.032C147.924 233.183 139.722 233.295 131.52 233.34C127.611 233.366 117.423 233.441 113.646 233.439C112.844 233.425 112.08 234.105 112.094 234.888L112.09 237.945C112.088 249.775 111.792 262.906 111.471 274.801C111.404 277.344 111.385 279.933 111.356 282.48C111.376 282.99 111.293 283.515 111.432 283.981C111.684 284.944 112.655 285.632 113.65 285.624L113.65 285.624ZM113.65 285.781C112.59 285.8 111.536 285.079 111.249 284.033C111.058 283.163 111.184 281.846 111.137 280.944C111.111 276.869 110.833 266.742 110.737 262.516C110.475 253.309 110.426 244.071 110.417 234.86C110.422 233.444 111.509 232.162 112.878 231.862C113.373 231.735 114.089 231.773 114.605 231.77C117.695 231.773 128.25 231.846 131.52 231.867C139.722 231.913 147.924 232.025 156.125 232.175C157.643 232.153 159.026 233.532 158.894 235.059L158.883 235.827C158.589 250.672 158.899 265.518 159.175 280.361L159.203 283.444C159.224 285.146 157.598 286.52 155.94 286.402L155.171 286.403C141.333 286.468 127.484 285.746 113.65 285.781Z" fill="#711C1C"/>
<path d="M154.617 234.856H146.828C146.048 234.856 145.416 235.487 145.416 236.266C145.416 237.045 146.048 237.676 146.828 237.676H154.617C155.397 237.676 156.03 237.045 156.03 236.266C156.03 235.487 155.397 234.856 154.617 234.856Z" fill="#4D5055"/>
<path d="M119.985 197.642L119.487 197.017L134.612 184.994L151.59 196.572L151.14 197.231L134.649 185.985L119.985 197.642Z" fill="#711C1C"/>
<path d="M137.969 186.003C137.969 187.75 136.55 189.166 134.801 189.166C133.052 189.166 131.634 187.75 131.634 186.003C131.634 184.256 133.052 182.84 134.801 182.84C136.55 182.84 137.969 184.256 137.969 186.003Z" fill="#711C1C"/>
<path d="M151.227 195.961H119.745C118.841 195.961 118.109 196.692 118.109 197.594V215.185C118.109 216.087 118.841 216.818 119.745 216.818H151.227C152.13 216.818 152.863 216.087 152.863 215.185V197.594C152.863 196.692 152.13 195.961 151.227 195.961Z" fill="#B21944"/>
<path d="M151.227 216.899C141.073 216.954 130.883 217.921 120.72 217.377L119.873 217.349C118.806 217.408 117.702 216.481 117.675 215.38C117.822 210.886 117.921 206.278 117.838 201.8C117.825 200.671 117.802 199.543 117.766 198.415L117.743 197.563C117.719 196.485 118.653 195.531 119.745 195.525C124.264 195.371 128.784 195.257 133.304 195.211C138.911 195.137 144.637 195.063 150.252 195.144L151.1 195.152C152.336 195.072 153.564 196.11 153.622 197.369C153.635 197.928 153.603 198.587 153.596 199.133C153.566 200.196 153.44 203.108 153.389 204.21L153.086 210.98C153.027 212.108 153.016 213.236 152.982 214.365L152.967 215.213C152.962 216.129 152.141 216.924 151.227 216.898V216.899ZM151.227 216.739C151.766 216.735 152.289 216.434 152.55 215.968C152.843 215.511 152.742 214.933 152.744 214.366C152.71 213.238 152.699 212.11 152.641 210.981L152.337 204.212C152.246 202.545 152.136 199.181 152.089 197.514C152.04 197.144 151.738 196.84 151.377 196.783C151.287 196.763 150.39 196.78 150.252 196.781C144.633 196.864 138.914 196.785 133.304 196.714C128.784 196.667 124.265 196.553 119.745 196.4C119.103 196.363 118.494 196.919 118.478 197.576L118.453 198.416C118.293 204.011 118.315 209.73 118.56 215.3C118.617 215.707 118.897 216.065 119.263 216.21C119.558 216.36 120.367 216.259 120.72 216.262L124.109 216.156C133.152 215.849 142.189 216.736 151.226 216.74L151.227 216.739Z" fill="#711C1C"/>
<path d="M124.951 210.094C124.436 210.094 123.957 210.014 123.515 209.854C123.074 209.694 122.689 209.445 122.365 209.109C122.04 208.772 121.785 208.347 121.599 207.833C121.414 207.319 121.321 206.714 121.321 206.015C121.321 205.426 121.41 204.901 121.587 204.442C121.764 203.984 122.011 203.595 122.327 203.274C122.644 202.955 123.025 202.711 123.472 202.542C123.918 202.373 124.415 202.29 124.963 202.29C125.511 202.29 126.007 202.378 126.449 202.555C126.891 202.732 127.266 202.991 127.575 203.332C127.882 203.673 128.12 204.091 128.289 204.588C128.458 205.085 128.541 205.653 128.541 206.293C128.541 206.899 128.458 207.438 128.289 207.909C128.12 208.381 127.88 208.778 127.568 209.102C127.257 209.426 126.879 209.673 126.437 209.841C125.994 210.01 125.499 210.093 124.951 210.093L124.951 210.094ZM125.114 208.314C125.181 208.314 125.257 208.305 125.342 208.289C125.57 208.247 125.751 208.116 125.886 207.897C126.02 207.679 126.088 207.329 126.088 206.85C126.088 206.732 126.084 206.6 126.076 206.452C126.067 206.305 126.05 206.122 126.025 205.903C125.958 205.247 125.814 204.777 125.595 204.495C125.376 204.213 125.111 204.072 124.799 204.072C124.621 204.072 124.47 204.113 124.343 204.192C124.217 204.272 124.109 204.377 124.02 204.508C123.933 204.639 123.867 204.792 123.825 204.969C123.782 205.146 123.762 205.335 123.762 205.537C123.762 205.654 123.766 205.787 123.774 205.934C123.783 206.082 123.8 206.265 123.825 206.483C123.892 207.107 124.046 207.567 124.287 207.866C124.527 208.165 124.803 208.315 125.115 208.315L125.114 208.314Z" fill="white"/>
<path d="M129.907 202.442C130.202 202.425 130.529 202.415 130.888 202.41C131.245 202.406 131.606 202.404 131.969 202.404H132.12C133.368 202.404 134.268 202.62 134.82 203.054C135.372 203.487 135.648 204.154 135.648 205.055C135.648 205.56 135.577 205.992 135.433 206.349C135.29 206.707 135.082 207 134.808 207.227C134.534 207.455 134.199 207.621 133.802 207.726C133.406 207.832 132.955 207.884 132.45 207.884H131.944V209.614C131.944 209.706 131.918 209.785 131.868 209.848C131.818 209.911 131.737 209.946 131.627 209.955C131.492 209.963 131.357 209.97 131.223 209.974C131.088 209.978 130.945 209.98 130.793 209.98H130.37C130.264 209.98 130.174 209.976 130.098 209.967C129.887 209.95 129.74 209.895 129.655 209.803C129.571 209.71 129.529 209.542 129.529 209.298V204.184C129.529 203.923 129.527 203.689 129.523 203.483C129.519 203.277 129.516 203.076 129.516 202.883C129.516 202.724 129.544 202.611 129.599 202.548C129.654 202.485 129.757 202.45 129.909 202.441L129.907 202.442ZM131.943 204.096V206.217H132.259C132.554 206.217 132.784 206.148 132.948 206.009C133.113 205.869 133.195 205.59 133.195 205.168C133.195 204.789 133.121 204.514 132.974 204.342C132.826 204.169 132.588 204.082 132.259 204.082H132.101C132.055 204.082 132.002 204.087 131.943 204.096Z" fill="white"/>
<path d="M141.148 204.159C140.828 204.167 140.461 204.172 140.049 204.172H138.898C138.915 204.292 138.923 204.421 138.923 204.558V205.446L141.023 205.433C141.149 205.433 141.234 205.458 141.276 205.509C141.317 205.559 141.339 205.655 141.339 205.797C141.339 205.939 141.337 206.079 141.333 206.216C141.329 206.353 141.317 206.465 141.301 206.548C141.276 206.74 141.218 206.87 141.13 206.937C141.042 207.003 140.922 207.036 140.77 207.036L138.923 207.012V207.618C138.923 207.711 138.922 207.807 138.917 207.908C138.913 208.009 138.907 208.106 138.898 208.198H141.465C141.608 208.198 141.71 208.225 141.769 208.28C141.827 208.335 141.857 208.434 141.857 208.577C141.857 208.872 141.844 209.121 141.819 209.323C141.794 209.567 141.73 209.738 141.63 209.835C141.529 209.931 141.364 209.98 141.137 209.98H137.343C137.023 209.98 136.804 209.911 136.685 209.772C136.567 209.632 136.508 209.429 136.508 209.159V204.196C136.508 203.935 136.506 203.691 136.502 203.463C136.498 203.237 136.49 203.017 136.482 202.807C136.474 202.648 136.499 202.542 136.558 202.491C136.617 202.442 136.723 202.416 136.875 202.416C137.279 202.416 137.697 202.414 138.126 202.409C138.556 202.405 138.974 202.403 139.378 202.403H141.44C141.583 202.403 141.684 202.43 141.743 202.485C141.802 202.539 141.832 202.637 141.832 202.779C141.832 203.047 141.819 203.281 141.794 203.482C141.769 203.724 141.705 203.896 141.604 203.996C141.504 204.096 141.351 204.15 141.148 204.159Z" fill="white"/>
<path d="M144.79 209.614C144.79 209.715 144.771 209.791 144.733 209.841C144.696 209.891 144.621 209.925 144.512 209.942C144.334 209.967 144.128 209.98 143.893 209.98H143.753C143.678 209.98 143.578 209.978 143.456 209.974C143.334 209.97 143.248 209.962 143.197 209.955C143.002 209.93 142.87 209.863 142.799 209.753C142.727 209.643 142.691 209.467 142.691 209.223V204.109C142.691 203.881 142.688 203.65 142.684 203.414C142.68 203.178 142.678 202.993 142.678 202.858C142.678 202.699 142.701 202.587 142.747 202.524C142.794 202.461 142.876 202.425 142.994 202.416C143.087 202.408 143.207 202.404 143.355 202.404H143.854C144.031 202.404 144.176 202.412 144.29 202.428C144.405 202.445 144.499 202.473 144.575 202.511C144.651 202.549 144.718 202.605 144.777 202.682C144.836 202.758 144.899 202.85 144.966 202.96L147.028 206.256H147.053V202.708C147.053 202.615 147.072 202.546 147.109 202.499C147.147 202.452 147.225 202.425 147.344 202.416C147.453 202.408 147.563 202.404 147.672 202.404H148.153C148.229 202.404 148.318 202.406 148.419 202.41C148.52 202.415 148.6 202.421 148.659 202.428C148.853 202.445 148.982 202.5 149.045 202.593C149.108 202.685 149.14 202.871 149.14 203.148V209.588C149.14 209.706 149.113 209.784 149.058 209.821C149.003 209.86 148.925 209.895 148.824 209.929C148.68 209.971 148.445 209.992 148.116 209.992H147.99C147.72 209.992 147.505 209.942 147.345 209.841C147.185 209.74 147.025 209.567 146.864 209.323L144.803 206.167H144.778V208.793C144.778 208.937 144.779 209.083 144.784 209.236C144.788 209.386 144.791 209.513 144.791 209.615L144.79 209.614Z" fill="white"/>
<path d="M290.44 259.928H188.096V264.091H290.44V259.928Z" fill="#EFE5D0"/>
<path d="M287.596 168.266H188.987C186.339 168.266 184.192 170.409 184.192 173.053V255.114C184.192 257.758 186.339 259.901 188.987 259.901H287.596C290.244 259.901 292.39 257.758 292.39 255.114V173.053C292.39 170.409 290.244 168.266 287.596 168.266Z" fill="white"/>
<path d="M188.987 259.822C221.122 259.766 254.8 258.98 286.907 259.241C290.01 259.488 292.086 257.268 291.803 254.153C291.891 246.644 291.976 234.184 292.062 226.651C292.161 209.733 292.163 191.614 292.023 174.702L292.011 173.174C292.096 170.777 289.985 168.631 287.595 168.703C254.704 168.954 221.814 169.163 188.923 169.091C186.991 169.09 185.232 170.658 185.037 172.583C184.934 173.334 185.042 176.208 185 177.07C184.996 200.556 184.455 226.856 184.331 250.409L184.316 253.465C184.339 254.484 184.209 255.515 184.503 256.469C185.051 258.4 186.961 259.839 188.987 259.822ZM188.987 259.981C186.894 260.02 184.888 258.549 184.294 256.532C183.976 255.518 184.102 254.472 184.068 253.465L184.054 250.409C183.996 231.349 183.504 208.296 183.432 189.294C183.389 185.219 183.388 181.145 183.384 177.071C183.427 176.1 183.314 173.428 183.42 172.393C183.616 170.606 184.74 168.973 186.319 168.12C187.327 167.548 188.533 167.405 189.675 167.444C222.315 167.364 254.955 167.585 287.595 167.83C290.442 167.796 292.907 170.355 292.768 173.175L292.756 174.703C292.618 191.616 292.614 209.734 292.717 226.651C292.715 234.907 293.021 247.523 292.949 255.75C292.661 258.718 289.841 260.845 286.905 260.563C254.807 260.831 221.112 260.029 188.984 259.982L188.987 259.981Z" fill="#711C1C"/>
<path d="M284.744 172.712H191.84C190.516 172.712 189.443 173.783 189.443 175.105V253.061C189.443 254.383 190.516 255.454 191.84 255.454H284.744C286.068 255.454 287.141 254.383 287.141 253.061V175.105C287.141 173.783 286.068 172.712 284.744 172.712Z" fill="white"/>
<path d="M191.84 255.375C222.089 255.311 253.654 254.5 283.877 254.813L284.574 254.82C284.835 254.826 284.943 254.815 285.13 254.783C285.808 254.647 286.378 254.078 286.507 253.395C286.703 246.024 286.684 234.466 286.812 227.049C286.92 210.683 286.907 193.278 286.75 176.917C286.69 176.358 286.861 174.834 286.565 174.322C286.258 173.612 285.508 173.132 284.744 173.149C254.994 173.444 225.245 173.589 195.496 173.535L192.707 173.531C192.612 173.537 191.655 173.507 191.495 173.569C190.309 173.885 190.18 174.88 190.255 176.052C190.234 194.441 189.939 216.004 189.665 234.54C189.56 239.919 189.611 245.844 189.552 251.251C189.615 251.905 189.393 253.337 189.726 253.972C190.068 254.802 190.935 255.38 191.84 255.375ZM191.84 255.535C190.327 255.576 189.147 254.106 189.341 252.642L189.334 251.25L189.305 245.68C189.309 238.259 189.014 219.944 188.917 212.258C188.757 201.118 188.65 189.977 188.634 178.837L188.63 176.052C188.647 175.566 188.585 175.197 188.685 174.512C188.907 173.276 189.906 172.238 191.138 171.974C207.448 171.699 223.799 171.964 240.12 171.962C254.994 172.009 269.869 172.123 284.744 172.276C286.435 172.232 287.779 173.932 287.543 175.525L287.531 176.918C287.375 193.279 287.356 210.684 287.468 227.05C287.495 234.595 287.766 246.103 287.688 253.618C287.459 255.067 286.021 256.179 284.573 256.091L283.876 256.098C253.662 256.419 222.08 255.593 191.839 255.536L191.84 255.535Z" fill="#711C1C"/>
<g opacity="0.16">
<path d="M287.14 230.165C259.314 229.905 224.865 233.534 189.442 246.991V255.455H287.14V230.165Z" fill="#B8B5A4"/>
</g>
<path d="M147.074 46.0824H142.281V79.5925H147.074V46.0824Z" fill="#711C1C"/>
<path d="M197.122 46.0824H192.328V79.5925H197.122V46.0824Z" fill="#711C1C"/>
<path d="M247.169 46.0824H242.375V79.5925H247.169V46.0824Z" fill="#711C1C"/>
<path d="M310.9 179.131L311.049 174.878L304.424 174.647L304.681 167.263L302.907 167.202L300.964 222.846L302.739 222.908L303.019 214.875L309.644 215.105L309.793 210.852L303.168 210.622L304.275 178.9L310.9 179.131Z" fill="#711C1C"/>
<path d="M309.293 171.543L307.643 218.798C307.556 221.278 309.499 223.358 311.982 223.445L326.414 223.947C328.897 224.034 330.98 222.094 331.067 219.614L332.717 172.359C332.803 169.879 330.861 167.799 328.378 167.712L313.945 167.21C311.462 167.124 309.379 169.064 309.293 171.543Z" fill="#B21944"/>
<path d="M326.412 224.068C323.25 223.969 320.087 223.901 316.921 223.926C314.48 223.752 311.91 224.487 309.603 223.417C307.957 222.58 306.831 220.818 306.782 218.953C306.56 207.314 307.865 195.038 308.491 183.423C308.635 180.267 308.745 177.11 308.803 173.952L308.847 171.583C308.802 168.865 311.208 166.487 313.97 166.557C317.135 166.571 320.302 166.536 323.464 166.593C323.889 166.587 328.609 166.647 328.893 166.686C331.643 166.935 333.905 169.45 333.874 172.209C333.776 177.624 333.637 183.432 333.423 188.827C333.113 198.301 332.28 207.759 331.479 217.207C331.301 218.788 331.503 220.529 330.556 221.902C329.681 223.302 328.04 224.15 326.412 224.069V224.068ZM326.421 223.829C327.961 223.868 329.495 223.045 330.254 221.714C331.077 220.342 330.787 218.704 330.827 217.183C330.817 214.022 330.736 210.858 330.696 207.696C330.55 201.369 330.7 195.052 330.868 188.736C331.03 183.369 331.305 177.582 331.559 172.204C331.615 170.337 330.03 168.767 328.137 168.761L323.399 168.49C320.239 168.327 317.083 168.072 313.924 167.865C311.824 167.678 309.808 169.463 309.74 171.612L309.618 173.979C309.288 180.291 309.163 186.608 309.216 192.931C309.262 200.386 309.218 209.242 308.674 216.618L308.513 218.954C308.372 221.013 310.063 222.849 312.21 222.929C316.939 223.35 321.678 223.661 326.422 223.828L326.421 223.829Z" fill="#711C1C"/>
<path d="M324.931 179.39C324.91 179.978 324.789 180.521 324.568 181.021C324.35 181.52 324.047 181.949 323.665 182.31C323.282 182.671 322.828 182.949 322.301 183.143C321.774 183.337 321.193 183.424 320.56 183.402C319.926 183.379 319.352 183.252 318.839 183.022C318.323 182.792 317.888 182.483 317.53 182.096C317.172 181.71 316.9 181.26 316.715 180.747C316.529 180.234 316.446 179.683 316.467 179.095C316.487 178.508 316.608 177.964 316.829 177.465C317.049 176.965 317.351 176.536 317.736 176.177C318.119 175.819 318.576 175.541 319.105 175.347C319.634 175.153 320.216 175.068 320.851 175.091C321.483 175.113 322.057 175.239 322.568 175.472C323.081 175.704 323.515 176.013 323.871 176.397C324.226 176.782 324.498 177.231 324.683 177.744C324.867 178.257 324.951 178.805 324.931 179.39ZM322.998 179.323C323.013 178.92 322.973 178.557 322.879 178.231C322.787 177.905 322.646 177.629 322.458 177.398C322.27 177.168 322.038 176.988 321.758 176.859C321.479 176.73 321.158 176.659 320.798 176.645C320.432 176.633 320.104 176.682 319.816 176.791C319.527 176.901 319.28 177.064 319.077 177.28C318.873 177.496 318.714 177.763 318.597 178.082C318.481 178.4 318.417 178.761 318.404 179.162C318.389 179.567 318.428 179.934 318.521 180.259C318.614 180.583 318.755 180.862 318.942 181.092C319.13 181.322 319.364 181.501 319.646 181.628C319.927 181.755 320.25 181.825 320.616 181.838C320.977 181.851 321.301 181.803 321.589 181.696C321.876 181.588 322.121 181.427 322.325 181.21C322.529 180.994 322.688 180.726 322.804 180.408C322.92 180.091 322.986 179.727 322.999 179.323H322.998Z" fill="white" stroke="white" stroke-miterlimit="10"/>
<path d="M319.251 191.723L319.156 194.441L317.267 194.376L317.551 186.243L320.425 186.343C320.998 186.363 321.488 186.448 321.895 186.598C322.302 186.747 322.635 186.947 322.894 187.194C323.151 187.442 323.338 187.73 323.453 188.058C323.57 188.385 323.62 188.738 323.606 189.113C323.592 189.519 323.514 189.889 323.372 190.224C323.229 190.558 323.02 190.84 322.743 191.073C322.466 191.306 322.12 191.483 321.703 191.604C321.287 191.726 320.797 191.777 320.235 191.757L319.251 191.722V191.723ZM319.3 190.299L320.285 190.333C320.775 190.35 321.134 190.246 321.359 190.018C321.584 189.791 321.702 189.467 321.717 189.047C321.723 188.861 321.701 188.691 321.652 188.535C321.602 188.381 321.52 188.247 321.411 188.133C321.3 188.019 321.161 187.93 320.99 187.864C320.817 187.799 320.612 187.762 320.375 187.754L319.391 187.719L319.3 190.297V190.299Z" fill="white" stroke="white" stroke-miterlimit="10"/>
<path d="M322.811 197.603L322.761 199.055L319.418 198.938L319.352 200.836L321.912 200.924L321.863 202.32L319.303 202.231L319.235 204.169L322.578 204.285L322.528 205.737L317.284 205.554L317.568 197.421L322.811 197.603Z" fill="white" stroke="white" stroke-miterlimit="10"/>
<path d="M317.312 208.601C317.368 208.61 317.417 208.626 317.462 208.648C317.506 208.671 317.547 208.7 317.587 208.738C317.627 208.778 317.672 208.829 317.722 208.895L321.42 213.913C321.41 213.757 321.404 213.605 321.402 213.458C321.4 213.311 321.402 213.172 321.406 213.042L321.556 208.737L323.222 208.795L322.939 216.928L321.955 216.894C321.809 216.889 321.687 216.862 321.588 216.814C321.489 216.766 321.395 216.681 321.305 216.558L317.635 211.58C317.64 211.721 317.645 211.861 317.648 211.996C317.65 212.132 317.65 212.26 317.646 212.379L317.494 216.739L315.828 216.68L316.112 208.547L317.107 208.582C317.189 208.584 317.257 208.591 317.312 208.6L317.312 208.601Z" fill="white" stroke="white" stroke-miterlimit="10"/>
<path d="M269.532 79.0348C232.045 79.6651 194.644 79.9667 157.193 80.1415C147.906 80.2013 129.169 80.2053 119.881 80.1973L120.737 79.8678L86.4634 110.626C83.8929 112.995 76.4227 119.587 73.8642 121.904C73.7395 122.017 73.9744 121.824 74.0304 121.628C74.2229 121.134 73.849 120.585 73.3296 120.558C73.2281 120.556 73.3536 120.558 73.3536 120.558L73.7139 120.56C74.9429 120.565 77.483 120.587 78.7543 120.593C157.297 121.93 236.171 120.244 314.712 120.681C314.601 120.718 314.601 120.797 314.651 120.871C314.643 120.871 314.682 120.896 314.615 120.838L314.351 120.597L313.822 120.115C299.045 106.544 284.226 92.8367 269.532 79.0348ZM269.618 78.8113C284.647 91.8384 300.038 105.477 315.023 118.771L315.562 119.254L315.831 119.495C315.856 119.514 315.973 119.63 316.049 119.716C316.939 120.767 316.164 122.541 314.735 122.507L314.553 122.508L314.192 122.509C243.45 123.109 172.519 121.2 101.795 122.423C99.3208 122.427 76.5777 122.625 74.4363 122.624L73.7163 122.629L73.356 122.632C72.843 122.669 72.2701 122.324 72.0959 121.841C71.9776 121.559 71.9616 121.222 72.0751 120.91C72.171 120.598 72.501 120.323 72.465 120.358L72.7303 120.116C72.9509 119.934 74.0551 118.888 74.3228 118.658C75.4071 117.589 83.6188 110.232 84.9588 108.965L119.025 77.9783L119.387 77.6487C129.011 77.6416 147.799 77.6503 157.417 77.7046C194.815 77.8785 232.264 78.1762 269.618 78.8113Z" fill="#711C1C"/>
<path d="M273.143 31.4243C274.096 31.4243 274.704 30.4077 274.251 29.5699L268.259 18.4794C266.156 14.5863 261.818 12.1685 256.939 12.1685C253.815 12.1685 250.931 13.0846 248.532 14.6716C248.135 14.935 247.634 14.9509 247.217 14.7187C245.365 13.6854 243.224 13.0949 240.946 13.0949C238.711 13.0949 236.597 13.5857 234.698 14.5224C234.328 14.7052 233.903 14.7028 233.535 14.5176C231.749 13.62 229.71 13.1165 227.527 13.1165C224.355 13.1165 221.937 14.0644 220.15 15.2158C219.776 15.4568 219.308 15.4624 218.91 15.2629C216.135 13.8689 212.89 13.0965 209.337 13.0957C208.312 13.0957 207.298 13.1675 206.299 13.304C205.638 13.3949 205.033 12.9353 204.915 12.2794C204.649 10.7825 204.138 9.33186 203.379 7.98973C201.567 4.78841 198.502 2.48557 194.967 1.67168C194.018 1.45304 193.045 1.34293 192.073 1.34293C185.836 1.34293 180.468 5.71083 179.019 11.965C179.002 12.0401 178.986 12.1143 178.97 12.1893C178.838 12.8109 178.275 13.2521 177.642 13.1891C177.025 13.1276 176.395 13.0957 175.754 13.0957C174.718 13.0957 173.694 13.1763 172.685 13.3287C172.017 13.4293 171.402 12.9665 171.285 12.3034C171.019 10.7993 170.508 9.34144 169.745 7.99292C167.933 4.79081 164.868 2.48796 161.333 1.67407C160.384 1.45544 159.41 1.34532 158.438 1.34532C154.169 1.34532 150.309 3.39282 147.833 6.6891C147.645 6.43136 147.451 6.17682 147.244 5.93265C144.736 2.9747 141.104 1.34612 137.019 1.34612C131.989 1.34612 127.478 3.76307 124.642 7.97696L121.426 12.7558C121.109 13.2274 121.147 13.853 121.52 14.2815L124.013 17.1476C124.22 17.3846 124.334 17.6934 124.327 18.007C124.211 23.4473 122.595 28.0818 121.163 32.1879C119.896 35.8241 118.801 38.964 118.801 42.3449C118.801 47.2506 121.37 51.4381 125.85 53.8335L130.283 56.2042C130.732 56.4444 131.281 56.3909 131.675 56.0686L133.94 54.2173C134.241 53.9708 134.641 53.8774 135.021 53.9652C135.159 53.9971 135.294 54.0282 135.421 54.0578C136.288 54.2596 137.292 54.4902 138.389 54.6945C138.404 54.7368 138.416 54.7791 138.432 54.8214C142.213 64.9304 154.662 75.8111 173.059 75.8111C181.981 75.8111 190.611 73.4085 197.361 69.0446C203.21 65.264 207.033 60.4835 208.285 55.5451C208.412 55.044 208.812 54.6682 209.322 54.5828C211.695 54.1862 213.975 53.4138 216.098 52.2903C216.517 52.0685 217.028 52.0749 217.412 52.3542C219.611 53.9564 222.348 54.894 225.346 54.894C227.548 54.894 229.748 54.4312 231.882 53.5391C232.224 53.3963 232.606 53.4098 232.94 53.5726C234.676 54.4184 236.624 54.8932 238.681 54.8932C239.512 54.8932 240.343 54.8326 241.17 54.7137C241.654 54.6442 242.127 54.8477 242.412 55.2443C243.13 56.2401 243.974 57.1617 244.935 57.9852C248.183 60.7716 252.426 62.2446 257.205 62.2446C267.091 62.2446 275.443 54.104 275.443 44.469C275.443 39.8912 273.901 36.2462 272.081 33.3513C271.553 32.5111 272.149 31.4235 273.142 31.4235L273.143 31.4243Z" fill="#FFF6E3"/>
<path d="M273.143 31.2647C273.893 31.2855 274.48 30.4181 274.141 29.7343L272.962 27.5559C271.776 25.3616 269.377 20.9961 268.173 18.8153C264.29 11.6427 254.703 11.0083 248.475 15.4169C247.906 15.6411 247.261 15.5334 246.746 15.2294C243.248 13.4061 238.932 13.5186 235.432 15.2198C235.206 15.3291 235.01 15.452 234.721 15.5342C234.092 15.7321 233.42 15.5821 232.85 15.2805C231.098 14.4977 229.166 14.153 227.249 14.244C224.94 14.3389 222.735 15.0084 220.828 16.2763C219.873 16.9226 218.748 16.68 217.85 16.1758C214.389 14.6509 210.455 14.1801 206.693 14.6661C206.197 14.7857 205.47 14.7044 204.983 14.457C204.199 14.082 203.648 13.3215 203.509 12.4725C203.165 10.6477 202.401 8.90257 201.293 7.41921C195.223 -0.672661 182.707 2.35949 180.22 11.9682L180.14 12.2427C179.985 13.1548 179.341 13.9639 178.432 14.2208C177.317 14.4658 176.172 14.0963 175.037 14.1825C174.359 14.1889 173.646 14.2559 172.972 14.3341C172.064 14.5168 171.075 14.0844 170.612 13.312C170.311 12.8524 170.271 12.2866 170.167 11.7975C169.541 8.77729 167.73 6.01404 165.172 4.22507C159.958 0.406946 152.075 1.80254 148.267 7.01226L147.811 7.60592L147.393 7.00587C143.04 0.633559 133.109 0.270498 127.609 5.35574C125.307 7.31308 123.83 10.3245 122.089 12.7662L121.89 13.067C121.782 13.2346 121.749 13.4492 121.807 13.6399C121.855 13.7788 121.957 13.9248 122.064 14.0285L123.98 16.1965L124.462 16.7359C124.924 17.162 124.988 18.0086 124.935 18.5241C124.875 24.6347 122.482 30.5418 120.745 36.2095C118.214 44.3253 120.647 50.5061 128.59 53.9053C128.585 53.8966 130.912 55.1222 130.871 55.0847L131.087 54.9036C131.648 54.4216 132.493 53.7394 133.031 53.2806C133.573 52.7587 134.561 52.4826 135.325 52.6877L135.503 52.7268L135.855 52.8026L138.637 53.3691L139.378 53.5199L139.658 54.2341C148.585 75.4752 178.141 79.2637 196.205 67.7503C200.852 64.7605 205.094 60.7149 206.63 55.3584C206.835 54.4192 207.444 53.5662 208.347 53.1832C209.555 52.7866 210.776 52.7148 211.969 52.2808C213.014 51.9576 214.047 51.5275 215.03 51.0424C215.996 50.4279 217.392 50.3314 218.353 51.0775C222.112 53.9564 227.335 53.9373 231.603 52.1643C232.619 51.7765 233.716 52.434 234.503 52.7747C236.482 53.5942 238.712 53.7753 240.869 53.5303C241.722 53.3803 242.657 53.6915 243.213 54.3554C243.539 54.7567 243.754 55.1302 244.083 55.5116C246.617 58.6363 250.38 60.5976 254.43 61.2176C265.945 63.3026 276.962 53.1816 274.991 41.4424C274.574 38.6528 273.501 35.9821 272.02 33.5835C271.293 32.7018 271.972 31.2216 273.144 31.2647H273.143ZM273.143 31.5839C272.21 31.5695 271.736 32.6922 272.315 33.4C272.822 34.2091 273.287 35.0461 273.697 35.9103C276.188 41.0937 276.473 47.4373 273.729 52.6079C267.96 64.3224 251.137 66.6843 242.334 56.9997C242.054 56.6814 241.698 56.2505 241.443 55.9209C241.417 55.901 241.385 55.8978 241.36 55.9066C240.805 56.0063 240.244 56.0686 239.681 56.1132C237.42 56.3861 234.136 55.747 232.409 54.8246C227.559 57.0404 221.356 57.0085 216.812 53.8631L216.482 53.6372C216.542 53.6955 216.733 53.7466 216.793 53.7202C216.8 53.7234 216.869 53.6907 216.816 53.717L216.478 53.8934C214.327 54.9945 212.005 55.7757 209.623 56.1866C209.574 56.1978 209.661 56.1795 209.675 56.1699C209.766 56.1324 209.838 56.055 209.869 55.9688C209.887 55.9074 209.854 56.0271 209.854 56.0271C206.974 66.2925 196.884 72.5643 187.246 75.4736C168.717 81.2682 144.534 74.4115 137.12 55.1541L138.141 56.0191L135.261 55.3704L134.907 55.2866L134.732 55.2443C134.719 55.2419 134.732 55.2427 134.732 55.2427C134.743 55.2411 134.75 55.2363 134.757 55.2299C134.228 55.6409 133.225 56.4595 132.7 56.8729C132.066 57.461 131.132 57.7698 130.279 57.5368C130.062 57.4889 129.782 57.3628 129.651 57.287L129.333 57.113L128.699 56.7652C127.488 56.0757 126.104 55.3743 124.868 54.6482C120.278 52.0884 117.404 46.8069 117.85 41.578C118.293 35.6598 121.4 30.3718 122.7 24.7679C123.22 22.7013 123.574 20.5995 123.68 18.477C123.714 18.0453 123.766 17.8219 123.544 17.5338C122.607 16.4558 121.996 15.7002 121.195 14.7834C120.588 14.1769 120.453 13.158 120.958 12.4446L121.162 12.1454C122.319 10.4729 123.679 8.39987 124.892 6.76809C126.729 4.41099 129.261 2.58451 132.108 1.65173C137.804 -0.296834 144.697 1.36447 148.271 6.36832L147.397 6.36194C154.45 -3.17419 169.254 -0.179537 172.103 11.3506C172.141 11.5557 172.251 11.9778 172.29 12.1661C172.323 12.2555 172.432 12.3233 172.502 12.3058C174.184 12.0081 175.888 11.9682 177.589 12.0688C177.877 12.0935 177.814 12.0424 177.889 11.7281C181.572 -4.1349 203.249 -3.76227 206.283 11.9738C206.247 11.9307 206.18 11.9028 206.12 11.91C210.455 11.3554 214.963 11.9331 218.935 13.8466L219.488 14.1227C219.517 14.1386 219.493 14.133 219.467 14.157C223.298 11.7336 228.265 11.3562 232.469 12.9569C233.014 13.1588 233.535 13.4221 234.055 13.6774C234.104 13.6926 234.156 13.6966 234.21 13.6862C234.256 13.6726 234.22 13.6926 234.336 13.6399L234.641 13.5027C238.479 11.839 243.075 11.8294 246.81 13.7333C247.813 14.228 247.746 14.4386 248.459 13.9655C249.201 13.5178 249.977 13.1292 250.781 12.8141C257.072 10.2184 265.447 12.2547 268.588 18.5919L270.921 22.9949L273.274 27.3876L274.45 29.5994C274.861 30.4955 274.142 31.6166 273.144 31.5839H273.143Z" fill="#711C1C"/>
<path d="M162.584 15.9316C163.186 13.3295 161.742 10.7753 159.357 10.2263C156.971 9.67737 154.55 11.3411 153.947 13.9431C153.345 16.5452 154.789 19.0994 157.174 19.6484C159.559 20.1974 161.981 18.5337 162.584 15.9316Z" fill="#B21944"/>
<path d="M196.219 15.9292C196.822 13.3271 195.376 10.7729 192.991 10.224C190.606 9.67497 188.184 11.3395 187.582 13.9415C186.979 16.5436 188.425 19.0978 190.81 19.6468C193.195 20.1958 195.617 18.5313 196.219 15.9292Z" fill="#B21944"/>
<path d="M149.433 46.7854C154.71 54.3586 161.287 58.3802 171.518 58.3802C182.867 58.3802 191.106 53.2574 195.899 46.5787C198.943 48.2025 199.954 50.0298 199.954 52.0198C199.954 57.7514 189.266 67.033 173.058 67.033C159.067 67.033 149.408 59.0824 146.664 51.7485C145.675 49.105 147.172 46.8261 149.433 46.7854Z" fill="#B21944"/>
<path d="M266.653 44.47C266.653 49.2305 262.353 53.4683 257.205 53.4683C251.527 53.4683 248.376 50.0444 248.376 46.6165C248.376 43.1885 250.909 40.7971 254.016 41.9581C253.296 42.4808 253.067 43.1367 253.067 43.8205C253.067 44.7876 253.81 45.9957 255.376 45.9957C256.676 45.9957 257.9 44.8817 257.9 42.9404C257.9 40.0391 254.444 37.1386 252.255 33.401C251.883 35.4134 251.078 37.2718 249.815 39.0265C246.978 42.9675 242.886 46.1177 238.68 46.1177C236.636 46.1177 234.325 44.5586 234.325 41.7498C234.325 41.437 234.342 41.1131 234.373 40.7843C231.797 43.8859 228.531 46.1185 225.346 46.1185C222.993 46.1185 220.865 44.5929 220.865 41.7498C220.865 38.2684 224.143 31.557 224.143 26.8412C224.143 25.9228 223.88 24.8767 223.286 24.2C224.246 22.9688 225.317 21.894 227.527 21.894C229.67 21.894 231.683 23.383 231.683 25.8127C231.683 29.2749 229.409 34.3681 229.409 37.3101C229.409 38.207 229.995 38.7328 230.836 38.7328C233.975 38.7328 237.54 31.2985 237.54 26.8404C237.54 25.8909 237.237 24.7897 236.704 23.9726C237.664 22.7414 238.986 21.8733 240.946 21.8733C242.837 21.8733 244.895 23.3542 244.895 25.606C244.895 29.2988 242.786 35.0177 242.786 37.3069C242.786 38.0985 243.256 38.7336 244.266 38.7336C246.974 38.7336 250.498 32.6645 250.498 27.5841C250.498 27.5841 250.501 27.5258 250.502 27.4979C250.547 23.3766 253.79 20.9477 256.938 20.9477C258.82 20.9477 260.043 21.76 260.524 22.6497C258.699 22.6497 257.794 24.4067 257.794 26.3816C257.793 32.8018 266.654 36.3055 266.654 44.4716L266.653 44.47ZM156.002 21.8725C154.043 21.8725 152.641 22.7542 151.614 24.2056C152.243 24.9988 152.597 26.0353 152.597 27.6655C152.597 30.862 149.382 39.0991 149.382 41.7754C149.382 44.4517 151.694 46.1169 153.738 46.1169C155.5 46.1169 157.69 45.0302 158.955 43.0936C158.081 42.164 157.553 40.5857 157.553 38.8621C157.553 36.1396 159.951 29.5015 159.951 25.8095C159.951 23.5577 158.108 21.8741 156.002 21.8741V21.8725ZM189.655 21.8725C187.696 21.8725 186.294 22.7542 185.265 24.2056C185.896 24.9988 186.249 26.0353 186.249 27.6655C186.249 30.862 183.034 39.0991 183.034 41.7754C183.034 44.4517 185.345 46.1169 187.389 46.1169C189.151 46.1169 191.341 45.0302 192.606 43.0936C191.734 42.164 191.205 40.5857 191.205 38.8621C191.205 36.1396 193.603 29.5015 193.603 25.8095C193.603 23.5577 191.759 21.8741 189.654 21.8741L189.655 21.8725ZM219.909 31.415C219.909 39.1143 213.601 46.1169 205.59 46.1169C200.062 46.1169 195.016 43.1558 195.016 36.5744C195.016 28.8751 201.327 21.8725 209.336 21.8725C214.84 21.8725 219.909 24.8344 219.909 31.415ZM211.874 34.5237C212.569 30.5939 211.345 27.3399 208.934 26.9154C206.523 26.4917 203.754 29.535 203.058 33.4641C202.37 37.3612 203.798 40.6854 206.207 41.1091C208.619 41.5336 211.18 38.4536 211.874 34.5237ZM175.412 30.4527C176 31.2482 176.984 31.8427 178.478 31.8427C180.636 31.8427 182.284 29.8462 182.284 26.826C182.284 24.3596 180.036 21.8725 175.754 21.8725C168.202 21.8725 161.364 29.0523 161.364 36.8753C161.364 42.4185 165.024 46.1169 170.985 46.1169C176.758 46.1169 180.997 42.5031 180.997 38.9946C180.997 38.065 180.282 37.3843 179.077 37.2319C177.794 39.2643 175.692 40.2864 173.736 40.2864C171.313 40.2864 169.294 38.1041 169.294 35.1533C169.294 31.233 172.341 26.9162 174.903 26.9162C175.893 26.9162 176.386 27.529 176.386 28.4602C176.386 29.2382 176.133 29.855 175.412 30.4527ZM145.002 36.5529C143.934 37.8735 140.858 38.5286 136.125 37.9525C139.502 29.5366 141.763 21.519 141.763 15.5863C141.763 12.2533 140.071 10.1229 137.018 10.1229C135.21 10.1229 133.264 10.9 131.937 12.8717C132.822 13.8899 133.123 15.7579 133.123 17.3777C133.123 29.1895 127.59 37.4881 127.59 42.3443C127.59 44.3455 128.753 45.4299 129.998 46.0954C130.888 45.3677 132.435 44.8546 133.523 44.8546C136.022 44.8546 139.862 46.5167 143.929 46.4521C146.49 46.4114 147.873 43.7487 147.841 41.7099C147.813 39.9529 146.787 37.7857 145.001 36.5529H145.002Z" fill="#484848"/>
<path d="M141.398 78.9693C137.394 84.4551 129.26 95.41 125.167 100.826C119.837 108.203 114.267 115.357 107.62 121.643L107.432 121.495C112.022 113.585 117.705 106.521 123.663 99.6383C127.99 94.4182 136.797 83.9684 141.211 78.8209L141.398 78.9693Z" fill="#711C1C"/>
<path d="M162.745 78.9462C160.121 85.2403 156.148 94.3048 153.361 100.642C150.331 107.95 147.016 115.087 142.462 121.62L142.245 121.517C144.434 113.863 147.875 106.785 151.629 99.821L157.025 89.3066C158.861 85.8196 160.665 82.3175 162.529 78.8432L162.745 78.9462Z" fill="#711C1C"/>
<path d="M184.166 78.9135C183.521 85.1118 182.41 94.0878 181.623 100.366C180.89 107.564 179.836 114.676 177.422 121.557L177.186 121.519C177.013 114.231 178.204 107.14 179.729 100.067L181.77 89.4622C182.491 85.9337 183.178 82.3996 183.929 78.876L184.166 78.9135Z" fill="#711C1C"/>
<path d="M248.346 78.848C252.768 84.0051 261.563 94.4373 265.894 99.6654C271.852 106.548 277.535 113.612 282.125 121.522L281.937 121.67C275.291 115.384 269.72 108.231 264.39 100.853C260.302 95.4435 252.155 84.4735 248.159 78.9965L248.346 78.848Z" fill="#711C1C"/>
<path d="M227.028 78.8704C230.252 84.8796 234.773 93.6848 237.928 99.8481C241.682 106.813 245.124 113.89 247.312 121.544L247.095 121.647C242.54 115.115 239.225 107.977 236.195 100.669L231.449 89.8468C229.905 86.2217 228.329 82.6111 226.812 78.9733L227.028 78.8704Z" fill="#711C1C"/>
<path d="M205.627 78.9031C206.927 84.9985 208.64 93.8788 209.828 100.094C211.353 107.168 212.544 114.257 212.371 121.546L212.135 121.584C209.721 114.703 208.667 107.591 207.934 100.393L206.603 89.676C206.2 86.0973 205.763 82.5241 205.391 78.9406L205.627 78.9031Z" fill="#711C1C"/>
</g>
<defs>
<clipPath id="clip0_3612_69823">
<rect width="375" height="290.414" fill="white"/>
</clipPath>
</defs>
</svg>
