<svg width="241" height="150" viewBox="0 0 241 150" fill="none" xmlns="http://www.w3.org/2000/svg">
<g id="Frame 29060">
<g id="Group">
<g id="Group_2">
<g id="Group_3">
<g id="Group_4">
<path id="Vector" d="M143.079 67.3634C143.079 79.763 131.274 88.9259 119.124 88.9259C106.975 88.9259 97.2646 80.2165 97.2646 67.8013C97.2646 55.386 107.585 43.7057 119.734 43.7057C131.868 43.7213 143.079 54.9638 143.079 67.3634Z" fill="#D11243"/>
</g>
<g id="Group_5">
<path id="Vector_2" d="M143.157 67.3634L143.204 68.0983C143.22 68.3485 143.235 68.5987 143.22 68.8489C143.204 69.3492 143.22 69.8496 143.142 70.3343L143.063 71.0848C143.032 71.335 142.97 71.5696 142.938 71.8198L142.876 72.1794L142.845 72.367L142.798 72.5547L142.61 73.2739C142.579 73.399 142.547 73.5085 142.516 73.6336L142.391 73.9932L142.157 74.6968C142.078 74.9314 141.969 75.1659 141.875 75.3848C141.781 75.6194 141.687 75.8539 141.578 76.0728L141.25 76.7452C141.14 76.9641 141.031 77.1986 140.906 77.4019L140.53 78.0586C140.468 78.1681 140.405 78.2775 140.343 78.387L140.139 78.6997C139.029 80.3728 137.685 81.8895 136.184 83.2186C134.667 84.5477 132.978 85.6735 131.196 86.5961C129.397 87.5186 127.505 88.2379 125.535 88.7539C123.565 89.2542 121.532 89.4888 119.515 89.4419C119.015 89.4262 118.499 89.4262 117.998 89.3793L117.248 89.3168L116.873 89.2855C116.748 89.2699 116.622 89.2542 116.497 89.2386C115.997 89.1604 115.497 89.0822 115.012 89.0041C114.527 88.8946 114.027 88.7851 113.542 88.6757C111.603 88.1753 109.727 87.4561 107.96 86.5492L108.023 86.4084C109.946 86.8932 111.838 87.3153 113.761 87.5968C114.246 87.6437 114.73 87.7062 115.2 87.7688C115.684 87.8157 116.169 87.847 116.638 87.8782C116.763 87.8782 116.873 87.8939 116.998 87.9095H117.357L118.077 87.9252C118.311 87.9252 118.561 87.9564 118.796 87.9408L119.515 87.9252C121.423 87.8626 123.33 87.6593 125.207 87.2841C127.083 86.9088 128.928 86.3302 130.664 85.5172C132.4 84.7041 134.041 83.6877 135.542 82.4681C137.044 81.2641 138.388 79.8725 139.53 78.3088L139.749 78.0274C139.827 77.9335 139.889 77.8241 139.952 77.7303L140.343 77.1205C140.483 76.9172 140.593 76.7139 140.718 76.495L141.078 75.8696C141.187 75.6506 141.281 75.4317 141.39 75.2128C141.5 74.9939 141.609 74.775 141.703 74.5561L141.969 73.8837L142.11 73.5397C142.157 73.4303 142.188 73.3052 142.219 73.1957L142.438 72.5077L142.485 72.3357L142.532 72.1637L142.61 71.8041C142.657 71.5696 142.719 71.335 142.782 71.1005L142.891 70.3812C142.985 69.8965 143.001 69.4118 143.048 68.927C143.079 68.6769 143.063 68.4423 143.063 68.1921V67.4572L143.157 67.3634Z" fill="#6C1629"/>
</g>
<g id="Group_6">
<path id="Vector_3" d="M105.505 84.6883C104.551 84.0159 103.66 83.2654 102.815 82.4367C102.002 81.6079 101.236 80.701 100.548 79.7472C100.376 79.5127 100.22 79.2625 100.063 79.0123C99.9851 78.8872 99.9069 78.7621 99.8287 78.637L99.6098 78.2461L99.3909 77.8552C99.3127 77.7301 99.2345 77.605 99.1876 77.4643L98.7967 76.6669C98.7342 76.5418 98.6716 76.401 98.6091 76.2603L98.4371 75.8538L98.2651 75.4472C98.2025 75.3065 98.1556 75.1658 98.1087 75.0251L97.8116 74.1963L97.5614 73.3363C97.5302 73.1956 97.4833 73.0549 97.4363 72.9142L97.3425 72.4763C97.28 72.1949 97.2018 71.8978 97.1549 71.6007C97.0611 71.0222 96.9516 70.428 96.9047 69.8338C96.764 68.6611 96.7483 67.4727 96.7953 66.2844C96.9047 63.9076 97.3894 61.5466 98.1869 59.3106C98.5778 58.1848 99.0625 57.0902 99.5942 56.0269C100.126 54.9637 100.751 53.9317 101.424 52.9466C101.596 52.712 101.768 52.4462 101.94 52.2117L102.487 51.508C102.675 51.2735 102.878 51.0546 103.065 50.82C103.253 50.5855 103.456 50.3666 103.675 50.1633C104.082 49.7255 104.52 49.319 104.957 48.9124C105.411 48.5215 105.864 48.1306 106.349 47.771C108.257 46.3168 110.399 45.1753 112.682 44.4404C113.823 44.0808 114.98 43.815 116.169 43.6743C117.357 43.5492 118.53 43.5179 119.702 43.6273V43.7837C118.545 43.9088 117.404 44.0964 116.294 44.3779L115.465 44.6124C115.184 44.6906 114.918 44.7844 114.652 44.8782C114.511 44.9252 114.386 44.9721 114.245 45.019L113.854 45.1753C113.589 45.2848 113.323 45.363 113.073 45.4881C112.025 45.9259 111.024 46.4575 110.07 47.0517C109.836 47.2081 109.586 47.3488 109.351 47.5052L108.648 47.9742C108.413 48.1306 108.194 48.3182 107.975 48.4746C107.741 48.6466 107.537 48.8186 107.319 49.0062C106.443 49.7099 105.63 50.4917 104.848 51.3048C104.066 52.1179 103.331 52.9779 102.659 53.8848C101.283 55.6829 100.173 57.6688 99.344 59.7797C98.5153 61.8906 97.9836 64.1265 97.796 66.3938C97.7178 67.5196 97.6865 68.6611 97.7804 69.8025C97.8116 70.3811 97.8898 70.9283 97.968 71.5069C97.9993 71.7883 98.0618 72.0698 98.1243 72.3512L98.2025 72.7734C98.2338 72.9142 98.2651 73.0549 98.2963 73.1956L98.4996 74.0243L98.7498 74.8374C98.7967 74.9781 98.828 75.1189 98.8749 75.244L99.0313 75.6505L99.1876 76.0571C99.2345 76.1978 99.2814 76.3229 99.344 76.448L99.688 77.2298C99.7349 77.3549 99.8131 77.4956 99.8756 77.6207L100.079 77.996L100.282 78.3869C100.345 78.512 100.423 78.637 100.501 78.7621C100.657 79.0123 100.783 79.2625 100.939 79.497C101.564 80.4665 102.268 81.3734 103.05 82.2334C103.832 83.0778 104.692 83.8596 105.599 84.5788L105.505 84.6883Z" fill="#6C1629"/>
</g>
</g>
<g id="Group_7">
<g id="Group_8">
<path id="Vector_4" d="M132.587 56.7169L108.554 80.7499C108.163 81.1408 107.553 81.1408 107.162 80.7499L106.99 80.5779C106.005 79.5928 105.974 77.9979 106.912 76.9659L128.209 53.9337C129.085 52.9955 130.554 52.9642 131.461 53.8711L132.556 54.9656C133.072 55.4504 133.072 56.2478 132.587 56.7169Z" fill="#EFECE7"/>
</g>
<g id="Group_9">
<path id="Vector_5" d="M129.022 80.5779L104.973 56.5449C104.582 56.154 104.582 55.5441 104.973 55.1532L105.145 54.9812C106.13 53.9961 107.725 53.9649 108.757 54.9031L131.789 76.2153C132.727 77.091 132.759 78.5608 131.852 79.4677L130.757 80.5622C130.288 81.0626 129.491 81.0626 129.022 80.5779Z" fill="#EFECE7"/>
</g>
</g>
<g id="Group_10">
<path id="Vector_6" d="M132.525 55.0272L131.68 54.1829C131.539 54.0421 131.399 53.9014 131.258 53.7763C131.102 53.6669 130.945 53.5418 130.758 53.4792C130.414 53.3229 130.007 53.276 129.632 53.3072C129.257 53.3542 128.881 53.4949 128.569 53.7294L128.459 53.8232C128.428 53.8545 128.397 53.8858 128.35 53.9171C128.287 53.9796 128.209 54.0578 128.146 54.136L127.74 54.5738L126.927 55.4494L125.316 57.2163L122.095 60.7658L118.905 64.3152L118.78 64.4559L118.64 64.3308C116.482 62.3919 114.324 60.4687 112.182 58.5298L108.961 55.6214L108.554 55.2618C108.476 55.1992 108.429 55.1523 108.366 55.1054C108.304 55.0585 108.241 55.0116 108.179 54.9803C107.913 54.824 107.616 54.7145 107.319 54.6676C106.709 54.5894 106.068 54.7614 105.599 55.1523L105.427 55.3087L105.333 55.4025C105.302 55.4338 105.255 55.4807 105.255 55.4807C105.177 55.5589 105.13 55.6527 105.114 55.7621C105.099 55.8716 105.114 55.9811 105.145 56.0749C105.161 56.1218 105.192 56.1687 105.224 56.2156C105.239 56.2312 105.255 56.2469 105.27 56.2781L105.364 56.372L106.912 57.9043L110.008 60.9534L116.185 67.0516L116.544 67.3956L116.2 67.7708L110.556 73.9472L107.741 77.0432L107.397 77.4341L107.272 77.5904L107.162 77.7624C107.022 77.997 106.928 78.2472 106.897 78.513C106.818 79.0446 106.975 79.5919 107.288 79.9984C107.319 80.0453 107.366 80.0922 107.413 80.1548C107.444 80.2017 107.522 80.2642 107.585 80.3268L107.632 80.3737L107.647 80.3893C107.663 80.405 107.678 80.405 107.678 80.4206C107.71 80.4362 107.725 80.4519 107.757 80.4519C107.866 80.4831 108.007 80.4519 108.085 80.3737L109.539 78.9039L112.479 75.9173L118.342 69.9443L118.89 69.397L119.453 69.9443C121.501 71.977 123.565 74.0097 125.613 76.0581C126.63 77.0901 127.662 78.1064 128.678 79.1384L129.444 79.9046L129.538 79.9984L129.585 80.0453L129.616 80.0766H129.632C129.663 80.1079 129.679 80.1235 129.71 80.1392C129.757 80.1704 129.82 80.2017 129.898 80.2017C130.023 80.2173 130.164 80.1704 130.257 80.0766L131.024 79.3261L131.211 79.1384L131.305 79.0446L131.352 78.9977L131.383 78.9664C131.43 78.9195 131.461 78.8883 131.508 78.8257L131.555 78.7475L131.602 78.6693C131.727 78.4661 131.805 78.2315 131.805 77.9813C131.821 77.7468 131.774 77.4966 131.68 77.2777C131.649 77.2308 131.633 77.1683 131.586 77.1213C131.555 77.0744 131.524 77.0119 131.477 76.965C131.446 76.9181 131.399 76.8712 131.352 76.8243C131.336 76.8086 131.305 76.7774 131.258 76.7461L131.164 76.6523L128.037 73.6501L121.829 67.5832L121.517 67.2861L121.814 67.0047L124.863 64.1119C125.879 63.1425 126.896 62.1887 127.896 61.2036C128.897 60.2341 129.913 59.2647 130.914 58.2796L132.415 56.8098C132.54 56.6847 132.65 56.5752 132.728 56.4345C132.806 56.2938 132.853 56.1374 132.869 55.9654C132.884 55.5901 132.759 55.2618 132.525 55.0272ZM132.634 54.9178C132.9 55.1836 133.056 55.5589 133.025 55.9341C133.009 56.1218 132.962 56.3094 132.884 56.4814C132.806 56.6534 132.665 56.7941 132.54 56.9192L131.07 58.4203C130.085 59.421 129.132 60.4374 128.146 61.4381C127.177 62.4389 126.208 63.4709 125.238 64.4716L122.345 67.5207L122.33 66.9421L128.866 72.665L132.102 75.5421L132.196 75.6359C132.228 75.6672 132.259 75.6984 132.306 75.7454C132.384 75.8235 132.478 75.9174 132.556 76.0112C132.634 76.105 132.712 76.1988 132.775 76.2926C132.837 76.3864 132.9 76.4959 132.947 76.6053C133.166 77.0432 133.259 77.5123 133.244 77.997C133.228 78.4817 133.103 78.9508 132.869 79.373L132.775 79.5293L132.665 79.6857C132.603 79.7952 132.509 79.8733 132.431 79.9672L132.368 80.0297L132.321 80.0766L132.227 80.1704L132.04 80.3581C131.79 80.6239 131.54 80.8741 131.274 81.1399C130.852 81.5621 130.242 81.7653 129.648 81.7184C129.35 81.6872 129.069 81.5933 128.803 81.437C128.678 81.3588 128.553 81.265 128.444 81.1712L128.397 81.1399L128.365 81.1086L128.318 81.0617L128.225 80.9679L127.458 80.2017C126.426 79.1853 125.41 78.169 124.378 77.137C122.33 75.0886 120.297 73.0246 118.264 70.9763H119.359L113.386 76.8399L110.399 79.7795L108.898 81.265C108.476 81.6715 107.835 81.7966 107.288 81.609C107.147 81.5621 107.022 81.4995 106.897 81.4213C106.834 81.3744 106.772 81.3431 106.725 81.2962L106.646 81.2181L106.6 81.1712C106.49 81.0617 106.318 80.8897 106.193 80.7177C105.661 80.0297 105.442 79.1228 105.583 78.2628C105.646 77.8406 105.802 77.4184 106.037 77.0588C106.099 76.965 106.162 76.8868 106.224 76.793C106.287 76.7148 106.365 76.621 106.428 76.5584L106.787 76.1832L109.649 73.1341L115.372 67.0359L115.387 67.7552L109.289 61.5789L106.24 58.4829L104.708 56.9349L104.614 56.841C104.567 56.7941 104.52 56.7472 104.489 56.7003C104.411 56.5909 104.348 56.4814 104.301 56.3563C104.207 56.1218 104.192 55.856 104.239 55.6058C104.285 55.3556 104.411 55.1211 104.583 54.9334C104.629 54.8865 104.661 54.8552 104.692 54.824L104.786 54.7301L105.02 54.5269C105.677 53.9952 106.553 53.7763 107.366 53.9014C107.772 53.964 108.179 54.1203 108.523 54.3392C108.601 54.4018 108.695 54.4487 108.773 54.5269C108.851 54.5894 108.945 54.6676 108.992 54.7301L109.383 55.1054L112.541 58.092C114.652 60.0778 116.732 62.0792 118.827 64.065L118.561 64.0807L121.861 60.6094L125.144 57.1381L126.77 55.3869L127.584 54.5112L127.99 54.0734C128.053 53.9952 128.131 53.9327 128.193 53.8545C128.256 53.7763 128.35 53.7138 128.428 53.6512C128.756 53.4011 129.147 53.2447 129.554 53.1978C129.96 53.1509 130.382 53.2134 130.758 53.3698C130.945 53.448 131.117 53.5574 131.289 53.6825C131.446 53.8232 131.586 53.964 131.727 54.1047L132.634 54.9178Z" fill="#6C1629"/>
</g>
</g>
<g id="Group_11">
<g id="Group_12">
<g id="Group_13">
<g id="Group_14">
<g id="Group_15" opacity="0.7">
<g id="Group_16" opacity="0.7">
<path id="Vector_7" opacity="0.7" d="M170.167 131.708C169.51 131.16 168.931 130.535 168.337 129.925C165.617 127.11 162.505 124.53 158.783 123.28C152.013 120.997 144.429 123.452 137.518 121.653C134.547 120.872 131.826 119.339 129.231 117.682C125.916 115.555 122.742 113.21 119.74 110.661C117.66 108.894 115.612 106.987 113.125 105.876C109.748 104.36 105.87 104.422 102.211 104.969C97.3015 105.704 92.204 107.487 89.1862 111.427C86.7001 114.664 85.8088 119.089 82.6815 121.732C80.039 123.968 76.3645 124.437 73.2059 125.828C70.7198 126.923 68.3274 129.206 67.9834 131.708H170.167Z" fill="#EC8582"/>
</g>
</g>
<g id="Group_17">
<g id="Group_18" opacity="0.7">
<g id="Group_19" opacity="0.7">
<path id="Vector_8" opacity="0.7" d="M140.607 125.971L140.356 124.736C140.419 125.158 140.482 125.564 140.544 125.971H140.607Z" fill="#EC8582"/>
</g>
</g>
</g>
<g id="Group_20" opacity="0.35">
<path id="Vector_9" opacity="0.35" d="M191.08 84.1575C190.424 84.5015 190.283 85.2989 190.471 85.7837C190.564 86.0338 190.721 86.1589 190.908 86.2371C191.096 86.3153 191.315 86.3466 191.534 86.2997C191.753 86.2684 191.925 86.112 191.987 85.9713C192.034 85.8462 192.097 85.7837 192.222 85.6586C192.347 85.5335 192.503 85.3458 192.644 85.08C192.785 84.7986 192.91 84.4702 192.957 83.9698L193.144 83.8135C193.676 83.9229 194.098 84.3451 194.348 84.8611C194.583 85.3615 194.646 85.9869 194.474 86.5811C194.38 86.8782 194.239 87.1753 194.02 87.4255C193.817 87.6757 193.52 87.8946 193.223 88.0353C192.613 88.3011 191.987 88.3167 191.424 88.2386C190.862 88.1447 190.299 87.8946 189.892 87.4724C189.689 87.2535 189.532 87.0033 189.407 86.7218C189.298 86.4404 189.267 86.1589 189.267 85.8931C189.298 85.3615 189.501 84.8767 189.814 84.5171C189.97 84.3295 190.158 84.1887 190.377 84.0793C190.596 83.9698 190.815 83.9229 191.034 83.9229L191.08 84.1575Z" fill="#4B4F54"/>
</g>
<g id="Group_21" opacity="0.35">
<path id="Vector_10" opacity="0.35" d="M43.833 116.822C43.3483 117.072 43.2388 117.666 43.3795 118.026C43.4577 118.213 43.5672 118.307 43.7079 118.354C43.8486 118.417 44.005 118.432 44.1614 118.401C44.3177 118.37 44.4584 118.26 44.4897 118.167C44.521 118.073 44.5679 118.026 44.6617 117.932C44.7555 117.838 44.865 117.697 44.9744 117.494C45.0683 117.291 45.1621 117.041 45.209 116.681L45.3497 116.572C45.7406 116.665 46.0533 116.963 46.2253 117.338C46.3973 117.713 46.4443 118.167 46.3192 118.604C46.2566 118.823 46.1472 119.042 45.9908 119.23C45.8344 119.417 45.6155 119.574 45.3966 119.668C44.9432 119.855 44.4897 119.871 44.0675 119.808C43.6454 119.746 43.2388 119.558 42.9417 119.245C42.7854 119.089 42.6759 118.901 42.5977 118.698C42.5195 118.495 42.4883 118.276 42.5039 118.088C42.5195 117.697 42.6759 117.338 42.9105 117.072C43.0355 116.947 43.1606 116.822 43.317 116.744C43.4734 116.665 43.6454 116.634 43.8017 116.619L43.833 116.822Z" fill="#4B4F54"/>
</g>
<g id="Group_22" opacity="0.35">
<path id="Vector_11" opacity="0.35" d="M115.166 17.2502C114.681 17.5004 114.572 18.0945 114.713 18.4542C114.791 18.6418 114.9 18.7356 115.041 18.7825C115.182 18.8451 115.338 18.8607 115.494 18.8295C115.651 18.7982 115.791 18.6887 115.838 18.5949C115.87 18.5011 115.917 18.4542 116.01 18.3604C116.104 18.2665 116.214 18.1258 116.323 17.9225C116.417 17.7193 116.511 17.4691 116.558 17.1095L116.698 17C117.089 17.0782 117.402 17.3909 117.574 17.7662C117.746 18.1415 117.793 18.5949 117.668 19.0327C117.605 19.2516 117.496 19.4705 117.339 19.6582C117.183 19.8458 116.964 20.0022 116.745 20.096C116.292 20.2836 115.838 20.2993 115.416 20.2367C114.994 20.1742 114.587 19.9865 114.29 19.6738C114.134 19.5175 114.025 19.3298 113.946 19.1265C113.868 18.9233 113.837 18.7044 113.837 18.5167C113.853 18.1258 114.009 17.7662 114.243 17.5004C114.369 17.3753 114.509 17.2502 114.65 17.172C114.806 17.0938 114.978 17.0625 115.135 17.0469L115.166 17.2502Z" fill="#4B4F54"/>
</g>
<g id="Group_23" opacity="0.35">
<path id="Vector_12" opacity="0.35" d="M103.814 90.4271C103.157 90.7711 103.016 91.5686 103.204 92.0533C103.298 92.3035 103.454 92.4286 103.642 92.5068C103.829 92.5849 104.048 92.6162 104.267 92.5693C104.486 92.538 104.658 92.3817 104.721 92.2409C104.768 92.1158 104.83 92.0533 104.955 91.9282C105.08 91.8031 105.237 91.6155 105.377 91.3497C105.518 91.0682 105.643 90.7399 105.69 90.2395L105.878 90.0831C106.409 90.1926 106.832 90.6148 107.082 91.1308C107.316 91.6311 107.379 92.2566 107.207 92.8508C107.113 93.1478 106.972 93.4449 106.753 93.6951C106.55 93.9453 106.253 94.1642 105.956 94.3049C105.346 94.5707 104.721 94.5864 104.158 94.5082C103.595 94.4144 103.032 94.1642 102.625 93.742C102.422 93.5231 102.266 93.2729 102.156 92.9915C102.047 92.71 102.016 92.4286 102.016 92.1628C102.047 91.6311 102.25 91.1464 102.563 90.7868C102.719 90.5991 102.907 90.4584 103.126 90.3489C103.345 90.2395 103.564 90.1926 103.783 90.1926L103.814 90.4271Z" fill="#4B4F54"/>
</g>
<g id="Group_24">
<path id="Vector_13" d="M62.1035 132.193L90.546 131.943L118.988 131.755L133.217 131.63L140.332 131.599H143.881L147.431 131.614L154.545 131.692C156.922 131.724 159.283 131.755 161.66 131.802C164.037 131.849 166.398 131.896 168.774 131.958L172.324 132.068L174.106 132.115L175.889 132.177V132.302L174.106 132.365L172.324 132.412L168.774 132.521C166.398 132.584 164.037 132.631 161.66 132.678C159.283 132.724 156.922 132.756 154.545 132.787L147.431 132.865L143.881 132.881H140.332L133.217 132.85L118.988 132.724L90.546 132.537L62.1035 132.287V132.193Z" fill="#6E1427"/>
</g>
<g id="Group_25">
<path id="Vector_14" d="M85.3001 93.8215C87.0532 93.8215 88.4743 92.4004 88.4743 90.6473C88.4743 88.8943 87.0532 87.4731 85.3001 87.4731C83.5471 87.4731 82.126 88.8943 82.126 90.6473C82.126 92.4004 83.5471 93.8215 85.3001 93.8215Z" fill="#DDC493"/>
</g>
</g>
</g>
</g>
</g>
<g id="Group_26" opacity="0.35">
<path id="Vector_15" opacity="0.35" d="M194.551 93.7893C193.894 94.1333 193.754 94.9308 193.941 95.4155C194.035 95.6657 194.191 95.7908 194.379 95.8689C194.567 95.9471 194.786 95.9784 195.005 95.9315C195.223 95.9002 195.395 95.7439 195.458 95.6031C195.505 95.478 195.567 95.4155 195.693 95.2904C195.818 95.1653 195.974 94.9777 196.115 94.7119C196.255 94.4304 196.381 94.102 196.427 93.6017L196.615 93.4453C197.147 93.5548 197.569 93.977 197.819 94.493C198.054 94.9933 198.116 95.6188 197.944 96.213C197.85 96.51 197.71 96.8071 197.491 97.0573C197.287 97.3075 196.99 97.5264 196.693 97.6671C196.083 97.9329 195.458 97.9486 194.895 97.8704C194.332 97.7766 193.769 97.5264 193.363 97.1042C193.159 96.8853 193.003 96.6351 192.878 96.3537C192.769 96.0722 192.737 95.7908 192.737 95.5249C192.769 94.9933 192.972 94.5086 193.285 94.1489C193.441 93.9613 193.629 93.8206 193.847 93.7111C194.066 93.6017 194.285 93.5548 194.504 93.5548L194.551 93.7893Z" fill="#4B4F54"/>
</g>
</g>
</g>
</svg>
