<svg width="246" height="236" viewBox="0 0 246 236" fill="none" xmlns="http://www.w3.org/2000/svg">
<path fill-rule="evenodd" clip-rule="evenodd" d="M113.517 225.5C86.0216 225.5 60.3683 215.748 40.7263 197.701C19.6166 178.304 8 151.672 8 122.706C8 63.134 57.9014 11.9795 119.216 8.67336C149.101 7.05061 177.206 16.8629 198.347 36.3056C219.456 55.6876 231.073 82.3189 231.073 111.286C231.073 170.857 181.187 222.012 119.857 225.318C117.733 225.439 115.62 225.5 113.517 225.5ZM125.524 19.6686C123.651 19.6686 121.761 19.7192 119.857 19.8203C64.5216 22.808 19.5073 68.9577 19.5073 122.706C19.5073 148.579 29.8436 172.313 48.6268 189.572C67.457 206.876 92.5169 215.612 119.216 214.171C174.551 211.183 219.581 165.034 219.581 111.286C219.581 85.4279 209.229 61.6781 190.446 44.4194C172.959 28.3435 150.085 19.6686 125.524 19.6686Z" fill="url(#paint0_radial_0_1)"/>
<path d="M106.946 235.021C90.0793 235.021 73.8001 231.808 58.566 225.45C58.1088 225.253 57.8966 224.728 58.0925 224.27C58.2721 223.811 58.8109 223.598 59.2681 223.778C74.2737 230.038 90.3079 233.218 106.946 233.218C109.346 233.218 111.796 233.152 114.212 233.005C135.096 231.841 155.833 225.581 174.185 214.879C174.61 214.616 175.165 214.764 175.41 215.206C175.671 215.633 175.524 216.19 175.083 216.436C156.486 227.285 135.471 233.644 114.327 234.824C111.861 234.955 109.395 235.021 106.946 235.021ZM239.384 132.869C239.307 132.869 239.231 132.858 239.155 132.836C238.665 132.705 238.388 132.197 238.518 131.721C241.735 120.118 243.351 108.171 243.351 96.1904C243.351 95.6987 243.76 95.289 244.266 95.289C244.756 95.289 245.164 95.6987 245.164 96.1904C245.164 108.335 243.515 120.446 240.265 132.213C240.151 132.606 239.792 132.869 239.384 132.869ZM1.28938 111.448C0.783204 111.448 0.375 111.039 0.375 110.531C0.391328 102.451 1.14242 94.322 2.59563 86.3734C2.69359 85.8818 3.15078 85.554 3.64062 85.6523C4.13047 85.7343 4.45703 86.2095 4.37539 86.7012C2.92219 94.5515 2.18742 102.566 2.18742 110.531C2.18742 111.039 1.77922 111.448 1.28938 111.448ZM11.927 64.2156C11.829 64.2156 11.7256 64.1993 11.6167 64.1665C11.1432 63.9862 10.9146 63.4618 11.0942 62.9865C15.3395 51.6781 18.5 40.499 29.1734 30.9462C30.643 31.9951 30.0225 30.4381 30.4307 30.7331C30.8389 31.0281 30.9205 31.5854 30.643 31.9951C21 41.999 16.9723 52.4648 12.776 63.6256C12.6454 63.9862 12.3025 64.2156 11.927 64.2156ZM202.356 34.0831C202.128 34.0831 201.883 34.0012 201.719 33.8209C178.876 10.5159 157.935 2.66704 124.593 2.66704C122.192 2.66704 119.743 2.74898 117.327 2.88009C112.249 3.1587 107.154 3.7487 102.141 4.60092C101.652 4.69926 101.194 4.35509 101.113 3.86342C101.015 3.37176 101.358 2.91287 101.847 2.83092C106.909 1.94592 112.085 1.35592 117.212 1.06092C119.678 0.929812 122.16 0.864258 124.593 0.864258C158.424 0.864258 179.823 8.89342 202.993 32.5426C203.352 32.9031 203.352 33.4768 202.993 33.8209C202.813 34.0012 202.585 34.0831 202.356 34.0831Z" fill="url(#paint1_radial_0_1)"/>
<defs>
<radialGradient id="paint0_radial_0_1" cx="0" cy="0" r="1" gradientUnits="userSpaceOnUse" gradientTransform="translate(119.536 121.34) scale(162.657 2685.85)">
<stop stop-color="#F6E2AA"/>
<stop offset="0.542347" stop-color="#FFD48F"/>
<stop offset="1" stop-color="#E59B45"/>
</radialGradient>
<radialGradient id="paint1_radial_0_1" cx="0" cy="0" r="1" gradientUnits="userSpaceOnUse" gradientTransform="translate(122.769 122.626) scale(178.492 2898.19)">
<stop stop-color="#F6E2AA"/>
<stop offset="0.542347" stop-color="#FFD48F"/>
<stop offset="1" stop-color="#E59B45"/>
</radialGradient>
</defs>
</svg>
