<svg width="24" height="24" viewBox="0 0 24 24" fill="none" xmlns="http://www.w3.org/2000/svg">
<path d="M20 15C20.5523 15 21 14.5523 21 14C21 13.4477 20.5523 13 20 13C19.4477 13 19 13.4477 19 14C19 14.5523 19.4477 15 20 15Z" fill="#808387"/>
<path fill-rule="evenodd" clip-rule="evenodd" d="M16.775 0.985642C18.4919 0.461027 20.2821 1.55172 20.6033 3.31804L20.9362 5.1492C22.1346 5.54249 23 6.6703 23 8.00024V10.7641C23.6137 11.3134 24 12.1117 24 13.0002V15.0002C24 15.8887 23.6137 16.687 23 17.2363V20.0002C23 21.6571 21.6569 23.0002 20 23.0002H4C2.34315 23.0002 1 21.6571 1 20.0002V8.00024C1 6.51333 2.08174 5.27908 3.50118 5.04152L16.775 0.985642ZM21 16.0002C21.5523 16.0002 22 15.5525 22 15.0002V13.0002C22 12.4479 21.5523 12.0002 21 12.0002H18C17.4477 12.0002 17 12.4479 17 13.0002V15.0002C17 15.5525 17.4477 16.0002 18 16.0002H21ZM21 18.0002V20.0002C21 20.5525 20.5523 21.0002 20 21.0002H4C3.44772 21.0002 3 20.5525 3 20.0002V8.00024C3 7.44796 3.44772 7.00024 4 7.00024H20C20.55 7.00024 20.9962 7.4442 21 7.99327V10.0002H18C16.3431 10.0002 15 11.3433 15 13.0002V15.0002C15 16.6571 16.3431 18.0002 18 18.0002H21ZM18.6954 3.60729L18.9412 5.00024H10L17.4232 2.82325C17.9965 2.65128 18.5914 3.01793 18.6954 3.60729Z" fill="#808387"/>
</svg>
