<svg width="16" height="16" viewBox="0 0 16 16" fill="none" xmlns="http://www.w3.org/2000/svg">
<g id="Check">
<path id="Vector" d="M7.06634 9.19998L5.61634 7.74998C5.49412 7.62776 5.34412 7.56665 5.16634 7.56665C4.98856 7.56665 4.83301 7.63331 4.69967 7.76665C4.57745 7.88887 4.51634 8.04442 4.51634 8.23331C4.51634 8.4222 4.57745 8.57776 4.69967 8.69998L6.59967 10.6C6.7219 10.7222 6.87745 10.7833 7.06634 10.7833C7.25523 10.7833 7.41079 10.7222 7.53301 10.6L11.3163 6.81665C11.4386 6.69442 11.4997 6.54442 11.4997 6.36665C11.4997 6.18887 11.433 6.03331 11.2997 5.89998C11.1775 5.77776 11.0219 5.71665 10.833 5.71665C10.6441 5.71665 10.4886 5.77776 10.3663 5.89998L7.06634 9.19998ZM7.99967 14.6666C7.07745 14.6666 6.21079 14.4915 5.39967 14.1413C4.58856 13.7915 3.88301 13.3166 3.28301 12.7166C2.68301 12.1166 2.20812 11.4111 1.85834 10.6C1.50812 9.78887 1.33301 8.9222 1.33301 7.99998C1.33301 7.07776 1.50812 6.21109 1.85834 5.39998C2.20812 4.58887 2.68301 3.88331 3.28301 3.28331C3.88301 2.68331 4.58856 2.2082 5.39967 1.85798C6.21079 1.5082 7.07745 1.33331 7.99967 1.33331C8.9219 1.33331 9.78856 1.5082 10.5997 1.85798C11.4108 2.2082 12.1163 2.68331 12.7163 3.28331C13.3163 3.88331 13.7912 4.58887 14.141 5.39998C14.4912 6.21109 14.6663 7.07776 14.6663 7.99998C14.6663 8.9222 14.4912 9.78887 14.141 10.6C13.7912 11.4111 13.3163 12.1166 12.7163 12.7166C12.1163 13.3166 11.4108 13.7915 10.5997 14.1413C9.78856 14.4915 8.9219 14.6666 7.99967 14.6666Z" fill="white"/>
</g>
</svg>
