<svg width="36" height="36" viewBox="0 0 36 36" fill="none" xmlns="http://www.w3.org/2000/svg">
<g id="Icon">
<path id="Vector" d="M19.2 9.82878L27.1698 23.6325C27.2914 23.843 27.3553 24.0817 27.3553 24.3248C27.3553 24.5678 27.2914 24.8066 27.1698 25.0171C27.0483 25.2276 26.8735 25.4024 26.6631 25.5239C26.4526 25.6454 26.2138 25.7094 25.9708 25.7094H10.0311C9.78802 25.7094 9.54925 25.6454 9.33877 25.5239C9.12829 25.4024 8.9535 25.2276 8.83198 25.0171C8.71046 24.8066 8.64648 24.5678 8.64648 24.3248C8.64649 24.0817 8.71046 23.843 8.83199 23.6325L16.8018 9.82878C17.3344 8.90571 18.6664 8.90571 19.2 9.82878ZM18.0009 11.4442L10.8304 23.8632H25.1714L18.0009 11.4442ZM18.0009 20.7691C18.2457 20.7691 18.4805 20.8663 18.6536 21.0395C18.8267 21.2126 18.924 21.4474 18.924 21.6922C18.924 21.937 18.8267 22.1718 18.6536 22.3449C18.4805 22.518 18.2457 22.6152 18.0009 22.6152C17.7561 22.6152 17.5213 22.518 17.3482 22.3449C17.1751 22.1718 17.0778 21.937 17.0778 21.6922C17.0778 21.4474 17.1751 21.2126 17.3482 21.0395C17.5213 20.8663 17.7561 20.7691 18.0009 20.7691ZM18.0009 14.3076C18.2457 14.3076 18.4805 14.4048 18.6536 14.5779C18.8267 14.751 18.924 14.9858 18.924 15.2306V18.9229C18.924 19.1678 18.8267 19.4025 18.6536 19.5757C18.4805 19.7488 18.2457 19.846 18.0009 19.846C17.7561 19.846 17.5213 19.7488 17.3482 19.5757C17.1751 19.4025 17.0778 19.1678 17.0778 18.9229V15.2306C17.0778 14.9858 17.1751 14.751 17.3482 14.5779C17.5213 14.4048 17.7561 14.3076 18.0009 14.3076Z" fill="#E7E7E7"/>
</g>
</svg>
